<svg id="Layer_1" data-name="Layer 1" xmlns="http://www.w3.org/2000/svg" viewBox="0 0 64 64"><defs><style>.cls-1{fill:#a8d2f0;}.cls-2{fill:#3897d3;}.cls-3{fill:none;stroke:#2a5081;stroke-linecap:round;stroke-linejoin:round;stroke-width:2px;}.cls-4{fill:#2a5081;}</style></defs><title>360, virtual, reality, view</title><path class="cls-1" d="M22.43,30.56S21,42.87,36.59,44.11s5.95,5.18,1.69,5-23.2,2.71-24.52-9.66S22.43,30.56,22.43,30.56Z"/><path class="cls-2" d="M40.8,26s2,3.12-.39,4.64,13.23-1.08,9.69-2.9S40.8,26,40.8,26Z"/><path class="cls-3" d="M14.21,41.71c0,4.33,8.14,7.84,18.18,7.84S50.58,46,50.58,41.71"/><path class="cls-3" d="M39,27.53V25.86c6.79.38,11.61,1.35,11.61,2.47,0,1.46-8.14,2.65-18.18,2.65S14.21,29.8,14.21,28.34c0-1.14,5-2.12,11.91-2.49v5"/><line class="cls-3" x1="14.21" y1="34.08" x2="14.21" y2="41.71"/><polyline class="cls-3" points="20.07 47.48 24.81 37.18 29.32 45.02 34.97 34.09 44.26 47.65"/><path class="cls-3" d="M45.26,36.52a2.42,2.42,0,1,1-2.42-2.42"/><circle class="cls-4" cx="14.21" cy="31.51" r="0.88"/><circle class="cls-3" cx="39.68" cy="20.1" r="2.57"/><path class="cls-3" d="M24.29,17.53a2.57,2.57,0,1,1-2.57,2.57"/><path class="cls-3" d="M26.87,15a2.57,2.57,0,0,1-2.57,2.57"/><circle class="cls-3" cx="31.95" cy="20.1" r="2.57"/><line class="cls-3" x1="29.67" y1="18.91" x2="31.95" y2="14.95"/><line class="cls-3" x1="21.74" y1="14.95" x2="26.85" y2="14.95"/><circle class="cls-4" cx="42.23" cy="15.33" r="0.88"/></svg>