<svg id="Layer_1" data-name="Layer 1" xmlns="http://www.w3.org/2000/svg" viewBox="0 0 64 64"><defs><style>.cls-1{fill:#9dcbf4;}.cls-2{fill:#389ad6;}.cls-3{fill:none;stroke:#2a5080;stroke-linecap:round;stroke-linejoin:round;stroke-width:2px;}.cls-4{fill:#2a5080;}</style></defs><title>achievement, flag, mountain, target</title><path class="cls-1" d="M21.47,25s-.81-4.19-5.56-1.44c0,0-3.38-10.56.4-11s5.84-1,6,1.44S22.62,23.77,21.47,25Z"/><path class="cls-2" d="M24.79,15.27a5.39,5.39,0,0,1-.26,2,11.79,11.79,0,0,0,.33,6.61A1.7,1.7,0,0,1,25,25.17c-.29.57-1.13.57-1.7.28a4.2,4.2,0,0,1-1.83-2.38c-1.14-3.12-.43-6.59.29-9.83,0-.15.09-.33.23-.38a.46.46,0,0,1,.29,0,3.88,3.88,0,0,1,2.19,1.56A2,2,0,0,1,24.79,15.27Z"/><path class="cls-1" d="M30.12,43.19q1-1,2.07-2c.44-.42,1.08-.86,1.61-.55.2.12.34.33.55.44.47.25,1-.12,1.39-.52.62-.71,1.11-1.25,2-.7.57.35,1,1.33,1.77,1.14s.86-1.11,1.51-1.34a1.36,1.36,0,0,1,1.31.45,7.71,7.71,0,0,1,1.31,1.86q2.24,4,4.45,7.95a3.2,3.2,0,0,1,.57,1.87,2.56,2.56,0,0,1-1.8,1.85,9.55,9.55,0,0,1-4.68.29,49.84,49.84,0,0,1-8.62-2.26,46.06,46.06,0,0,1-4.87-1.8c-.93-.43-2-1.11-2-2.13a2.9,2.9,0,0,1,.94-1.85Q28.85,44.49,30.12,43.19Z"/><path class="cls-1" d="M28.82,45q-.74-.76-1.51-1.48c-.32-.31-.79-.63-1.17-.4-.15.09-.25.24-.4.32-.34.19-.76-.09-1-.38-.45-.52-.81-.91-1.46-.51-.41.25-.71,1-1.29.83s-.63-.81-1.1-1a1,1,0,0,0-1,.33A5.61,5.61,0,0,0,19,44q-1.63,2.89-3.24,5.79a2.33,2.33,0,0,0-.42,1.36,1.86,1.86,0,0,0,1.31,1.35,7,7,0,0,0,3.41.21,36.31,36.31,0,0,0,6.28-1.64,33.54,33.54,0,0,0,3.55-1.31c.68-.31,1.43-.81,1.45-1.55a2.11,2.11,0,0,0-.69-1.35Q29.75,45.9,28.82,45Z"/><path class="cls-2" d="M30.17,42c-.11-.46-.45-.73-1.19-.61-1.93.32-2.74,2.7-3.37,4.25-.29.69-.54,1.4-.78,2.11s-.91,2.22.28,2.51,2.22-1.45,2.72-2.18a20,20,0,0,0,1.61-3A6.35,6.35,0,0,0,30.17,42Z"/><polyline class="cls-3" points="42.62 40.02 43.58 41.69 49.48 52.08"/><path class="cls-3" d="M26.46,48.35l3.85-6.66L34.16,35a3.23,3.23,0,0,1,4.67-1"/><path class="cls-3" d="M15.18,52,19,45.37l3.85-6.66a3.22,3.22,0,0,1,5.58,0l1.79,3.1"/><path class="cls-3" d="M15,52V12h7.47a2.9,2.9,0,0,0,2.78,3H32a3,3,0,0,1,3,3V24.4A1.6,1.6,0,0,1,33.4,26H22V24.5A1.5,1.5,0,0,0,20.5,23H18"/><circle class="cls-4" cx="41.02" cy="37.09" r="1"/></svg>