<svg id="Layer_1" data-name="Layer 1" xmlns="http://www.w3.org/2000/svg" viewBox="0 0 64 64"><defs><style>.cls-1{fill:#9dcbf4;}.cls-2{fill:#389ad6;}.cls-3{fill:none;stroke:#2a5081;stroke-linecap:round;stroke-linejoin:round;stroke-width:2px;}.cls-4{fill:#2a5081;}</style></defs><title>apple, software, user, interface</title><path class="cls-1" d="M27,14.91h0S23.16,38.07,42.32,44.82c0,0-11.83,7.75-19.92.25s-9-12.67-6.75-20.75S27,14.91,27,14.91Z"/><path class="cls-2" d="M24.57,28s-9,3.83-8.39,9.83,7.55,11.33,13.05,10S40.55,40.57,40.19,37c0,0-1.7,5.17-6.2,4.75s-1.8-1.33-1.8-1.33l-3.45,1.33s-4.83-2.5-5-5.92A35.3,35.3,0,0,1,24.57,28Z"/><path class="cls-3" d="M38.46,29.89a4.13,4.13,0,0,0,2.27,6.79,8.81,8.81,0,0,1-.51,1.25,6.49,6.49,0,0,1-3.3,3.19,4.69,4.69,0,0,1-4-.23.91.91,0,0,0-.9,0,5,5,0,0,1-5.18-.42,7,7,0,0,1-2.11-2.53c-.12-.23-.23-.47-.33-.7a10.82,10.82,0,0,1-.62-2.56,17.47,17.47,0,0,1-.16-2.83,6.5,6.5,0,0,1,1-3.36,4,4,0,0,1,2.91-1.8,11.57,11.57,0,0,1,3.35.69,7.23,7.23,0,0,0,3.18,0,12,12,0,0,1,3.3-.69"/><path class="cls-3" d="M32.35,24.15h-.14c0-.14,0-.27,0-.42a4.36,4.36,0,0,1,4.36-4.36h.14c0,.13,0,.27,0,.42"/><path class="cls-3" d="M32.35,24.15h-.14c0-.14,0-.27,0-.42a4.36,4.36,0,0,1,4.36-4.36h.14c0,.13,0,.27,0,.42"/><path class="cls-3" d="M40.16,15.62A17.27,17.27,0,1,0,45,19.39"/><circle class="cls-4" cx="42.74" cy="17.41" r="1"/></svg>