<svg id="Layer_1" data-name="Layer 1" xmlns="http://www.w3.org/2000/svg" viewBox="0 0 64 64"><defs><style>.cls-1{fill:#a8d2f0;}.cls-2{fill:#389ad6;}.cls-3,.cls-5{fill:none;stroke-linecap:round;stroke-linejoin:round;stroke-width:2px;}.cls-3{stroke:#295183;}.cls-4{fill:#295183;}.cls-5{stroke:#295181;}</style></defs><title>audio, sound, speaker, volume</title><path class="cls-1" d="M22.22,26s1,4.37,7.08,6.5,7.57,4.68,3.55,7.38c0,0-5.41-.44-8.43-1.75a8.14,8.14,0,0,0-5.94,0c-.22,0-2.82-.18-2.82-3.92s-.93-9.36,3.91-8.34S22.22,26,22.22,26Z"/><path class="cls-2" d="M15.67,32.51s5.54,1.39,7.83,0-.78,3,5.34,4.31,4.16,4.35.52,3.06S17.87,38,17.87,38,14.53,37.69,15.67,32.51Z"/><path class="cls-3" d="M28.84,24.75l6-1.9a1.9,1.9,0,0,1,2.29,1.86V39.29a1.9,1.9,0,0,1-2.29,1.86l-11.4-3"/><path class="cls-3" d="M23.5,38.13H17.57a1.9,1.9,0,0,1-1.9-1.9V27.77a1.9,1.9,0,0,1,1.9-1.9h4a2,2,0,0,1,2,2v6.8"/><circle class="cls-4" cx="26.18" cy="25.52" r="0.88"/><path class="cls-5" d="M40.63,29.79a3.12,3.12,0,0,1,0,4.42"/><path class="cls-5" d="M43.5,28.15a5.44,5.44,0,0,1,0,7.7"/><path class="cls-5" d="M46.32,26.57a7.67,7.67,0,0,1,0,10.85"/></svg>