<svg id="Layer_1" data-name="Layer 1" xmlns="http://www.w3.org/2000/svg" viewBox="0 0 64 64"><defs><style>.cls-1{fill:#295183;}.cls-2{fill:#fff;}.cls-3,.cls-5,.cls-7{fill:none;}.cls-3{stroke:#2a5081;}.cls-3,.cls-5,.cls-6,.cls-7{stroke-linecap:round;stroke-linejoin:round;stroke-width:2px;}.cls-4{fill:#a8d2f0;}.cls-5{stroke:#000;}.cls-6{fill:#389ad6;stroke:#389ad6;}.cls-7{stroke:#295183;}</style></defs><title>bar, chart, arrow, presentation, graph</title><circle class="cls-1" cx="22.43" cy="17.66" r="1"/><circle class="cls-1" cx="47.67" cy="20.66" r="1"/><path class="cls-2" d="M48,23.71c.78,3.94,0,25.56,0,25.56s1.53,4.13-20.69,3.6l-12-1.13"/><path class="cls-3" d="M48,24V47.85A4.36,4.36,0,0,1,43.48,52H17"/><path class="cls-4" d="M42,31.22v16.7a1,1,0,0,1-.35.75l0,0A1,1,0,0,1,40,48.15a.76.76,0,0,1,0-.22V31.22a1,1,0,0,1,.3-.72.88.88,0,0,1,.3-.2.94.94,0,0,1,.4-.09A1,1,0,0,1,42,31.22Z"/><path class="cls-4" d="M40,32.72V48.27A4.77,4.77,0,0,1,41,48V32.54A5.53,5.53,0,0,0,40,32.72Z"/><path class="cls-4" d="M42,30V48H39v1h1v-.73L41,48V32.54a6.09,6.09,0,0,0-1.28-.46c-.35,0-.72.63-.72.63V30Z"/><path class="cls-4" d="M35,33V48H32v1h1v-.62c.41-.06,1-.2,1-.2V34.68a5.68,5.68,0,0,0-1.2-.4c-.35,0-.8.55-.8.55V33Z"/><path class="cls-4" d="M28,36V48H25v1h1v-.47c.42-.05,1-.16,1-.16V37.74a6.54,6.54,0,0,0-1.19-.31,1.66,1.66,0,0,0-.81.43V36Z"/><path class="cls-4" d="M21,40.66v8.09s-.11.82-.56.82h0c-.45,0-1.44-.82-1.44-.82V42.07s.61-.12.59-.18a.63.63,0,0,0-.6-.46h-.12a3,3,0,0,0-.86.62V40.66c0-.47.37-1.2.84-1.2l1.26-.14C20.57,39.32,21,40.19,21,40.66Z"/><polyline class="cls-3" points="42 49 42 49 41.97 49 40.71 49 40.35 49 39.09 49 35.38 49 28.44 49 22 49"/><path class="cls-3" d="M38,44V32.08a2,2,0,0,1,2-2h0a2,2,0,0,1,2,2V49"/><path class="cls-3" d="M31,47V35a2,2,0,0,1,2-2h0a2,2,0,0,1,2,2V49"/><path class="cls-3" d="M24,47V38a2,2,0,0,1,2-2h0a2,2,0,0,1,2,2V49"/><path class="cls-3" d="M18,45V40.9a2,2,0,0,1,2-2h0a2,2,0,0,1,2,2V49"/><path class="cls-5" d="M25.56,23.27c-.79.37-1.6.77-2.38,1.22A22.32,22.32,0,0,1,25.56,23.27Z"/><path class="cls-6" d="M38,18.64a17.28,17.28,0,0,1,4.24.75l-.89.93L39.8,21.94l-.84.89-1.25,1.33-2.35,2.49L35,23.26l-.29,0L36.31,21l1-1.5Z"/><path class="cls-5" d="M23.11,24.53q-.72.42-1.36.88v0C22.19,25.08,22.65,24.8,23.11,24.53Z"/><path class="cls-5" d="M25.56,23.27c-.79.37-1.6.77-2.38,1.22A22.32,22.32,0,0,1,25.56,23.27Z"/><path class="cls-5" d="M25.56,23.27c-.79.37-1.6.77-2.38,1.22A22.32,22.32,0,0,1,25.56,23.27Z"/><path class="cls-7" d="M16.59,34.84v-.06a.65.65,0,0,1,0-.1l0-.16a.6.6,0,0,0,0-.11s0-.08,0-.12a18.31,18.31,0,0,1,.2-7.5c0-.18.09-.35.14-.52a14.54,14.54,0,0,1,3.24-5.92"/><path class="cls-4" d="M40.07,15.64l-.74,1.05-1.27,1.83-.7,1-1,1.5-2,2.81-.83-3.3A44,44,0,0,0,26,23.08l-.44.19c-.79.37-1.6.77-2.38,1.22l-.07,0c-.46.27-.92.55-1.36.84a13.52,13.52,0,0,0-4.3,4.27,7.38,7.38,0,0,0-.54,1.14,3.26,3.26,0,0,0-.13.38,6,6,0,0,0-.24.95c-.74-4.88,3.83-11,11.14-14.35A22,22,0,0,1,40.07,15.64Z"/><path class="cls-6" d="M33.51,20.53l.71,2.81a44.46,44.46,0,0,0-7,1.34l-.46.13c-.84.25-1.69.53-2.54.85l-.07,0c-.49.19-1,.4-1.47.63a13.58,13.58,0,0,0-4.88,3.59,7.52,7.52,0,0,0-.7,1,2.25,2.25,0,0,0-.18.36,5.13,5.13,0,0,0-.38.89.62.62,0,0,1,0-.11,6,6,0,0,1,.24-.95,3.26,3.26,0,0,1,.13-.38,7.38,7.38,0,0,1,.54-1.14,13.52,13.52,0,0,1,4.3-4.27c.44-.3.9-.58,1.36-.84l.07,0c.79-.45,1.59-.85,2.38-1.22l.44-.19A44,44,0,0,1,33.51,20.53Z"/><path class="cls-7" d="M32,14.38l-.83-3.3,9,4.52,0,0-.74,1.05-1.27,1.83-.08.12-.62.89-1,1.5-1.58,2.27-.38.54-.12-.49-.56-2.2-.15-.61A44,44,0,0,0,26,23.08l-.44.19c-.79.37-1.6.77-2.38,1.22l-.07,0c-.46.27-.92.55-1.36.84a13.52,13.52,0,0,0-4.3,4.27,7.38,7.38,0,0,0-.54,1.14,3.27,3.27,0,0,0-.13.38,6,6,0,0,0-.24.95.63.63,0,0,0,0,.11h0a6,6,0,0,0-.09,1c0,.08,0,.15,0,.23a7.38,7.38,0,0,0,.13,1.25.58.58,0,0,0,0,.1v.08"/><circle class="cls-1" cx="17.62" cy="48.94" r="1"/></svg>