<svg id="Layer_1" data-name="Layer 1" xmlns="http://www.w3.org/2000/svg" viewBox="0 0 64 64"><defs><style>.cls-1{fill:#9ac8f1;}.cls-2{fill:#389ad6;}.cls-3{fill:none;stroke:#295183;stroke-linecap:round;stroke-linejoin:round;stroke-width:2px;}.cls-4{fill:#295183;}</style></defs><title>bell, notification, announcement, ring</title><path class="cls-1" d="M30.28,14.53S32,15,32,21.71c0,2.17,0,3.63-.09,4.62a4.82,4.82,0,0,1-1,2.7c-.89,1.15-2.23,4.23-1.53,12.15,1,11.42-6,7.4-6,7.4s-1.39.57.84-4c1.72-3.49,1.51-8.09,1.33-10a4.88,4.88,0,0,1,.19-1.88l.61-2a4.91,4.91,0,0,1,1.86-2.59h0a4.91,4.91,0,0,0,2.07-4Z"/><path class="cls-2" d="M26.61,40.75s.75-.92,1.19.25a4.47,4.47,0,0,1,0,2.26,7.23,7.23,0,0,1-.67,2.1,1.42,1.42,0,0,1-1.57.85c-.31-.05-.5-.24-.38-.56S26.61,40.75,26.61,40.75Z"/><path class="cls-2" d="M30.28,26.49c.09-.09.42.41.44.46a1.73,1.73,0,0,1-.17,1.21,6.81,6.81,0,0,1-1.41,2.14,4.15,4.15,0,0,0-.93,2.27c-.07.58-.24,1.5-1,1.26-.43-.13-.6-.59-.73-1C25.77,30.84,30.26,26.5,30.28,26.49Z"/><path class="cls-3" d="M33.73,23.87V14.17a1.82,1.82,0,0,0-1.9-1.87A1.75,1.75,0,0,0,30.25,14V25.59a3,3,0,0,1-1.55,2.58,6,6,0,0,0-2.93,5.14V40a10.66,10.66,0,0,1-2.84,7.26l0,0a1.1,1.1,0,0,0,.81,1.84H40.3a1.09,1.09,0,0,0,.78-1.84A10.65,10.65,0,0,1,38.21,40V33.31a6,6,0,0,0-2.93-5.14,3.53,3.53,0,0,0-.61-.29c-.25-.09-.5-.17-.76-.23a9,9,0,0,0-1.05-.21"/><circle class="cls-4" cx="32" cy="52.7" r="1"/></svg>