<svg id="Layer_1" data-name="Layer 1" xmlns="http://www.w3.org/2000/svg" viewBox="0 0 64 64"><defs><style>.cls-1{fill:#a8d2f0;}.cls-2{fill:#3897d3;}.cls-3{fill:none;stroke:#295181;stroke-linecap:round;stroke-linejoin:round;stroke-width:2px;}</style></defs><title>beverage, drink, tea, mug, hot</title><path class="cls-1" d="M32.91,45.56c-1.07-1.35-2.86-1.39-4.22-2.28-1.61-1.06-2.18-3.17-2.21-5.1a14,14,0,0,1,2-7.35c-2.24-.66-4.86-.85-6.72.56a6.78,6.78,0,0,0-2.12,3.21,26.76,26.76,0,0,0-1,7.42,28,28,0,0,0-.06,4.2,7.71,7.71,0,0,0,1.38,3.9,8.68,8.68,0,0,0,6,2.93A17.42,17.42,0,0,0,30.79,53a4.13,4.13,0,0,0,2.1-.8,3.51,3.51,0,0,0,1-2.48A6.3,6.3,0,0,0,32.91,45.56Zm-8,2.77c-3.91-.63,0-9.67,0-9.67l1.16.75C26.26,39.54,28.82,48.95,24.9,48.33Z"/><path class="cls-2" d="M33,22.61c.4.07.66,2.14.67,2.43A3.25,3.25,0,0,1,31,28.16a15,15,0,0,1-6.3-.08c-1-.18-2.6-1.34-3.4-.35S20.07,30.6,19.75,32a30.85,30.85,0,0,0-.67,4.29Q19,37.48,19,38.69A14,14,0,0,1,19,41.22S18,46,19.29,46.85s5.09,3.61,4.77,1.37-2.46-1.37-2-6.56,1.6-7.38.85-8.28-1.06-4.47,4.56-2.91,11.19-2,11.25-3.56S34.71,22.9,33,22.61Z"/><line class="cls-3" x1="18.53" y1="26.5" x2="18.53" y2="40.26"/><line class="cls-3" x1="38.53" y1="48.83" x2="38.53" y2="26.5"/><path class="cls-3" d="M18.52,26.49c0-2.39,4.48-4.33,10-4.33s10,1.94,10,4.33-4.48,4.33-10,4.33a19.73,19.73,0,0,1-6-.88l0,8.21,1.9.58a3.09,3.09,0,0,1,2.1,2.74v6a1.5,1.5,0,0,1-2.1,1.46l-3.8-1.16A3.09,3.09,0,0,1,18.53,45V39"/><path class="cls-3" d="M19.52,50.71a10.92,10.92,0,0,0,5.18,2.11,22.27,22.27,0,0,0,7.64,0c3.63-.65,6.18-2.2,6.18-4"/><path class="cls-3" d="M41.66,41.69h0a3.87,3.87,0,0,0,3.86-3.86V35.69a3.87,3.87,0,0,0-3.86-3.86H38.53"/><path class="cls-3" d="M25.43,10.82a1.79,1.79,0,1,1,0,3.58,2.5,2.5,0,0,0,0,5"/><path class="cls-3" d="M32.78,10.82a1.79,1.79,0,1,1,0,3.58,2.5,2.5,0,0,0,0,5"/></svg>