<svg id="Layer_1" data-name="Layer 1" xmlns="http://www.w3.org/2000/svg" viewBox="0 0 64 64"><defs><style>.cls-1{fill:#3897d3;}.cls-2{fill:#9ac8f1;}.cls-3{fill:none;stroke:#2a5080;stroke-linecap:round;stroke-linejoin:round;stroke-width:2px;}.cls-4{fill:#2a5080;}</style></defs><title>big, ben, london, world, monument</title><path class="cls-1" d="M31.26,40.61a4.19,4.19,0,0,0-.19,2c.3,2.17.52,4.36.9,6.52a17.84,17.84,0,0,0,1.15,4.69,4.87,4.87,0,0,0,1.29,1.65c.54.48.72.82.3,1.5-1,1.62-7.5-.5-7.5-.5l.27-20a1.75,1.75,0,0,1,1.19-.38h.11a4,4,0,0,0,1,.75,3.86,3.86,0,0,0,3.17.24c2.6-.89,4.87,1.26,1.43,1.38A3.27,3.27,0,0,0,31.26,40.61Z"/><path class="cls-2" d="M30.41,12.19s1.24-.26,1.28,2.31-.28,2.25-.28,2.25L30.12,20v3.06s-3.78,7.56,0,10.44,0,2.63,0,2.63L24.91,36V23.06l2.58-.56.4-3.75Z"/><path class="cls-3" d="M36.7,42V56.24a1.27,1.27,0,0,1-1.26,1.26h-6.7a1.27,1.27,0,0,1-1.26-1.26V36.5"/><line class="cls-3" x1="27.88" y1="36.5" x2="36.3" y2="36.5"/><path class="cls-3" d="M31.48,22.5h6a1.63,1.63,0,0,1,1.62,1.63V34.88a1.63,1.63,0,0,1-1.62,1.63H26.72a1.63,1.63,0,0,1-1.62-1.62V24.13a1.63,1.63,0,0,1,1.62-1.62h.76V19.84"/><circle class="cls-3" cx="32.09" cy="29.5" r="4"/><line class="cls-3" x1="32.09" y1="28.59" x2="32.09" y2="30.41"/><line class="cls-3" x1="36.7" y1="22.5" x2="36.7" y2="19.84"/><polyline class="cls-3" points="31.46 19.84 36.7 19.84 34.72 16.33 29.47 16.33 27.48 19.84"/><line class="cls-3" x1="34.72" y1="13.89" x2="34.72" y2="16.33"/><line class="cls-3" x1="29.47" y1="16.33" x2="29.47" y2="13.89"/><polyline class="cls-3" points="29.47 13.89 32.09 10.5 34.72 13.89"/><circle class="cls-4" cx="32.09" cy="7.5" r="1"/><circle class="cls-4" cx="36.7" cy="39.5" r="1"/><path class="cls-4" d="M29.8,36.87a3.76,3.76,0,0,1-1-.74A1.67,1.67,0,0,1,29.8,36.87Z"/><path class="cls-4" d="M28.78,36.13h-.11l0-.12A1.21,1.21,0,0,0,28.78,36.13Z"/></svg>