<svg id="Layer_1" data-name="Layer 1" xmlns="http://www.w3.org/2000/svg" viewBox="0 0 64 64"><defs><style>.cls-1{fill:#9dcbf4;}.cls-2,.cls-5,.cls-7,.cls-8{fill:none;stroke-linecap:round;stroke-linejoin:round;stroke-width:2px;}.cls-2{stroke:#2a5081;}.cls-3{fill:#a8d2f0;}.cls-4{fill:#389ad6;}.cls-5{stroke:#2a5080;}.cls-6{fill:#2a5080;}.cls-7{stroke:#295183;}.cls-8{stroke:#9ac8f1;}</style></defs><title>binoculars, people, search, find, navigate, customer</title><path class="cls-1" d="M20.16,26.68s4.24-1.5,4.17,10c0,0-.24,5.5-3.24,5.42Z"/><path class="cls-1" d="M24.91,8.68c-.61,0,.11,3.26.14,3.56A12.87,12.87,0,0,1,24.92,15c-.25,2.34,0,4.71-.42,7-.34,1.67-1.22,3.6-3.24,3.4-4.4-.43.4-12.76,1-12.56s0-4.17,0-4.17Z"/><line class="cls-2" x1="19.66" y1="16.71" x2="15.87" y2="25.88"/><path class="cls-2" d="M21.76,26.55a2.09,2.09,0,0,1-2.09-2.09V16.71"/><line class="cls-2" x1="24.66" y1="13.88" x2="26.04" y2="13.88"/><path class="cls-2" d="M24.5,7.88a3,3,0,1,0,0,6"/><line class="cls-2" x1="20.35" y1="36.25" x2="19.66" y2="24.52"/><path class="cls-1" d="M40.66,34.3a4.6,4.6,0,0,0-.84-.08,4.69,4.69,0,0,0-2.75.88l-.51-8.41S40.17,25.41,40.66,34.3Z"/><path class="cls-1" d="M41.3,8.68c-.61,0,.11,3.26.14,3.56A12.87,12.87,0,0,1,41.31,15c-.25,2.34,0,4.71-.42,7-.34,1.67-1.22,3.6-3.24,3.4-4.4-.43.4-12.76,1-12.56s0-4.17,0-4.17Z"/><path class="cls-2" d="M41.05,13.88h1.38a3,3,0,0,1,3,3v7.61"/><path class="cls-2" d="M40.89,7.88a3,3,0,1,0,0,6"/><line class="cls-2" x1="45.12" y1="15.62" x2="49.04" y2="25.88"/><line class="cls-2" x1="45.39" y1="24.45" x2="44.95" y2="31.79"/><path class="cls-1" d="M28.16,30.3s4.24-2.44,4.16,9.06c0,0-.68-1.22-3.33-1.81Z"/><path class="cls-1" d="M32.91,12.3c-.61,0,.11,3.26.14,3.56a12.87,12.87,0,0,1-.13,2.75c-.25,2.34,0,4.71-.42,7-.34,1.67-1.22,3.6-3.24,3.4-4.4-.43.4-12.76,1-12.56s0-4.17,0-4.17Z"/><line class="cls-2" x1="27.66" y1="20.33" x2="23.87" y2="29.49"/><path class="cls-2" d="M32.66,17.49H34a3,3,0,0,1,3,3v7.61a2.09,2.09,0,0,1-2.09,2.09H29.76a2.09,2.09,0,0,1-2.09-2.09V20.33"/><path class="cls-2" d="M32.5,11.49a3,3,0,0,0,0,6"/><line class="cls-2" x1="36.73" y1="19.23" x2="40.6" y2="29.36"/><line class="cls-2" x1="28.08" y1="35.19" x2="27.66" y2="28.13"/><line class="cls-2" x1="37" y1="28.07" x2="36.48" y2="35.52"/><path class="cls-3" d="M45.68,55.09a7.73,7.73,0,0,1-1.45.2,7.83,7.83,0,0,1-8.06-7.42,7.74,7.74,0,0,1,7.74-8.05h0a1.1,1.1,0,0,1,.75,1.87A7.48,7.48,0,0,0,46,53.06,1.11,1.11,0,0,1,45.68,55.09Z"/><path class="cls-3" d="M21.09,38.62c-4.83.3-8.75,3.94-8.69,8.8a8.69,8.69,0,0,0,10.9,8.3,1.78,1.78,0,0,0,.75-3,8.4,8.4,0,0,1-1.17-11.14,1.81,1.81,0,0,0-1-2.86A2.87,2.87,0,0,0,21.09,38.62Z"/><path class="cls-4" d="M31.1,42.93c-.27-.45-1.26-1.59-.75-2.1.31-.32,1.48-.22,1.92-.23s1.91-.15,2.35.21.2.74,0,1.07a4.57,4.57,0,0,0-.43,1.74c0,.51-.25,1-.33,1.54a2.25,2.25,0,0,0,0,.86c.05.23.18.47,0,.69-.33.45-2.34.88-2.56.17s.15-1.27.19-1.89a4.15,4.15,0,0,0,0-.9A3.16,3.16,0,0,0,31.1,42.93Z"/><path class="cls-5" d="M51.45,43.4a8.57,8.57,0,0,1-7.5,12.72,8.54,8.54,0,0,1-3.53-.76A8.61,8.61,0,0,1,38.25,54a9.3,9.3,0,0,1-1.43-1.64c-.16-.25-.32-.51-.46-.78a8.59,8.59,0,0,1,.51-8.82,2,2,0,0,1,.17-.23A8.55,8.55,0,0,1,43.95,39c.22,0,.43,0,.64,0a7.36,7.36,0,0,1,1.88.36,5.93,5.93,0,0,1,.71.24"/><path class="cls-5" d="M28.22,52.31a8.6,8.6,0,0,0-.05-9.6A8.56,8.56,0,0,0,21.09,39c-.22,0-.43,0-.64,0a8.57,8.57,0,1,0,3,16.79"/><path class="cls-5" d="M43.19,35.61a4.72,4.72,0,0,0-2.53-1.31,4.6,4.6,0,0,0-.84-.08A4.77,4.77,0,0,0,35.06,39H30a4.14,4.14,0,0,0-.09-.87,4.78,4.78,0,0,0-4.67-3.89A4.77,4.77,0,0,0,21.52,36a4.72,4.72,0,0,0-1.07,3v0c.21,0,.42,0,.64,0"/><circle class="cls-6" cx="49.52" cy="41.01" r="1"/><path class="cls-5" d="M19.3,42.78a3.92,3.92,0,0,0-3,3"/><path class="cls-5" d="M42.08,42.86a3.92,3.92,0,0,0-2.7,2.83"/><path class="cls-5" d="M28.08,52.49a6.57,6.57,0,0,1,8.88,0"/><polygon class="cls-7" points="54.28 13.68 54.7 16.12 53.85 15.67 52.52 14.97 50.33 16.12 50.74 13.68 48.98 11.96 51.42 11.61 51.52 11.43 52.52 9.39 53.6 11.61 56.05 11.96 54.28 13.68"/><polygon class="cls-7" points="13.47 35.81 13.66 36.96 11.48 35.81 9.29 36.96 9.71 34.53 7.95 32.81 9.07 32.64 10.39 32.45 11.48 30.24 12.57 32.45 15.02 32.81 13.26 34.53 13.47 35.81"/><path class="cls-7" d="M18.69,19.07c-7,4.66-11,10-9.61,13.57l1.32-.19,1.09-2.21,1.09,2.21,2.44.36-1.76,1.72.22,1.28a22.66,22.66,0,0,0,8,.17"/><path class="cls-7" d="M45.8,10.12a12.45,12.45,0,0,1,5.72,1.31l-.09.18L49,12l1.77,1.72-.42,2.44L52.52,15l1.34.7c-.44,4.93-8,11.76-18.68,16.37a57.34,57.34,0,0,1-7.76,2.73"/><line class="cls-8" x1="14.73" y1="10.54" x2="14.73" y2="14.05"/><line class="cls-8" x1="12.97" y1="12.3" x2="16.49" y2="12.3"/><line class="cls-8" x1="52.1" y1="32.24" x2="52.1" y2="35.76"/><line class="cls-8" x1="50.34" y1="34" x2="53.86" y2="34"/></svg>