<svg id="Layer_1" data-name="Layer 1" xmlns="http://www.w3.org/2000/svg" viewBox="0 0 64 64"><defs><style>.cls-1{fill:#389ad6;}.cls-2{fill:#a8d2f0;}.cls-3,.cls-5{fill:none;stroke-linecap:round;stroke-linejoin:round;stroke-width:2px;}.cls-3{stroke:#295183;}.cls-4{fill:#295183;}.cls-5{stroke:#2a5081;}.cls-6{fill:#2a5081;}</style></defs><title>bitcoin, brain, money, finance, thought</title><path class="cls-1" d="M27.62,24.86a.72.72,0,0,1-.17.32.84.84,0,0,1-.55.24,1.87,1.87,0,0,1-1.37-.61c-.37-.36-.68-.78-1.08-1.11-1.35-1.09-3.44-.79-4.83-1.83a4.32,4.32,0,0,1-1.4-2.08,5.33,5.33,0,0,1-.22-3c.19-.78.79-2.12,1.82-1.67a2.23,2.23,0,0,1,.85.79,11.38,11.38,0,0,1,1.65,3.27,1.64,1.64,0,0,0,.26.58,1.53,1.53,0,0,0,.45.33l3.59,2a1.34,1.34,0,0,1,.36.25,1.24,1.24,0,0,1,.22.39,8.13,8.13,0,0,1,.4,1.37A1.74,1.74,0,0,1,27.62,24.86Z"/><path class="cls-2" d="M19.67,14.34s.89-1.25,2.08,1.87a2.94,2.94,0,0,0,4,1.88s.72.11,0,.93S19.57,22.34,19.67,14.34Z"/><path class="cls-2" d="M14.47,25.69a.34.34,0,0,1,.13-.09c.37-.15.84.3,1,.57a9.5,9.5,0,0,1,.49,1.32c.46,1.11,1.61,1.9,1.81,3.08.16.94-.33,1.9-.14,2.84a2.36,2.36,0,0,0,1.88,1.75,3.32,3.32,0,0,0,2.56-.69,5.25,5.25,0,0,1,1.15-.82c1.1-.44,1.54.62,1,1.46a6.34,6.34,0,0,1-2,2.13A4.38,4.38,0,0,1,19.1,38a5.21,5.21,0,0,1-2.52-1.63,3.14,3.14,0,0,1-.65-.9,6.68,6.68,0,0,1-.05-2.62,9.73,9.73,0,0,0-1-3.54,6.5,6.5,0,0,1-.59-2.61A1.77,1.77,0,0,1,14.47,25.69Z"/><path class="cls-2" d="M25.34,11.15A.77.77,0,0,0,26,12.28c1.06.17,1.16-1.67,1.79-1.71s1.68-.79.6-1S25.39,10.56,25.34,11.15Z"/><path class="cls-2" d="M34.48,18.3a.8.8,0,0,1-.19-.19c-.09-.13-.13-.29-.22-.42-.51-.76-1,.87-1,1.21a3.36,3.36,0,0,0,1,2.34c.52.58.37.86.39,1.64,0,.45.24,1,.69,1a.8.8,0,0,0,.69-.3,1.87,1.87,0,0,0,.35-.7,11.76,11.76,0,0,0,.31-3.68.25.25,0,0,0-.23-.29l-1.16-.35A2,2,0,0,1,34.48,18.3Z"/><path class="cls-1" d="M38,29.82s-2.75,1.84-1.44,5.92,3.49,1.79,3.49,1.79A9.25,9.25,0,0,1,38,29.82Z"/><path class="cls-3" d="M23.18,37.33A5,5,0,0,0,25.7,33c0-.13,0-.25,0-.37a5,5,0,0,0-3.89-4.51"/><path class="cls-3" d="M19.31,17.33a5.2,5.2,0,0,1-.38-1.94A5.09,5.09,0,0,1,24,10.3a5,5,0,0,1,1,.11,3.72,3.72,0,0,1,6.69,2.23V31.71"/><path class="cls-3" d="M19.31,17.33a5.09,5.09,0,0,0,3.83,3.08,4.93,4.93,0,0,0,.88.08,5.09,5.09,0,0,0,5-4.27"/><path class="cls-3" d="M24.13,20.49a3.72,3.72,0,0,1,3.72,3.72"/><path class="cls-3" d="M21.8,28.11a5,5,0,0,1,3.89,4.5c0,.12,0,.25,0,.38a5,5,0,0,1-9.89,1.07,5.11,5.11,0,0,1,0-2.31,1.46,1.46,0,0,0-.52-1.53,4.16,4.16,0,0,1-1.69-3.35,4,4,0,0,1,.76-2.33,4.75,4.75,0,0,1,.86-.9,5.53,5.53,0,0,1,.52-.37c.15-.1.54-.16.48-.4a7.3,7.3,0,0,1-.45-2.17A3.38,3.38,0,0,1,16.39,19"/><path class="cls-3" d="M21.8,28.11l-.09,0"/><path class="cls-3" d="M40.32,37.33A5,5,0,0,1,37.8,33c0-.13,0-.25,0-.37a5,5,0,0,1,3.89-4.51"/><path class="cls-3" d="M44.19,17.33a5.2,5.2,0,0,0,.38-1.94,5.09,5.09,0,0,0-5.09-5.09,5,5,0,0,0-1,.11,3.71,3.71,0,0,0-4-1.35"/><path class="cls-3" d="M44.18,17.33a5.09,5.09,0,0,1-3.83,3.08,4.93,4.93,0,0,1-.88.08,5.09,5.09,0,0,1-4.71-3.15"/><path class="cls-3" d="M39.37,20.49a3.72,3.72,0,0,0-3.72,3.72"/><path class="cls-3" d="M41.7,28.11a5,5,0,0,0-3.89,4.5c0,.12,0,.25,0,.38a5,5,0,0,0,9.89,1.07,5.11,5.11,0,0,0,0-2.31,1.46,1.46,0,0,1,.52-1.53,4.16,4.16,0,0,0,1.69-3.35,4,4,0,0,0-.76-2.33,4.75,4.75,0,0,0-.86-.9,5.53,5.53,0,0,0-.52-.37c-.15-.1-.54-.16-.48-.4a7.3,7.3,0,0,0,.45-2.17,3.72,3.72,0,0,0-3.3-3.35h-.18"/><path class="cls-3" d="M41.7,28.11l.09,0"/><circle class="cls-4" cx="44.57" cy="27.6" r="1"/><path class="cls-2" d="M38.15,43.74a11.09,11.09,0,0,1-1.58,1.6l-.05,0h0a8.76,8.76,0,0,1-9.31,1.48h0a5.94,5.94,0,0,1-2.87-2.8h0a2.23,2.23,0,0,1-.1-.23v0h0a5.31,5.31,0,0,1-.38-1.67c-.36-5.68,5.09-10,5.43-10.3-.3.48-.58.95-.82,1.39v0C25,39.5,28.42,42,31,44l.12.09h0a3.05,3.05,0,0,0,.88.44h0a6.06,6.06,0,0,0,3.54-.18l.05,0a12.82,12.82,0,0,0,1.83-.72A2.32,2.32,0,0,1,38.15,43.74Z"/><path class="cls-5" d="M38.16,35a6,6,0,0,1,.55.86c.12.21.22.42.32.64a7.46,7.46,0,0,1,.6,2.27.43.43,0,0,1,0,.11.43.43,0,0,0,0,0v0c0,.24,0,.49,0,.73a8.26,8.26,0,0,1-.44,2.64l-.16.42h0l-.06.15L39,43a7.78,7.78,0,0,1-1.53,2.22,1.8,1.8,0,0,1-.21.19l-.07.07a1.57,1.57,0,0,1-.24.21,6.81,6.81,0,0,1-1.11.8,7.29,7.29,0,0,1-1.76.77l0,0h0a6.86,6.86,0,0,1-1,.23,7.88,7.88,0,0,1-1.2.09,8.36,8.36,0,0,1-2.88-.54h0a8,8,0,0,1-4.36-4.13v0a8,8,0,0,1-.69-3.26,7.93,7.93,0,0,1,.62-3.09,7.6,7.6,0,0,1,1-1.74c.09-.12.18-.24.28-.35s0,0,0,0a7.17,7.17,0,0,1,1.09-1,5,5,0,0,1,.46-.34l.21-.13c.19-.13.39-.24.59-.35h0A7.14,7.14,0,0,1,29.59,32h.05a7.87,7.87,0,0,1,4.16,0"/><path class="cls-5" d="M29.74,36.07h2.34a1.45,1.45,0,0,1,.5.09,1.51,1.51,0,0,1,1,1.2,1.11,1.11,0,0,1,0,.47,1.51,1.51,0,0,1-1,1.2,1.45,1.45,0,0,1-.5.09h-1.5"/><path class="cls-5" d="M29.74,43.1h2.5a1.67,1.67,0,0,0,.35,0,1.9,1.9,0,0,0,1-.5l.06-.05.08-.08a1.72,1.72,0,0,0,.21-.28v0h0L34,42a2.07,2.07,0,0,0,.22-.92,1.94,1.94,0,0,0-.28-1l0,0h0a1.8,1.8,0,0,0-.34-.41,1.9,1.9,0,0,0-1-.5,1.67,1.67,0,0,0-.35,0H30.59"/><polyline class="cls-5" points="32.09 36.07 30.65 36.07 29.74 36.07 29.27 36.07"/><line class="cls-5" x1="29.28" y1="43.1" x2="30.59" y2="43.1"/><line class="cls-5" x1="30.59" y1="37.03" x2="30.59" y2="44.24"/><line class="cls-5" x1="32.59" y1="44.24" x2="32.59" y2="43.07"/><line class="cls-5" x1="34.11" y1="41.75" x2="34.11" y2="40.62"/><polyline class="cls-5" points="45.77 48.47 45.77 52.99 36.69 52.99"/><path class="cls-5" d="M34.25,53a2.09,2.09,0,1,1-2.09-2.09"/><line class="cls-5" x1="42.29" y1="50.08" x2="40.9" y2="50.08"/><circle class="cls-6" cx="35.92" cy="50.08" r="0.91"/><polyline class="cls-5" points="43.74 42.39 54.79 42.39 54.79 37.13"/><path class="cls-5" d="M54.79,34.69A2.09,2.09,0,1,0,52.7,32.6"/><line class="cls-5" x1="51.88" y1="38.92" x2="51.88" y2="39.35"/><circle class="cls-6" cx="51.88" cy="36.36" r="0.91"/><line class="cls-5" x1="41.79" y1="45.71" x2="50.48" y2="45.71"/><polyline class="cls-5" points="18.23 48.47 18.23 52.99 27.31 52.99"/><line class="cls-5" x1="21.71" y1="50.08" x2="23.1" y2="50.08"/><circle class="cls-6" cx="26.08" cy="50.08" r="0.91"/><polyline class="cls-5" points="20.26 42.39 9.21 42.39 9.21 37.13"/><path class="cls-5" d="M9.21,34.69A2.09,2.09,0,1,1,11.3,32.6"/><line class="cls-5" x1="12.12" y1="38.92" x2="12.12" y2="39.35"/><circle class="cls-6" cx="12.12" cy="36.36" r="0.91"/><line class="cls-5" x1="22.21" y1="45.71" x2="14.52" y2="45.71"/></svg>