<svg id="Layer_1" data-name="Layer 1" xmlns="http://www.w3.org/2000/svg" viewBox="0 0 64 64"><defs><style>.cls-1{fill:#9dcbf4;}.cls-2,.cls-4{fill:none;stroke-linecap:round;stroke-linejoin:round;stroke-width:2px;}.cls-2{stroke:#2a5081;}.cls-3{fill:#2a5081;}.cls-4{stroke:#295183;}.cls-5{fill:#389ad6;}.cls-6{fill:#295183;}</style></defs><title>bitcoin, growth, finance, savings, currency</title><path class="cls-1" d="M36.18,23.82a7.51,7.51,0,0,1-6.65.89,7,7,0,0,1-3.42-2.43A7.56,7.56,0,0,1,26.25,13a7,7,0,0,1,1.67-1.47,1.78,1.78,0,0,1,2.67,2,5.47,5.47,0,0,0,4.58,7.14h.08A1.73,1.73,0,0,1,36.18,23.82Z"/><path class="cls-2" d="M39.86,12a9.72,9.72,0,1,1-5.34-3.66"/><path class="cls-2" d="M29.54,13.33h2.87a1.88,1.88,0,0,1,1.88,1.88h0a1.88,1.88,0,0,1-1.88,1.88H30.58"/><path class="cls-2" d="M29.54,21.94H32.6a2.15,2.15,0,0,0,.42,0,2.43,2.43,0,0,0,0-4.79,2.15,2.15,0,0,0-.42,0h-2"/><line class="cls-2" x1="28.96" y1="13.33" x2="32.41" y2="13.33"/><line class="cls-2" x1="28.97" y1="21.94" x2="30.58" y2="21.94"/><line class="cls-2" x1="30.58" y1="15.73" x2="30.58" y2="23.35"/><line class="cls-2" x1="33.02" y1="23.34" x2="33.02" y2="21.91"/><line class="cls-2" x1="33.02" y1="17.12" x2="33.02" y2="16.97"/><line class="cls-2" x1="33.02" y1="13.44" x2="33.02" y2="12.05"/><circle class="cls-3" cx="37.67" cy="10" r="0.94"/><path class="cls-4" d="M35.77,39.15h.82a1.68,1.68,0,0,1,1.68,1.68L40.15,56H23.85l1.88-15.17a1.68,1.68,0,0,1,1.68-1.68H32"/><path class="cls-5" d="M37.2,48.24l.1.52c.28,1.42,1.38,4,.12,5.21a2.08,2.08,0,0,1-1.5.48c-1.31,0-2.58-.38-3.89-.37s-4.75,1.26-5.61-.25c-.54-.94-.07-2.21.12-3.18A52.89,52.89,0,0,0,27.4,45c.07-.81-.3-2.09,1.09-2.09q.65,0,1.3.07c.63.06.93,0,.93.73,0,3.51,0,.44,0,4A2.46,2.46,0,0,0,31,49.13,1.22,1.22,0,0,0,33,49.06a2.46,2.46,0,0,0,.23-1.27c0-3.08,0,.42,0-2.66,0-.69-.06-1.39-.09-2.09,0-.39.44-.32.69-.32a9.31,9.31,0,0,1,1.13,0,1.66,1.66,0,0,1,1,.32,2.08,2.08,0,0,1,.5,1.63C36.52,46.52,36.84,46.45,37.2,48.24Z"/><path class="cls-4" d="M32,45.58V34.64s-.46-5.45,6-5.45a5.11,5.11,0,0,1-3.46,5.13"/><path class="cls-4" d="M29.18,33.92A4,4,0,0,0,24.91,32s-.54,2.94,4.11,4.64"/><circle class="cls-6" cx="31.99" cy="47.98" r="0.94"/><line class="cls-4" x1="32" y1="34.64" x2="32" y2="27.45"/></svg>