<svg id="Layer_1" data-name="Layer 1" xmlns="http://www.w3.org/2000/svg" viewBox="0 0 64 64"><defs><style>.cls-1,.cls-4{fill:none;stroke:#2a5081;stroke-linecap:round;stroke-linejoin:round;stroke-width:2px;}.cls-2{fill:#9dcbf4;}.cls-3{fill:#389ad6;}.cls-4{stroke-dasharray:0 6 0 0 1 0;}.cls-5{fill:#2a5081;}</style></defs><title>bitcoin, wallet, finance, currency</title><path class="cls-1" d="M26.89,32a5.83,5.83,0,0,1-.22.89L21.1,34.49a5.09,5.09,0,0,0,.23-.9,4.37,4.37,0,0,0-1.18-4,4.35,4.35,0,0,1,3.42-2.32h.32C25.95,27.4,27.29,29.54,26.89,32Z"/><path class="cls-2" d="M13.8,25.49s-2,2,.81,3.55-2.1,2.37-.6,6.4c0,0,1.77,1.18,4.82,0s2.14,5.72-.41,6.9S7.83,47.48,7.95,40.13,5.3,26.2,13.8,25.49Z"/><path class="cls-3" d="M32.76,41.23a2.24,2.24,0,0,1-.41,0V41Z"/><path class="cls-3" d="M37.86,39.24c.36-.35.75-.68,1.08-1.05a9.26,9.26,0,0,0,1.21-1.68c.08-.15.78-1.85.75-1.85s-9.6-.6-11.26-7.9c0,0-2.27,9.81.4,13.18l-.46-.22c-1.85-.93-3.79.93-3.79.93,9.62,5.67,12.44,3.17,12.42,3.16a2.54,2.54,0,0,1-1.62-2.56A3.7,3.7,0,0,1,37.86,39.24Zm-5.52,2V41l.42.21A2.24,2.24,0,0,1,32.34,41.2Z"/><path class="cls-3" d="M32.76,41.23a2.24,2.24,0,0,1-.41,0V41Z"/><path class="cls-3" d="M12.94,29.34c-.38.32-5,2.5-5,6.65s5.76.38,5.76.38.23-5.33.94-6S12.94,29.34,12.94,29.34Z"/><path class="cls-1" d="M40.9,30.16V41.28a2.52,2.52,0,0,1-3.65,2.26L28.8,39.31,11.27,44.43A2.53,2.53,0,0,1,8,42V28.81a2.52,2.52,0,0,1,1.84-2.43L28.8,21.09l.48.22,0,0,2.46,1.18,1.74.84"/><polyline class="cls-1" points="28.8 36.04 28.8 32.33 26.67 32.93 21.09 34.48 14.42 36.36 12.45 36.91 8.05 38.14"/><path class="cls-1" d="M14.42,36.36a4.7,4.7,0,0,1-.55-3.22c.39-2.38,2.2-4.24,4.14-4.31h.32a2.93,2.93,0,0,1,1.82.77"/><path class="cls-1" d="M16,28.83h-.31c-1.95.07-3.77,1.94-4.15,4.31"/><polyline class="cls-1" points="15.65 28.83 15.96 28.83 18.01 28.83 18.33 28.83"/><path class="cls-2" d="M43.62,27.32a.15.15,0,0,1,0,.06.51.51,0,0,1-.09.09l-.14.12h0a5.12,5.12,0,0,1-1.36.66,5.35,5.35,0,0,1-3.33,0,4.91,4.91,0,0,1-2.41-1.71,5.33,5.33,0,0,1,.1-6.54,5.06,5.06,0,0,1,1.18-1,1.26,1.26,0,0,1,1.93,1.26,1.14,1.14,0,0,1,0,.15,3.84,3.84,0,0,0-.15,1.76,4.26,4.26,0,0,0,.14.6l0,.13A3.92,3.92,0,0,0,42,25.26h0l.25.06h.09l.29,0h.05A1.24,1.24,0,0,1,43.62,27.32Z"/><path class="cls-2" d="M46.13,32.28h0l0,.07A5.24,5.24,0,0,1,43,34.25h0a9.88,9.88,0,0,1-8-1.06c-.17-.09-.33-.19-.49-.3L34,32.55h0a12.57,12.57,0,0,1-2.89-2.81h0a6.43,6.43,0,0,1-1-2,.47.47,0,0,1,0-.05,16.41,16.41,0,0,1-.6-7.06,9.76,9.76,0,0,1,5.52-7.25l.56-.29.12-.06.1-.05h0c.25,0,2.56-.29,2.75,1.9a2.19,2.19,0,0,1,0,.23,1.24,1.24,0,0,1,0,.23,2.31,2.31,0,0,1-1.23,1.82h0a5.15,5.15,0,0,0-.51.3l-.18.12c-.14.09-.27.19-.4.29a6.93,6.93,0,0,0-.94.9v0l-.24.31c-1.05,1.42-1.75,3.63-.83,7h0c.05.23,1.05,4,4.66,4h0a5.3,5.3,0,0,0,.66,0,27.42,27.42,0,0,0,2.72-.46h0c.44-.11.81-.21,1.11-.31a2.4,2.4,0,0,1,.6-.12,1.17,1.17,0,0,1,.36,0,2.34,2.34,0,0,1,.74.17,2.15,2.15,0,0,1,1.26,1.32A1.88,1.88,0,0,1,46.13,32.28Z"/><path class="cls-3" d="M45,29.39A11.16,11.16,0,0,1,43.39,31l-.05,0h0A8.83,8.83,0,0,1,34,32.55h0a6,6,0,0,1-2.89-2.81h0a2.25,2.25,0,0,1-.1-.23v0h0a5.33,5.33,0,0,1-.38-1.68C30.19,22,35.68,17.66,36,17.4c-.31.49-.58,1-.82,1.4v0c-3.39,6.31,0,8.79,2.59,10.8l.12.09h0a3.07,3.07,0,0,0,.89.44h0A6.11,6.11,0,0,0,42.35,30l.05,0a12.91,12.91,0,0,0,1.84-.73A2.34,2.34,0,0,1,45,29.39Z"/><path class="cls-1" d="M34.32,32.8l.17.1c.16.11.33.2.49.3a11.25,11.25,0,0,0,5.39,1.37,11.35,11.35,0,0,0,6.41-2l.17-.12a11.31,11.31,0,0,0,2.87-3h0l.2-.31a11.18,11.18,0,0,0,1.11-2.48c0-.15.09-.29.12-.44a3.86,3.86,0,0,0,.09-.39,11.15,11.15,0,0,0,.29-2.53c0-.09,0-.18,0-.27a.22.22,0,0,0,0-.07,2.69,2.69,0,0,0,0-.42,10.57,10.57,0,0,0-.41-2.37c0-.12-.07-.23-.1-.33s-.07-.24-.12-.36a11,11,0,0,0-1.38-2.64c-.09-.14-.18-.27-.28-.4h0"/><path class="cls-1" d="M44.38,12.72a11.25,11.25,0,0,0-4-.73,11.13,11.13,0,0,0-1.79.15h-.11a10.76,10.76,0,0,0-2.75.84l-.12.05-.12.06-.56.29a11.3,11.3,0,0,0-5.83,9.88A11.11,11.11,0,0,0,30,27.71a11,11,0,0,0,.92,1.73h0v0a11.11,11.11,0,0,0,1.1,1.41"/><path class="cls-1" d="M42.16,16.67a6.83,6.83,0,0,0-1.78-.23,6.76,6.76,0,0,0-1.82.25h-.05a6.09,6.09,0,0,0-1.26.49h0c-.17.09-.34.19-.51.3l-.18.12c-.14.09-.27.19-.4.29a6.92,6.92,0,0,0-.94.9v0l-.24.31a6.71,6.71,0,0,0-1.43,4.18,6.88,6.88,0,0,0,.6,2.82h0a6.89,6.89,0,0,0,3.77,3.57h0a6.88,6.88,0,0,0,1.55.4,6.59,6.59,0,0,0,.93.07,6.74,6.74,0,0,0,1.93-.28h.05a6.66,6.66,0,0,0,1.53-.67,5.94,5.94,0,0,0,1-.69,1.58,1.58,0,0,0,.2-.18l.07-.06.17-.17a6.81,6.81,0,0,0,1.33-1.92l.06-.12.05-.13h0l.14-.36a7,7,0,0,0,.39-2.28,6.13,6.13,0,0,0,0-.63v0s0,0,0,0a.49.49,0,0,0,0-.1,6.57,6.57,0,0,0-.52-2c-.09-.19-.17-.37-.28-.55"/><path class="cls-1" d="M38.64,20.2h2a1.25,1.25,0,0,1,.44.08,1.3,1.3,0,0,1,.86,1,1,1,0,0,1,0,.41,1.3,1.3,0,0,1-.86,1,1.25,1.25,0,0,1-.44.08H39.38"/><path class="cls-1" d="M38.64,26.28H40.8a1.45,1.45,0,0,0,.31,0,1.64,1.64,0,0,0,.86-.44l.05,0,.07-.07a1.49,1.49,0,0,0,.18-.24h0l.06-.09a1.79,1.79,0,0,0,.19-.79,1.68,1.68,0,0,0-.24-.86v0h0a1.55,1.55,0,0,0-.3-.36,1.64,1.64,0,0,0-.86-.44,1.45,1.45,0,0,0-.31,0H39.38"/><polyline class="cls-1" points="40.67 20.2 39.43 20.2 38.64 20.2 38.24 20.2"/><line class="cls-1" x1="38.24" y1="26.27" x2="39.38" y2="26.27"/><line class="cls-1" x1="39.38" y1="21.02" x2="39.38" y2="27.27"/><line class="cls-1" x1="41.1" y1="27.26" x2="41.1" y2="26.25"/><line class="cls-4" x1="34.63" y1="16.4" x2="34.11" y2="15.79"/><line class="cls-4" x1="31.55" y1="21.71" x2="30.76" y2="21.57"/><line class="cls-4" x1="32.6" y1="27.76" x2="31.91" y2="28.16"/><line class="cls-4" x1="37.29" y1="31.72" x2="37.02" y2="32.47"/><line class="cls-4" x1="43.43" y1="31.73" x2="43.71" y2="32.48"/><line class="cls-4" x1="44.4" y1="17.71" x2="43.88" y2="17.09"/><line class="cls-1" x1="41.11" y1="20.28" x2="41.11" y2="19.3"/><polyline class="cls-1" points="47.42 36.91 47.42 49.76 38.64 49.76"/><polyline class="cls-1" points="51.67 31.87 54.1 31.87 54.1 40.65"/><path class="cls-1" d="M38.64,49.71a2.29,2.29,0,1,1-2.29-2.29"/><path class="cls-1" d="M54.1,43.33a2.29,2.29,0,1,1-2.29,2.29"/><line class="cls-1" x1="29.67" y1="46.93" x2="26.14" y2="46.93"/><line class="cls-1" x1="44.14" y1="41.5" x2="44.14" y2="45.03"/><line class="cls-1" x1="50.9" y1="35.69" x2="50.9" y2="38.22"/><line class="cls-1" x1="25.72" y1="50.85" x2="17.76" y2="50.85"/><circle class="cls-5" cx="50.9" cy="41.5" r="1"/><circle class="cls-5" cx="22.67" cy="46.93" r="1"/><circle class="cls-5" cx="28.15" cy="50.85" r="1"/></svg>