<svg id="Layer_1" data-name="Layer 1" xmlns="http://www.w3.org/2000/svg" viewBox="0 0 64 64"><defs><style>.cls-1{fill:#2a5080;}.cls-2{fill:#9dcbf4;}.cls-3{fill:#389ad6;}.cls-4,.cls-5{fill:none;stroke-linecap:round;stroke-linejoin:round;stroke-width:2px;}.cls-4{stroke:#2a5082;}.cls-5{stroke:#2a5080;}</style></defs><title>bookmark, star, favourite, save</title><circle class="cls-1" cx="41.85" cy="21.38" r="1"/><path class="cls-2" d="M25.54,21.65s9.71-.72,6.92,3.72-1.8,2.71-1.8,2.71l-2.73.33,2.3,2.87-.62,3.86,2.87-1.6s3.18.71.8,4.67-8.53-2.3-9.06-3.73S22.06,25.6,25.54,21.65Z"/><path class="cls-3" d="M32.41,24.75c-.71.63-2.27,1.31-3,1.87-1.78,1.27-3,2.24-4.92,3.38a.65.65,0,0,0-.28.34c-.43,1.21-3.37,9.49,3.27,10.62,5.43.92,8.18-4.41,8.58-6,.12-.47.39.21-.09.31l-.56.07a5.63,5.63,0,0,1-1.24-.65L32.54,33a.66.66,0,0,0-.74,0l-1.08.81a.66.66,0,0,1-1.06-.54l0-1.91a.66.66,0,0,0-.2-.48L28,29.45c-.36-.35-.3-.6.17-.75l1.36-.13s.61,0,.64,0l1.09-1.47a.66.66,0,0,0,.36-.51l.06-.48C31.79,25.52,32.87,24.35,32.41,24.75Z"/><path class="cls-2" d="M32.21,26.62s-1.26,5.64,1.92,7.9c0,0-2.62-.66-4,1.17,0-.42-.75-4.54-.75-4.54l-2.22-2.31s3.66-.37,3.74-.49S32.21,26.62,32.21,26.62Z"/><polyline class="cls-4" points="38.36 29.21 35.55 31.95 36.22 35.8 32.75 33.98 29.29 35.8 29.95 31.95 27.15 29.21 31.02 28.65 32.75 25.14 34.28 28.23"/><path class="cls-5" d="M23.66,36.41V24.53a3.16,3.16,0,0,1,3.16-3.16H38.69"/><line class="cls-5" x1="41.85" y1="24.53" x2="41.85" y2="36.41"/><path class="cls-5" d="M23.66,36.41v1.71a2.79,2.79,0,0,0,1,2.16L31,45.46a2.79,2.79,0,0,0,3.54,0l6.31-5.19a2.79,2.79,0,0,0,1-2.15V36.41"/><line class="cls-5" x1="23.66" y1="17.91" x2="41.85" y2="17.91"/></svg>