<svg id="Layer_1" data-name="Layer 1" xmlns="http://www.w3.org/2000/svg" viewBox="0 0 64 64"><defs><style>.cls-1{fill:#9dcbf4;}.cls-2{fill:#389ad6;}.cls-3,.cls-5{fill:none;stroke-linecap:round;stroke-linejoin:round;stroke-width:2px;}.cls-3{stroke:#2a5082;}.cls-4{fill:#2a5082;}.cls-5{stroke:#2a5081;}</style></defs><title>book, textbook, notebook, library, image, album</title><path class="cls-1" d="M34.4,21.58a1.28,1.28,0,0,1-.23.64c-.76,1.34-1.78,3.08-1.77,4.62a4.89,4.89,0,0,1,0,.54H26V40H31.1c-.26.63-.6,1.26-.92,1.89a6.2,6.2,0,0,0-.78,2.5,4.36,4.36,0,0,1-.7,2.68,4.48,4.48,0,0,1-3.22,1.26,25.09,25.09,0,0,1-6.18-.28c-.32,0-.63-.1-.95-.17a.46.46,0,0,1-.2-.09.38.38,0,0,1-.09-.29l-.18-5.11-.3-8.73C17.51,31.57,17,29,17.5,27c.15-.64.32-1.28.5-1.92.43-1.52.93-3,1.47-4.51h0a.44.44,0,0,1,.18-.26.57.57,0,0,1,.18,0h.05c1.82.1,4.11.19,6.42.29s4.92.21,6.86.31c.44,0,1,.15,1.18.52A.59.59,0,0,1,34.4,21.58Z"/><path class="cls-1" d="M31.09,15.33a.85.85,0,0,1,0,.28,6.67,6.67,0,0,0-.22,1.49c.07.65.67.87,1.22,1.06s1.81.58,1.89,1.2c.05.42-.36.64-.72.75a7.84,7.84,0,0,1-1.68.16,55.93,55.93,0,0,1-8.5-.07,25.33,25.33,0,0,1-3.27-.46A5.5,5.5,0,0,1,16.53,18c-.45-.56-1.36-1.57-.89-2.35.61-1,2.5-.71,3.47-.7,3.69,0,7.48.2,11.19,0,.29,0,.65,0,.77.27A.41.41,0,0,1,31.09,15.33Z"/><path class="cls-2" d="M20.44,21.25a1,1,0,0,1,.17.26,1.82,1.82,0,0,1,0,1c-.5,3.65-.71,7.34-.91,11-.11,1.93-.21,4-.15,6s.68,4,.69,6.06a3,3,0,0,1-.59,2.2c-1.86,1.73-3.76-1.44-4.27-2.91-.9-2.61-.8-5.43-1-8.15-.27-3.91-.22-7.84-.17-11.76,0-1.68,0-3.36.23-5a2.6,2.6,0,0,1,.31-1.13c.78-1.22,4.06,1.42,5,2A2.58,2.58,0,0,1,20.44,21.25Z"/><path class="cls-3" d="M41.38,17.64a8.77,8.77,0,0,0,6.22,2.91"/><path class="cls-3" d="M36.71,20.55H21.77a8.77,8.77,0,0,1-6.22-2.91,1.79,1.79,0,0,1-.38-2.05,2.4,2.4,0,0,1,2.17-.86h26a2.4,2.4,0,0,0-2.17.86,1.71,1.71,0,0,0,.21,2.05"/><path class="cls-3" d="M20.16,42.9V25.52a6.68,6.68,0,0,1-4.74-2.22,1.36,1.36,0,0,1-.29-1.56V33.88"/><path class="cls-3" d="M15,39.88a4.18,4.18,0,0,0,1.26,1.59,7.36,7.36,0,0,0,1.81,1,5.9,5.9,0,0,0,2.1.43"/><path class="cls-3" d="M15,45a2.4,2.4,0,0,0,.57,1.39,8.77,8.77,0,0,0,6.21,2.91h26"/><line class="cls-3" x1="47.77" y1="20.55" x2="47.77" y2="49.26"/><line class="cls-3" x1="14.99" y1="45.09" x2="14.99" y2="39.88"/><circle class="cls-4" cx="39.67" cy="20.55" r="1"/><circle class="cls-4" cx="30.03" cy="30.5" r="1"/><path class="cls-1" d="M32,40a2.69,2.69,0,0,1-1.85,1.89,1.89,1.89,0,0,1-.68,0c-1-.09-1.43-.85-1.55-1.93Z"/><rect class="cls-5" x="26.03" y="27.38" width="14" height="12.62"/><polyline class="cls-5" points="26.03 40 29.99 34 32.03 37 36.03 31.08 40.03 35.54"/></svg>