<svg id="Layer_1" data-name="Layer 1" xmlns="http://www.w3.org/2000/svg" viewBox="0 0 64 64"><defs><style>.cls-1{fill:#295183;}.cls-2{fill:#9ac8f1;}.cls-3{fill:#3897d3;}.cls-4,.cls-6,.cls-7{fill:none;stroke:#295183;stroke-linecap:round;stroke-linejoin:round;stroke-width:2px;}.cls-5{fill:#389ad6;}.cls-6{stroke-dasharray:0 3 0 0 0 0;}.cls-7{stroke-dasharray:0 4 0 0 0 0;}</style></defs><title>book, education, growth, biology, science</title><circle class="cls-1" cx="25.34" cy="55.61" r="1"/><path class="cls-2" d="M26.86,10s-6,11.67,3.58,14.35,14.08-2.43,14.08-2.43,2.85,9.64-3.87,8.68L33.31,32H31.18l-11-2.44-1.47-.38V11.49S17.3,5.7,26.86,10Z"/><path class="cls-3" d="M19.42,22.52a.88.88,0,0,1,.44-.22,2,2,0,0,1,1.75.65,10.73,10.73,0,0,1,1.33,2.17,6.93,6.93,0,0,0,4.69,3.26A2.7,2.7,0,0,0,29,28.33c.7-.26,1.17-1,1.88-1.21,1.36-.47,1.16,2.88,1.1,3.58a1.87,1.87,0,0,1-.66,1.45,2.06,2.06,0,0,1-1.55.09,83.07,83.07,0,0,1-10.4-3.17,13,13,0,0,1-.29-2.38,14.18,14.18,0,0,1-.1-2.59C19.06,23.55,19,22.87,19.42,22.52Z"/><polyline class="cls-4" points="31.97 29.55 31.97 11.17 43.36 8.49"/><line class="cls-4" x1="34.65" y1="31.98" x2="31.97" y2="32.61"/><path class="cls-4" d="M34.65,32l9.13-2.15A1.57,1.57,0,0,0,45,28.31v-18l2.68-.63V32.08l-13,3.06-.27.07a2.57,2.57,0,0,0-1.93,2.48V49.19"/><polyline class="cls-4" points="18.95 10.27 16.27 9.64 16.27 32.08 29.29 35.14"/><path class="cls-4" d="M32,32.61,20.16,29.83A1.57,1.57,0,0,1,19,28.31V10.09a1.57,1.57,0,0,1,1.93-1.53L32,11.17"/><line class="cls-4" x1="21.76" y1="14.28" x2="29.16" y2="16.02"/><line class="cls-4" x1="21.76" y1="17.96" x2="29.16" y2="19.7"/><line class="cls-4" x1="21.76" y1="21.63" x2="29.16" y2="23.37"/><line class="cls-4" x1="21.76" y1="25.31" x2="29.16" y2="27.05"/><line class="cls-4" x1="42.18" y1="14.28" x2="34.78" y2="16.02"/><line class="cls-4" x1="42.18" y1="17.96" x2="34.78" y2="19.7"/><path class="cls-4" d="M25.8,55.6V48.14a1.78,1.78,0,0,1,1.78-1.78h4.89"/><path class="cls-4" d="M36.47,46.35h.87a1.78,1.78,0,0,1,1.78,1.78V55.6"/><path class="cls-5" d="M37.19,54a14.53,14.53,0,0,1-.07,1.62H27.83a20.42,20.42,0,0,1-.08-2.21c0-3.27,0,1.46.06-1.81,0-.86-.29-2.18.92-2.18.46,0,.93,0,1.39.07.67.07,1,0,1,.78,0,3.73,0-.53,0,3.2A2.61,2.61,0,0,0,31.39,55a1.36,1.36,0,0,0,1.11.56,1.34,1.34,0,0,0,1.07-.63,2.61,2.61,0,0,0,.25-1.36V51.71c0-.73-.07-1.48-.09-2.21,0-.42.47-.34.74-.35a9.62,9.62,0,0,1,1.2,0,1.73,1.73,0,0,1,1,.34,2,2,0,0,1,.42,1.55c0,.28,0,.5,0,.67s0,.39,0,1.23C37.18,53.3,37.19,53.64,37.19,54Z"/><path class="cls-4" d="M32.46,49.19V44.45S32,38.66,38.8,38.66a5.43,5.43,0,0,1-3.68,5.46"/><path class="cls-4" d="M29.62,40.8a4.3,4.3,0,0,0-4.54-2s-.57,3.12,4.37,4.94"/><circle class="cls-1" cx="32.45" cy="51.74" r="1"/><polyline class="cls-4" points="47.83 55.6 39.13 55.6 37.12 55.6 27.83 55.6 25.8 55.6 16.11 55.6"/><path class="cls-6" d="M25.8,51.42H16.88A6.9,6.9,0,0,1,10,44.53V19.17"/><path class="cls-6" d="M54,19.17V44.53a6.9,6.9,0,0,1-6.88,6.88h-8"/><path class="cls-7" d="M42.18,45.35h.6c2.69,0,4.89-1.53,4.89-6.89V33"/><path class="cls-7" d="M22,45.35h-.6c-2.69,0-4.89-3.2-4.89-5.89V33"/></svg>