<svg id="Layer_1" data-name="Layer 1" xmlns="http://www.w3.org/2000/svg" viewBox="0 0 64 64"><defs><style>.cls-1{fill:#a5cfed;}.cls-2{fill:#3897d3;}.cls-3{fill:none;stroke:#2a5080;stroke-linecap:round;stroke-linejoin:round;stroke-width:2px;}</style></defs><title>bouque, flowers, roses, love, romance</title><path class="cls-1" d="M26.13,16.08c-.15-.7,0-1.73,1-1.62a1,1,0,0,1,.79.61,10.85,10.85,0,0,1,.62,3.29,2,2,0,0,0,.09.38,10,10,0,0,1,.69,1.81c.17,1,.05,2.45-.94,3-1.43.76-2.31-.68-2.12-1,.08-.13-.06-.47-.1-.6-.12-.41-.27-.81-.43-1.21-.36-1-.76-1.89-1.16-2.82,0,.11.46.27.57.34a6.43,6.43,0,0,0,.64.35c.25.11.67.34.94.18C27.5,18.31,26.24,16.63,26.13,16.08Z"/><path class="cls-1" d="M22.24,17.95a4.68,4.68,0,0,0-.93,1,1.27,1.27,0,0,1,.12-.51A1,1,0,0,1,22.24,17.95Z"/><path class="cls-1" d="M26.93,20.82l-.09.05-1.07.66-.64.4a3.14,3.14,0,0,1-.51.16,5.5,5.5,0,0,1-.89-2.91,5.16,5.16,0,0,0-.07-.77c.62.53,1,1.37,1.62,1.87l.05,0a2.8,2.8,0,0,0,1.52.54Z"/><path class="cls-2" d="M26.59,22.84a1.3,1.3,0,0,1-.18.29,1.53,1.53,0,0,1-.34.32c-.53-.73-1-1.36-1.46-2a5.5,5.5,0,0,1-.89-2.91,5.16,5.16,0,0,0-.07-.77c-.11-.69-.42-1.2-1.3-.55l-.11.09a4.67,4.67,0,0,0-.93,1,2.7,2.7,0,0,0-.19.29A1.54,1.54,0,0,1,22.21,17a3,3,0,0,1,2.67.57,4.78,4.78,0,0,1,1.25,1.22,1.75,1.75,0,0,1,.16.23,4.77,4.77,0,0,1,.49,1l.06.19a0,0,0,0,1,0,0A3.84,3.84,0,0,1,26.59,22.84Z"/><path class="cls-1" d="M26.3,30.06a1.73,1.73,0,0,1-.23.6h0a1.35,1.35,0,0,1-.24.29,1.43,1.43,0,0,1-2,.15c-.22-.18-.34-.4-.31-.51s-.19-.44-.26-.54c-.23-.36-.49-.71-.75-1l-.69-.89a2.37,2.37,0,0,0-.15-.21L20.93,27l-.3-.38c.07.09.52.13.64.17a6.42,6.42,0,0,0,.71.16l.1,0,.3,0h.13a.56.56,0,0,0,.42-.15c.31-.32.09-.78-.26-1.22s-.9-1-1-1.22c-.34-.64-.43-1.67.51-1.83a1.05,1.05,0,0,1,.93.37,4.16,4.16,0,0,1,.77,1.24c.26.58.46,1.2.73,1.75a2,2,0,0,0,.19.34,10,10,0,0,1,1.16,1.56A3.8,3.8,0,0,1,26.3,30.06Z"/><path class="cls-1" d="M33.75,32a1.74,1.74,0,0,1-.47.44h0a1.35,1.35,0,0,1-.34.15,1.43,1.43,0,0,1-1.85-.76c-.12-.26-.13-.51,0-.59s0-.47,0-.6c0-.43-.12-.85-.2-1.27s-.14-.74-.22-1.11a2.41,2.41,0,0,0,0-.26c-.08-.39-.16-.77-.25-1.15l-.1-.47c0,.11.4.35.5.43a6.41,6.41,0,0,0,.57.46l.08.06.25.16.11.06a.56.56,0,0,0,.44.06c.42-.15.43-.66.32-1.21s-.38-1.26-.39-1.55c0-.72.36-1.69,1.27-1.41a1.05,1.05,0,0,1,.67.74,4.16,4.16,0,0,1,.14,1.46c0,.63-.12,1.27-.13,1.89a2.05,2.05,0,0,0,0,.38,10,10,0,0,1,.35,1.91A3.8,3.8,0,0,1,33.75,32Z"/><path class="cls-1" d="M17.2,27.72a1.72,1.72,0,0,1-.63-1.49c.12-.65.9-.87,1.46-.82,1.14.1,1.76,1.19,2.78,1.55.31.11,1.41.35,1.69,0l-1.44,1.56a2.51,2.51,0,0,1-1.37.58A8.69,8.69,0,0,1,17.2,27.72Z"/><path class="cls-2" d="M23.93,30.78a1.08,1.08,0,0,1-.09.34,1.42,1.42,0,0,1-1.22.87h-.06A3.32,3.32,0,0,1,22,32h-.19l-.28,0-.34-.07h0l-.34-.1-.36-.13a5.36,5.36,0,0,1-2.27-1.93,6.32,6.32,0,0,1-.56-1,3.14,3.14,0,0,1-.21-.76,1.45,1.45,0,0,1,.68-1.54,2.71,2.71,0,0,1,1.17-.42,3.78,3.78,0,0,1,1.55.23,5.06,5.06,0,0,1,1.3.64l.25.19.07.05h0l.14.11a1.83,1.83,0,0,1,.23.23,4,4,0,0,1,.52.6,4.15,4.15,0,0,1,.22.37A3.84,3.84,0,0,1,23.93,30.78Z"/><path class="cls-3" d="M30.3,16.22a5.47,5.47,0,0,0-.47-1.91c-.36-.82-.8-2.08.66-1.78a5.3,5.3,0,0,1,3.17,2.06,5.81,5.81,0,0,1,1.1,3.12"/><path class="cls-3" d="M39,14.73a3.19,3.19,0,0,0-2.62-1.33"/><path class="cls-3" d="M40.58,20.79A7.77,7.77,0,0,1,42.1,16.9c.61-.66,1.43-1.71,0-1.9a5.44,5.44,0,0,0-4.38,1.51"/><path class="cls-3" d="M27,25.78h0"/><path class="cls-3" d="M18.75,15.3a5.74,5.74,0,0,0-1-1c-.72-.55-1.7-1.44-.28-1.88a5.3,5.3,0,0,1,3.77.29,9.51,9.51,0,0,1,2.84,2"/><path class="cls-3" d="M26.09,10.8a3.19,3.19,0,0,0-2.93.08"/><path class="cls-3" d="M25.49,12.39A5.4,5.4,0,0,1,28.62,9c1.39-.54,1.17.77.95,1.65a5.4,5.4,0,0,0-.13,2.12"/><path class="cls-3" d="M22.61,32h-.06A3.32,3.32,0,0,1,22,32h-.19l-.28,0-.34-.07h0l-.34-.1a2.27,2.27,0,0,1-.36-.13A4.74,4.74,0,0,1,18.4,30l-.19-.28A18.62,18.62,0,0,0,16.29,27a5.21,5.21,0,0,0-1.94-1.28c-.84-.33-2-.92-.78-1.73a5.31,5.31,0,0,1,3.7-.76,7,7,0,0,1,4.52,3.18"/><path class="cls-1" d="M30.21,38.56s5.72-2.25,5.47,0-2.24,4.81-1.22,7.94,1.4,2.63,1,4.06a4.35,4.35,0,0,1-1.57,2.19s-5-10.94-4.5-12.5S30.21,38.56,30.21,38.56Z"/><path class="cls-3" d="M20.43,19.31a3.19,3.19,0,0,0-2.8.89"/><path class="cls-3" d="M20.43,20.82a5.52,5.52,0,0,1,.69-1.57,2.73,2.73,0,0,1,.19-.29,4.68,4.68,0,0,1,.93-1l.11-.09c.87-.65,1.18-.13,1.3.55a5.16,5.16,0,0,1,.07.77,5.5,5.5,0,0,0,.89,2.91c.23.38.5.74.78,1.12s.45.59.68.91l.24.33a4.55,4.55,0,0,1,.64,1.34,4.77,4.77,0,0,1,.1,2.48,9.33,9.33,0,0,1-.75,1.81,3.87,3.87,0,0,0-.23.6h0a2.59,2.59,0,0,0,0,1.36,3.8,3.8,0,0,0,.54,1.23l.2.29"/><path class="cls-3" d="M46.8,21.53a3.19,3.19,0,0,0-1.36-2.6"/><path class="cls-2" d="M35.09,37.22a6.22,6.22,0,0,0-2.44.3A1.94,1.94,0,0,0,33.3,37Z"/><path class="cls-2" d="M31.38,54.81l-3-5.31L24.87,39.25s-1.64-4.17.47-4.57l.12,0a1,1,0,0,1,.61.15c.5.27,1.15.91,1.77.51s.48-1.09.39-1.56A5.74,5.74,0,0,1,28,32.53c0-1.17,1.4-2,1.72-.42.16.78,0,1.55.8,2.1s1.79.59,2.52,1.15A1.08,1.08,0,0,1,33.3,37a1.94,1.94,0,0,1-.65.54,3.38,3.38,0,0,0-.52.22c-1.19.61-2.16,1.89-1.57,4.57C31.81,48,38.19,52.06,31.38,54.81Z"/><path class="cls-2" d="M32.65,37.52a2,2,0,0,1-.36.17l-.16.05A3.38,3.38,0,0,1,32.65,37.52Z"/><path class="cls-3" d="M45.44,21.69A4,4,0,0,1,48,22a2.64,2.64,0,0,1,.32.14,4.66,4.66,0,0,1,1.16.75l.1.09c.8.75.34,1.15-.32,1.37a5.4,5.4,0,0,1-.75.21A5.48,5.48,0,0,0,45.77,26c-.38.34-.75.72-1.13,1.13"/><path class="cls-3" d="M32.49,32.53a4.44,4.44,0,0,1-.89-.65,4.8,4.8,0,0,1-1.51-4.39,23.13,23.13,0,0,0,.59-3.57,5.38,5.38,0,0,0-.46-2.28c-.36-.83-.79-2.09.67-1.77a5.15,5.15,0,0,1,1.9.85A5.05,5.05,0,0,1,34,21.94,7,7,0,0,1,35,27.38"/><path class="cls-3" d="M37.79,22.58a5.62,5.62,0,0,1,3.47-.87l.17,0c1.48.21.64,1.24,0,1.9a1.87,1.87,0,0,0-.15.18,5.45,5.45,0,0,0-1,1.6,9.38,9.38,0,0,0-.5,2.11c-.07.52-.14,1.07-.25,1.66,0,.08,0,.16-.05.24a4.52,4.52,0,0,1-1.84,2.69c-1,.7-2,.82-2.59,1.89"/><path class="cls-3" d="M42.34,30,42,31.72a13.83,13.83,0,0,1-.61,2.13l-2.27,6"/><path class="cls-3" d="M35.71,50.87l-.48,1.73a3,3,0,0,1-2.89,2.2,3,3,0,0,1-2.23-1,3.63,3.63,0,0,1-.71-2.15,6.67,6.67,0,0,0-.6-2.79,1.89,1.89,0,0,0-2-.76c-.92.24-1.67,1.15-2.69,1a2.27,2.27,0,0,1-1.61-2.74c.54-2.26,3.29-1.81,4.93-1.27.45.15.9.32,1.33.51h0l.41.18c1.56.69,3,1.53,4.65,2.15,2.51,1,5.58,1.89,6.69-1.4A3.09,3.09,0,0,0,39,42.86a3.62,3.62,0,0,0-3.95,1,9.93,9.93,0,0,1-2.64,1.94,4.05,4.05,0,0,1-3.27,0l-.41-.18h0a7,7,0,0,1-1.57-1.14,8.43,8.43,0,0,1-2-3.25l-3.25-8-.48-1.29"/><path class="cls-3" d="M26.52,36.38a12.57,12.57,0,0,0,1.35.4,16.55,16.55,0,0,0,3.92.45A19.09,19.09,0,0,0,34,37.1c4.45-.55,7.79-2.85,8.38-7.13"/></svg>