<svg id="Layer_1" data-name="Layer 1" xmlns="http://www.w3.org/2000/svg" viewBox="0 0 64 64"><defs><style>.cls-1{fill:#3897d3;}.cls-2{fill:#a8d2f0;}.cls-3{fill:none;stroke:#295183;stroke-linecap:round;stroke-linejoin:round;stroke-width:2px;}.cls-4{fill:#295183;}</style></defs><title>bull, animal, mammal, taurus</title><path class="cls-1" d="M25.63,27.29c1.06.78,1.11,2.34.94,3.65s-.42,2.76.33,3.85,1.21,1.34,1.26,2.62a49.45,49.45,0,0,1-.47,6.43,3.79,3.79,0,0,1-.49,1.84.56.56,0,0,1-.21.2.46.46,0,0,1-.57-.29,1.45,1.45,0,0,1,0-.7,14.2,14.2,0,0,0,0-2.33,20.78,20.78,0,0,0-1.28-6.26,16.11,16.11,0,0,0-2.07-3.74c-.13-.17-.65-.64-.66-.84,0-.55.15-.23.52-.48.62-.43,1.16-.58,1.56-1.32S25.12,28.12,25.63,27.29Z"/><path class="cls-1" d="M19.46,22.67c.13,0,2.83-.42,2.66,1.69s-.2,2.11,0,2.56,1.72,2,.27,3.29-2.75-2-2.75-2Z"/><path class="cls-1" d="M40.86,30.56s-4,6.75-10.41,1.8c0,0-1.77,5.6.18,5.79s10.5-.46,10.5-.46S43.61,35.18,40.86,30.56Z"/><path class="cls-2" d="M41.28,31.39a1.09,1.09,0,0,1,2-.26c.33.67.38,1.44.65,2.14a10.82,10.82,0,0,0,1.25,2A3.77,3.77,0,0,1,46,37.51a1.48,1.48,0,0,1-2.64,1.06,4.15,4.15,0,0,1-.7-1.17C42.16,36.23,40.72,33,41.28,31.39Z"/><path class="cls-3" d="M17.35,18.06a3.15,3.15,0,1,0,2.3,5.29"/><path class="cls-3" d="M25,23.08a1.3,1.3,0,0,1-.13-.19"/><path class="cls-3" d="M27.48,18.06a3.15,3.15,0,1,1-2.32,5.27l-.09-.11"/><path class="cls-3" d="M19.18,25a2.89,2.89,0,0,1-2.73,2.3"/><path class="cls-3" d="M25.62,25a2.89,2.89,0,0,0,2.73,2.3"/><path class="cls-3" d="M25.62,25l-1,4.67a1.18,1.18,0,0,1-1.18,1.18H21.36a1.18,1.18,0,0,1-1.18-1.18l-1-4.67a3.15,3.15,0,0,1,.47-1.66l0,0A2.12,2.12,0,0,0,20,22.9h0a3.23,3.23,0,0,1,5,.19l.1.14A3.15,3.15,0,0,1,25.62,25Z"/><path class="cls-3" d="M25.9,36.1a9.29,9.29,0,0,1-3.78-5.24h1.32a1.18,1.18,0,0,0,1.18-1.18l1-4.67"/><path class="cls-3" d="M43.36,37.11a6.24,6.24,0,0,1-2.63.58H31a8.19,8.19,0,0,1-.86,0"/><polyline class="cls-3" points="25.9 36.1 26.12 37.81 26.5 40.56"/><path class="cls-3" d="M35.19,25h5.54a6.33,6.33,0,0,1,5.42,9.6"/><path class="cls-3" d="M40.93,29.69v.08A9,9,0,0,0,43,36.69l2.32,2.71a2.33,2.33,0,0,1,.54,1.82l-.62,4.72"/><path class="cls-3" d="M29.31,30.86l.82,2.56a6.78,6.78,0,0,1,.23,3.2l-.59,3.48a2.47,2.47,0,0,0,0,.93l0,.22a2.47,2.47,0,0,1-.05,1.25l-.91,2.95"/><line class="cls-3" x1="42.81" y1="40.56" x2="42.4" y2="44.94"/><circle class="cls-4" cx="32.66" cy="25.01" r="1"/><path class="cls-3" d="M47.06,31.71v2a2.74,2.74,0,0,0,2.74,2.74h0"/></svg>