<svg id="Layer_1" data-name="Layer 1" xmlns="http://www.w3.org/2000/svg" viewBox="0 0 64 64"><defs><style>.cls-1{fill:#a8d2f0;}.cls-2{fill:#389ad6;}.cls-3{fill:none;stroke:#2a5081;stroke-linecap:round;stroke-linejoin:round;stroke-width:2px;}.cls-4{fill:#2a5081;}</style></defs><title>camera, cam, device, photography</title><path class="cls-1" d="M35.91,28.14s-4,.75-4.64,3.74.31,5.74,3.89,6.7,7.26-3.62,6.46-5.71-3.22-1-3.78.51-3.67.26-1.5-1.44S38.84,27.75,35.91,28.14Z"/><path class="cls-1" d="M37.33,16.85a8.36,8.36,0,0,0-2.76,7.91S24.21,26,30.38,40.93c0,0,11.56,1,8.11,6.71l-21.16-1S10.65,45.85,12,34.43s2.16-9.75,6.2-11.59,4.68-1.2,4.68-1.2,4.39,1,5.22-1S31.27,14.93,37.33,16.85Z"/><path class="cls-2" d="M27.73,21.85s-7.8-3.51-9.1,14.07a5.7,5.7,0,0,1-5.75,4.75c-5.08.08,4.2,7.61,7.73,7s17.95,1.84,14.71-5l-.2-.42S22.8,39.85,26.63,26.6Z"/><path class="cls-3" d="M30,27.51a8.86,8.86,0,0,1,14.64,2c3.17,6.32-2.09,13-8.24,12.81a9.91,9.91,0,0,1-2-.22c-5.27-1.25-7.8-5.42-8.1-10.36a30.13,30.13,0,0,1,1.41-9.87c.58-2.07,1.67-5.3,4.31-5.3h9.65a2.87,2.87,0,0,1,2.65,1.78l1.64,4a8.63,8.63,0,0,1,8.63,8.63V39A8.63,8.63,0,0,1,46,47.64H20.61A8.63,8.63,0,0,1,12,39V31.12a8.63,8.63,0,0,1,8.63-8.63h0a3.33,3.33,0,0,0,3.33-3.33V19H17V20.3"/><path class="cls-3" d="M36.4,29.3a4.09,4.09,0,1,0,4.09,4.09"/><circle class="cls-4" cx="39.49" cy="30.55" r="1"/></svg>