<svg id="Layer_1" data-name="Layer 1" xmlns="http://www.w3.org/2000/svg" viewBox="0 0 64 64"><defs><style>.cls-1{fill:none;stroke:#295183;stroke-linecap:round;stroke-linejoin:round;stroke-width:2px;}.cls-2{fill:#295183;}.cls-3{fill:#a8d2f0;}.cls-4{fill:#389ad6;}</style></defs><title>cells, molecule, science, biology, microscope, lab</title><line class="cls-1" x1="22.92" y1="41.2" x2="19.84" y2="35.87"/><polyline class="cls-1" points="22.92 30.53 29.08 30.53 32.16 35.87"/><polyline class="cls-1" points="30.37 38.98 32.17 35.87 38.33 35.87 40.25 39.2"/><polyline class="cls-1" points="22.92 50.48 19.84 46.54 22.92 41.2"/><polyline class="cls-1" points="13.68 35.87 19.84 35.87 22.92 41.2 19.84 46.54 13.68 46.54"/><polyline class="cls-1" points="37.33 25.19 32.17 25.19 29.09 19.86 32.17 14.52 38.33 14.52 41.03 19.2"/><polyline class="cls-1" points="38.33 35.87 32.17 35.87 29.09 30.53"/><line class="cls-1" x1="29.09" y1="30.53" x2="22.92" y2="30.53"/><polyline class="cls-1" points="19.84 35.87 13.68 35.87 10.6 30.53"/><circle class="cls-2" cx="30.66" cy="27.76" r="1"/><circle class="cls-2" cx="31.66" cy="49.95" r="1"/><circle class="cls-2" cx="21.22" cy="33.26" r="1"/><path class="cls-3" d="M23.94,22.22a.35.35,0,0,0-.09.11l-.46.71c-.25.39-.51.78-.73,1.2C22,25.48,22.8,26,23.45,27c.3.46.6,1.36,1.22,1.46a6.57,6.57,0,0,0,1.24-.09,12,12,0,0,0,2.2-.09c.95-.22,1.24-1.5,1.37-2.32s-.33-1.28-.71-1.91a5.91,5.91,0,0,0-.92-1.5c-.59-.53-1.3-.34-2-.34A5.37,5.37,0,0,0,23.94,22.22Z"/><path class="cls-3" d="M14.64,38.13a.35.35,0,0,0-.09.11l-.46.71c-.25.39-.51.78-.73,1.2-.66,1.25.14,1.77.79,2.76.3.46.6,1.36,1.22,1.46a6.57,6.57,0,0,0,1.24-.09,12,12,0,0,0,2.2-.09c.95-.22,1.24-1.5,1.37-2.32s-.33-1.28-.71-1.91a5.91,5.91,0,0,0-.92-1.5c-.59-.53-1.3-.34-2-.34A5.37,5.37,0,0,0,14.64,38.13Z"/><path class="cls-3" d="M33.23,38.13a.35.35,0,0,0-.09.11l-.46.71c-.25.39-.51.78-.73,1.2-.66,1.25.14,1.77.79,2.76.3.46.6,1.36,1.22,1.46a6.57,6.57,0,0,0,1.24-.09,12,12,0,0,0,2.2-.09c.95-.22,1.24-1.5,1.37-2.32s-.33-1.28-.71-1.91a5.91,5.91,0,0,0-.92-1.5c-.59-.53-1.3-.34-2-.34A5.37,5.37,0,0,0,33.23,38.13Z"/><path class="cls-3" d="M35.15,43.31s2.32,2.67-1,3.33.68.75.68.75,3.11,2.13.37,4-13.85.92-13-1.46A10.4,10.4,0,0,1,25,45.83S22.73,42.27,35.15,43.31Z"/><path class="cls-4" d="M48.11,44.1c-.2.37-1.32.28-1.68.32A3.94,3.94,0,0,0,43.49,46a2.5,2.5,0,0,0,.67,3c.56.54,1.42.6,1.93,1.18.3.34,1,1.08,1,.18C47.2,49,47,46.14,47,46.14Z"/><path class="cls-3" d="M44.19,21.81a1.59,1.59,0,0,1,2.37.23h0a4.35,4.35,0,0,0,1.77,1.73c1.35.51,2.36-.69,3.34-1.4a.82.82,0,0,1,.69-.23c.36.12.37.63.25,1a6.5,6.5,0,0,1-1.13,1.95,16.89,16.89,0,0,1-2.37,2.44C47.68,28.74,45.95,30,44,30a12.61,12.61,0,0,0-2.42-.06.87.87,0,0,0-.51.25.7.7,0,0,0-.09.68,2.07,2.07,0,0,0,.38.6,5.87,5.87,0,0,1-2.25-2,1.57,1.57,0,0,1-.23-.83,1.69,1.69,0,0,1,.37-.89,2.22,2.22,0,0,1,1.8-1A11.68,11.68,0,0,1,44.19,21.81Z"/><path class="cls-4" d="M42.37,24.47l-.26-.53s-1.24,2.2-.86,2.64S42.6,29.5,45,29.39A4.71,4.71,0,0,0,46,29.22a.85.85,0,0,0,0-1.64A6.24,6.24,0,0,1,42.37,24.47Z"/><path class="cls-4" d="M31.89,47.55s.75,1,0,1.59c-.58.43-1.78.3-2.44.3s-1.68,0-2.51-.07a3.06,3.06,0,0,0-1.7.25,1,1,0,0,0-.39,1.52c1,1.22-3.89-1.16-1.67-3.59S31.89,47.55,31.89,47.55Z"/><path class="cls-1" d="M44.11,21.64,46.74,19a3.83,3.83,0,0,1,3.17-1.1A3.76,3.76,0,0,1,52.19,19a3.82,3.82,0,0,1,1.1,2.29q0,.22,0,.44a3.82,3.82,0,0,1-1.12,2.73l-4.39,4.4a3.85,3.85,0,0,1-6.56-2.3"/><path class="cls-1" d="M44.63,30,42.7,31.9a1.06,1.06,0,0,1-1.49,0L39.32,30a1.06,1.06,0,0,1,0-1.49l1.93-1.93A3.82,3.82,0,0,0,44.63,30Z"/><path class="cls-1" d="M53.31,16l1.89,1.89a1.06,1.06,0,0,1,0,1.49l-1.9,1.91"/><path class="cls-1" d="M49.91,26.77l2.82,2.8c4.81,4.62,1.14,10.15-2,13.26l-4.34,4.34"/><path class="cls-1" d="M42.56,46.88H26.74A1.9,1.9,0,0,1,24.84,45V44.8a1.91,1.91,0,0,1,1.9-1.9H41.56"/><path class="cls-1" d="M46.42,47.15a2.32,2.32,0,0,1,1.23,2v.22a2.32,2.32,0,0,1-2.3,2.31H25a2.32,2.32,0,0,1-2.3-2.31v-.22A2.32,2.32,0,0,1,25,46.88h2.48"/><circle class="cls-2" cx="42.37" cy="23.47" r="1"/><circle class="cls-2" cx="44.75" cy="42.9" r="1"/><path class="cls-3" d="M16,15.42c1.52.26,1.16,1.33.92,2.47a8.66,8.66,0,0,0,.15,4,6.17,6.17,0,0,0,.49,1.43c.23.4.84.76.9,1.24a.72.72,0,0,1-.36.65,2.51,2.51,0,0,1-1.33.32,4.25,4.25,0,0,1-1.66-.36s-3.69-2.05-3.86-4c-.14-1.56,1.18-3.41,2.18-4.48a4,4,0,0,1,2.09-1.36A1.61,1.61,0,0,1,16,15.42Z"/><path class="cls-1" d="M22.89,22.3a5.49,5.49,0,0,1-.71,1.47,5.57,5.57,0,0,1-.47.6,5.25,5.25,0,0,1-.91.82,5.6,5.6,0,0,1-2.34,1,5.33,5.33,0,0,1-1,.1,5.73,5.73,0,0,1-1-.07,5.59,5.59,0,0,1-2.37-.94h0a5.42,5.42,0,0,1-1.42-1.37,5.5,5.5,0,0,1-1-2.34h0a5,5,0,0,1-.11-1,5.1,5.1,0,0,1,.07-1,5.76,5.76,0,0,1,.93-2.35,5.65,5.65,0,0,1,1-1.15,2.4,2.4,0,0,1,.34-.27,5.39,5.39,0,0,1,1.25-.69,1.28,1.28,0,0,1,.25-.1,4.14,4.14,0,0,1,.84-.22,5.56,5.56,0,0,1,2,0h0a5.52,5.52,0,0,1,2.1.77l.25.16a5.79,5.79,0,0,1,1.43,1.38l.07.09a5.63,5.63,0,0,1,.94,2.25,5.33,5.33,0,0,1,.1,1,4.91,4.91,0,0,1-.07,1h0A3.79,3.79,0,0,1,23,22,1.56,1.56,0,0,1,22.89,22.3Z"/><circle class="cls-1" cx="17.38" cy="20.51" r="2.33" transform="translate(-0.31 0.27) rotate(-0.87)"/><rect class="cls-2" x="15.99" y="11.63" width="2.56" height="3.3" rx="0.58" ry="0.58" transform="translate(-0.2 0.27) rotate(-0.87)"/><path class="cls-2" d="M13.88,16.09l-.08.1L13,17a.7.7,0,0,1-.37.2.67.67,0,0,1-.6-.18l-1.39-1.34a.69.69,0,0,1,0-1l.22-.22.61-.63a.68.68,0,0,1,1,0l1.38,1.34a.68.68,0,0,1,.19.61A.63.63,0,0,1,13.88,16.09Z"/><rect class="cls-2" x="8.87" y="18.97" width="2.56" height="3.3" rx="0.58" ry="0.58" transform="translate(-10.31 31.08) rotate(-90.87)"/><rect class="cls-2" x="11.07" y="24.05" width="2.56" height="3.3" rx="0.58" ry="0.58" transform="translate(3.32 52.74) rotate(-135.87)"/><path class="cls-2" d="M18.76,26.76l0,1.93a.68.68,0,0,1-.67.69l-1.19,0a.68.68,0,0,1-.69-.67l0-1.93a.68.68,0,0,1,.29-.56.62.62,0,0,1,.39-.13l1.19,0a.62.62,0,0,1,.39.12A.68.68,0,0,1,18.76,26.76Z"/><path class="cls-2" d="M24.17,26.26l-.4.41-.43.45a.68.68,0,0,1-1,0L21,25.79a.68.68,0,0,1-.2-.6.62.62,0,0,1,.18-.37l.73-.74.11-.11a.66.66,0,0,1,.37-.2.7.7,0,0,1,.6.18l1.39,1.35A.68.68,0,0,1,24.17,26.26Z"/><rect class="cls-2" x="23.34" y="18.75" width="2.56" height="3.3" rx="0.58" ry="0.58" transform="translate(44.64 -4.53) rotate(89.13)"/><rect class="cls-2" x="21.14" y="13.67" width="2.56" height="3.3" rx="0.58" ry="0.58" transform="translate(16.99 -11.29) rotate(44.13)"/></svg>