<svg id="Layer_1" data-name="Layer 1" xmlns="http://www.w3.org/2000/svg" viewBox="0 0 64 64"><defs><style>.cls-1{fill:#a5cfed;}.cls-2{fill:#3897d3;}.cls-3,.cls-6{fill:none;stroke-linecap:round;stroke-linejoin:round;stroke-width:2px;}.cls-3{stroke:#295181;}.cls-4{fill:#295181;}.cls-5{fill:#9ac8f1;}.cls-6{stroke:#2a5081;}</style></defs><title>click, press, hold, hand, touch, gesture</title><path class="cls-1" d="M36.83,23.94s-2.62,16.75,1.51,18.13,5.75,3.13,5.94,5.25-9.63.38-11.69-3.5-5.5-4.75-4.32-6.19S32,35.31,33.74,37s.37-8.81.27-9S34.82,23.38,36.83,23.94Z"/><path class="cls-2" d="M35.74,23.38s-6,1.66-6,7.85c-.6-.07-7.09,3.06-5.74,8.88s8.13,5.66,8.8,5.44-5.62-5.21-3.93-8.34,4.38-.44,4.38-.44Z"/><path class="cls-3" d="M42,47.75h2.89a2.32,2.32,0,0,0,2.32-2.32V36.78A5.83,5.83,0,0,0,41.4,31H40.11a5.42,5.42,0,0,0-.65,0V26.77A2.58,2.58,0,0,0,37,24.19a2.69,2.69,0,0,0-2.71,2.73V37.85"/><path class="cls-3" d="M34.3,38.23l-1.67-1.67a2.59,2.59,0,0,0-3.56-.09,2.68,2.68,0,0,0,0,3.84l5.23,5.23"/><circle class="cls-4" cx="38.74" cy="47.75" r="1"/><path class="cls-5" d="M37.74,15.36l-.32-.07.16,0Z"/><path class="cls-6" d="M43.13,26.24A6.08,6.08,0,0,0,37,20.17h0A6.08,6.08,0,0,0,31,26.24"/><path class="cls-5" d="M37.4,21.55l-.16,0,.08,0Z"/><path class="cls-3" d="M26.82,18.54a5.89,5.89,0,1,1-2.35-1.72"/><polyline class="cls-3" points="21.96 19.63 21.96 23.13 24.11 23.13"/></svg>