<svg id="Layer_1" data-name="Layer 1" xmlns="http://www.w3.org/2000/svg" viewBox="0 0 64 64"><defs><style>.cls-1{fill:#a5cfed;}.cls-2{fill:#3897d3;}.cls-3,.cls-6{fill:none;stroke-linecap:round;stroke-linejoin:round;stroke-width:2px;}.cls-3{stroke:#295181;}.cls-4{fill:#295181;}.cls-5{fill:#9ac8f1;}.cls-6{stroke:#2a5081;}</style></defs><title>click, press, double, hand, gesture</title><path class="cls-1" d="M32.52,25.88S29.9,41.63,34,43s5.75,3.13,5.94,5.25-9.63.38-11.69-3.5S22.77,40,24,38.56s3.69-2.31,5.47-.62.37-7.81.27-8S30.52,25.31,32.52,25.88Z"/><path class="cls-2" d="M31.44,25.32s-6,.66-6,6.85c-.6-.07-7.09,3.06-5.74,8.88s8.13,5.66,8.8,5.44-5.62-5.21-3.93-8.34,4.38-.44,4.38-.44Z"/><path class="cls-3" d="M30,39.17V28.85a2.68,2.68,0,0,1,2.71-2.72,2.57,2.57,0,0,1,.83.18"/><path class="cls-3" d="M38.71,32.13a5.83,5.83,0,0,1,4.2,5.58v8.65a2.33,2.33,0,0,1-2.32,2.33h-2.9"/><path class="cls-3" d="M30,39.17,28.33,37.5a2.59,2.59,0,0,0-3.56-.09,2.68,2.68,0,0,0,0,3.84L30,46.49"/><circle class="cls-4" cx="34.43" cy="48.69" r="1"/><path class="cls-5" d="M36.53,20.55l-.16,0,.08,0Z"/><path class="cls-6" d="M27.24,20A9.32,9.32,0,0,1,29,17.72a9.89,9.89,0,0,1,16.88,7"/><path class="cls-6" d="M30,23.64a6.23,6.23,0,0,1,5.17-4.32,6.43,6.43,0,0,1,.77-.05,6.22,6.22,0,0,1,6.23,6.23"/><path class="cls-6" d="M22.79,32.19a9.8,9.8,0,0,1-.65-3.5A9.92,9.92,0,0,1,27.24,20"/><path class="cls-6" d="M26.5,31.61a6.19,6.19,0,0,1,3.51-8"/><path class="cls-5" d="M30.37,24.41l-.17,0,.07,0Z"/><path class="cls-3" d="M38.71,32.13V25.62A2.68,2.68,0,0,0,36,22.9a2.58,2.58,0,0,0-2.46,2.58v.83"/><line class="cls-3" x1="34.03" y1="29.56" x2="34.03" y2="33.73"/></svg>