<svg id="Layer_1" data-name="Layer 1" xmlns="http://www.w3.org/2000/svg" viewBox="0 0 64 64"><defs><style>.cls-1{fill:#a8d2f0;}.cls-2{fill:#389ad6;}.cls-3{fill:none;stroke:#295183;stroke-linecap:round;stroke-linejoin:round;stroke-width:2px;}</style></defs><title>cloud, cloudy, weather, rainbow, forecast</title><path class="cls-1" d="M51.64,34.17a1,1,0,1,1-2,0,17.17,17.17,0,1,0-34.33,0,17,17,0,0,0,1.07,6,16.31,16.31,0,0,0,1.13,2.44,4.24,4.24,0,0,0,.58,1.58s0,0,0,0a1,1,0,0,1-.42.58,1,1,0,0,1-.54.15,1,1,0,0,1-.84-.46A19.17,19.17,0,1,1,51.64,34.17Z"/><path class="cls-1" d="M36.25,26.56a1.4,1.4,0,0,0-.41-.28A.67.67,0,0,1,36.25,26.56Z"/><path class="cls-1" d="M34,35.67a1.07,1.07,0,0,1,0,.67,1.33,1.33,0,0,1-1,.75,1.47,1.47,0,0,1-1.71-.67,3.58,3.58,0,0,1-.13-.82.83.83,0,0,0-.41-.68c-.33-.14-.7.1-1,.35a4.09,4.09,0,0,0-1.23,2.39c0,.83,1.13,1.39,1.82,1.53a9,9,0,0,0,2.49,0c4.44-.32,8.94.71,13.33,0a3.63,3.63,0,0,0,2.21-1A2.75,2.75,0,0,0,49,36.35c0-.67-.41-1.13-1.1-.76a9.37,9.37,0,0,1-.83.52,1.6,1.6,0,0,1-1.6-.35,3.93,3.93,0,0,1-.95-1.43c-.17-.37-.42-.82-.82-.8a.92.92,0,0,0-.4.15,6.66,6.66,0,0,0-1.21.88c.21-.36.41-.82.19-1.17S41.45,33,41,33a4.33,4.33,0,0,1-4.43-4.83,3,3,0,0,0,0-.75.7.7,0,0,0-.41-.59.89.89,0,0,0-.59.05,4.66,4.66,0,0,0-2.85,3.39,6.36,6.36,0,0,0,.78,4.45A4.32,4.32,0,0,1,34,35.67Z"/><path class="cls-2" d="M43.17,33.36s.9.15,1.12.56-1.21,2.39-2.22,1.78,1.12-3,1.12-3Z"/><path class="cls-2" d="M29,36.47a1.14,1.14,0,0,1,0,.25A1.55,1.55,0,0,0,29.87,38c.33.16,1.3,0,1.44.5s-.55.56-.82.6a1.88,1.88,0,0,1-2.1-1.36,1.81,1.81,0,0,1,.06-1.36.33.33,0,0,1,.48-.07A.28.28,0,0,1,29,36.47Z"/><path class="cls-2" d="M32.64,31.53a.76.76,0,0,1,.16-.31.48.48,0,0,1,.52-.15.69.69,0,0,1,.26.23c.65.84,1,2,1.78,2.62.38.3.84.49,1.2.81a.79.79,0,0,1,.29.87.83.83,0,0,1-.7.36,3,3,0,0,1-2.53-1.05,4.25,4.25,0,0,1-.82-1.84A3.6,3.6,0,0,1,32.64,31.53Z"/><path class="cls-3" d="M32.22,39.34H45.7a3.52,3.52,0,1,0-2.85-5.59,4.94,4.94,0,0,1-.42.76,3.35,3.35,0,0,1,.42-.76,5.5,5.5,0,0,0-.39-5.24"/><line class="cls-1" x1="35.79" y1="26.28" x2="35.8" y2="26.27"/><path class="cls-1" d="M17.17,39.72a1.4,1.4,0,0,0-.41-.28A.67.67,0,0,1,17.17,39.72Z"/><path class="cls-1" d="M29.91,49.5a2.72,2.72,0,0,1-.64,1.86,3.59,3.59,0,0,1-2.21,1c-4.39.73-8.89-.31-13.33,0a9,9,0,0,1-2.49,0c-.68-.14-1.84-.71-1.82-1.53a4.16,4.16,0,0,1,1.23-2.39c.26-.25.63-.49,1-.35a.85.85,0,0,1,.41.68,3.69,3.69,0,0,0,.13.82,1.46,1.46,0,0,0,1.71.67,1.29,1.29,0,0,0,1-.75,1,1,0,0,0,0-.67,3.84,3.84,0,0,0-.43-.89,6.4,6.4,0,0,1-.78-4.46,5,5,0,0,1,1-2.12,4.38,4.38,0,0,1,1.67-1.22l.13,0A.86.86,0,0,1,17.1,40a.69.69,0,0,1,.41.59,2.72,2.72,0,0,1,0,.75,3.72,3.72,0,0,0,0,1.2,4.24,4.24,0,0,0,.58,1.58s0,0,0,0a5.05,5.05,0,0,0,.49.63,4.37,4.37,0,0,0,3.31,1.4c.47,0,1-.05,1.3.35s0,.81-.19,1.17a7.07,7.07,0,0,1,1.21-.88.91.91,0,0,1,.4-.14c.4,0,.65.43.82.8a4,4,0,0,0,.94,1.43,1.63,1.63,0,0,0,1.61.35c.3-.13.54-.37.83-.52C29.5,48.37,29.88,48.84,29.91,49.5Z"/><path class="cls-2" d="M23,48.85c-.54-.33-.18-1.16.28-1.85a8.46,8.46,0,0,1,.84-1.11l0,.63h0a2.36,2.36,0,0,1,.58.18,1.36,1.36,0,0,1,.39.22.43.43,0,0,1,.14.16C25.43,47.49,24,49.47,23,48.85Z"/><path class="cls-2" d="M9.91,49.63a1.14,1.14,0,0,1,0,.25,1.55,1.55,0,0,0,.86,1.32c.33.16,1.3,0,1.44.5s-.55.56-.82.6a1.89,1.89,0,0,1-2.1-1.36,1.8,1.8,0,0,1,.06-1.36.33.33,0,0,1,.48-.07A.28.28,0,0,1,9.91,49.63Z"/><path class="cls-2" d="M13.56,44.69a.76.76,0,0,1,.16-.31.48.48,0,0,1,.52-.15.69.69,0,0,1,.26.23c.65.84,1,2,1.78,2.62.38.3.84.49,1.2.81a.79.79,0,0,1,.29.87.83.83,0,0,1-.7.36,3,3,0,0,1-2.53-1.05,4.25,4.25,0,0,1-.82-1.84A3.6,3.6,0,0,1,13.56,44.69Z"/><path class="cls-3" d="M23.38,41.66a5.54,5.54,0,0,1,.86,2.6c0,.13,0,.25,0,.38a5.7,5.7,0,0,1-.14,1.25,5,5,0,0,1-.34,1,3.22,3.22,0,0,0-.25.39,3,3,0,0,0-.17.37l.27-.44.15-.32a2.43,2.43,0,0,1,.33-.38,3.45,3.45,0,0,1,1.81-1h0a2.68,2.68,0,0,1,.7-.08A3.51,3.51,0,0,1,30.14,49a3.47,3.47,0,0,1-.47,1.75,3.43,3.43,0,0,1-1,1.14l-.08.05a3.43,3.43,0,0,1-1.93.58H13.14"/><line class="cls-1" x1="16.71" y1="39.43" x2="16.72" y2="39.43"/><path class="cls-3" d="M13.63,47.07A22.31,22.31,0,1,1,54.79,35.13a22.46,22.46,0,0,1-.31,3.7"/><line class="cls-3" x1="25.92" y1="45.53" x2="25.91" y2="45.53"/><path class="cls-3" d="M9.21,50.57a3.33,3.33,0,0,1,3.58-3.11,2.77,2.77,0,0,1,1.61.5,2.81,2.81,0,0,1,.82.86A5.15,5.15,0,0,1,14.4,48a5.51,5.51,0,0,1-.93-4.77,5.37,5.37,0,0,1,3.18-3.62,5.61,5.61,0,0,1,4.1,0,.15.15,0,0,0,.21-.2A11.9,11.9,0,0,1,39.34,25.88a.16.16,0,0,1-.14.29,5.48,5.48,0,0,0-5.71,8.63,5.63,5.63,0,0,0,.82.87,2.8,2.8,0,0,0-2.43-1.36,3.32,3.32,0,0,0-3.58,3.1"/></svg>