<svg id="Layer_1" data-name="Layer 1" xmlns="http://www.w3.org/2000/svg" viewBox="0 0 64 64"><defs><style>.cls-1{fill:none;stroke:#295183;stroke-linecap:round;stroke-linejoin:round;stroke-width:2px;}.cls-2{fill:#a8d2f0;}.cls-3{fill:#3897d3;}.cls-4{fill:#295183;}</style></defs><title>crab, nautical, marine, animal, food</title><path class="cls-1" d="M11.32,42.51a20.65,20.65,0,0,1,1.82-3.91"/><path class="cls-1" d="M45.9,34.77a20.78,20.78,0,0,1,4.78,7.74"/><path class="cls-1" d="M17.43,52a13.53,13.53,0,0,1,.93-4.95"/><path class="cls-1" d="M42,44a13.45,13.45,0,0,1,2.6,8"/><path class="cls-2" d="M20.65,34.59a1.41,1.41,0,0,0-.41-.39A1.8,1.8,0,0,0,19,34c-4.35.77-1.84,6.33-.56,8.64a9.25,9.25,0,0,0,4.28,4.13,13.15,13.15,0,0,0,5.52.69,35.87,35.87,0,0,0,8.07-.92,15.12,15.12,0,0,0,7.06-3.84,5.46,5.46,0,0,0,1.82-3.8,2.7,2.7,0,0,0-2.73-2.71c-1.12.15-1.89,1.13-2.7,1.92a11.19,11.19,0,0,1-6,2.89A17.16,17.16,0,0,1,27,40.64a11,11,0,0,1-3.42-1.35,5.33,5.33,0,0,1-2.27-2.82A6.75,6.75,0,0,0,20.65,34.59Z"/><path class="cls-3" d="M25.34,42.27l-.31.05c-2.57.55-2.29,3.59-.5,4.86a7.33,7.33,0,0,0,2.78,1.08,19.86,19.86,0,0,0,10.36-.6A3.24,3.24,0,0,0,38.92,47a3.49,3.49,0,0,0,.81-1.93c.21-1.1.31-2.45-.59-3.12a3.07,3.07,0,0,0-2.42-.21c-2.78.54-5.6,1.17-8.41.79A11.68,11.68,0,0,0,25.34,42.27Z"/><path class="cls-1" d="M41.45,28.08a13.48,13.48,0,0,0,3.12-8.65"/><path class="cls-1" d="M17.43,19.43a13.48,13.48,0,0,0,2.74,8.17"/><path class="cls-2" d="M38.56,11.73a.73.73,0,0,1,.25.33,2.21,2.21,0,0,1,.1.7A4.86,4.86,0,0,0,40.23,16a6.75,6.75,0,0,0,3.65,1.52c.28,0,.64.19.62.48a.55.55,0,0,1-.25.35,4.88,4.88,0,0,1-5.09.43c-2.43-1.27-3.6-4.89-1.36-6.89a.79.79,0,0,1,.5-.25A.48.48,0,0,1,38.56,11.73Z"/><path class="cls-2" d="M19.1,18.36a.59.59,0,0,1,.27-.21,1.78,1.78,0,0,1,.57-.08A4,4,0,0,0,22.59,17a5.51,5.51,0,0,0,1.25-3c0-.23.16-.53.39-.5a.45.45,0,0,1,.29.21,4,4,0,0,1,.36,4.16c-1,2-4,2.94-5.64,1.11a.65.65,0,0,1-.2-.41A.39.39,0,0,1,19.1,18.36Z"/><path class="cls-1" d="M20.94,14.52a13.43,13.43,0,0,0-3.51,4.93,12.67,12.67,0,0,0-.94,4.79,12.81,12.81,0,0,0,2.75,7.89"/><path class="cls-1" d="M42.81,32.16a13,13,0,0,0,2.7-7.92,12.8,12.8,0,0,0-.93-4.81,13.45,13.45,0,0,0-3.39-4.9"/><path class="cls-1" d="M45.27,38.28A14.92,14.92,0,0,1,42,44,14.92,14.92,0,0,1,20,44a14.68,14.68,0,0,1-2.47-3.63,14.86,14.86,0,0,1-1.46-5.62,20.59,20.59,0,0,1,3-2.54,20.17,20.17,0,0,1,3.64-2,20.71,20.71,0,0,1,20.17,2,20.28,20.28,0,0,1,3,2.55"/><path class="cls-1" d="M13.81,51.1A17.1,17.1,0,0,1,15.86,43"/><path class="cls-1" d="M44.44,40.39a17.09,17.09,0,0,1,3.75,10.7"/><path class="cls-1" d="M25.31,14.52A4.42,4.42,0,0,1,20.88,19"/><path class="cls-1" d="M36.82,14.52A4.42,4.42,0,0,0,41.24,19"/><circle class="cls-4" cx="51.68" cy="45.63" r="1"/></svg>