<svg id="Layer_1" data-name="Layer 1" xmlns="http://www.w3.org/2000/svg" viewBox="0 0 64 64"><defs><style>.cls-1{fill:#9ac8f1;}.cls-2{fill:#3897d3;}.cls-3,.cls-5{fill:none;stroke-linecap:round;stroke-linejoin:round;stroke-width:2px;}.cls-3{stroke:#2a5080;}.cls-4{fill:#2a5080;}.cls-5{stroke:#9ac8f1;}</style></defs><title>crown, heart, love, favourite, reward</title><path class="cls-1" d="M21.3,20A19.83,19.83,0,0,0,23.36,22a12.24,12.24,0,0,0,6.19,2.23,39,39,0,0,1,5.69.71c1.23.35,3.21,1.86,2.39,3.37-.59,1.08-2.2.9-3.25,1.53a.82.82,0,0,0-.39.41.91.91,0,0,0,.17.72c.27.44-1.39.85-1.19,1.33s-.77,1.08-1.11,1.47a2,2,0,0,1-1.31.51c-3.09.4-3.22.79-6.3.32a3.76,3.76,0,0,1-2.73-1.38c-.61-1-.34-2.2-.39-3.34a17.82,17.82,0,0,0-1.41-4.82,32,32,0,0,1-1.27-7.32A7.55,7.55,0,0,1,21.3,20Z"/><path class="cls-2" d="M20.69,19.54s-.49,4.56,5.07,7.06-3.41,2.92-3.41,2.92-.8,5-2.71-5.19S20.69,19.54,20.69,19.54Z"/><rect class="cls-2" x="21.56" y="29.11" width="6.57" height="5.5" rx="2.75" ry="2.75"/><path class="cls-3" d="M18.11,16.21a7.35,7.35,0,0,0,14.21-2.65"/><path class="cls-3" d="M32.3,13.56a7.35,7.35,0,0,0,14.2,2.66"/><polyline class="cls-3" points="47.01 13.57 43.7 31.12 41.54 30.18"/><path class="cls-3" d="M34.3,23.63a2,2,0,1,1-2-2"/><path class="cls-3" d="M34.3,11.63a2,2,0,1,1-2-2"/><path class="cls-3" d="M49,11.63a2,2,0,1,1-2-2"/><path class="cls-3" d="M17.62,13.6a2,2,0,1,1,0-3.95"/><path class="cls-1" d="M38.07,46.59a2.69,2.69,0,0,1,.34,4.11l-1.93,1.93-.22.2a.72.72,0,0,1-.12.11l-.35.27-.36.24h0a5.93,5.93,0,0,1-7.29-.84l-3.86-3.86,0,0-4.43-4.42A8.6,8.6,0,0,1,19.14,33a2.81,2.81,0,0,1,.5-.49,16.26,16.26,0,0,1,5.51-2.76,7.36,7.36,0,0,1,.74,0A8.54,8.54,0,0,1,32,32.2l.36.37.36-.36a7.1,7.1,0,0,1,.59-.53,12.07,12.07,0,0,0-.85,4.45A12.69,12.69,0,0,0,38.07,46.59Z"/><path class="cls-2" d="M20.74,39.52a8.3,8.3,0,0,0,3.35,7.9h0l-1.64-.49-2.62-2.61a8.6,8.6,0,0,1-.47-11.61,6.68,6.68,0,0,1,.47-.52,8.56,8.56,0,0,1,5.33-2.46,7.36,7.36,0,0,1,.74,0,8.55,8.55,0,0,1,5.19,1.74A3.42,3.42,0,0,1,32.23,33h0a8.2,8.2,0,0,0-3.87-.64A8.36,8.36,0,0,0,20.74,39.52Z"/><path class="cls-3" d="M41.54,30.17a8.58,8.58,0,0,0-8.28,1.5,7.1,7.1,0,0,0-.59.53l-.36.36L32,32.2l-.13-.12A8.53,8.53,0,0,0,25.9,29.7a7.36,7.36,0,0,0-.74,0,8.56,8.56,0,0,0-5.33,2.46,6.68,6.68,0,0,0-.47.52,8.6,8.6,0,0,0,.47,11.61l3.26,3.25,1.16,1.16,0,0,3.86,3.86a5.93,5.93,0,0,0,7.29.84h0l.36-.24.35-.27a.72.72,0,0,0,.12-.11l.22-.2L41,48.12l3.79-3.79a8.6,8.6,0,0,0,1.89-9.26"/><path class="cls-3" d="M21.13,38.61a5.12,5.12,0,0,1,5.12-5.12"/><circle class="cls-4" cx="45.5" cy="33" r="1"/><line class="cls-5" x1="52.81" y1="14.84" x2="52.81" y2="19.17"/><line class="cls-5" x1="50.65" y1="17" x2="54.98" y2="17"/><line class="cls-5" x1="11.34" y1="16.93" x2="11.34" y2="19.26"/><line class="cls-5" x1="10.18" y1="18.1" x2="12.51" y2="18.1"/><line class="cls-3" x1="20.29" y1="27.76" x2="17.62" y2="13.57"/><path class="cls-3" d="M17.15,39.54A16.3,16.3,0,0,0,15,42.45a6,6,0,0,0-.68,5.12c1.61,4,9.06,4.94,18,2.74a52.92,52.92,0,0,0,7-2.28c11.81-4.75,19.73-12.67,17.71-17.68-.93-2.32-3.83-3.61-7.85-3.86"/><path class="cls-1" d="M14.19,29.71a.88.88,0,0,1,.66,1.18l-.32.84,0,.09,0,0-.07.13-.07.12h0a2,2,0,0,1-2.29.74l-1.68-.63h0l-1.92-.72a2.82,2.82,0,0,1-1.74-3.29A.92.92,0,0,1,6.77,28,5.34,5.34,0,0,1,8,26.43l.22-.11a2.8,2.8,0,0,1,2.15-.08l.16.06.06-.16a2.33,2.33,0,0,1,.1-.24,4,4,0,0,0,.35,1.45A4.16,4.16,0,0,0,14.19,29.71Z"/><path class="cls-2" d="M8.42,30.07a2.78,2.78,0,0,0,2,2.11h0l-.6.08-1.22-.46a3,3,0,0,1-1.84-3.66,2.35,2.35,0,0,1,.07-.23,3,3,0,0,1,1.35-1.57l.23-.12a3,3,0,0,1,1.92-.2,1.21,1.21,0,0,1,.6.35h0a2.89,2.89,0,0,0-1.33.36A2.76,2.76,0,0,0,8.42,30.07Z"/><path class="cls-3" d="M12.5,24.43a2.81,2.81,0,0,0-1.77,1.48,2.33,2.33,0,0,0-.1.24l-.06.16-.16-.06-.06,0a2.8,2.8,0,0,0-2.09.1L8,26.43a2.81,2.81,0,0,0-1.26,1.46,2.19,2.19,0,0,0-.07.22,2.82,2.82,0,0,0,1.71,3.41L9.85,32l.51.19h0l1.68.63a2,2,0,0,0,2.29-.74h0l.07-.12.07-.13,0,0,0-.09.74-2,.62-1.65a2.82,2.82,0,0,0-.45-2.76"/></svg>