<svg id="Layer_1" data-name="Layer 1" xmlns="http://www.w3.org/2000/svg" viewBox="0 0 64 64"><defs><style>.cls-1{fill:#fff;}.cls-2{fill:#9ac8f1;}.cls-3{fill:#389ad6;}.cls-4,.cls-6,.cls-8{fill:none;stroke-linecap:round;stroke-linejoin:round;stroke-width:2px;}.cls-4{stroke:#2a5081;}.cls-5{fill:#2a5082;}.cls-6{stroke:#295183;}.cls-7{fill:#2a5081;}.cls-8{stroke:#9ac8f1;}</style></defs><title>currency, finance, money, bitcoin</title><path class="cls-1" d="M48.61,57.63s-8.66-1.76-12.91-.5c-1,.3-1.39-.2-1.37-1.15A16.42,16.42,0,1,1,48,39.78a15.68,15.68,0,0,1-.28,3l.57-.17L48,55.29Z"/><path class="cls-2" d="M48,56.21c-2.41,1.29-13.24,0-16.16,0a17.45,17.45,0,0,1-3.72-.4A17.14,17.14,0,0,1,25.93,23a15.07,15.07,0,0,1,1.94-.59c-.15.2-.29.4-.42.61a1.85,1.85,0,0,0-.21.33A20.21,20.21,0,0,0,24,34.3a10.74,10.74,0,0,0,.54,3.29,7.93,7.93,0,0,0-.62,3.09,8,8,0,0,0,.69,3.26v0A8,8,0,0,0,29,48.09h0a8.36,8.36,0,0,0,2.88.54,7.88,7.88,0,0,0,1.2-.09C37.84,52.35,43.58,55.23,48,56.21Z"/><path class="cls-3" d="M26.63,56.37l.6.75c-2.15-1.61-6.6-.36-6.6-.36L14,56l.67-3.44a22.53,22.53,0,0,1,.57-8.16A17.12,17.12,0,0,1,25.93,23.91c.5,0,1,0,1.52,0h.2l-.41.32-.38.31a20.41,20.41,0,0,0,1.22,32.18A14.68,14.68,0,0,1,26.63,56.37Z"/><path class="cls-3" d="M25.74,24.56l1.5-.29a7.15,7.15,0,0,1,3.51-1.37,5.33,5.33,0,0,0,3.62-2.44l-2.91-2.28-5.54,5.73Z"/><path class="cls-3" d="M37.2,47.73a12.91,12.91,0,0,1-1.84,1.87l-.06.05h0a10.21,10.21,0,0,1-10.84,1.72h0a6.92,6.92,0,0,1-3.34-3.25h0a2.59,2.59,0,0,1-.12-.27l0,0v0h0a6.17,6.17,0,0,1-.44-1.94c-.42-6.6,5.93-11.68,6.32-12-.35.56-.67,1.1-.95,1.62l0,0c-3.92,7.3,0,10.17,3,12.49l.14.1h0a3.55,3.55,0,0,0,1,.51h0a7.07,7.07,0,0,0,4.12-.21l.06,0a14.94,14.94,0,0,0,2.13-.84A2.71,2.71,0,0,1,37.2,47.73Z"/><path class="cls-4" d="M38.3,36a6,6,0,0,1,.55.86c.12.21.22.42.32.64a7.46,7.46,0,0,1,.6,2.27.43.43,0,0,1,0,.11.43.43,0,0,0,0,.05v0c0,.24,0,.49,0,.73a8.26,8.26,0,0,1-.44,2.64l-.16.42h0l-.06.15s0,.1-.07.14a7.78,7.78,0,0,1-1.53,2.22,1.8,1.8,0,0,1-.21.19.46.46,0,0,1-.07.07,1.57,1.57,0,0,1-.24.21,6.81,6.81,0,0,1-1.11.8,7.29,7.29,0,0,1-1.76.77l0,0h0a6.86,6.86,0,0,1-1,.23,7.88,7.88,0,0,1-1.2.09A8.36,8.36,0,0,1,29,48.09h0A8,8,0,0,1,24.64,44v0a8,8,0,0,1-.69-3.26,7.93,7.93,0,0,1,.62-3.09,7.6,7.6,0,0,1,1-1.74c.09-.12.18-.24.28-.35l0,0a7.17,7.17,0,0,1,1.09-1,5,5,0,0,1,.46-.34l.21-.13c.19-.13.39-.24.59-.35h0A7.14,7.14,0,0,1,29.73,33h.05a7.87,7.87,0,0,1,4.16,0"/><path class="cls-4" d="M29.87,37.09h2.34a1.45,1.45,0,0,1,.5.09,1.51,1.51,0,0,1,1,1.2,1.11,1.11,0,0,1,0,.47,1.51,1.51,0,0,1-1,1.2,1.45,1.45,0,0,1-.5.09h-1.5"/><path class="cls-4" d="M29.87,44.12h2.5a1.67,1.67,0,0,0,.35,0,1.9,1.9,0,0,0,1-.5l.06-.05.08-.08a1.72,1.72,0,0,0,.21-.28v0h0l.07-.1a2.07,2.07,0,0,0,.22-.92,1.94,1.94,0,0,0-.28-1l0,0h0a1.8,1.8,0,0,0-.34-.41,1.9,1.9,0,0,0-1-.5,1.67,1.67,0,0,0-.35,0H30.72"/><polyline class="cls-4" points="32.22 37.09 30.78 37.09 29.88 37.09 29.4 37.09"/><line class="cls-4" x1="29.41" y1="44.12" x2="30.72" y2="44.12"/><line class="cls-4" x1="30.73" y1="38.05" x2="30.73" y2="45.26"/><line class="cls-4" x1="32.72" y1="45.26" x2="32.72" y2="44.09"/><line class="cls-4" x1="32.72" y1="37.18" x2="32.72" y2="36.05"/><circle class="cls-5" cx="41.92" cy="26.27" r="0.95"/><path class="cls-6" d="M39.92,24.87a16.78,16.78,0,0,0-8.12-2,17.65,17.65,0,0,0-2,.12"/><path class="cls-6" d="M26.36,17.87l-.44-.44a2,2,0,0,1,0-2.77h0a2,2,0,0,1,2.77,0L34.07,20"/><path class="cls-6" d="M44,27.9A17.31,17.31,0,0,1,49,40a16.94,16.94,0,0,1-.78,5.2,11.14,11.14,0,0,0-.55,2.42,30.07,30.07,0,0,0,1.24,9.54s-4.66-1.34-12.56-.61c-1,.1-2.16.24-3.33.42a11.36,11.36,0,0,1-2.78.12l-.22,0c-8.32-.87-15.38-8.79-15.34-17.16A17.07,17.07,0,0,1,21.51,26.3a55.83,55.83,0,0,0,6.14-5.15l6.42-6.42a2,2,0,0,1,2.19-.5,2,2,0,0,1,.66,3.21l-2.68,2.68"/><path class="cls-6" d="M14.34,49.52s.31,5.22-1.25,7.25a17.11,17.11,0,0,1,6.89,0"/><polyline class="cls-4" points="50.42 30.37 54.95 30.37 54.95 37.45"/><path class="cls-4" d="M54.95,39.89A2.09,2.09,0,1,1,52.86,42"/><line class="cls-4" x1="52.04" y1="33.85" x2="52.04" y2="35.24"/><circle class="cls-7" cx="52.04" cy="38.22" r="0.91"/><polyline class="cls-4" points="42.99 23.13 54.04 23.13 54.04 17.87"/><path class="cls-4" d="M54,15.42A2.09,2.09,0,1,0,52,13.34"/><line class="cls-4" x1="51.13" y1="19.65" x2="51.13" y2="20.08"/><circle class="cls-7" cx="51.13" cy="17.1" r="0.91"/><line class="cls-4" x1="47.99" y1="26.44" x2="55.73" y2="26.44"/><line class="cls-4" x1="57.55" y1="19.42" x2="57.55" y2="19.9"/><circle class="cls-7" cx="57.55" cy="23.06" r="0.91"/><polyline class="cls-4" points="13.58 30.37 9.05 30.37 9.05 37.45"/><path class="cls-4" d="M9.05,39.89A2.09,2.09,0,1,0,11.14,42"/><line class="cls-4" x1="11.96" y1="33.85" x2="11.96" y2="35.24"/><circle class="cls-7" cx="11.96" cy="38.22" r="0.91"/><polyline class="cls-4" points="20.01 23.13 9.96 23.13 9.96 17.87"/><path class="cls-4" d="M10,15.42A2.09,2.09,0,1,1,12,13.34"/><line class="cls-4" x1="12.87" y1="19.65" x2="12.87" y2="20.08"/><circle class="cls-7" cx="12.87" cy="17.1" r="0.91"/><line class="cls-4" x1="16.01" y1="26.44" x2="8.27" y2="26.44"/><line class="cls-4" x1="6.45" y1="19.42" x2="6.45" y2="19.9"/><circle class="cls-7" cx="6.45" cy="23.06" r="0.91"/><line class="cls-8" x1="31.3" y1="6.37" x2="31.3" y2="11.01"/><line class="cls-8" x1="17.35" y1="10.05" x2="20.63" y2="13.33"/><line class="cls-8" x1="45.24" y1="10.05" x2="41.97" y2="13.33"/></svg>