<svg id="Layer_1" data-name="Layer 1" xmlns="http://www.w3.org/2000/svg" viewBox="0 0 64 64"><defs><style>.cls-1{fill:#389ad6;}.cls-2{fill:#9dcbf4;}.cls-3,.cls-4{fill:none;stroke-linecap:round;stroke-linejoin:round;stroke-width:2px;}.cls-3{stroke:#2a5081;}.cls-4{stroke:#2a5080;}.cls-5{fill:#2a5080;}</style></defs><title>desk, office, business, people, papers</title><path class="cls-1" d="M22.89,26.51s-1.73,2.63.7,3.75-1.76,2.53-1.76,2.53-.5,2,1.06,2.6-6.05,2.66-2-8.64Z"/><path class="cls-1" d="M23.59,36.19c.26,0,5.16-.23,10.67,4.1s14.43-3.42,15.1,0S50,45.2,31.65,44.62s-14,1.42-14.21-3.83S17.52,36.36,23.59,36.19Z"/><path class="cls-2" d="M39.51,18.19c-.61,0,.11,3.26.14,3.56a12.87,12.87,0,0,1-.13,2.75c-.26,2.34,0,4.71-.42,7-.34,1.67-1.22,3.6-3.24,3.4-4.4-.43.4-12.76,1-12.56s0-4.17,0-4.17Z"/><line class="cls-3" x1="34.26" y1="26.22" x2="30.47" y2="35.38"/><path class="cls-3" d="M39.26,23.38h1.37a3,3,0,0,1,3,3V34A2.09,2.09,0,0,1,41.5,36H36.36A2.09,2.09,0,0,1,34.26,34V26.22"/><path class="cls-3" d="M39.1,17.38a3,3,0,0,0,0,6"/><line class="cls-3" x1="43.33" y1="25.12" x2="47.25" y2="35.38"/><path class="cls-2" d="M39.51,18.19c-.61,0,.11,3.26.14,3.56a12.87,12.87,0,0,1-.13,2.75c-.26,2.34,0,4.71-.42,7-.34,1.67-1.22,3.6-3.24,3.4-4.4-.43.4-12.76,1-12.56s0-4.17,0-4.17Z"/><line class="cls-3" x1="34.26" y1="26.22" x2="30.47" y2="35.38"/><path class="cls-3" d="M39.26,23.38h1.37a3,3,0,0,1,3,3V34A2.09,2.09,0,0,1,41.5,36H36.36A2.09,2.09,0,0,1,34.26,34V26.22"/><path class="cls-3" d="M39.1,17.38a3,3,0,0,0,0,6"/><line class="cls-3" x1="43.33" y1="25.12" x2="47.25" y2="35.38"/><path class="cls-4" d="M49.36,47.62V36S17.69,36,17.44,36v8.57"/><path class="cls-4" d="M26.89,36V32.78H21.83a1.53,1.53,0,0,1-1.53-1.53h0a1.53,1.53,0,0,1,1.53-1.53h3.59a1.47,1.47,0,0,0,1.47-1.47h0a1.47,1.47,0,0,0-1.47-1.47H20.3"/><circle class="cls-5" cx="17.44" cy="47.62" r="1"/><line class="cls-3" x1="17.44" y1="44.62" x2="45.86" y2="44.62"/></svg>