<svg id="Layer_1" data-name="Layer 1" xmlns="http://www.w3.org/2000/svg" viewBox="0 0 64 64"><defs><style>.cls-1{fill:#9ac8f1;}.cls-2{fill:#389ad6;}.cls-3{fill:none;stroke:#295183;stroke-linecap:round;stroke-linejoin:round;stroke-width:2px;}</style></defs><title>discount, sticker, percentage, shopping, sale</title><path class="cls-1" d="M19.89,20.56S19.5,24.83,23,25.63s6,2.1,5.39,4.21-2,5.92-2,5.92L19.47,36s-5.46-1.34-4-5-1.19-7.12-1.19-7.12Z"/><path class="cls-2" d="M20,36.95a5.76,5.76,0,0,1-.77-1.73,3.72,3.72,0,0,1,.05-2.63,4.47,4.47,0,0,1,1.33-1.4A11.11,11.11,0,0,1,23,29.6a3.37,3.37,0,0,0,.85-.43c1-.8.58-2.22,1-3.28.53-1.38,2.17-1.63,3.5-1.43a30.1,30.1,0,0,0,0,5.37A9.1,9.1,0,0,1,27.24,35a7.81,7.81,0,0,1-2.61,2.37,4,4,0,0,1-3.24.7A2.83,2.83,0,0,1,20,36.95Z"/><path class="cls-1" d="M33.14,25.92c.25,0,6.22-.2,5.08,4S33,38.33,37.56,43s-1.81,8.5-1.81,8.5l-5.42-3.25L27,49.08,25.72,45l-3.39-1.67L22,39l2.36-1.63L21.22,33.5l5.58-4.17-.48-3.42s3.52.17,4,.33A11.91,11.91,0,0,0,33.14,25.92Z"/><path class="cls-3" d="M19.19,38.06a2.23,2.23,0,0,0,.14-.78A2.3,2.3,0,0,0,17,35h-.61A2.4,2.4,0,0,1,15,30.61a2.4,2.4,0,0,0,0-4,2.33,2.33,0,0,1-1-1.95,2.4,2.4,0,0,1,2.5-2.44A2.46,2.46,0,0,0,18.72,19a2.4,2.4,0,0,1,3.77-2.61,2.41,2.41,0,0,0,3.77-1.22,2.4,2.4,0,0,1,4.61,0,2.4,2.4,0,0,0,3.77,1.22,2.34,2.34,0,0,1,1.46-.51h.1c2.94.58,2.49,3,1.77,4.47a3.55,3.55,0,0,0-.29.93,4.54,4.54,0,0,0,.77,3.19,2.86,2.86,0,0,0,3.88.94A2.33,2.33,0,0,1,43.59,25H43a2.25,2.25,0,0,1,2.08,3,2.2,2.2,0,0,0-.13.76A2.25,2.25,0,0,0,47.25,31h0a2.26,2.26,0,0,1,1.27,4.13,2.26,2.26,0,0,0,0,3.74,2.2,2.2,0,0,1,1,1.84A2.25,2.25,0,0,1,47.13,43h-.06a2.27,2.27,0,0,0-2.14,3,2.41,2.41,0,0,1,.14.78,2.27,2.27,0,0,1-3.65,1.77,2.27,2.27,0,0,0-3.56,1.15,2.26,2.26,0,0,1-4.34,0A2.27,2.27,0,0,0,30,48.58a2.22,2.22,0,0,1-1.37.48,2.27,2.27,0,0,1-2.14-3,2.23,2.23,0,0,0,.13-.77A2.27,2.27,0,0,0,24.26,43h-.08a2.27,2.27,0,0,1-1.27-4.13,2.26,2.26,0,0,0,0-3.74,2.2,2.2,0,0,1-1-1.84A2.25,2.25,0,0,1,24.26,31h-.12a2.3,2.3,0,0,0,2.17-3.08,2.45,2.45,0,0,1-.15-.79,2.31,2.31,0,0,1,3.71-1.79,2.3,2.3,0,0,0,3.61-1.17"/><line class="cls-3" x1="38.22" y1="30.49" x2="33.89" y2="44.24"/><circle class="cls-3" cx="29.73" cy="40.7" r="1.7"/><circle class="cls-3" cx="42.33" cy="34.33" r="1.7"/></svg>