<svg id="Layer_1" data-name="Layer 1" xmlns="http://www.w3.org/2000/svg" viewBox="0 0 64 64"><defs><style>.cls-1{fill:#9dcbf4;}.cls-2{fill:none;stroke:#2a5082;stroke-linecap:round;stroke-linejoin:round;stroke-width:2px;}.cls-3{fill:#389ad6;}.cls-4{fill:#2a5082;}</style></defs><title>document, duplicate, page, paper</title><path class="cls-1" d="M33.9,48.77l0,.08C34,49.6,33,49.94,32.25,50a118.36,118.36,0,0,1-16.58-.49q0-3.89,0-7.78A4.09,4.09,0,0,0,15.46,40c-.14-.31-.35-.59-.47-.91A3.28,3.28,0,0,1,14.86,38L15,23.77l.07-7.1c0-2-.68-4.14,1.89-4.18l8.87-.13a1.59,1.59,0,0,1,.79.12A1.11,1.11,0,0,1,27,13.83a3.92,3.92,0,0,1-.9,1.22c-4.1,4.44-5.15,11.53-3.8,17.29a25.54,25.54,0,0,0,3.77,8.55c2,3,5,4.8,7.47,7.32A1.36,1.36,0,0,1,33.9,48.77Z"/><polyline class="cls-2" points="15.13 31.51 15.13 12.13 37.02 12.13"/><line class="cls-2" x1="15.13" y1="31.39" x2="15.13" y2="49.54"/><path class="cls-3" d="M39.64,20.7s.51-4.4-.44-4.4-3.3,4.4-1.54,9,11.16,2.06,9.4,0-7,.07-7,.07Z"/><path class="cls-1" d="M37.7,52.57l0,.08c.12.75-.91,1.09-1.67,1.13a118.35,118.35,0,0,1-16.58-.49l0-7.78a4.09,4.09,0,0,0-.23-1.67c-.14-.31-.35-.59-.47-.91a3.28,3.28,0,0,1-.13-1.17l.13-14.2.07-7.1c0-2-.68-4.14,1.89-4.18l8.87-.13a1.59,1.59,0,0,1,.79.12,1.11,1.11,0,0,1,.38,1.35,3.92,3.92,0,0,1-.9,1.22c-4.1,4.44-5.15,11.53-3.8,17.29a25.54,25.54,0,0,0,3.77,8.55c2,3,5,4.8,7.47,7.32A1.37,1.37,0,0,1,37.7,52.57Z"/><polyline class="cls-2" points="18.93 35.31 18.93 15.93 40 15.93 48.81 24.74 40 24.74 40 20.82"/><polyline class="cls-2" points="18.94 35.2 18.94 53.35 48.26 53.35 48.26 39.91 48.26 38.92"/><line class="cls-2" x1="48.26" y1="27.72" x2="48.26" y2="31.07"/><circle class="cls-4" cx="48.26" cy="34.13" r="0.88"/></svg>