<svg id="Layer_1" data-name="Layer 1" xmlns="http://www.w3.org/2000/svg" viewBox="0 0 64 64"><defs><style>.cls-1{fill:#a8d2f0;}.cls-2{fill:#3897d3;}.cls-3{fill:none;stroke:#295183;stroke-linecap:round;stroke-linejoin:round;stroke-width:2px;}.cls-4{fill:#295183;}</style></defs><title>dolphin, nautical, marine, animal, ocean</title><path class="cls-1" d="M19.29,20.29s1.52,2.42,13.83,4.21c6.33.92-5,2.42-5,2.42s-8.37-.62-8.58-.67S16.73,23,16.73,23Z"/><path class="cls-2" d="M16.68,22.51a.63.63,0,0,1,.13-.15c2-1.51,4.65,1.21,6.18,2.33a5.22,5.22,0,0,0,4,.81,21.77,21.77,0,0,1,10.42,1.32,15.49,15.49,0,0,1,7.84,6.83,12.05,12.05,0,0,1,.63,10.24,5.26,5.26,0,0,1-1.3,2,1,1,0,0,1-.49.27,1,1,0,0,1-.92-.56,3.33,3.33,0,0,1,.19-3.07,14,14,0,0,0,1.35-2.89,6.5,6.5,0,0,0-1.31-4.78c-3.06-4.74-8.58-8.1-14.2-7.61a3.62,3.62,0,0,0-1.41.35c-1.19.64-1.48,2.18-1.63,3.53-1.64-1.1-2.59-3.2-4.47-3.81a6.53,6.53,0,0,0-2-.21l-4.83,0C15.14,27,16.09,23.38,16.68,22.51Z"/><path class="cls-3" d="M44.31,46c3-5.27,7.34-2,7.34-2A8.07,8.07,0,0,0,48,39.69c.14-12.09-7-16.28-8.46-17.88s3-2.58,3-2.58-.1-1.72-5.25-1.09c-3.24.4-4.1.45-4.1.45H29.22c-13.34-.71-14.52,8.84-14.52,8.84H12.36s4.43.11,10.89.16"/><path class="cls-3" d="M26.63,27.59H28.8c9.35,0,17.77,9.05,15.83,13"/><path class="cls-3" d="M23.24,27.58s-.19,2.45,3.38,3.75V27.6"/><circle class="cls-4" cx="43.67" cy="42.96" r="0.92"/></svg>