<svg id="Layer_1" data-name="Layer 1" xmlns="http://www.w3.org/2000/svg" viewBox="0 0 64 64"><defs><style>.cls-1{fill:#a8d2f0;}.cls-2{fill:none;stroke:#295181;stroke-linecap:round;stroke-linejoin:round;stroke-width:2px;}.cls-3{fill:#295181;}</style></defs><title>drink, beverage, martini, cocktail, glass</title><path class="cls-1" d="M27.2,20.59a1.13,1.13,0,0,0-.45-.1c-1,0-4.08.26-3.55,1.87a2.45,2.45,0,0,0,.51.79c2.22,2.59,4.74,5,6.27,8a1,1,0,0,0,.39.49c.34.16.71-.13,1-.41a2.09,2.09,0,0,0,.75-1.89,2,2,0,0,0-.59-.81c-1.75-1.63-4-2.79-5.24-4.83a1.79,1.79,0,0,1-.34-1.11,1.55,1.55,0,0,1,.63-1c.22-.18.79-.4.84-.7A.33.33,0,0,0,27.2,20.59Z"/><path class="cls-1" d="M30.88,46.13s-.19,3.75-3.22,2.75S30.88,46.13,30.88,46.13Z"/><path class="cls-2" d="M20.75,22.54l.14.16,4.76,5.78,5.23,6.34,5.23-6.34,4.76-5.78.14-.16"/><path class="cls-2" d="M38.72,19.48c1.63.59,2.61,1.37,2.61,2.22a1.12,1.12,0,0,1-.09.44,1.85,1.85,0,0,1-.24.4l-.14.16c-1.32,1.37-5.29,2.36-10,2.36a30.92,30.92,0,0,1-3.64-.21"/><path class="cls-2" d="M20.89,22.7l-.14-.16a1.32,1.32,0,0,1-.33-.84c0-1.85,4.69-3.35,10.46-3.35a30.55,30.55,0,0,1,4.08.26"/><path class="cls-2" d="M30.88,46.64c3.43,0,6.21.89,6.21,2s-2.78,2-6.21,2-6.21-.89-6.21-2c0-.71,1.16-1.33,2.9-1.68"/><line class="cls-2" x1="30.88" y1="47.63" x2="30.88" y2="34.82"/><line class="cls-2" x1="35.59" y1="29.1" x2="30.88" y2="29.1"/><polyline class="cls-2" points="33.23 24.97 38.72 19.48 41.77 16.44"/><circle class="cls-3" cx="43.77" cy="14.38" r="1"/></svg>