<svg id="Layer_1" data-name="Layer 1" xmlns="http://www.w3.org/2000/svg" viewBox="0 0 64 64"><defs><style>.cls-1{fill:#389ad6;}.cls-2{fill:#a8d2f0;}.cls-10,.cls-3,.cls-6,.cls-8,.cls-9{fill:none;stroke-linecap:round;stroke-linejoin:round;stroke-width:2px;}.cls-3,.cls-8,.cls-9{stroke:#295183;}.cls-4{fill:#9ac8f1;}.cls-5{fill:#9dcbf4;}.cls-6{stroke:#2a5081;}.cls-7{fill:#295183;}.cls-8{stroke-dasharray:0 5 0 0 0 0;}.cls-9{stroke-dasharray:0 6 0 0 0 0;}.cls-10{stroke:#9ac8f1;}</style></defs><title>education, books, graduate, person, graduation</title><path class="cls-1" d="M31.29,15.17s-.68,6.31-2.24,7.87.33,3.62.33,3.62S31.26,37,28.27,37.34s-2.38-1.42-2-2.85-.18-8.32,1.38-11.26,2.16-5.69,1.77-6.54A1.33,1.33,0,0,1,31.29,15.17Z"/><path class="cls-1" d="M28.51,24.49a.72.72,0,0,1-.17.32.84.84,0,0,1-.55.24,1.87,1.87,0,0,1-1.37-.61c-.37-.36-.68-.78-1.08-1.11-1.35-1.09-3.44-.79-4.83-1.83a4.32,4.32,0,0,1-1.4-2.08,5.33,5.33,0,0,1-.22-3c.19-.78.79-2.12,1.82-1.67a2.23,2.23,0,0,1,.85.79,11.38,11.38,0,0,1,1.65,3.27,1.64,1.64,0,0,0,.26.58,1.53,1.53,0,0,0,.45.33l3.59,2a1.34,1.34,0,0,1,.36.25,1.24,1.24,0,0,1,.22.39,8.13,8.13,0,0,1,.4,1.37A1.74,1.74,0,0,1,28.51,24.49Z"/><path class="cls-2" d="M20.57,14s.89-1.25,2.08,1.87a2.94,2.94,0,0,0,4,1.88s.72.11,0,.93S20.46,22,20.57,14Z"/><path class="cls-2" d="M15.37,25.32a.34.34,0,0,1,.13-.09c.37-.15.84.3,1,.57A9.5,9.5,0,0,1,17,27.12c.46,1.11,1.61,1.9,1.81,3.08.16.94-.33,1.9-.14,2.84a2.36,2.36,0,0,0,1.88,1.75,3.32,3.32,0,0,0,2.56-.69,5.25,5.25,0,0,1,1.15-.82c1.1-.44,1.54.62,1,1.46a6.34,6.34,0,0,1-2,2.13A4.38,4.38,0,0,1,20,37.6,5.21,5.21,0,0,1,17.48,36a3.14,3.14,0,0,1-.65-.9,6.68,6.68,0,0,1-.05-2.62,9.73,9.73,0,0,0-1-3.54,6.5,6.5,0,0,1-.59-2.61A1.77,1.77,0,0,1,15.37,25.32Z"/><path class="cls-2" d="M26.23,10.78a.77.77,0,0,0,.65,1.13c1.06.17,1.16-1.67,1.79-1.71s1.68-.79.6-1S26.28,10.19,26.23,10.78Z"/><path class="cls-1" d="M40.32,36.3a0,0,0,0,1,0,0,1,1,0,0,1-.15-.14A.53.53,0,0,0,40.32,36.3Z"/><path class="cls-1" d="M40.34,36.33h0S40.34,36.34,40.34,36.33Z"/><polygon class="cls-1" points="40.35 36.34 40.35 36.34 40.35 36.33 40.35 36.34"/><path class="cls-3" d="M32.64,12.27A3.72,3.72,0,0,0,26,10a5,5,0,0,0-1-.11,5.08,5.08,0,0,0-5.08,4.89h0a1.21,1.21,0,0,0,0,.19A5.2,5.2,0,0,0,20.2,17"/><path class="cls-3" d="M24.07,37h0a5.27,5.27,0,0,0,1-.78,4,4,0,0,0,.71-.88c.09-.13.17-.27.25-.41a4.94,4.94,0,0,0,.51-1.83c0-.14,0-.28,0-.43s0-.26,0-.38a4.56,4.56,0,0,0-.16-.91c0-.12-.07-.24-.11-.36a3.65,3.65,0,0,0-.23-.54,2.79,2.79,0,0,0-.18-.34,2.92,2.92,0,0,0-.24-.37,3,3,0,0,0-.27-.35,4.72,4.72,0,0,0-.72-.69,3.9,3.9,0,0,0-.36-.25,4.82,4.82,0,0,0-1.23-.59l-.39-.11"/><path class="cls-3" d="M26.14,39.92h0"/><path class="cls-3" d="M20.21,17A5.09,5.09,0,0,0,24,20a4.93,4.93,0,0,0,.88.08"/><path class="cls-3" d="M17.28,18.65a3.34,3.34,0,0,0-.57,1.68,7.18,7.18,0,0,0,.45,2.18c.06.24-.33.3-.49.4a6,6,0,0,0-.51.37,4.31,4.31,0,0,0-.86.9,3.91,3.91,0,0,0-.76,2.33,4.17,4.17,0,0,0,1.68,3.35,1.45,1.45,0,0,1,.52,1.53,5,5,0,0,0,0,2.21.28.28,0,0,0,0,.09,5,5,0,0,0,3.94,3.85A5,5,0,0,0,24.07,37a5,5,0,0,0,2.52-4.34c0-.13,0-.26,0-.38a5,5,0,0,0-2.34-3.86,4.71,4.71,0,0,0-1.55-.64"/><path class="cls-3" d="M22.69,27.75l-.09,0"/><path class="cls-3" d="M41.21,37h0a4.3,4.3,0,0,1-.45-.29,3.21,3.21,0,0,1-.41-.34h0a0,0,0,0,1,0,0s0,0,0,0v0a.53.53,0,0,1-.14-.12.38.38,0,0,1-.09-.09,3.65,3.65,0,0,1-.27-.3,4,4,0,0,1-.35-.49c-.09-.13-.17-.27-.25-.41a5.7,5.7,0,0,1-.37-1,3.59,3.59,0,0,1-.08-.35,3.93,3.93,0,0,1-.06-.48"/><path class="cls-3" d="M38.69,32.63c0-.13,0-.26,0-.38a4.81,4.81,0,0,1,.12-.76A3.8,3.8,0,0,1,39,31a1.57,1.57,0,0,1,.12-.3,2.55,2.55,0,0,1,.13-.29l.12-.22a2.16,2.16,0,0,1,.18-.3,5,5,0,0,1,1.94-1.72,5.21,5.21,0,0,1,.74-.3l.39-.11"/><path class="cls-3" d="M45.08,17A5.2,5.2,0,0,0,45.46,15a5.09,5.09,0,0,0-5.09-5.09,5,5,0,0,0-1,.11,3.71,3.71,0,0,0-4-1.35"/><path class="cls-3" d="M40.26,20.12h.11A5.12,5.12,0,0,0,45.08,17"/><path class="cls-3" d="M45.08,17l.18,0a3.72,3.72,0,0,1,3.31,3.35,7.18,7.18,0,0,1-.45,2.18c-.06.24.33.3.49.4a6,6,0,0,1,.51.37,4.31,4.31,0,0,1,.86.9,3.91,3.91,0,0,1,.76,2.33,4.17,4.17,0,0,1-1.68,3.35,1.45,1.45,0,0,0-.52,1.53,5.08,5.08,0,0,1,0,2.3,5,5,0,0,1-3.94,3.85A5,5,0,0,1,41.21,37a2.71,2.71,0,0,1-.45-.3,2.47,2.47,0,0,1-.41-.33h0s0,0,0,0,0,0,0,0a1,1,0,0,1-.15-.14.38.38,0,0,1-.09-.09,3.65,3.65,0,0,1-.27-.3,4,4,0,0,1-.35-.49c-.09-.13-.17-.27-.25-.41a5.7,5.7,0,0,1-.37-1,3.59,3.59,0,0,1-.08-.35,3.93,3.93,0,0,1-.06-.48"/><path class="cls-3" d="M38.69,32.63c0-.13,0-.26,0-.38a4.81,4.81,0,0,1,.12-.76A3.8,3.8,0,0,1,39,31a1.57,1.57,0,0,1,.12-.3,2.55,2.55,0,0,1,.13-.29.94.94,0,0,1,.12-.22,1.83,1.83,0,0,1,.18-.3,5,5,0,0,1,1.94-1.72,4.78,4.78,0,0,1,.74-.3l.39-.1"/><path class="cls-3" d="M42.6,27.75l.09,0"/><path class="cls-4" d="M32.92,36.88c-5.09.47-3.35,5.38,0,5.06s3.65,7.38,0,6.69-3.3,6.63,1.74,6.38-17.74,0-17.74,0-3-5.26,3-6.32,4.25-2.75,4.25-2.75l-1.22-6.75,1.35-1.84,5.55-.51"/><path class="cls-1" d="M33.35,44.44a29.2,29.2,0,0,0-3.18.28c-.82.13-2.18.08-2.6,1A7.09,7.09,0,0,1,27,47a6.84,6.84,0,0,0-.83,1.22c-.37.85,0,2.61-1.07,3a7.08,7.08,0,0,1-2.59-.1,7.72,7.72,0,0,0-2.95.25,2.75,2.75,0,0,0-1.4.9A1.49,1.49,0,0,0,18,53.86a3.61,3.61,0,0,1,.35.6c.07.22,0,.53-.24.57a.58.58,0,0,1-.42-.15c-.52-.4-2.2-1.63-2.19-2.36s1.8-1.86,2.31-2.33a5,5,0,0,1,1.12-.83c1-.46,2.12-.21,3.18-.37a.89.89,0,0,0,.42-.15,1,1,0,0,0,.28-.38c.28-.54.55-1.09.83-1.64A2.81,2.81,0,0,0,24,45.77a2.75,2.75,0,0,0-.18-1q-.8-2.52-1.57-5a.73.73,0,0,1,0-.41.71.71,0,0,1,.24-.33,5.18,5.18,0,0,1,4.22-1.2l0,0a2.47,2.47,0,0,0-.85,2.7,13.43,13.43,0,0,0,1.48,2.25,2.84,2.84,0,0,1,.25.53c.57,0,1.29,0,2.07-.12a14.43,14.43,0,0,1,3.71.12C33.63,43.36,34.38,44.39,33.35,44.44Z"/><path class="cls-5" d="M29.87,27.2s2.84-1,2.79,6.69c0,0-.16,3.68-2.16,3.62Z"/><path class="cls-5" d="M33,15.17c-.41,0,.07,2.18.09,2.38a8.61,8.61,0,0,1-.09,1.84c-.17,1.56,0,3.15-.28,4.7-.23,1.12-.82,2.4-2.16,2.27-2.94-.29.27-8.53.68-8.4s0-2.79,0-2.79Z"/><line class="cls-6" x1="29.54" y1="20.53" x2="27" y2="26.66"/><path class="cls-6" d="M32.88,18.64h.92a2,2,0,0,1,2,2v5.09a1.4,1.4,0,0,1-1.4,1.4H30.94a1.4,1.4,0,0,1-1.4-1.4V20.53"/><path class="cls-6" d="M32.77,14.63a2,2,0,0,0,0,4"/><line class="cls-6" x1="35.6" y1="19.8" x2="38.22" y2="26.66"/><line class="cls-6" x1="29.54" y1="25.76" x2="30.21" y2="37.1"/><line class="cls-6" x1="35.78" y1="25.71" x2="35.14" y2="36.69"/><path class="cls-6" d="M32.63,30.46v6.35a.29.29,0,0,0,.28.28h1.91a.29.29,0,0,0,.28-.28"/><line class="cls-3" x1="25.8" y1="42.8" x2="35.92" y2="42.8"/><path class="cls-3" d="M42.1,49.12a3.33,3.33,0,0,0,2.31-.93,3.1,3.1,0,0,0,1-2.23,3.21,3.21,0,0,0-3.06-3.15H42.2a2.83,2.83,0,0,1-2.43-2.73,2.74,2.74,0,0,1,.8-1.93,2.7,2.7,0,0,1,1.56-.77,2.44,2.44,0,0,0-.38,0h-16a2.73,2.73,0,0,0,0,5.46H21.2A3.22,3.22,0,0,1,24.47,46a3.1,3.1,0,0,1-1,2.23,3.33,3.33,0,0,1-2.31.93h-2a3.16,3.16,0,1,0,0,6.32H49.72a3.16,3.16,0,0,1,0-6.32H28.92"/><circle class="cls-7" cx="26.27" cy="49.1" r="1"/><path class="cls-8" d="M48.59,33.66a21.82,21.82,0,0,1,5.93,15"/><path class="cls-9" d="M10.7,48.65a21.8,21.8,0,0,1,6-15"/><line class="cls-10" x1="53.64" y1="15.21" x2="53.64" y2="19.54"/><line class="cls-10" x1="51.48" y1="17.38" x2="55.81" y2="17.38"/><line class="cls-10" x1="9.95" y1="30.6" x2="9.95" y2="34.11"/><line class="cls-10" x1="8.19" y1="32.35" x2="11.71" y2="32.35"/><line class="cls-10" x1="48.64" y1="40.82" x2="48.64" y2="42.98"/><line class="cls-10" x1="47.56" y1="41.9" x2="49.72" y2="41.9"/><line class="cls-10" x1="12.34" y1="11.52" x2="12.34" y2="14.32"/><line class="cls-10" x1="10.94" y1="12.92" x2="13.74" y2="12.92"/></svg>