<svg id="Layer_1" data-name="Layer 1" xmlns="http://www.w3.org/2000/svg" viewBox="0 0 64 64"><defs><style>.cls-1{fill:#9ac8f1;}.cls-2,.cls-5{fill:none;}.cls-2{stroke:#2a5080;stroke-linecap:round;stroke-linejoin:round;stroke-width:2px;}.cls-3{fill:#3897d3;}.cls-4{fill:#2a5080;}</style></defs><title>eiffel, tower, france, world, monument</title><path class="cls-1" d="M30.87,27.87l0,.26a45.49,45.49,0,0,0-.51,5.17c0,1.76.59,3.49.37,5.25a1.22,1.22,0,0,1-.13.46c-.34.59-1,.79-1.42,1.3a3.9,3.9,0,0,0-.51,2.53c.12,1.73,1,3.41.58,5.16-.32,1.34-1.36,2.37-2.17,3.49a11.66,11.66,0,0,0-2,4.41c0-.14-5.65-.35-6.12-.58a56.44,56.44,0,0,1,3.35-5.49,1.88,1.88,0,0,0,.33-1.8l-.74-3.47H25l2.15-6.09L25,38.39l.13-2.92,2.59.42c.85-5.24,1.63-10.5,2-15.79a8.33,8.33,0,0,0-.24-3.25,3,3,0,0,0-2.3-2.1l.68-2.59c1.33.87,1.91,2.51,2.28,4.05A33.76,33.76,0,0,1,30.87,27.87Z"/><path class="cls-2" d="M31.34,48.39a5.3,5.3,0,0,1,5,7H43q-.6-.86-1.17-1.76"/><path class="cls-2" d="M31.34,12.16h3.47v3.73H32.73q-.12,3.76.13,7.68a74.58,74.58,0,0,0,1.75,11.9h2.9v3.42h-2a59.9,59.9,0,0,0,2.11,6.23h3.16v3.27H38"/><path class="cls-3" d="M27.79,39.23s4.57-.25,4.57.38-1.12.66-1.49.72c-.7.11-1.54,0-2,.64-.22.29-.2.71-.67.64a1.46,1.46,0,0,1-.78-.38C26.85,40.67,27.43,39.75,27.79,39.23Z"/><path class="cls-3" d="M32.53,45.95l.08,0a3,3,0,0,1-2.24,1,10.71,10.71,0,0,1-2.51-.3c-1-.19-1.22.29-1.24,1.18a2.69,2.69,0,0,1-.83,1.9,13.1,13.1,0,0,0-1.11.94A3.79,3.79,0,0,0,24.06,52a6.91,6.91,0,0,0-.5,2.55c0,.15,0,.32-.11.41a.4.4,0,0,1-.23,0,4.73,4.73,0,0,1-1.69-.21c-.59-.25-.21-.64,0-1.13l1.51-3.34A6.44,6.44,0,0,1,23.79,49,2.17,2.17,0,0,1,25,48.16c-.35-.54-.69-1.24-.35-1.77a1.47,1.47,0,0,1,.62-.48,7.36,7.36,0,0,1,3.65-.64A17,17,0,0,1,32.53,45.95Z"/><path class="cls-2" d="M31.34,48.39a5.3,5.3,0,0,0-5,7H19.65q1.23-1.76,2.34-3.74.4-.71.78-1.45t.89-1.8"/><path class="cls-2" d="M31.34,12.16H27.87v3.73h2.08q.12,3.76-.13,7.68a74.58,74.58,0,0,1-1.75,11.9h-2.9v3.42h2a59.9,59.9,0,0,1-2.11,6.23H21.92v3.27h2.92"/><line class="cls-2" x1="27.19" y1="38.89" x2="32.37" y2="38.89"/><line class="cls-2" x1="25.08" y1="45.12" x2="33.59" y2="45.12"/><circle class="cls-4" cx="40.37" cy="51.31" r="1"/><circle class="cls-4" cx="31.34" cy="9.1" r="1"/><path class="cls-5" d="M31.17,27.89h0a14.37,14.37,0,0,0-.8,6.13,25,25,0,0,1,.36,4.1c0,.6,0,1,0,1l-.07,0-1.06.43a5.48,5.48,0,0,0-.71,4.91,6.07,6.07,0,0,1,.1,4.45.11.11,0,0,1,0,0"/></svg>