<svg id="Layer_1" data-name="Layer 1" xmlns="http://www.w3.org/2000/svg" viewBox="0 0 64 64"><defs><style>.cls-1{fill:#3897d3;}.cls-2{fill:#a8d2f0;}.cls-3{fill:none;stroke:#295183;stroke-linecap:round;stroke-linejoin:round;stroke-width:2px;}.cls-4{fill:#295183;}</style></defs><title>elephant, animal, africa, mammal</title><path class="cls-1" d="M26,33s-10.26,2.74-6.71,7.37,7.18,2.52,7.18,2.52A2.66,2.66,0,0,0,30,45.17l3.16-.79s6.3.92,1.46-5.23S26,33,26,33Z"/><path class="cls-2" d="M34,28.47s.76,6.26,8.38,6S48,44.31,48,44.31l-5.33.85-1.49-6.24-6.12.8s-7.41-3.6-7.56-6.1C27.53,33.63,34.61,29.88,34,28.47Z"/><path class="cls-2" d="M28.75,20.84s5.62,8.44-2.94,10.68c0,0,2-4.18-1.23-3.94s-.93,5.66-3.58,6.89-4.44,2-3-2.9S22.63,19.17,28.75,20.84Z"/><path class="cls-3" d="M43.6,37.94a11.67,11.67,0,0,1-2.39,1,13.74,13.74,0,0,1,1.49,6.24h3.69A10.7,10.7,0,0,0,43.6,37.94Z"/><path class="cls-3" d="M41.21,38.92a13.74,13.74,0,0,1,1.49,6.24h3.69a10.7,10.7,0,0,0-2.79-7.23A11.67,11.67,0,0,1,41.21,38.92Z"/><path class="cls-3" d="M34.65,25.36a7.8,7.8,0,0,1-7.24,7.77,11.69,11.69,0,0,0,2.27,3,11.86,11.86,0,0,0,11.53,2.8,11.67,11.67,0,0,0,2.39-1,10.7,10.7,0,0,1,2.79,7.23h4.19V34.46a10.6,10.6,0,0,0-1.06-4.63,10.76,10.76,0,0,0-9.65-6.07"/><polyline class="cls-3" points="36.44 42.5 36.44 45.16 32.86 45.16 32.86 41.55"/><polyline class="cls-3" points="27.44 40.62 27.44 45.16 32.86 45.16"/><path class="cls-3" d="M24.17,43.73h.15a3.13,3.13,0,1,0,0-6.25"/><path class="cls-3" d="M18.36,36a11.44,11.44,0,0,0,4.32-1.57,7.77,7.77,0,0,0,1.9-1.69,5.86,5.86,0,0,0,2.25.44h0l.55,0a7.8,7.8,0,0,0,7.24-7.77,4.55,4.55,0,0,0-1.33-3.19,4.49,4.49,0,0,0-3.19-1.33h-3.3a6.08,6.08,0,0,0-4.28,1.75.16.16,0,0,0-.07.07,10.73,10.73,0,0,0-1,1.28s0,0,0,0a.77.77,0,0,0-.07.12,20.2,20.2,0,0,0-2.62,7.21A21.47,21.47,0,0,0,18.36,36Z"/><path class="cls-3" d="M18.36,36c.17,7,4.91,7.71,5.81,7.77h.15"/><path class="cls-3" d="M24.32,37.5a1.64,1.64,0,0,0,0,3.28"/><path class="cls-3" d="M21.5,23.94a10.73,10.73,0,0,1,1-1.28A5.5,5.5,0,0,0,21.5,23.94Z"/><path class="cls-3" d="M18.36,36a16,16,0,0,1-4.94.1"/><path class="cls-3" d="M24.58,32.71A7,7,0,0,0,26.17,29"/><circle class="cls-4" cx="36.99" cy="23.75" r="1"/></svg>