<svg id="Layer_1" data-name="Layer 1" xmlns="http://www.w3.org/2000/svg" viewBox="0 0 64 64"><defs><style>.cls-1{fill:#9ac8f1;}.cls-2{fill:none;stroke:#2a5080;stroke-linecap:round;stroke-linejoin:round;stroke-width:2px;}.cls-3{fill:#3897d3;}.cls-4{fill:#2a5080;}</style></defs><title>engagement, ring, wedding, love, romance</title><path class="cls-1" d="M40,24.58a.85.85,0,0,1,.11,1.3l-.61.61-.07.06,0,0-.11.09-.11.08h0a1.88,1.88,0,0,1-2.31-.27l-1.22-1.22h0l-1.4-1.4A2.73,2.73,0,0,1,34,20.27a.89.89,0,0,1,.16-.16,5.15,5.15,0,0,1,1.75-.87h.23a2.71,2.71,0,0,1,1.92.79l.11.12.11-.11.19-.17a3.83,3.83,0,0,0-.27,1.41A4,4,0,0,0,40,24.58Z"/><path class="cls-2" d="M40.43,19.24a2.71,2.71,0,0,0-1.95.62l-.19.17-.11.11L38.06,20l0,0a2.7,2.7,0,0,0-1.88-.75h-.23a2.71,2.71,0,0,0-1.69.78l-.15.16a2.73,2.73,0,0,0,.15,3.68l1,1,.37.37h0l1.22,1.22a1.88,1.88,0,0,0,2.31.27h0l.11-.08.11-.09,0,0,.07-.06,1.43-1.43,1.2-1.2a2.72,2.72,0,0,0,.72-2.54"/><path class="cls-3" d="M24.63,31.8a3.36,3.36,0,0,1-5,3,10.21,10.21,0,0,1-5.25-8.92c0-3.84.16-6.75,3.29-8.49a5.21,5.21,0,0,1,4.9.07c2,1.1,2.31,3.32,2.16,5.39C24.55,25.81,24.63,28.78,24.63,31.8Z"/><rect class="cls-1" x="20" y="40.3" width="27.17" height="9.93" rx="4.96" ry="4.96"/><path class="cls-2" d="M26.57,33V17a3.59,3.59,0,0,0-5-3.34,12.5,12.5,0,0,0-7.52,11.7A12.76,12.76,0,0,0,27,37.6H43.39a6.55,6.55,0,0,1,6.53,6.53h0a6.55,6.55,0,0,1-6.53,6.53H26.69a6.55,6.55,0,0,1-6.53-6.53h0"/><circle class="cls-4" cx="21" cy="41.3" r="1"/><path class="cls-2" d="M31,34.18a7.18,7.18,0,1,1,14.35,0"/></svg>