<svg id="Layer_1" data-name="Layer 1" xmlns="http://www.w3.org/2000/svg" viewBox="0 0 64 64"><defs><style>.cls-1{fill:#3897d3;}.cls-2{fill:#9ac8f1;}.cls-3{fill:#389ad6;}.cls-4,.cls-6,.cls-8{fill:none;stroke-linecap:round;stroke-linejoin:round;stroke-width:2px;}.cls-4{stroke:#2a5080;}.cls-5{fill:#a8d2f0;}.cls-6{stroke:#295183;}.cls-7{fill:#295183;}.cls-8{stroke:#9ac8f1;}</style></defs><title>fire, flame, heart, love, romance, arrow</title><path class="cls-1" d="M10.41,36.14s2.16,8.28,10.84,10.28,2,6.22-1.58,4.92S10.22,46,10.41,36.14Z"/><path class="cls-2" d="M25.53,46.91a11.63,11.63,0,0,1-1.32,0l-1-1,0,0-1.4-1.4-3.92-3.91a10.26,10.26,0,0,1-3-7.28,8.84,8.84,0,0,1,0-.89,6.94,6.94,0,0,1,.1-.78,4.86,4.86,0,0,1,.11-.55c0-.12,0-.25.08-.37s0-.21.09-.31a5,5,0,0,1,.16-.51,3.33,3.33,0,0,1,.17-.44,3.45,3.45,0,0,1,.14-.34,4.13,4.13,0,0,1,.2-.43,3.23,3.23,0,0,1,.22-.41,1.28,1.28,0,0,1,.16-.27,4.74,4.74,0,0,1,.35-.56l.13-.18.22-.3a.6.6,0,0,1,.11-.12,3.12,3.12,0,0,1,.49-.47A19.6,19.6,0,0,1,24.22,23a8.84,8.84,0,0,1,.89,0h.53c.31,0,.61,0,.91.09a7.57,7.57,0,0,1,1,.18l.47.12a10.26,10.26,0,0,1,4.26,2.45l.16.15.43.44.43-.43a8.55,8.55,0,0,1,.71-.64,14.51,14.51,0,0,0-1,5.35,14.91,14.91,0,0,0,3.39,9.44A1.39,1.39,0,0,1,36.24,42,15.85,15.85,0,0,1,25.53,46.91Z"/><path class="cls-2" d="M40.15,48.2l-2.32,2.32-.26.24a.86.86,0,0,1-.14.13l-.42.33-.43.29h0l-.43.25a7.23,7.23,0,0,1-3.31.81,7.1,7.1,0,0,1-.92-.06l-.54-.09a3.37,3.37,0,0,1-.48-.12A5.13,5.13,0,0,1,30.1,52l-.32-.14-.5-.26a14.74,14.74,0,0,0,3.12-1.38,2.24,2.24,0,0,0,.21-.12,12.75,12.75,0,0,0,4.13-3.61,1.27,1.27,0,0,0,.14-.17,16.6,16.6,0,0,0,2-3.74l.16.12a8.44,8.44,0,0,0,.7.52A3.23,3.23,0,0,1,40.15,48.2Z"/><path class="cls-1" d="M18.91,34.76a10,10,0,0,0,4,9.5h0l-2-.59-3.15-3.14a10.34,10.34,0,0,1-.56-14,8,8,0,0,1,.56-.62,10.29,10.29,0,0,1,6.4-3,8.84,8.84,0,0,1,.89,0,10.28,10.28,0,0,1,6.24,2.09A4.11,4.11,0,0,1,32.71,27h0a9.85,9.85,0,0,0-4.65-.77A10,10,0,0,0,18.91,34.76Z"/><path class="cls-3" d="M41.7,29.77A29.39,29.39,0,0,0,38.49,36c-1.12,3.37-.83,7.68,1.78,10.3a2.13,2.13,0,0,0,1,.63,1.31,1.31,0,0,0,1-.2,2.38,2.38,0,0,0,.63-.79q.87-1.5,1.65-3.06A20.12,20.12,0,0,1,41.7,29.77Z"/><path class="cls-4" d="M48.69,27h0a.6.6,0,0,0-.09-.13"/><path class="cls-4" d="M43.91,23.53A10.31,10.31,0,0,0,34,25.33a8.54,8.54,0,0,0-.71.64l-.43.43L32.39,26l-.16-.15A10.26,10.26,0,0,0,28,23.36l-.47-.12a7.58,7.58,0,0,0-.95-.18c-.3,0-.61-.07-.91-.09h-.53a8.83,8.83,0,0,0-.89,0,10.29,10.29,0,0,0-6.4,3,8,8,0,0,0-.56.62l-.16.21a4.35,4.35,0,0,0-.33.42l-.13.18a4.73,4.73,0,0,0-.35.56,1.2,1.2,0,0,0-.16.27,3.23,3.23,0,0,0-.22.41,3.36,3.36,0,0,0-.2.43,3.45,3.45,0,0,0-.14.34,3.34,3.34,0,0,0-.17.44,5,5,0,0,0-.16.51c0,.1-.06.21-.09.31s-.06.25-.08.37a3.57,3.57,0,0,0-.11.55,6.93,6.93,0,0,0-.1.78,8.83,8.83,0,0,0,0,.89,10.26,10.26,0,0,0,3,7.28l3.92,3.91,1.4,1.4.91.91"/><path class="cls-3" d="M38.36,43.08s-4,6.78-6.64,8.06,3.13,1.44,3.13,1.44l8.82-7.9s-3-3-3-3Z"/><path class="cls-4" d="M46.71,41.64l-2.54,2.54-.2.2-.71.71L40.15,48.2l-2.32,2.32-.26.24a.86.86,0,0,1-.14.13l-.42.33-.43.29h0l-.43.25a7.37,7.37,0,0,1-1.86.66,7,7,0,0,1-1.45.15,7.11,7.11,0,0,1-.92-.06l-.54-.09a3.37,3.37,0,0,1-.48-.12,5.13,5.13,0,0,1-.78-.27l-.32-.14-.5-.26"/><path class="cls-4" d="M19.37,33.67a6.15,6.15,0,0,1,6.15-6.15"/><path class="cls-5" d="M47.29,24.81s1.36-1.59,1.4-.19S44.52,34,47.31,38.53a2.64,2.64,0,0,0,3.9.52c2.29-1.66,2.61,1.26,1.68,2.7s-4.18,5.16-8.79,2.71S45.45,27,47.29,24.81Z"/><path class="cls-3" d="M41.93,29.2s1.11-1.58.46,4.44,3.75,8.29,5.51,8.2,2.76,3.23-.95,3.14S37.79,40.71,41.93,29.2Z"/><path class="cls-6" d="M40.86,33.64a11.49,11.49,0,0,0,0,7.28,7.1,7.1,0,0,0,5.7,4.32,7,7,0,0,0,7.7-6.18,6.83,6.83,0,0,0-.13-2.3,6,6,0,0,0-.32-1"/><path class="cls-6" d="M49.66,20.28a79,79,0,0,0-5.5,12c-.5-1.7-1.21-3.84-.88-5.62a20,20,0,0,0-1.55,3.82"/><path class="cls-6" d="M49.67,20.26v0c-.14.53-2.74,10.11,1.24,13.51.15-.28-.83-4.42,2.34-7.46a21.5,21.5,0,0,0,.58,9.41c.1.35.2.7.32,1"/><path class="cls-6" d="M9.69,31.49A15.3,15.3,0,0,1,25,16.2V11.42l4.63,4.63-2,2"/><path class="cls-6" d="M36.19,41.89A15.29,15.29,0,0,1,9.94,34.25a14.76,14.76,0,0,1-.25-2.76v5.59A15.3,15.3,0,0,0,25,52.29a14.61,14.61,0,0,0,7.43-2l.21-.12a15.64,15.64,0,0,0,4.13-3.61,1.27,1.27,0,0,0,.14-.17A15.73,15.73,0,0,0,39,42.74a15.4,15.4,0,0,0,1.23-5.05"/><circle class="cls-7" cx="25.86" cy="19.76" r="1"/><line class="cls-8" x1="35.81" y1="13.84" x2="35.81" y2="18.17"/><line class="cls-8" x1="33.65" y1="16" x2="37.98" y2="16"/><line class="cls-8" x1="45.69" y1="14.71" x2="45.69" y2="17.3"/><line class="cls-8" x1="44.4" y1="16" x2="46.99" y2="16"/></svg>