<svg id="Layer_1" data-name="Layer 1" xmlns="http://www.w3.org/2000/svg" viewBox="0 0 64 64"><defs><style>.cls-1{fill:#295183;}.cls-2{fill:#9ac8f1;}.cls-3{fill:#389ad6;}.cls-4{fill:none;stroke:#295183;stroke-linecap:round;stroke-linejoin:round;stroke-width:2px;}</style></defs><title>firehouse, tower, sea, ocean, beach</title><circle class="cls-1" cx="54" cy="12.42" r="1"/><path class="cls-2" d="M38.79,32.25a4.08,4.08,0,0,1-1.07,1.07,23.22,23.22,0,0,0-1.94,1.32,4.59,4.59,0,0,0-1.52,3.8,10,10,0,0,1,.17,1.74,1.39,1.39,0,0,1-1,1.31,1.48,1.48,0,0,1-1.45-1c-.27-.56-.36-1.2-.66-1.75a14.36,14.36,0,0,0-1.67-1.86,6.17,6.17,0,0,1-1.11-4c0-1.46.13-2.93.16-4.39a3.15,3.15,0,0,1,1.86-3.08,5.14,5.14,0,0,1,3.93.16,8.3,8.3,0,0,1,4.08,3.6,3.3,3.3,0,0,1,.51,2.25A2.29,2.29,0,0,1,38.79,32.25Z"/><path class="cls-2" d="M42.9,53.92a3.05,3.05,0,0,1-1-.42A2.9,2.9,0,0,1,40.74,52a5.28,5.28,0,0,0-1.93-.2c-.45.08-.8.42-1.25.49A2.1,2.1,0,0,1,36.24,52c-.66-.37-1.35-1-2.16-.78a5.25,5.25,0,0,0-1.43.85,2,2,0,0,1-1.5.28c-.58-.14-1.33-1-.79-1.45a.87.87,0,0,1,.29-.14,3.16,3.16,0,0,1,.76-.08c1,0,1.9-.52,2.88-.56a28.65,28.65,0,0,1,3.29.57c.61,0,.7-.23,1.17-.49a.92.92,0,0,1,.74,0c1,.39,2.08.8,3.12,1.22a14.46,14.46,0,0,0,2.44.41,5.9,5.9,0,0,0,3.4-1.06c3.58-2.56,5.1-8.51,2.33-12.15a9.71,9.71,0,0,0-6.14-3.29c-1.19-.21-1.19-.73-.89-1.2a1.91,1.91,0,0,1,1.86-.8c4,.5,7.71,3.28,8.39,10.41C54.74,51.47,44.89,54.39,42.9,53.92Z"/><path class="cls-2" d="M42,37.4s1.64-.22.43,1.66-2.11,4.21,0,5.63S44,46.87,43.17,47a5.24,5.24,0,0,1-4.27-5.58C39.22,37.39,42,37.4,42,37.4Z"/><path class="cls-3" d="M26.8,51.43A4,4,0,0,1,24,51.7a6.32,6.32,0,0,0-1.58-.5c-.56,0-.94.53-1.4.79a3,3,0,0,1-2.94,0,6.88,6.88,0,0,0-1.16-.7c-1.31-.49-2.82.74-4.1.19a2.1,2.1,0,0,1-1-1,4.18,4.18,0,0,1-.15-2.94,7.28,7.28,0,0,1,1.1-2.4l.12-.16a4.64,4.64,0,0,1,2.26-4c2.2-1,6.55-.38,6.55-.38l3,.63a9.71,9.71,0,0,1,2.1,7.38s-7.91,1.17-11.67-.33l-.35-.16c0,.11-.09.22-.14.33-.22.45-.5,1-.26,1.41s.88.44,1.39.46a4.36,4.36,0,0,1,1.81.45c.71.35,1.54,1,2.4.83s1.27-1,2-1.19a4.6,4.6,0,0,1,1.83.26,2.39,2.39,0,0,0,1.64-.37A3.2,3.2,0,0,1,27.12,50C28.25,50.15,27.24,51.17,26.8,51.43Z"/><path class="cls-3" d="M20,10.12s1.68-1.32.84,5.12-.54,18.82.86,21.82-2.22,3.62-4,3.62-.9-8.62-.9-8.62,3-14.89,0-13.45c0,0-1.45-2.94.95-3.37a7.84,7.84,0,0,0,.44-4.85Z"/><path class="cls-4" d="M16.59,52.66a4.56,4.56,0,0,0,6.21.21"/><path class="cls-4" d="M22.8,52.87a4.56,4.56,0,0,0,6,0"/><path class="cls-4" d="M34.75,52.87a4.56,4.56,0,0,1-6,0"/><path class="cls-4" d="M40.73,52.87a4.56,4.56,0,0,1-6,0"/><path class="cls-4" d="M14.64,47.91a4.57,4.57,0,0,0,3.22,1.33,4.53,4.53,0,0,0,3-1.12"/><path class="cls-4" d="M20.85,48.13a4.56,4.56,0,0,0,6,0"/><path class="cls-4" d="M32.8,48.13a4.56,4.56,0,0,1-6,0"/><path class="cls-4" d="M44.68,46.82A4.63,4.63,0,0,1,39,43.53a5.21,5.21,0,0,1,3.71-6.38,5.87,5.87,0,0,1,7.18,4.18,6.61,6.61,0,0,1-4.71,8.09,7.46,7.46,0,0,1-9.12-5.3,8.42,8.42,0,0,1,6-10.28,9.48,9.48,0,0,1,11.58,6.74,10.67,10.67,0,0,1-7.59,13,8.46,8.46,0,0,1-2.33.37,4.53,4.53,0,0,1-3-1.12"/><path class="cls-4" d="M16.59,52.66a4.69,4.69,0,0,1-3,1.33,3.86,3.86,0,0,1-3-1.33l0,0a2.63,2.63,0,0,1-.41-2.78l3.76-9.17H29.72"/><polyline class="cls-4" points="13.97 40.68 16.72 40.68 26.69 40.68 29.72 40.68 29.75 40.68 32.8 48.12"/><polyline class="cls-4" points="17.09 35.3 18.23 18.61 25.19 18.61 26.69 40.68 16.72 40.68"/><line class="cls-4" x1="18.27" y1="18.61" x2="18.23" y2="18.61"/><line class="cls-4" x1="25.19" y1="18.61" x2="25.15" y2="18.61"/><path class="cls-4" d="M18.23,18.61h-.44a1.69,1.69,0,1,1,0-3.37h7.36"/><line class="cls-4" x1="25.15" y1="18.61" x2="18.27" y2="18.61"/><line class="cls-4" x1="18.27" y1="18.61" x2="18.23" y2="18.61"/><line class="cls-4" x1="25.19" y1="18.61" x2="25.15" y2="18.61"/><polyline class="cls-4" points="18.27 15.24 25.15 15.24 25.15 10.12 18.27 10.12 18.27 12.24"/><circle class="cls-1" cx="16.84" cy="38.06" r="1"/><circle class="cls-1" cx="46.78" cy="45.06" r="1"/><path class="cls-4" d="M25.19,18.61h.44a1.69,1.69,0,0,0,1.69-1.69"/><path class="cls-4" d="M25.18,15.27A16.66,16.66,0,0,1,51.42,35.5"/><path class="cls-4" d="M35.4,25.72a1.68,1.68,0,0,0-.47-.74,1.71,1.71,0,0,0-2.83.87"/><path class="cls-4" d="M39,23.47a2.19,2.19,0,0,0-3.59,2.25"/><path class="cls-4" d="M44.19,26.28a1.31,1.31,0,0,0-.36-.58,1.33,1.33,0,0,0-2.2.68"/><path class="cls-4" d="M47,24.53a1.7,1.7,0,0,0-2.79,1.75"/><path class="cls-3" d="M17.3,50.71a5.2,5.2,0,0,0,3.89.25c1.92-.68-.43.91-.52.94s-2.63,0-3-.6Z"/></svg>