<svg id="Layer_1" data-name="Layer 1" xmlns="http://www.w3.org/2000/svg" viewBox="0 0 64 64"><defs><style>.cls-1{fill:#9dcbf4;}.cls-2{fill:#389ad6;}.cls-3{fill:none;stroke:#2a5081;stroke-linecap:round;stroke-linejoin:round;stroke-width:2px;}.cls-4{fill:#2a5081;}</style></defs><title>firefox, browser, social, network</title><path class="cls-1" d="M25.42,21.5s-.25,5.42,2.08,7.58-4.33,2.42-4.67,1.33S21.08,26.08,25.42,21.5Z"/><path class="cls-2" d="M16.58,18.58s3.92.83,2.75,5.25-3.75,17.17,6.92,22S41.89,41.25,44,41.67s1.77,6.08-3.11,8-17.33,3.75-23.58-4.42S12.5,20.92,16.58,18.58Z"/><path class="cls-1" d="M25,38.54s6.67,4.29,7.4,1.75,6.15-6.59-5-5.69S25,38.86,25,38.86"/><path class="cls-2" d="M33.69,18.75a5.36,5.36,0,0,1-.17.91A5.77,5.77,0,0,0,33.78,22,7.1,7.1,0,0,0,36,25.19c1,.84,2.35,1.23,3.3,2.13,1.58,1.5.49,4.88-.34,6.54a8.62,8.62,0,0,1-2.09,2.7,8.44,8.44,0,0,1-2.84,1.54c-.56.2-1.79.74-1.79,1.5s1,.84,1.54.91c3.06.38,10.62-5,10-11.19S40,25,40,25,34.06,21.63,33.69,18.75Z"/><path class="cls-3" d="M21.5,16.44a16.29,16.29,0,0,1,18.25-1.88"/><path class="cls-3" d="M44.49,19.45A12.34,12.34,0,0,1,47,21.27c3.05,2.86,4.2,6.82,4.2,10.94a19.18,19.18,0,1,1-38.36,0A44.94,44.94,0,0,1,15.56,17.1l2,3.25h4.58c2.26-2.91,6.42-1.83,6.42-1.83-4.5,3.25-2.08,5.5-2.08,5.5h5.11l-4.95,4,2.6,2.58h-4.6c.5,7.34,11,3.59,11,3.59a6.84,6.84,0,0,1-3.67,3.89"/><path class="cls-3" d="M42.73,33.43c-.07.2-.16.39-.25.59A11.42,11.42,0,0,1,22.7,36.14"/><path class="cls-3" d="M44.49,19.45a10,10,0,0,0-3.92-1.3c-2.08-.21-4.65.13-6.34-1.38-.47-.42-.68,1.11-.69,1.28v.14a3.94,3.94,0,0,0,.08.77,5.34,5.34,0,0,0,.8,2c1.74,2.7,5.15,3.93,8.14,4.6l.18.07c1.24.62,1,2.19.94,3.32a15.92,15.92,0,0,1-1,4.52c-.07.2-.16.39-.25.59"/><path class="cls-3" d="M42,42.81a14.38,14.38,0,0,1-17.91,1.64"/><circle class="cls-4" cx="21.58" cy="34" r="1"/></svg>