<svg id="Layer_1" data-name="Layer 1" xmlns="http://www.w3.org/2000/svg" viewBox="0 0 64 64"><defs><style>.cls-1{fill:#9ac8f1;}.cls-2{fill:#389ad6;}.cls-3{fill:#2a5080;}.cls-10,.cls-11,.cls-12,.cls-13,.cls-14,.cls-4,.cls-5,.cls-6,.cls-7,.cls-8,.cls-9{fill:none;stroke-linecap:round;stroke-linejoin:round;stroke-width:2px;}.cls-10,.cls-11,.cls-12,.cls-13,.cls-4,.cls-5,.cls-6,.cls-7,.cls-8,.cls-9{stroke:#2a5080;}.cls-5{stroke-dasharray:0 4.33 0 0;}.cls-6{stroke-dasharray:4.33 0 0 4.33 0 0;}.cls-7{stroke-dasharray:0 5.8 0 0;}.cls-8{stroke-dasharray:5.8 0 0 5.8 0 0;}.cls-9{stroke-dasharray:0 5.43 0 0;}.cls-10{stroke-dasharray:5.43 0 0 5.43 0 0;}.cls-11{stroke-dasharray:0 5.92 0 0;}.cls-12{stroke-dasharray:5.92 0 0 5.92 0 0;}.cls-13{stroke-dasharray:0.01;}.cls-14{stroke:#295183;}</style></defs><title>flight, pattern, travel, transportation, plane</title><path class="cls-1" d="M25.73,11.64a22.94,22.94,0,0,0,9.82,6.87c6.37,2.29-3.11-1.34-3,.32s.21,4.26-.76,3.55-2.48-5.05-5.48-5.69S18.78,12,25.73,11.64Z"/><path class="cls-1" d="M27.11,21.94a.38.38,0,0,1,.38.66C23.48,25.43,17,31,20.12,35.49c4.34,6.4-4,3.32-4-1C16.1,30.59,18.85,25.46,27.11,21.94Z"/><path class="cls-1" d="M26.1,28.82c-2.16.71-4.43.12-6.63.39s-5.5.63-6.68,2.66c-.93,1.61.43,3.6,1.3,4.92a30.07,30.07,0,0,0,4,4.52,7.16,7.16,0,0,1,1.3,1.61,2.67,2.67,0,0,1,.29,2,1.46,1.46,0,0,1-.47.73,1.68,1.68,0,0,1-1.64.11c-4.69-1.85-8.37-7.87-8-12.92.34-4.25,4.88-6,8.58-5.93C20,27,25.35,26.53,26.1,28.82Z"/><path class="cls-1" d="M28,28.62s5.1.24,3.37,2.84-3.87.87-2.53,4.42,2.66,5,2.95,7.9,4.05,4.66,7.58,3.79,4,1.18,3,1.58a4.92,4.92,0,0,0-3,3.32c-.74,2.13-2.79,1.34-2.71-1.11s-7.82,1.58-7.82,1.58S24.18,46,24.18,45.67s4.08,1.26,4.08,1.26S33,45.36,28,41.64,22.55,31.3,28,28.62Z"/><path class="cls-1" d="M47.83,34.29c-.13.16,0,.45.24.68a18.31,18.31,0,0,1,1.18,1.52,12.52,12.52,0,0,1,1.89,10c-.37,1.5-1,2.93-1.43,4.42a1.43,1.43,0,0,0-.07.67.59.59,0,0,0,.47.47.91.91,0,0,0,.48-.1,6.29,6.29,0,0,0,2.86-2.88A10.47,10.47,0,0,0,54,40.22a11.42,11.42,0,0,0-3.5-4.6,16,16,0,0,0-1.34-1,2,2,0,0,0-.86-.41C48,34.16,47.89,34.21,47.83,34.29Z"/><path class="cls-1" d="M43.8,19.91A.59.59,0,0,0,43.32,21c2.09,1.51,3.73,4.08.73,8-5.45,7.19,3.4,3.79,4.19-.71C48.88,24.6,49,21.38,43.8,19.91Z"/><path class="cls-2" d="M26.4,46a22.09,22.09,0,0,0,9.15,3.85c5.6,1-8.14,3.14-8.14,3.14l-3.85-7.46Z"/><circle class="cls-3" cx="34.33" cy="11.93" r="0.87" transform="translate(12.88 41.27) rotate(-73)"/><path class="cls-4" d="M32.37,18.34,38.1,20.1s1.25.54,1.73-.26l4-6.65-5.36,2.74"/><path class="cls-4" d="M28.58,17.19l-5.12-1.57a2,2,0,0,1-1.21-1,2,2,0,0,1-.16-1.56,2.05,2.05,0,0,1,2.57-1.37L32,13.94l2.42.74"/><polyline class="cls-4" points="32.37 18.34 32.81 23.12 31.31 22.66 28.58 17.19 28.58 17.19"/><path class="cls-4" d="M25.41,39.63a17.84,17.84,0,0,1-2.49-.22"/><path class="cls-5" d="M22.92,39.41a11.72,11.72,0,0,1-3.19-1"/><path class="cls-6" d="M18.86,38a5.47,5.47,0,0,1-2.22-2.6c-1.06-2.73.48-6.12,3.73-9.15h0A24.13,24.13,0,0,1,23,24.1"/><path class="cls-4" d="M23,24.1q1-.69,2.12-1.33"/><path class="cls-4" d="M39.46,36q1.14-.6,2.17-1.25"/><path class="cls-7" d="M41.63,34.77a25.75,25.75,0,0,0,3-2.19l.19-.17.64-.59"/><path class="cls-8" d="M46.11,31.12c2.59-2.77,3.74-5.76,2.79-8.21a5.12,5.12,0,0,0-1.41-2"/><path class="cls-4" d="M47.49,20.91a7.61,7.61,0,0,0-2.13-1.3"/><polyline class="cls-4" points="36.22 50.42 35.94 53.41 35.7 56 37.45 55.47 38.34 53.71 40.65 49.06"/><path class="cls-4" d="M36.22,50.42l-5.73,1.74-1,.3s-1.46.63-2-.3l-.8-1.32-3.89-6.45,6.26,3.2"/><path class="cls-4" d="M42.27,53.8a23.21,23.21,0,0,0,3-.32"/><path class="cls-9" d="M45.25,53.48a15.45,15.45,0,0,0,4.22-1.33"/><path class="cls-10" d="M50.35,51.67A7.46,7.46,0,0,0,53.51,48c1.63-4.24-1.33-9.63-7.1-14.13"/><path class="cls-4" d="M46.41,33.92q-.87-.68-1.83-1.33L44,32.17"/><path class="cls-4" d="M20.38,26.22q-1.46,0-3,.14"/><path class="cls-11" d="M17.38,26.36q-1.39.11-2.83.32a11.26,11.26,0,0,0-1.84,1"/><path class="cls-12" d="M11.9,28.23a7.07,7.07,0,0,0-2.17,2.92C7.88,36,12,42.31,19.43,47.12"/><path class="cls-4" d="M19.43,47.12q1.23.8,2.58,1.53"/><path class="cls-13" d="M31.35,27.28h0"/><path class="cls-14" d="M31.73,35.15v9.59a1.52,1.52,0,0,0,2,1.45l3-.93,8.47-2.59a2.46,2.46,0,0,1,3,1.38,2.4,2.4,0,0,1-1.54,3.18l-6,1.83"/><path class="cls-14" d="M34.59,42.32a7.8,7.8,0,1,0-5.71,0"/><path class="cls-14" d="M28.88,37.21a3.49,3.49,0,0,1-.72-2.14,3.57,3.57,0,1,1,6.43,2.14"/><path class="cls-14" d="M22.63,19.39A5.8,5.8,0,0,1,25.77,8.22"/></svg>