<svg id="Layer_1" data-name="Layer 1" xmlns="http://www.w3.org/2000/svg" viewBox="0 0 64 64"><defs><style>.cls-1{fill:#a8d2f0;}.cls-2,.cls-5{fill:none;stroke-linecap:round;stroke-linejoin:round;stroke-width:2px;}.cls-2{stroke:#295183;}.cls-3{fill:#295183;}.cls-4{fill:#389ad6;}.cls-5{stroke:#a8d2f0;}</style></defs><title>gears, settings, options, preferences</title><path class="cls-1" d="M33.22,20.28a5,5,0,0,1,.27,2,30,30,0,0,0,.36,7.22c.56,2.35,2,4.65,4.34,5.42.66.22,1.49.43,1.64,1.11.21.92-1.09,1.6-1.07,2.54a9.44,9.44,0,0,0-6.14-2.86,11,11,0,0,1-3.55-.52c-2-.89-2.81-3.32-2.79-5.49A11.35,11.35,0,0,1,28,23.81c.87-1.41,2.48-4.09,4.41-4.09A.86.86,0,0,1,33.22,20.28Z"/><path class="cls-2" d="M26.2,30.92a9.44,9.44,0,0,1,0-4.2,9.54,9.54,0,0,1,1.28-3,9.36,9.36,0,0,1,3-3A8.72,8.72,0,0,1,32,20a9.13,9.13,0,0,1,1.57-.48h0a9.62,9.62,0,0,1,10.19,4.31A9.35,9.35,0,0,1,45,26.86a9.4,9.4,0,0,1,0,4.19,9.64,9.64,0,0,1-4.29,6h0a9,9,0,0,1-1.45.74,5.61,5.61,0,0,1-.65.23"/><path class="cls-2" d="M32,30.34a3.86,3.86,0,1,1,6.87.56"/><rect class="cls-3" x="28.96" y="15.05" width="4.25" height="5.46" rx="1.13" ry="1.13" transform="translate(-4.4 12.97) rotate(-22.05)"/><rect class="cls-3" x="22.42" y="21.49" width="4.25" height="5.46" rx="1.13" ry="1.13" transform="translate(-7.32 37.38) rotate(-67.05)"/><rect class="cls-3" x="44.5" y="30.83" width="4.25" height="5.46" rx="1.13" ry="1.13" transform="translate(95.72 3.72) rotate(112.95)"/><rect class="cls-3" x="44.57" y="21.66" width="4.25" height="5.46" rx="1.13" ry="1.13" transform="translate(51.77 -28.05) rotate(67.95)"/><rect class="cls-3" x="38.14" y="15.12" width="4.25" height="5.46" rx="1.13" ry="1.13" transform="translate(10.15 -14.29) rotate(22.95)"/><path class="cls-4" d="M22.85,43.58s-3.55-7.15,5.62-8.36l-3.15,8.45Z"/><path class="cls-1" d="M28.41,36.8c1.78-.36,1.83,1,2.06,2.31a10.16,10.16,0,0,0,1.88,4.36,7.24,7.24,0,0,0,1.14,1.36c.42.34,1.25.48,1.51,1a.85.85,0,0,1-.12.87,3,3,0,0,1-1.32.92,5,5,0,0,1-2,.31s-4.91-.68-5.91-2.71c-.82-1.65-.16-4.23.49-5.83A4.68,4.68,0,0,1,27.87,37,1.89,1.89,0,0,1,28.41,36.8Z"/><path class="cls-2" d="M38.85,41.42a6.45,6.45,0,0,1-.16,1.91,6.52,6.52,0,0,1-.26.86,6.16,6.16,0,0,1-.65,1.28,6.58,6.58,0,0,1-2.13,2.1,6.25,6.25,0,0,1-1,.53,6.72,6.72,0,0,1-1.11.34,6.56,6.56,0,0,1-3,0h0a6.37,6.37,0,0,1-2.13-.9,6.45,6.45,0,0,1-2.09-2.13h0a5.91,5.91,0,0,1-.54-1,6,6,0,0,1-.34-1.12,6.76,6.76,0,0,1,0-3,6.63,6.63,0,0,1,.65-1.7,2.82,2.82,0,0,1,.26-.44,6.32,6.32,0,0,1,1.08-1.29,1.5,1.5,0,0,1,.23-.21,4.86,4.86,0,0,1,.83-.6,6.52,6.52,0,0,1,2.14-.87h0a6.48,6.48,0,0,1,2.63,0l.34.07a6.8,6.8,0,0,1,2.15.91l.11.07a6.61,6.61,0,0,1,2,2.06,6.25,6.25,0,0,1,.53,1,5.76,5.76,0,0,1,.34,1.12h0a4.45,4.45,0,0,1,.12.73A1.82,1.82,0,0,1,38.85,41.42Z"/><circle class="cls-2" cx="32.06" cy="41.79" r="2.73" transform="translate(-13.34 15.09) rotate(-22.05)"/><rect class="cls-3" x="27.37" y="31.98" width="3.01" height="3.87" rx="0.8" ry="0.8" transform="translate(-10.62 13.32) rotate(-22.05)"/><path class="cls-3" d="M26.35,38.44l-.05.14-.55,1.3a.83.83,0,0,1-.32.37.78.78,0,0,1-.73.05l-2.09-.88a.81.81,0,0,1-.42-1.05l.15-.34.4-1a.8.8,0,0,1,1.05-.43l2.08.88a.8.8,0,0,1,.47.58A.74.74,0,0,1,26.35,38.44Z"/><rect class="cls-3" x="22.68" y="43.04" width="3.01" height="3.87" rx="0.8" ry="0.8" transform="translate(-8.42 84.28) rotate(-112.05)"/><rect class="cls-3" x="27.24" y="47.67" width="3.01" height="3.87" rx="0.8" ry="0.8" transform="translate(35.88 106.5) rotate(-157.05)"/><path class="cls-3" d="M36.21,48l.85,2.09a.8.8,0,0,1-.44,1l-1.29.52a.8.8,0,0,1-1-.44l-.85-2.09a.8.8,0,0,1,.07-.74.72.72,0,0,1,.37-.31l1.29-.52a.72.72,0,0,1,.48,0A.8.8,0,0,1,36.21,48Z"/><path class="cls-3" d="M41.93,45.21l-.26.62-.28.67a.8.8,0,0,1-1,.42L38.25,46a.79.79,0,0,1-.47-.57.73.73,0,0,1,0-.48l.48-1.12.07-.17a.78.78,0,0,1,.32-.37.82.82,0,0,1,.73-.06l2.09.89A.8.8,0,0,1,41.93,45.21Z"/><rect class="cls-3" x="38.42" y="36.67" width="3.01" height="3.87" rx="0.8" ry="0.8" transform="translate(60.71 -12.9) rotate(67.95)"/><rect class="cls-3" x="33.86" y="32.04" width="3.01" height="3.87" rx="0.8" ry="0.8" transform="translate(16.04 -11.1) rotate(22.95)"/><path class="cls-2" d="M24.14,43.77a5.16,5.16,0,1,1-.23-9.66"/><rect class="cls-3" x="18.68" y="31.62" width="2.26" height="2.9" rx="0.6" ry="0.6" transform="translate(-10.97 9.85) rotate(-22.05)"/><rect class="cls-3" x="15.2" y="35.04" width="2.26" height="2.9" rx="0.6" ry="0.6" transform="translate(-23.64 37.3) rotate(-67.05)"/><rect class="cls-3" x="15.16" y="39.92" width="2.26" height="2.9" rx="0.6" ry="0.6" transform="translate(-15.94 72.01) rotate(-112.05)"/><rect class="cls-3" x="18.58" y="43.4" width="2.26" height="2.9" rx="0.6" ry="0.6" transform="translate(20.38 93.84) rotate(-157.05)"/><path class="cls-5" d="M44.2,49.33s3.14-3.76,1.22-8.21"/><path class="cls-5" d="M25.28,14.23s-7.86,4.33-7.56,13.2"/><path class="cls-5" d="M14.32,46a7.17,7.17,0,0,0,6.11,3.63"/></svg>