<svg id="Layer_1" data-name="Layer 1" xmlns="http://www.w3.org/2000/svg" viewBox="0 0 64 64"><defs><style>.cls-1{fill:#3897d3;}.cls-2{fill:#a8d2f0;}.cls-3{fill:none;stroke:#295183;stroke-linecap:round;stroke-linejoin:round;stroke-width:2px;}.cls-4{fill:#295183;}</style></defs><title>gorilla, animal, jungle, mammal</title><path class="cls-1" d="M23.84,22.69a30.35,30.35,0,0,1-6.24,3.13c-.31.1-.76.13-.86-.19a.59.59,0,0,1,0-.36,3.38,3.38,0,0,1,.54-1l-.53.19a21.34,21.34,0,0,0,.63-2.93,24.92,24.92,0,0,1,1.09-3.09c.36-.83.54-2,1.6-1.65a1.93,1.93,0,0,1,1.45,1.8c-.07,1-1.14,1.67-1.43,2.64a.93.93,0,0,0,.09.84c.3.38.89.27,1.38.22A3.91,3.91,0,0,1,23.84,22.69Z"/><path class="cls-1" d="M38.58,30.88c-.46-.34-1.21,0-1.78.23a9,9,0,0,1-5.82.68c-1-.21-3.58-1.25-3.21.54.28,1.38,1.78,2.39,3,2.8,1.62.54,3.38.52,5,.94a3.3,3.3,0,0,1,1.64.85,3.63,3.63,0,0,1,.73,2.3A19.61,19.61,0,0,1,37,47.09a3.74,3.74,0,0,0,4.22-1.93,6.28,6.28,0,0,0,.37-3.31,44.93,44.93,0,0,0-2.7-10.39,1.42,1.42,0,0,0-.22-.45A.76.76,0,0,0,38.58,30.88Z"/><path class="cls-2" d="M22.58,22.95c.39-.2,1.19.48,1.42.77.91,1.22.33,2.94,0,4.29a13.34,13.34,0,0,0-.12,5.21c.29,1.85,1.07,3.66,1.17,5.54.08,1.67-.87,3-1.08,4.56a4.76,4.76,0,0,0,.1,2c.05.17,1,1.76,1.08,1.55,0,0-2.06,3.68-3.3-6.83S18.63,24.94,22.58,22.95Z"/><path class="cls-2" d="M41.06,27.61c-.69.06-1.3,1-1.51,2a10.72,10.72,0,0,0-.18,4.16c.39,1.94,1.24,3.75,1.79,5.65a8.62,8.62,0,0,1,0,5.81c-.26.59-.62,1.25-.34,1.83s1.36.7,2.14.58a.55.55,0,0,0,.59-.62c.15-2.13.31-4.26.4-6.4.18-4.06.12-8.29-1.67-11.93C41.91,27.86,41.47,27.57,41.06,27.61Z"/><path class="cls-3" d="M38.92,29.59,39.67,35l.84,1.75a11.77,11.77,0,0,1,1.16,5.1h0a11.77,11.77,0,0,1-1.07,4.91l-.3.66"/><path class="cls-3" d="M42.5,22.59a5.1,5.1,0,0,1,5.09,5.08V46.46a1,1,0,0,1-1,1H36.14l.61-1.07a11.8,11.8,0,0,0,1.36-3.77L38.38,41"/><path class="cls-3" d="M24.84,22.59a5.09,5.09,0,0,0-5.08,4.84,2,2,0,0,0,0,.24"/><path class="cls-3" d="M19.75,27.26c0,.83,3.83,20.17,3.83,20.17h5V45.18l-2.25-.25,2.25-7.17-1.42-10.5"/><path class="cls-3" d="M33.67,35.42A11.68,11.68,0,0,1,28.08,34"/><path class="cls-3" d="M42.5,22.59H37a7.17,7.17,0,0,1-4.91-1.95l-6-5.63h0a4.16,4.16,0,0,0-4.87.18L17.67,18v2.63l-1.25,1.08v3.58h3.95"/><circle class="cls-4" cx="36.32" cy="35.15" r="1"/></svg>