<svg id="Layer_1" data-name="Layer 1" xmlns="http://www.w3.org/2000/svg" viewBox="0 0 64 64"><defs><style>.cls-1,.cls-5{fill:none;stroke-linecap:round;stroke-linejoin:round;stroke-width:2px;}.cls-1{stroke:#2a5080;}.cls-2{fill:#2a5080;}.cls-3{fill:#9ac8f1;}.cls-4{fill:#a8d2f0;}.cls-5{stroke:#295183;}.cls-6{fill:#389ad6;}.cls-7{fill:#295183;}</style></defs><title>graphic, design, pen, anchor, paint</title><polyline class="cls-1" points="37.77 20.36 37.77 25.99 37.77 27.06 38.2 27.06 42.71 27.06 47.2 27.06 50.84 27.06 50.84 13.84 37.77 13.84"/><path class="cls-2" d="M38.85,17.24a1.07,1.07,0,1,1-1.08-1.09A1.08,1.08,0,0,1,38.85,17.24Z"/><path class="cls-2" d="M55.76,40.49a1.07,1.07,0,1,1-1.08-1.09A1.08,1.08,0,0,1,55.76,40.49Z"/><path class="cls-3" d="M48.05,24a1,1,0,0,1-.49.36,5.91,5.91,0,0,1-4.69,0c-2.64-1.26-3.83-5.57-1-7.33a1.12,1.12,0,0,1,.56-.2c.56,0,.89.64,1,1.2.25,1.11.24,2.28.58,3.37a3.68,3.68,0,0,0,1.11,1.75c.82.66,1.35.27,2.25.19.32,0,.72.18.7.51A.41.41,0,0,1,48.05,24Z"/><path class="cls-4" d="M16.7,44.12c-.16,0-.31-.19-.34-.47-.11-.86-.65-7.92.59-7.84.23,0,.32.3.35.53a22.63,22.63,0,0,1,.18,4.26q-.06,1-.21,2.08a6.75,6.75,0,0,1-.19,1.08C17,44,16.84,44.14,16.7,44.12Z"/><path class="cls-4" d="M24.57,41.61a.42.42,0,0,1-.34-.38c-.11-.69-.69-6.36.55-6.29.23,0,.32.24.36.43a14.64,14.64,0,0,1,0,5.09,4.43,4.43,0,0,1-.18.87A.38.38,0,0,1,24.57,41.61Z"/><path class="cls-5" d="M23.9,39.1v6.21a2.36,2.36,0,0,1-2.35,2.35h0a2.36,2.36,0,0,1-2.35-2.35V42.13"/><path class="cls-5" d="M14.11,35.11a1.42,1.42,0,0,1,1.22.62,4,4,0,0,1,.43,2.36v6a1.72,1.72,0,0,0,3.44,0v-3"/><path class="cls-5" d="M19.08,35.11H24.2"/><path class="cls-4" d="M21.17,45.51c-.16,0-.31-.19-.34-.47-.11-.86-.65-7.92.59-7.84.23,0,.32.3.35.53A22.63,22.63,0,0,1,21.95,42q-.06,1-.21,2.08a6.75,6.75,0,0,1-.19,1.08C21.47,45.42,21.32,45.53,21.17,45.51Z"/><path class="cls-6" d="M28.91,20.24s2.55,11.14-5.51,13.32-12.73-4.9-10.92-10.69,8.53-6.93,11-6S27.92,18.74,28.91,20.24Z"/><path class="cls-4" d="M18.08,8.46S12.3,13,14.74,13.23s4.65-.83,4.24,1S11.7,22.41,9,22.26,10.88,9.26,18.08,8.46Z"/><path class="cls-5" d="M11.16,33.42a12.48,12.48,0,1,1,21-.67,6.66,6.66,0,0,1-3.4,2.63c-.75.29-1.39.85-1.4,1.52,0,0,0,.09,0,.13v4a1.8,1.8,0,0,1-1.43,1.8,1.72,1.72,0,0,1-2-1.7V37.94"/><path class="cls-5" d="M9,25.54v-6.3A12.48,12.48,0,0,1,33,15.7h0a2.26,2.26,0,0,0,1-1.84V8.55H54.69V37.08"/><path class="cls-5" d="M29.2,30.73a9.05,9.05,0,1,0-16.82-4.65"/><path class="cls-4" d="M45.52,51.65a3.37,3.37,0,0,1,4.09-.49c2.35,1.34,3,1.18,3.89.75s2.54,2.22-.75,3.58S44.94,53.63,45.52,51.65Z"/><path class="cls-6" d="M34.94,36.25S42,40.94,41.73,47c0,0-3.95-1.3-4.67-.49S38.56,39.42,34.94,36.25Z"/><path class="cls-5" d="M40.7,42l-6.79-6.79s7.68,5.89,11.16,2.41c0,0,.54,6.61,4.2,10.27l1.61-1.61,2.59,2.59a4.17,4.17,0,0,1,0,5.89h0"/><path class="cls-5" d="M46.59,50.58,45,52.19l2.59,2.59a4.17,4.17,0,0,0,5.89,0h0"/><path class="cls-5" d="M37.41,43.1a4.08,4.08,0,0,1-1.09,3.29s6.61.54,10.27,4.2"/><path class="cls-5" d="M30.82,42.26a9.49,9.49,0,1,1-19,0"/><path class="cls-5" d="M40.31,32.78a9.49,9.49,0,0,1,9.49,9.49"/><path class="cls-5" d="M30.82,42.26a9.49,9.49,0,0,1,6.39-9"/><line class="cls-5" x1="40.31" y1="34.53" x2="40.31" y2="30.73"/><circle class="cls-7" cx="11.85" cy="39.1" r="1"/><circle class="cls-7" cx="13.09" cy="29.33" r="1"/><circle class="cls-7" cx="42.5" cy="44" r="1"/></svg>