<svg id="Layer_1" data-name="Layer 1" xmlns="http://www.w3.org/2000/svg" viewBox="0 0 64 64"><defs><style>.cls-1{fill:#389ad6;}.cls-2{fill:#9dcbf4;}.cls-3{fill:none;stroke:#2a5081;stroke-linecap:round;stroke-linejoin:round;stroke-width:2px;}.cls-4{fill:#2a5081;}</style></defs><title>guitarist, people, person, music, instrument</title><path class="cls-1" d="M19.11,31.89s1.55,3.61,7.13,1.17S31,35.13,31,35.13s-4,.49-5.61,3.3S19.68,40,18.94,36.76,16.86,34.66,19.11,31.89Z"/><path class="cls-2" d="M29.16,34.69s4.24-1.5,4.17,10c0,0-2.24,5.5-5.24,5.42Z"/><path class="cls-2" d="M29.49,31.18h0a2.1,2.1,0,0,0,.77.23c2,.2,1.14-.25,2.23-1.4,0-.1,0-.2,0-.3.4-2.22.13-4.49.38-6.72L33,21.89a8.18,8.18,0,0,0,0-1.64c0-.3-.76-3.56-.14-3.56H30.28s0,.05,0,.15c.1.77.53,4.2,0,4h0C30,21,29.18,23,28.66,25.43a16,16,0,0,0-.37,5.63,4.06,4.06,0,0,0,.37,1.19Z"/><path class="cls-1" d="M31,34.63s3.21,5.62-2.67,11.49c-.07-.63.49-10.75.49-10.75Z"/><polyline class="cls-3" points="28.66 31.43 28.66 25.43 28.66 24.72"/><path class="cls-3" d="M31.41,35.37h2.5A2.09,2.09,0,0,0,36,33.28V24.84a2.93,2.93,0,0,0-.26-1.22A3,3,0,0,0,33,21.89h-.38"/><path class="cls-3" d="M32.5,15.89a3,3,0,0,0,0,6"/><line class="cls-3" x1="28.66" y1="24.72" x2="23.83" y2="34.63"/><polyline class="cls-3" points="39.65 27.89 40.99 26.01 28.66 31.43"/><polyline class="cls-3" points="30.05 49.49 29.91 49.49 28.13 49.49 27.66 49.49 28.49 35.54"/><line class="cls-3" x1="36" y1="32.46" x2="37.03" y2="48.89"/><path class="cls-3" d="M33.28,39.57v9.5a.43.43,0,0,0,.43.43h2.86a.43.43,0,0,0,.43-.43"/><path class="cls-3" d="M16.65,25.79a.94.94,0,0,0,.94.94h0a.94.94,0,0,0,.94-.94V21.95L23,21.2V25a.94.94,0,0,1-.94.94h0a.94.94,0,0,1-.94-.94"/><path class="cls-3" d="M41,37.2a.94.94,0,0,0,.94.94h0a.94.94,0,0,0,.94-.94V33.36l4.49-.75v3.84a.94.94,0,0,1-.94.94h0a.94.94,0,0,1-.94-.94"/><circle class="cls-4" cx="42.54" cy="23.88" r="1"/><path class="cls-3" d="M21.83,31.17l-1.65.45a2.92,2.92,0,0,0-1.74,4.29l1.68,2.86a2.92,2.92,0,0,0,4.84.28l2.55-3.68h4V33"/></svg>