<svg id="Layer_1" data-name="Layer 1" xmlns="http://www.w3.org/2000/svg" viewBox="0 0 64 64"><defs><style>.cls-1{fill:#389ad6;}.cls-2{fill:#a8d2f0;}.cls-3{fill:none;stroke:#295183;stroke-linecap:round;stroke-linejoin:round;stroke-width:2px;}</style></defs><title>hairdryer, device, electronic, household, appliance</title><path class="cls-1" d="M28.89,27.64s2.23,0,1.74,1.63-4.29,5.84-.84,11.84c0,0-3.94,1.91-4.25-3.25s-.61-11.08-.61-11.08Z"/><path class="cls-2" d="M26.57,14.51s18.81,2.73,13.48,12l-16.8,1.64s-8.73-3.45-5.36-9.31S26.57,14.51,26.57,14.51Z"/><path class="cls-3" d="M24.53,27.56a6.6,6.6,0,1,1-.39-13.19h.39L48.89,16V26L31.56,27.1l-3.37.17"/><path class="cls-3" d="M31.75,30.55l.39,7.19a3.6,3.6,0,1,1-7.2,0V27.53"/><line class="cls-3" x1="24.94" y1="31.97" x2="23.14" y2="31.97"/><circle class="cls-3" cx="24.3" cy="20.97" r="3"/><path class="cls-3" d="M28.54,41.34s-.91,3,.38,5.1-2,3.33-2,3.21"/></svg>