<svg id="Layer_1" data-name="Layer 1" xmlns="http://www.w3.org/2000/svg" viewBox="0 0 64 64"><defs><style>.cls-1{fill:#a8d2f0;}.cls-2{fill:#389ad6;}.cls-3{fill:none;stroke:#295183;stroke-linecap:round;stroke-linejoin:round;stroke-width:2px;}</style></defs><title>home, office, phone, device, electronic</title><path class="cls-1" d="M25.11,9.61S22,25.88,26,32s6,4.88,6,12a50.64,50.64,0,0,0,10.82,1c5.78-.12,7.18,6.12,1.18,6.12s-10.86-1.29-12.43,1.8S18.93,56.11,17.28,50.8C17.28,50.8,7.47,14.6,25.11,9.61Z"/><path class="cls-2" d="M18.22,18S13.75,32.88,13.5,40.44s1.44,8.54,2.61,9.45S19.47,55,18.75,33.48,18.22,18,18.22,18Z"/><path class="cls-3" d="M18.22,13v38.1A5,5,0,0,1,14,46.11V17.89"/><line class="cls-3" x1="32" y1="51.12" x2="32" y2="12.88"/><path class="cls-3" d="M36,12.88H50c1.75,0,4,2.25,4,5V46.11a5,5,0,0,1-5,5H32"/><path class="cls-3" d="M32,51.44a3,3,0,0,1-2.95,3H21.17"/><path class="cls-3" d="M18.22,49.89V12.56a3,3,0,0,1,3-3h7.88a3,3,0,0,1,2.95,3"/><path class="cls-3" d="M49.22,21.75a1.5,1.5,0,0,1-1.5,1.5H38a1.5,1.5,0,0,1-1.5-1.5V19.5A1.5,1.5,0,0,1,38,18h9.75"/><line class="cls-3" x1="36" y1="31.69" x2="38.37" y2="31.69"/><line class="cls-3" x1="36" y1="36.06" x2="38.37" y2="36.06"/><line class="cls-3" x1="36" y1="40.44" x2="38.37" y2="40.44"/><line class="cls-3" x1="41.66" y1="31.69" x2="44.03" y2="31.69"/><line class="cls-3" x1="41.66" y1="36.06" x2="44.03" y2="36.06"/><line class="cls-3" x1="41.66" y1="40.44" x2="44.03" y2="40.44"/><line class="cls-3" x1="47.32" y1="31.69" x2="49.69" y2="31.69"/><line class="cls-3" x1="47.32" y1="36.06" x2="49.69" y2="36.06"/><line class="cls-3" x1="47.32" y1="40.44" x2="49.69" y2="40.44"/><line class="cls-3" x1="49.69" y1="46" x2="36" y2="46"/><path class="cls-3" d="M25.3,50h0a2.7,2.7,0,0,1-2.69-2.69V46.08a2.7,2.7,0,0,1,2.69-2.69h0A2.7,2.7,0,0,1,28,46.08v1.22A2.7,2.7,0,0,1,25.3,50Z"/></svg>