<svg id="Layer_1" data-name="Layer 1" xmlns="http://www.w3.org/2000/svg" viewBox="0 0 64 64"><defs><style>.cls-1{fill:none;stroke:#295181;stroke-linecap:round;stroke-linejoin:round;stroke-width:2px;}.cls-2{fill:#9ac8f1;}.cls-3{fill:#3897d3;}.cls-4{fill:#295181;}</style></defs><title>ice, cream, dessert, snack, cold</title><path class="cls-1" d="M22.06,21a10,10,0,0,1-.27-2.33,10.22,10.22,0,1,1,20.43,0A10,10,0,0,1,41.95,21"/><path class="cls-2" d="M31.25,27.05S32.06,42.63,35,45.27c0,0-.94,11.9-5.84.45S21,27,31.34,26.72"/><path class="cls-1" d="M39.28,20.18a4.92,4.92,0,0,1,4.18,2.31,4.83,4.83,0,0,1,.75,2.61,4.93,4.93,0,0,1-8.33,3.57"/><line class="cls-1" x1="32" y1="53.59" x2="40.56" y2="29.85"/><path class="cls-2" d="M25.39,16.82a5.48,5.48,0,0,1-.05-1.13,4.55,4.55,0,0,1,2.42-3.6c1.3-.69,3.35-1,3.75.87a6.94,6.94,0,0,1-.23,2.63,3.1,3.1,0,0,0,.4,2.54c.36.42.91.68,1.16,1.17A1.78,1.78,0,0,1,32,21.43a21.22,21.22,0,0,1-2.28,1,1.25,1.25,0,0,0-.58.49c-.27.52.16,1.14.66,1.44a3,3,0,0,0,3,0c.75-.46,1.36-1.29,2.25-1.32a2.27,2.27,0,0,1,1.65.87,6,6,0,0,1,1.39,2.52,2.45,2.45,0,0,1-.48,2.51,2.73,2.73,0,0,1-2,.41,13.51,13.51,0,0,1-3.76-.89,3.85,3.85,0,0,0-1.42-.38,4.42,4.42,0,0,0-1.19.27,7.11,7.11,0,0,1-4.06,0,4.14,4.14,0,0,1-2.88-2.5,4.56,4.56,0,0,1,.39-3.08c.34-.79.91-1.63,1.76-1.73.43-.05.92.09,1.27-.16s.39-.89.29-1.37C25.8,18.59,25.51,17.72,25.39,16.82Z"/><path class="cls-3" d="M20.63,26s.55-2.16,2.81-.86,2.9,2.09,4.63,1.3,3.13-.85,3.27.32-6.27,5.4-9.21,3.14S20.63,26,20.63,26Z"/><path class="cls-3" d="M25.41,15.8a2.09,2.09,0,0,0-.49.42c-.75.89-1.93,3.12-.54,4,1.82,1.1,0,.83,0,.83s7.59,1.78,9.71,0c1.29-1.11-.47-1.51-1.39-1.69s-2.26-.13-2.82-1.22c-.19-.38-.31-.8-.51-1.18A3,3,0,0,0,25.41,15.8Z"/><path class="cls-1" d="M29.39,46.35l-1.77-4.89-2.5-7v0l-1.67-4.62"/><path class="cls-1" d="M25.11,34.48s1.15,1.94,6.65,1.52"/><path class="cls-1" d="M31.76,41.66l-.95,0a12.86,12.86,0,0,1-3.19-.25"/><path class="cls-1" d="M24.72,20.18a4.92,4.92,0,0,0-4.18,2.31,4.83,4.83,0,0,0-.75,2.61,4.92,4.92,0,0,0,8.32,3.57L29.64,36l1.17,5.66.5,2.41a1.85,1.85,0,0,1-1.9,2.23h0"/><circle class="cls-4" cx="30.39" cy="48.95" r="1"/></svg>