<svg id="Layer_1" data-name="Layer 1" xmlns="http://www.w3.org/2000/svg" viewBox="0 0 64 64"><defs><style>.cls-1{fill:#389ad6;}.cls-2{fill:#a8d2f0;}.cls-3{fill:none;stroke:#295183;stroke-linecap:round;stroke-linejoin:round;stroke-width:2px;}.cls-4{fill:#295183;}</style></defs><title>lamp, light, furniture, electronic</title><path class="cls-1" d="M28.34,36.35s7.11-1.32,7.13,1.1S32.86,46,32.86,48.2s3.93,3.07,3.93,3.07,4.76,2.3-2.18,2.47-15.34,1.25-12-2.81,4.64-2.3,4.64-2.3l1.21-5.82Z"/><path class="cls-2" d="M30.73,10a31.64,31.64,0,0,0-1.13,8.2A11.25,11.25,0,0,0,38.49,29a6.86,6.86,0,0,0,4.24-.32c1.1-.52,2.2-2,3.55-1.52a2.68,2.68,0,0,1,1.21,1.3A17.44,17.44,0,0,1,48.83,32a3.88,3.88,0,0,1,0,2.82c-.68,1.41-2.5,1.75-4.06,1.87a164.06,164.06,0,0,1-22.44-.16,44.72,44.72,0,0,1-6.84-.76,1,1,0,0,1-.48-.2,1,1,0,0,1-.15-.82,35.47,35.47,0,0,1,1.65-6.41C18,24,19.43,19.71,20.92,15.42L22,12.2l.54-1.54c.25-.7.29-.65,1-.65h7.12Z"/><path class="cls-3" d="M35.57,36.35V45a3.58,3.58,0,0,0,1.52,2.93l4.24,3a1.64,1.64,0,0,1-.93,3H23.52a1.64,1.64,0,0,1-.93-3l4.23-3A3.58,3.58,0,0,0,28.34,45V36.35"/><path class="cls-1" d="M32,14.83a16.36,16.36,0,0,0-1.65,4.06A44.23,44.23,0,0,0,29,26.38c-.14,1.3-.76,4.62,1.19,4.94,1.25.2,1.26-3.1,1.31-3.75"/><path class="cls-1" d="M25.83,14.72a14.77,14.77,0,0,0-2.38,3.87,36.65,36.65,0,0,0-2.23,7.32c-.28,1.28-1.33,4.53,1,5,1.52.33,1.82-3,1.93-3.59"/><path class="cls-3" d="M31.18,36.35H17a2,2,0,0,1-1.93-2.67l7.43-22.29A2,2,0,0,1,24.45,10h15a2,2,0,0,1,1.92,1.39l7.43,22.29a2,2,0,0,1-1.93,2.67H35.57"/><line class="cls-3" x1="26.71" y1="14.83" x2="23.72" y2="30.53"/><line class="cls-3" x1="31.98" y1="15.27" x2="31.95" y2="30.53"/><circle class="cls-4" cx="31.98" cy="50.4" r="0.88"/></svg>