<svg id="Layer_1" data-name="Layer 1" xmlns="http://www.w3.org/2000/svg" viewBox="0 0 64 64"><defs><style>.cls-1{fill:#9dcbf4;}.cls-2,.cls-6{fill:none;stroke-linecap:round;stroke-linejoin:round;stroke-width:2px;}.cls-2{stroke:#9dcbf4;}.cls-3{fill:#fff;}.cls-4{fill:#a8d2f0;}.cls-5{fill:#389ad6;}.cls-6{stroke:#295183;}.cls-7{fill:#295183;}.cls-8{fill:#e0e1e1;}</style></defs><title>laptop, computer, cloud, shopping, online</title><circle class="cls-1" cx="26.21" cy="9" r="1"/><path class="cls-2" d="M7.89,37.78a19.19,19.19,0,0,1,2.53-14.84"/><path class="cls-2" d="M44.3,12.8a24.2,24.2,0,0,1,9.52,32.4"/><polygon class="cls-3" points="31.1 16.69 35.23 18.45 36.03 20.5 36.03 23.89 46.22 24 50.53 26.31 50.16 51.46 35.53 50.94 29.09 21.77 31.1 16.69"/><path class="cls-4" d="M36.82,51.15c0,.1.07.21.11.3l-20.45-.07A1.44,1.44,0,0,1,15,49.94V26.57a2.64,2.64,0,0,1,1-2.09,1.44,1.44,0,0,1,.88-.29H24a3,3,0,0,0,0,.52l.51,5.05v11.5c0,1.78,2,3.24,3.87,3.24l6.44,0c0,.21-.07.4-.11.6l1.06-.5a1.44,1.44,0,0,1,.61-.14h0a1.44,1.44,0,0,1,1.23,2.18A5.35,5.35,0,0,0,36.82,51.15Z"/><path class="cls-5" d="M16.54,24.18H24a3,3,0,0,0,0,.52l-.33,4.62A25.06,25.06,0,0,0,15,38.84V26.57A2.64,2.64,0,0,1,16.54,24.18Z"/><path class="cls-4" d="M45.21,24.18H43.78c.32-.11.65-.21,1-.28a1.34,1.34,0,0,1,.28-.08.19.19,0,0,1,0,.08A2.48,2.48,0,0,1,45.21,24.18Z"/><path class="cls-5" d="M48.34,55H16.47a1.83,1.83,0,0,1-1.82-1.82h0a1.83,1.83,0,0,1,1.82-1.82H48.34a1.83,1.83,0,0,1,1.82,1.82h0A1.83,1.83,0,0,1,48.34,55Z"/><path class="cls-6" d="M44.43,23.89h3.09a2.64,2.64,0,0,1,2.64,2.64V48"/><path class="cls-5" d="M37,45s.56,2.22-2,2.14-12.37,1.25-12-5.46,1.17-5,1.17-5l1.71,7Z"/><path class="cls-6" d="M18.31,55H48.39a1.82,1.82,0,0,0,0-3.64H15V26.57a2.64,2.64,0,0,1,1.5-2.39,2.58,2.58,0,0,1,1.19-.28h2.16"/><circle class="cls-7" cx="15.05" cy="55.02" r="0.98"/><line class="cls-2" x1="26.21" y1="12.8" x2="26.21" y2="16"/><line class="cls-2" x1="22.03" y1="11" x2="22.03" y2="19.07"/><line class="cls-2" x1="39.22" y1="11.46" x2="39.22" y2="18.62"/><path class="cls-3" d="M43.72,30.64A2.38,2.38,0,0,1,41.34,33H24.47a2.38,2.38,0,0,1-2.33-1.9,2.42,2.42,0,0,1,0-1,2.38,2.38,0,0,1,2.33-1.9H30.7l.16.16L33,30.62a1.2,1.2,0,0,0,1.7,0l2.07-2.07.29-.29h4.24A2.38,2.38,0,0,1,43.72,30.64Z"/><path class="cls-3" d="M37.94,20.24q0,.21,0,.41a4.76,4.76,0,0,1-4.82,4.91H31a5,5,0,1,1,7-5.32Z"/><path class="cls-3" d="M23.43,25.56a4.67,4.67,0,0,1,9.34,0"/><path class="cls-3" d="M33,30.53h0a.9.9,0,0,0,1.27,0l6.83-6.83a.9.9,0,0,0,0-1.27h0a.9.9,0,0,0-1.27,0L33,29.26A.9.9,0,0,0,33,30.53Z"/><path class="cls-8" d="M35,30.34a1.49,1.49,0,0,1-.4.71,1.56,1.56,0,0,1-1.09.45H24.61a1.54,1.54,0,0,1-1.09-2.62,1.51,1.51,0,0,1,1.09-.46h6.24L33,30.62a1.2,1.2,0,0,0,1.7,0Z"/><path class="cls-4" d="M38.67,33H24.5c0,.08,0,.17,0,.25v2.42a7,7,0,0,0,6.94,6.94h.3a6.83,6.83,0,0,0,4-1.29,1.12,1.12,0,0,1-.43.08,1.2,1.2,0,0,1-1.2-1.2v-3.6a1.17,1.17,0,0,1,.09-.46,1.15,1.15,0,0,1,.26-.39,1.17,1.17,0,0,1,.85-.35,1.27,1.27,0,0,1,.26,0,1.2,1.2,0,0,1,.94,1.17v3.6a1.19,1.19,0,0,1-.2.67,6.93,6.93,0,0,0,2.37-5.21V33.27C38.67,33.19,38.67,33.1,38.67,33Zm-7,7.21a1.2,1.2,0,0,1-2.4,0v-3.6a1.23,1.23,0,0,1,.35-.85,1.17,1.17,0,0,1,.85-.35,1.2,1.2,0,0,1,1.2,1.2Z"/><path class="cls-6" d="M41.31,33v6.46A5.4,5.4,0,0,1,36.11,45H29.7a5.4,5.4,0,0,1-5.2-5.55V36.86"/><path class="cls-6" d="M41.41,28.26a2.31,2.31,0,0,1,2.3,2.3"/><path class="cls-6" d="M41.54,22.12a1.21,1.21,0,0,1,0,1.7L38.35,27,37.1,28.26l-.29.29L35,30.34l-.28.28a1.2,1.2,0,0,1-1.7,0l-2.19-2.2-.16-.16H24.4a2.32,2.32,0,0,0-2.25,1.9,2.42,2.42,0,0,0,0,1,2.39,2.39,0,0,0,.62,1.2,2.27,2.27,0,0,0,1.63.7h17"/><path class="cls-6" d="M35.31,36h0a1.2,1.2,0,0,1,1.2,1.2v3.73a1.2,1.2,0,0,1-1.2,1.2h0a1.2,1.2,0,0,1-1.2-1.2V38.36"/><path class="cls-1" d="M29.95,25.56H24.56a1.38,1.38,0,0,1-1.38-1.36,1.27,1.27,0,0,1,.54-1.07h0a3.35,3.35,0,0,1,.4-.25A4.21,4.21,0,0,1,26,22.31h.28a4.36,4.36,0,0,1,1.26.19h0A3.59,3.59,0,0,1,29.95,25.56Z"/><path class="cls-1" d="M36.07,21.12v.08a4.37,4.37,0,0,1-3,4.14,4.12,4.12,0,0,1-1.19.22H31.5V25a4,4,0,0,0-4-4h-.14a4.47,4.47,0,0,1,.22-1.2,4.36,4.36,0,0,1,4-3h.09A4.37,4.37,0,0,1,36.07,21.12Z"/><path class="cls-5" d="M33.31,23.89V24a4.18,4.18,0,0,1-.23,1.38,4.12,4.12,0,0,1-1.19.22H31.5V25a4,4,0,0,0-4-4h-.14a4.47,4.47,0,0,1,.22-1.2,4.3,4.3,0,0,1,1.29-.22H29A4.37,4.37,0,0,1,33.31,23.89Z"/><path class="cls-6" d="M30.5,36h0a1.2,1.2,0,0,1,1.2,1.2v3.73a1.2,1.2,0,0,1-1.2,1.2h0a1.2,1.2,0,0,1-1.2-1.2V38.36"/><path class="cls-6" d="M27.89,21A5.1,5.1,0,1,1,38.1,21"/><path class="cls-6" d="M31.5,25a4,4,0,0,0-4-4h-.14a4,4,0,0,0-3.22,1.83,2.91,2.91,0,0,0-.21.38A3.89,3.89,0,0,0,23.51,25"/></svg>