<svg id="Layer_1" data-name="Layer 1" xmlns="http://www.w3.org/2000/svg" viewBox="0 0 64 64"><defs><style>.cls-1{fill:#a8d2f0;}.cls-2{fill:#389ad6;}.cls-3{fill:none;stroke:#295183;stroke-linecap:round;stroke-linejoin:round;stroke-width:2px;}.cls-4{fill:#295183;}</style></defs><title>lightbulb, light, energy, power, idea</title><path class="cls-1" d="M29,20.28h.12a2.22,2.22,0,0,1,2.17,3.32,8.59,8.59,0,0,0-.1,8.55c1.09,1.93,2.4,4.45,4.83,4.8a4.46,4.46,0,0,0,2.83-.71c.55-.32,1.54-1.42,2.15-.6a1.15,1.15,0,0,1,.1.91c-.57,2.94-2,3.27-4.91,4.05C31,42,24.08,39.32,22.09,34.07c-1.63-4.3.77-9.91,3.95-12.51A6.16,6.16,0,0,1,29,20.28Z"/><path class="cls-2" d="M24.31,24.28a1.21,1.21,0,0,1,.94-.26,1.25,1.25,0,0,1,.89,1.16,6.43,6.43,0,0,1-.91,2.94,5.72,5.72,0,0,0-.8,3.62c.17.71,1.32,2.16.25,2.66a1.71,1.71,0,0,1-1.86-.45A3.54,3.54,0,0,1,22,32.11,9.34,9.34,0,0,1,22.53,27a7.57,7.57,0,0,1,1.32-2.25A2.8,2.8,0,0,1,24.31,24.28Z"/><path class="cls-1" d="M33.45,44.94l-4.38.18A2,2,0,0,1,27,43.21h0a2,2,0,0,1,1.91-2.08l4.38-.18a2,2,0,0,1,2.08,1.91h0A2,2,0,0,1,33.45,44.94Z"/><path class="cls-1" d="M33.32,49.1l-2.65.14c-.66,0-1.24-.83-1.28-1.93h0c0-1.1.47-2,1.14-2.06l2.65-.14c.66,0,1.24.83,1.28,1.93h0C34.5,48.13,34,49.06,33.32,49.1Z"/><path class="cls-2" d="M32.41,48.17a.36.36,0,0,1,0,.09.43.43,0,0,1,0,.07l0,0a1.7,1.7,0,0,1-1.36.82,1.72,1.72,0,0,1-1.76-1.72l0-.38a1.83,1.83,0,0,1,1.22-1.81l-.1-.46a1.59,1.59,0,0,1-.8.24,1.8,1.8,0,0,1-1.89-1.73v-.38a1.81,1.81,0,0,1,1.73-1.88h.07a1.82,1.82,0,0,1,1.82,1.73v.38a1.84,1.84,0,0,1,0,.41h0a2.49,2.49,0,0,0,.68,1.92s0,0,0,0a2.6,2.6,0,0,0,.29.28h0A1.79,1.79,0,0,1,32.41,48.17Z"/><path class="cls-3" d="M29,45.17H35.4a2,2,0,0,1,2,2h0a2,2,0,0,1-2,2H29"/><circle class="cls-4" cx="32" cy="52.86" r="1"/><path class="cls-3" d="M33.77,35.52a4.26,4.26,0,0,1,.14-2.69,12.83,12.83,0,0,1,1.62-2.4c1.51-2.12-5-1.76-5.75-1.64a5.53,5.53,0,0,0-.64.14c-1.45.42-.79,1.63-.13,2.47a5.56,5.56,0,0,1,1.5,2.46,4.27,4.27,0,0,1-1.95,4.08c-1.73,1.24-3.59.7-5-.77a9.84,9.84,0,0,1-2.43-6.84A10.85,10.85,0,1,1,32,41.17H29a2,2,0,0,0-2,2,2,2,0,0,0,2,2h6.42"/><line class="cls-3" x1="32" y1="12.14" x2="32" y2="16.17"/><line class="cls-3" x1="41.19" y1="14.41" x2="39.3" y2="17.98"/><line class="cls-3" x1="23.07" y1="14.3" x2="24.91" y2="17.89"/></svg>