<svg id="Layer_1" data-name="Layer 1" xmlns="http://www.w3.org/2000/svg" viewBox="0 0 64 64"><defs><style>.cls-1{fill:#389ad6;}.cls-2{fill:#3897d3;}.cls-3{fill:#9dcbf4;}.cls-4,.cls-5,.cls-8,.cls-9{fill:none;stroke-linecap:round;stroke-linejoin:round;stroke-width:2px;}.cls-4{stroke:#2a5082;}.cls-5{stroke:#2a5080;}.cls-6{fill:#9ac8f1;}.cls-7{fill:#a8d2f0;}.cls-8{stroke:#295183;}.cls-9{stroke:#2a5081;}.cls-10{fill:#2a5082;}</style></defs><title>lightbulb, thought, camera, image, pictures</title><path class="cls-1" d="M33.86,25.75s-4.94,9.09,3.2,14.58S36,52.25,33.2,51.94s7.31.69,7.81-2-.44-5.25,1.63-6.5c-.37-.37-.19-2.69-.19-2.69s4.72-.56-3.94-3.37S33.86,25.75,33.86,25.75Z"/><path class="cls-2" d="M11.52,15.72s1.22-.28,1.22,3.41a3.44,3.44,0,0,0,3.43,3.69s3.89,1.94,4,5.38-7.46,2.34-8,6-1.92,8.68-2.9,5.16S8.19,13.33,11.52,15.72Z"/><path class="cls-1" d="M34.43,29.13S34.79,26,34.12,26,31.78,29.13,33,32.4s7.9,1.45,6.65,0-5,.05-5,.05Z"/><path class="cls-3" d="M19.69,34q0-2.5,0-5c0-1.38-.48-2.93,1.34-3l6.28-.09a1.07,1.07,0,0,1,.56.08.79.79,0,0,1,.26,1,2.76,2.76,0,0,1-.64.86,13.13,13.13,0,0,0-3.07,9.28H22.21A1.11,1.11,0,0,1,21.1,36a1.55,1.55,0,0,0-1.42-1.54C19.69,34.3,19.69,34.14,19.69,34Z"/><path class="cls-3" d="M33.07,51.73c.09.54-.64.78-1.18.8a83.3,83.3,0,0,1-11.73-.35c0-1.2,0-2.38,0-3.58h4.46a2.17,2.17,0,0,0,2.17-2.17V45c.22.4.46.78.71,1.15,1.44,2.09,3.53,3.39,5.29,5.18a.94.94,0,0,1,.27.4S33.07,51.71,33.07,51.73Z"/><polyline class="cls-4" points="19.78 31.51 19.78 25.75 34.69 25.75 40.92 31.98 34.69 31.98 34.69 29.21"/><path class="cls-2" d="M24.63,48.6s.9,3-4.85,2.89c.18-.31-1.66-2.48,2-2.77S24.63,48.6,24.63,48.6Z"/><polyline class="cls-4" points="19.78 48.59 19.78 52.22 38.29 52.22"/><line class="cls-4" x1="40.53" y1="34.09" x2="40.53" y2="36.47"/><path class="cls-2" d="M17.62,40s-4.51-.89-4.64,3.07-.49,6.24,4,5.53-1.44-5-1.44-5S16.58,39.64,17.62,40Z"/><path class="cls-5" d="M21.34,41.68a3,3,0,1,1-2.77-1.83"/><path class="cls-5" d="M17.56,37.1H14.94a2.18,2.18,0,0,0-2.17,2.17v7.17a2.17,2.17,0,0,0,1.11,1.89h0a2.19,2.19,0,0,0,1,.26h9.69a2.17,2.17,0,0,0,2.17-2.17V39.27a2.17,2.17,0,0,0-2.17-2.17H22.21A1.11,1.11,0,0,1,21.1,36a1.55,1.55,0,0,0-1.42-1.54H17.59a1.55,1.55,0,0,0-1.15.51"/><line class="cls-5" x1="24.06" y1="37.1" x2="24.06" y2="35.78"/><line class="cls-5" x1="22.74" y1="39.62" x2="24.44" y2="39.62"/><path class="cls-6" d="M18.65,42.38a1.84,1.84,0,0,0,.22-.72.62.62,0,0,0-.17-.5.68.68,0,0,0-.73,0,1.8,1.8,0,0,0,1,3.4c.23,0,.5-.15.52-.38s-.24-.42-.48-.48C18,43.45,18.36,43,18.65,42.38Z"/><path class="cls-7" d="M41.45,18.72h.12A2.22,2.22,0,0,1,43.74,22a8.59,8.59,0,0,0-.1,8.55c1.09,1.93,2.4,4.45,4.83,4.8a4.46,4.46,0,0,0,2.83-.71c.55-.32,1.54-1.42,2.15-.6a1.15,1.15,0,0,1,.1.91c-.57,2.94-2,3.27-4.91,4.05-5.2,1.4-12.11-1.26-14.1-6.51-1.63-4.3.77-9.91,3.95-12.51A6.16,6.16,0,0,1,41.45,18.72Z"/><path class="cls-1" d="M36.77,22.72a1.21,1.21,0,0,1,.94-.26,1.25,1.25,0,0,1,.89,1.16,6.43,6.43,0,0,1-.91,2.94,5.72,5.72,0,0,0-.8,3.62c.17.71,1.32,2.16.25,2.66a1.71,1.71,0,0,1-1.86-.45,3.54,3.54,0,0,1-.83-1.83A9.34,9.34,0,0,1,35,25.4a7.57,7.57,0,0,1,1.32-2.25A2.79,2.79,0,0,1,36.77,22.72Z"/><path class="cls-8" d="M46.22,34a4.26,4.26,0,0,1,.14-2.69A12.84,12.84,0,0,1,48,28.87c1.51-2.12-5-1.76-5.75-1.64a5.53,5.53,0,0,0-.64.14c-1.45.42-.79,1.63-.13,2.47A5.56,5.56,0,0,1,43,32.31,4.27,4.27,0,0,1,41,36.39c-1.73,1.24-3.59.7-5-.77a9.84,9.84,0,0,1-2.43-6.84A10.85,10.85,0,1,1,44.45,39.62"/><line class="cls-8" x1="44.45" y1="10.59" x2="44.45" y2="14.62"/><line class="cls-8" x1="53.64" y1="12.86" x2="51.75" y2="16.42"/><line class="cls-8" x1="35.53" y1="12.75" x2="37.36" y2="16.33"/><path class="cls-3" d="M44.32,40.16c-.45,0,.08,2.4.1,2.62a9.47,9.47,0,0,1-.09,2c-.19,1.72,0,3.47-.31,5.17-.25,1.23-.9,2.65-2.38,2.5-3.24-.32.29-9.39.75-9.24s0-3.07,0-3.07Z"/><line class="cls-9" x1="40.88" y1="46.16" x2="38.08" y2="52.92"/><path class="cls-9" d="M44.56,44.07h1a2.18,2.18,0,0,1,2.18,2.18v5.61a1.54,1.54,0,0,1-1.54,1.54H42.42a1.54,1.54,0,0,1-1.54-1.54V46.16"/><path class="cls-9" d="M44.44,39.65a2.21,2.21,0,0,0,0,4.42"/><line class="cls-9" x1="47.56" y1="45.35" x2="50.45" y2="52.92"/><polyline class="cls-4" points="32.25 22.13 16.16 22.13 16.16 31.51"/><polyline class="cls-4" points="32.25 18.7 12.73 18.7 12.73 34.58"/><polyline class="cls-4" points="27.25 15.27 9.31 15.27 9.31 39.84"/><circle class="cls-10" cx="30.35" cy="15.13" r="1"/></svg>