<svg id="Layer_1" data-name="Layer 1" xmlns="http://www.w3.org/2000/svg" viewBox="0 0 64 64"><defs><style>.cls-1{fill:#a8d2f0;}.cls-2{fill:#fff;}.cls-3{fill:none;stroke:#2a5081;stroke-linecap:round;stroke-linejoin:round;stroke-width:2px;}.cls-4{fill:#2a5081;}</style></defs><title>like, approve, thumbs up, hand, gesture</title><path class="cls-1" d="M26.81,30.92a1.88,1.88,0,0,1,2.09,1.64c0,.58-.17,1.23.17,1.69a1.35,1.35,0,0,0,1.23.42,9.69,9.69,0,0,1,1.34-.15c1.13.06,1.95,1.09,2.5,2.08a16.85,16.85,0,0,1,1.72,4.51,1.9,1.9,0,0,1,0,1c-.22.7-1.09.93-1.82,1a16.54,16.54,0,0,1-5.48-.4A7.39,7.39,0,0,1,24,39.86c-1.43-2.23-.74-5-.22-7.35"/><path class="cls-2" d="M32,24.72l-.12.7-.37-.12s-.1-.23-.27-.58Z"/><path class="cls-3" d="M20.32,43.33H37.59c2.35,0,4.28-.79,4.28-3l1-6a4.15,4.15,0,0,0-4.28-4H34.33a1.89,1.89,0,0,1-1.87-2.1l.76-5.49a2.1,2.1,0,0,0-2.09-2.09h0A2.1,2.1,0,0,0,29,22.76l-.55,3c-.46,3.38-2.6,5-5.62,6.2"/><circle class="cls-4" cx="20.13" cy="32.68" r="1"/></svg>