<svg id="Layer_1" data-name="Layer 1" xmlns="http://www.w3.org/2000/svg" viewBox="0 0 64 64"><defs><style>.cls-1{fill:#9dcbf4;}.cls-2{fill:#389ad6;}.cls-3{fill:none;stroke:#2a5081;stroke-linecap:round;stroke-linejoin:round;stroke-width:2px;}.cls-4{fill:#2a5081;}</style></defs><title>linkedin, social, media, network</title><path class="cls-1" d="M39.27,48c-3.53,1.36-7.51,2-8.94,2.47a16.4,16.4,0,0,1-3,.56h0c-1.21,0-2.36,0-3.42,0-.61,0-1.19,0-1.75,0-1,0-2,.14-2.84.2-2.35.18-3.95.12-4.86-2.07,0,0-.05-.11-.07-.17A8.79,8.79,0,0,1,14,47.6a.18.18,0,0,1,0-.1,23.19,23.19,0,0,1-.38-3.33c-.06-1.06-.09-2.28-.08-3.67,0-2.41,0-4.75.08-7,.17-10,.54-17.52.58-18.47a.81.81,0,0,0,0-.1,1.36,1.36,0,0,1,.14-.14c.54-.48,2.88-2,10.81-2.08a47,47,0,0,0-.08,6.34,2.73,2.73,0,0,0-.81-.11,3.27,3.27,0,1,0,0,6.54,3.16,3.16,0,0,0,1.45-.34c.16,1,.35,2,.58,3l-5,.26L21,44l1.41,0,2.06.05,10.22.26A24.88,24.88,0,0,0,39.27,48Z"/><path class="cls-2" d="M45.5,41.73c.08,3.05-2.86,5-6.23,6.28-3.53,1.36-7.51,2-8.94,2.47a16.4,16.4,0,0,1-3,.56h0a46,46,0,0,1-8,.17,11.32,11.32,0,0,1-2.5-.41,3.52,3.52,0,0,1-2.36-1.66s-.05-.11-.07-.17v0A5.19,5.19,0,0,1,14,47.6a.18.18,0,0,1,0-.1,35.4,35.4,0,0,1-.06-7.27c.54-9.25,7.39-12.16,7.39-12.16V40.9c0,1.81.5,2.72,1.08,3.17a2.13,2.13,0,0,0,1.69.37l.37-.32A7.78,7.78,0,0,1,26.2,42.9c.79-.29-.33-4.54,0-9.21s3.34-4.54,4.13-5.13S29.46,33,29.46,33l.18,6.71s-.35,3.75,1.94,3.79A4.57,4.57,0,0,0,35,42.36s-1.08-8.84,2.35-10.65,2.81,3.89,2.81,8.52.64,3.75.81,3.92A3.56,3.56,0,0,0,45.5,41.73Z"/><path class="cls-3" d="M51.43,17.31V46.39A4.64,4.64,0,0,1,46.81,51H18.22a4.64,4.64,0,0,1-4.62-4.62V17.31a4.64,4.64,0,0,1,4.63-4.63H46.81"/><circle class="cls-4" cx="51.48" cy="13.98" r="1"/><path class="cls-3" d="M29.92,28.08h5v1.64h.1c.64-1,1.7-2,4.31-2,3.23,0,5.64,2.13,5.64,6.77v9.35h-4.9V35.11c0-2-.71-3.42-2.48-3.42a2.62,2.62,0,0,0-2.48,1.84A3.5,3.5,0,0,0,35,34.75v9.1h-4.9V32"/><polyline class="cls-3" points="26.2 32.08 26.2 43.98 21.31 43.98 21.31 28.08 26.2 28.08"/><path class="cls-3" d="M26.52,22.75A2.77,2.77,0,1,1,23.75,20"/></svg>