<svg id="Layer_1" data-name="Layer 1" xmlns="http://www.w3.org/2000/svg" viewBox="0 0 64 64"><defs><style>.cls-1{fill:#a8d2f0;}.cls-2{fill:#389ad6;}.cls-3,.cls-5{fill:none;}.cls-4{fill:#fff;}.cls-5{stroke:#295183;stroke-linecap:round;stroke-linejoin:round;stroke-width:2px;}</style></defs><title>lock, computer, monitor, screen</title><rect class="cls-1" x="14.26" y="12.05" width="35.79" height="33.82" rx="5.81" ry="5.81"/><path class="cls-2" d="M31.35,11.79C27.19,13.12,16.5,17.32,14.26,26V18.07a6.07,6.07,0,0,1,1.92-4.4,6.75,6.75,0,0,1,4.71-1.87Z"/><path class="cls-2" d="M35.09,46.07a9.35,9.35,0,0,0-2.9,6h-4.1a1.4,1.4,0,0,1-1.44-1.35V47.43a1.41,1.41,0,0,1,1.44-1.36Z"/><path class="cls-3" d="M50.18,18.32V39.8a3,3,0,0,1,0,.54,6.24,6.24,0,0,1-.35,1.54,4.13,4.13,0,0,1-.19.45,4.6,4.6,0,0,1-.23.45,3.36,3.36,0,0,1-.26.41,5.44,5.44,0,0,1-.65.81,6,6,0,0,1-.61.54,4.16,4.16,0,0,1-.4.31,3.79,3.79,0,0,1-.48.3l-.09.05a.87.87,0,0,1-.17.08,1.42,1.42,0,0,1-.28.14.56.56,0,0,1-.16.07.41.41,0,0,1-.14.06,3.58,3.58,0,0,1-.43.15l-.12,0a4.81,4.81,0,0,1-.51.14l-.13,0h-.05a3.71,3.71,0,0,1-.59.08h-.06a5.15,5.15,0,0,1-.71,0H20.81a6.76,6.76,0,0,1-3.16-.76s0,0,0,0a6.42,6.42,0,0,1-1.52-1.09,6,6,0,0,1-1.94-4.42V18.32a6.07,6.07,0,0,1,1.92-4.4A6.75,6.75,0,0,1,20.81,12H43.54a6.82,6.82,0,0,1,4.69,1.84c.14.13.28.28.4.42l.05.06c.12.13.22.27.33.41l0,.05c.12.16.22.33.33.5a5.89,5.89,0,0,1,.49,1.12l.06.22A3.83,3.83,0,0,1,50,17s0,0,0,0a1.4,1.4,0,0,1,.05.29.54.54,0,0,1,0,.18l0,.25C50.17,18,50.18,18.14,50.18,18.32Z"/><path class="cls-4" d="M50.18,18.32V39.8a3.16,3.16,0,0,1,0,.55,6.48,6.48,0,0,1-6.6,5.72H27.06a32.82,32.82,0,0,1-1.14-8.6A33.75,33.75,0,0,1,37.66,12h5.88A6.46,6.46,0,0,1,50.18,18.32Z"/><path class="cls-5" d="M50.17,18.32V39.8a4.4,4.4,0,0,1,0,.54,6.24,6.24,0,0,1-.35,1.54,4.13,4.13,0,0,1-.19.45,4.6,4.6,0,0,1-.23.45,3.36,3.36,0,0,1-.26.41,5.44,5.44,0,0,1-.65.81,6,6,0,0,1-.61.54,4.16,4.16,0,0,1-.4.31,6.44,6.44,0,0,1-.56.34l-.17.09a3.44,3.44,0,0,1-.44.21,5.38,5.38,0,0,1-.56.21c-.24.08-.5.14-.76.2a7.25,7.25,0,0,1-1.42.14H20.81a6.88,6.88,0,0,1-3.16-.75s0,0,0,0a7,7,0,0,1-1.52-1.09,6,6,0,0,1-1.94-4.42V18.32a6.07,6.07,0,0,1,1.92-4.4A6.75,6.75,0,0,1,20.81,12H43.54a6.82,6.82,0,0,1,4.69,1.84c.14.13.28.28.4.42l.05.06c.12.13.22.27.33.41l0,.05c.12.16.22.33.33.5a5.89,5.89,0,0,1,.49,1.12l.06.22.06.23.1.46A5.7,5.7,0,0,1,50.17,18.32Z"/><path class="cls-5" d="M27,46.34v3.6a2.34,2.34,0,0,0,2.4,2.27H13.65"/><path class="cls-5" d="M34,30.41l1,7H29.16l1-7A3.91,3.91,0,1,1,36,27"/></svg>