<svg id="Layer_1" data-name="Layer 1" xmlns="http://www.w3.org/2000/svg" viewBox="0 0 64 64"><defs><style>.cls-1{fill:#a6d0ee;}.cls-2{fill:#3897d3;}.cls-3{fill:none;stroke:#2a5080;stroke-linecap:round;stroke-linejoin:round;stroke-width:2px;}.cls-4{fill:#9ac8f1;}.cls-5{fill:#2a5080;}</style></defs><title>love, romance, message, envelope, mail, email</title><path class="cls-1" d="M37.27,32a.79.79,0,0,0,1.28,0c2.3-2.07,4.52-4.18,6.82-6.26a1.43,1.43,0,0,0,.44-.56.67.67,0,0,0,0-.14.71.71,0,0,0-1-.76,1.59,1.59,0,0,0-.6.52c-1,1.15-4.55,4.22-6,4.75a4.16,4.16,0,0,1-2.15.48c-.25,0-.5,0-.76,0"/><path class="cls-1" d="M21.92,53.06h0a7.78,7.78,0,0,1-7.75-7.75V38.06a5.59,5.59,0,0,1,0-.62,17.88,17.88,0,0,0,8.22,13.93A.92.92,0,0,1,21.92,53.06Z"/><path class="cls-2" d="M27.2,43.32v0a.78.78,0,0,1-.54.75,1.39,1.39,0,0,1-1-.08l.25.87-1.83.42v.76L17.45,51.9a.91.91,0,0,1-1.1.09L18,50.11l2.6-3c.4-.47,1-.95,1-1.62a1.21,1.21,0,0,0-.36-.86,5.57,5.57,0,0,1-1.57-5.46,1.9,1.9,0,0,0-.46-1.78L15.84,33.8a.92.92,0,0,1,1.11.09l10,8.86A.81.81,0,0,1,27.2,43.32Z"/><line class="cls-3" x1="32" y1="38.75" x2="36.7" y2="34.33"/><path class="cls-3" d="M27.2,43l-2.54-2.26-7.71-6.83a.92.92,0,0,0-1.11-.09.89.89,0,0,0-.2.17,8.49,8.49,0,0,0-.84,1.15A6.6,6.6,0,0,0,14,37.69a5.74,5.74,0,0,0,0,.62v8a6.75,6.75,0,0,0,6.73,6.73H33.39a6.75,6.75,0,0,0,6.73-6.73V36"/><path class="cls-3" d="M20.73,30.55h10.5a11.89,11.89,0,0,1,5.8.89,5.68,5.68,0,0,1,2.14,1.83,5.39,5.39,0,0,1,1,3.15"/><line class="cls-3" x1="24.73" y1="45.35" x2="17.26" y2="52.08"/><path class="cls-4" d="M29.09,43.11a1,1,0,0,1,.12,1.45l-.68.68-.08.07,0,0-.12.1-.13.09h0a2.09,2.09,0,0,1-2.57-.3l-1.36-1.36h0l-1.56-1.56a3,3,0,0,1-.24-4,1,1,0,0,1,.18-.17,5.74,5.74,0,0,1,1.95-1h.26a3,3,0,0,1,2.14.88l.13.13.13-.13.21-.19a4.26,4.26,0,0,0-.3,1.57A4.48,4.48,0,0,0,29.09,43.11Z"/><path class="cls-2" d="M23.28,40.89a3,3,0,0,0,1.05,3h0l-.62-.19-1-1a3.26,3.26,0,0,1-.18-4.4l.18-.2a3.25,3.25,0,0,1,2-.93H25a3.24,3.24,0,0,1,2,.66,1.3,1.3,0,0,1,.43.6h0A3.11,3.11,0,0,0,26,38.17,3,3,0,0,0,23.28,40.89Z"/><path class="cls-3" d="M29.78,37.18a3,3,0,0,0-2.39.66l-.21.19-.13.13L26.93,38l0,0a3,3,0,0,0-2.09-.84h-.26a3,3,0,0,0-1.88.87l-.16.18a3,3,0,0,0,.16,4.1l1.15,1.15.41.41h0l1.36,1.36a2.09,2.09,0,0,0,2.57.3h0l.13-.09.12-.1,0,0,.08-.07,1.6-1.6,1.34-1.34A3,3,0,0,0,32,38.75"/><circle class="cls-5" cx="18.35" cy="30.52" r="0.73"/><path class="cls-4" d="M35.43,22a.76.76,0,0,1-.11,1.17l-.64.45-.07,0,0,0-.11.06-.11,0h0a1.68,1.68,0,0,1-2-.59l-.89-1.27h0l-1-1.45a2.44,2.44,0,0,1,.37-3.2.8.8,0,0,1,.16-.11,4.62,4.62,0,0,1,1.68-.5l.21,0a2.42,2.42,0,0,1,1.57,1l.08.12.12-.08.19-.12a3.43,3.43,0,0,0-.46,1.2A3.6,3.6,0,0,0,35.43,22Z"/><path class="cls-2" d="M31.14,19.41a2.4,2.4,0,0,0,.42,2.5h0l-.47-.23-.65-.92a2.62,2.62,0,0,1,.47-3.51l.17-.13a2.61,2.61,0,0,1,1.73-.46l.22,0a2.61,2.61,0,0,1,1.47.8,1,1,0,0,1,.26.54h0a2.5,2.5,0,0,0-1.13-.4A2.39,2.39,0,0,0,31.14,19.41Z"/><path class="cls-3" d="M36.8,17.38a2.43,2.43,0,0,0-2,.19l-.19.12-.12.08-.08-.12,0,0a2.42,2.42,0,0,0-1.54-1l-.21,0a2.43,2.43,0,0,0-1.61.43l-.16.12a2.44,2.44,0,0,0-.44,3.27l.75,1.07.27.38h0l.89,1.27a1.68,1.68,0,0,0,2,.59h0l.11,0,.11-.06,0,0,.07,0,1.49-1,1.25-.87a2.43,2.43,0,0,0,1-1.8"/><path class="cls-4" d="M45.46,15.76a.62.62,0,0,1,.32.89l-.31.54,0,.06,0,0-.06.08-.06.07h0a1.36,1.36,0,0,1-1.66.25l-1.08-.62h0l-1.24-.71a2,2,0,0,1-.83-2.47.65.65,0,0,1,.08-.14,3.73,3.73,0,0,1,1.06-.94l.16-.05a2,2,0,0,1,1.49.19l.1.06.06-.1.1-.15a2.76,2.76,0,0,0,.08,1A2.91,2.91,0,0,0,45.46,15.76Z"/><path class="cls-2" d="M41.44,15.35A1.94,1.94,0,0,0,42.6,17h-.42l-.79-.45a2.12,2.12,0,0,1-.85-2.73l.08-.15a2.11,2.11,0,0,1,1.11-.93l.17-.06a2.1,2.1,0,0,1,1.34.08.84.84,0,0,1,.37.31h0a2,2,0,0,0-1,.09A1.93,1.93,0,0,0,41.44,15.35Z"/><path class="cls-3" d="M44.89,11.93a2,2,0,0,0-1.38.82l-.1.15-.06.1-.1-.06,0,0a2,2,0,0,0-1.45-.17l-.16.05a2,2,0,0,0-1,.86l-.07.14a2,2,0,0,0,.79,2.54l.91.53.33.19h0l1.08.62a1.36,1.36,0,0,0,1.66-.25h0l.06-.07.06-.08,0,0,0-.06.73-1.27.61-1.06a1.94,1.94,0,0,0,.26-1"/><path class="cls-3" d="M50,25.93V35.7A6.36,6.36,0,0,1,43.66,42H41.21"/><path class="cls-3" d="M25.41,27.65a.55.55,0,0,1,0-.11,6.27,6.27,0,0,1,.72-2.42A8.81,8.81,0,0,1,26.92,24a.79.79,0,0,1,.19-.16.86.86,0,0,1,1,.08l1.31,1.15,2.85,2.53"/><polyline class="cls-3" points="40.25 30.35 45.83 25.32 45.89 25.25"/><path class="cls-3" d="M49,23.22a5.12,5.12,0,0,1,1,3.1"/></svg>