<svg id="Layer_1" data-name="Layer 1" xmlns="http://www.w3.org/2000/svg" viewBox="0 0 64 64"><defs><style>.cls-1{fill:#a8d2f0;}.cls-2{fill:none;stroke:#2a5081;stroke-linecap:round;stroke-linejoin:round;stroke-width:2px;}</style></defs><title>memory, stick, storage, usb</title><path class="cls-1" d="M38.09,37.13C27.86,33.07,27.8,19.7,28.33,13.66A2.2,2.2,0,1,0,24,13.49,5.26,5.26,0,0,1,21.83,18l.82,16c-1.32,8.38-.82,18.69,9.25,19.33,8.06.52,8.1-9.88,7.79-14A2.52,2.52,0,0,0,38.09,37.13ZM30,50.45A5.57,5.57,0,1,1,36.78,45,5.54,5.54,0,0,1,30,50.45Z"/><path class="cls-2" d="M37.17,17.91H22.25V44.37a9,9,0,1,0,17.92,0V21.91m-9,28.66A5.57,5.57,0,1,1,36.78,45,5.57,5.57,0,0,1,31.21,50.57Z"/><polyline class="cls-2" points="23.96 14.91 23.96 10.66 38.46 10.66 38.46 17.91 23.96 17.91"/><line class="cls-2" x1="33.42" y1="14.28" x2="34.67" y2="14.28"/><line class="cls-2" x1="27.78" y1="14.28" x2="29.03" y2="14.28"/></svg>