<svg id="Layer_1" data-name="Layer 1" xmlns="http://www.w3.org/2000/svg" viewBox="0 0 64 64"><defs><style>.cls-1{fill:#a8d2f0;}.cls-2{fill:#389ad6;}.cls-3{fill:none;stroke:#2a5081;stroke-linecap:round;stroke-linejoin:round;stroke-width:2px;}.cls-4{fill:#2a5081;}</style></defs><title>mic, microphone, record, voice</title><path class="cls-1" d="M30.13,13.88a61.35,61.35,0,0,0,0,14.63c1,7.38,8.39,7.58,8.39,7.58s.24,5.54-5.51,5.79-8-2.34-8-12.17C25,29.7,21.5,13.5,30.13,13.88Z"/><path class="cls-2" d="M27.67,15.25c-.32,2.52-.53,5.06-.66,7.6-.17,3.23-.6,7.15.4,10.28.85,2.65,4.23,3.15,5.45,5.67a2.78,2.78,0,0,1-.19,3,2.48,2.48,0,0,1-2.06.78,4,4,0,0,1-2.08-.85,9,9,0,0,1-2.83-4.17,23.93,23.93,0,0,1-1.38-8c0-2.56.48-5.1.49-7.64C24.81,21.88,24.83,15.38,27.67,15.25Z"/><path class="cls-3" d="M39.14,18.45a7.44,7.44,0,0,1,.36,2.3V34.38a7.53,7.53,0,0,1-4.87,7,7.43,7.43,0,0,1-2.63.48h0a7.44,7.44,0,0,1-3.67-1,7.52,7.52,0,0,1-3.83-6.53V20.75a7.52,7.52,0,0,1,7.5-7.5h0a7.43,7.43,0,0,1,3.64,1"/><path class="cls-3" d="M28.65,44.73A11.07,11.07,0,0,1,21,34.22"/><path class="cls-3" d="M43,34.22A11.07,11.07,0,0,1,34.77,44.9"/><polyline class="cls-3" points="32 41.88 32 50.75 37.03 50.75 27.03 50.75"/><circle class="cls-4" cx="37.51" cy="16.25" r="1"/></svg>