<svg id="Layer_1" data-name="Layer 1" xmlns="http://www.w3.org/2000/svg" viewBox="0 0 64 64"><defs><style>.cls-1{fill:#a8d2f0;}.cls-2{fill:#389ad6;}.cls-3{fill:none;stroke:#295183;stroke-linecap:round;stroke-linejoin:round;stroke-width:2px;}.cls-4{fill:#295183;}</style></defs><title>modem, wifi, router, wireless, internet</title><path class="cls-1" d="M39.8,42.86a3,3,0,0,1-3,3H16.45a3,3,0,0,1-2.11-5.12,3,3,0,0,1,2.11-.88H36.8A3,3,0,0,1,39.8,42.86Z"/><path class="cls-2" d="M26.17,42.86a3,3,0,0,1-3,3H16.45a3,3,0,0,1-2.11-5.12,3,3,0,0,1,2.11-.88h6.72A3,3,0,0,1,26.17,42.86Z"/><path class="cls-3" d="M48.78,39.69a3,3,0,0,1-.78,5.9H16a3,3,0,0,1,0-6H43.17"/><line class="cls-3" x1="20.83" y1="36.34" x2="20.83" y2="25.59"/><line class="cls-3" x1="43.17" y1="39.59" x2="43.17" y2="25.59"/><path class="cls-3" d="M23.54,32.37a7.38,7.38,0,1,0-5.4,0"/><path class="cls-3" d="M18.14,27.54a3.3,3.3,0,0,1-.68-2,3.38,3.38,0,1,1,6.08,2"/><path class="cls-3" d="M45.88,32.37a7.38,7.38,0,1,0-5.4,0"/><path class="cls-3" d="M40.48,27.54a3.3,3.3,0,0,1-.68-2,3.38,3.38,0,1,1,6.08,2"/><circle class="cls-4" cx="46.03" cy="39.59" r="1"/></svg>