<svg id="Layer_1" data-name="Layer 1" xmlns="http://www.w3.org/2000/svg" viewBox="0 0 64 64"><defs><style>.cls-1{fill:#fff;}.cls-2,.cls-5{fill:none;stroke-linecap:round;stroke-linejoin:round;stroke-width:2px;}.cls-2{stroke:#295183;}.cls-3{fill:#9dcbf4;}.cls-4{fill:#389ad6;}.cls-5{stroke:#2a5082;}.cls-6{fill:#2a5082;}</style></defs><title>money, finance, cash, payment</title><ellipse class="cls-1" cx="30.5" cy="14.5" rx="11.5" ry="5.5"/><path class="cls-2" d="M31.27,15.08c1,0,1.83.49,1.83,1.1s-.82,1.1-1.83,1.1"/><path class="cls-2" d="M31.27,15.08c-1,0-1.83-.49-1.83-1.1s.82-1.1,1.83-1.1"/><polyline class="cls-2" points="31 18 31 17 29 17"/><polyline class="cls-2" points="31 12 31 13 33 13"/><ellipse class="cls-1" cx="38.5" cy="24.5" rx="11.5" ry="5.5"/><polygon class="cls-1" points="46.31 23.35 49.76 22.88 49.25 30.24 44.08 33.92 43.73 25.6 46.31 23.35"/><polygon class="cls-1" points="39.95 44.86 43.41 44.4 42.9 51.75 37.73 55.43 37.38 47.12 39.95 44.86"/><polygon class="cls-1" points="40.54 15.11 44 14.64 43.49 22 38.32 25.68 37.97 17.36 40.54 15.11"/><path class="cls-3" d="M36,20.07a2.75,2.75,0,0,1,3.41,2.1,2.71,2.71,0,0,1-.6,2.22,2.65,2.65,0,0,1-1.63.91,38.27,38.27,0,0,1-11.64.19c-2.88-.52-5.35-1.69-6.36-4a2.56,2.56,0,0,1-.18-1v-5.9l.32.94a6.45,6.45,0,0,0,2.18,3.13,10.07,10.07,0,0,0,5.07,2.11A24.42,24.42,0,0,0,36,20.07Z"/><path class="cls-3" d="M26.32,24.08s1.94,8.15,16.82,4.46a2.68,2.68,0,0,1,3.32,2.61h0a2.68,2.68,0,0,1-2.27,2.66c-4.77.72-15.58,1.7-18-3.78A2.45,2.45,0,0,1,26,29v-5.9Z"/><path class="cls-3" d="M19.32,41s1.94,8.15,16.82,4.46a2.68,2.68,0,0,1,3.32,2.61h0a2.68,2.68,0,0,1-2.27,2.66c-4.77.72-15.58,1.7-18-3.78A2.45,2.45,0,0,1,19,46v-5.9Z"/><path class="cls-4" d="M27.15,24.31a2.67,2.67,0,0,1-1.61,1.19c-2.88-.52-5.35-1.69-6.36-4a2.56,2.56,0,0,1-.18-1v-3.2a21.27,21.27,0,0,0,2.5,1.37,32.66,32.66,0,0,0,4.2,1.64,2.44,2.44,0,0,1,.87.47A2.67,2.67,0,0,1,27.15,24.31Z"/><path class="cls-3" d="M21.09,33.32s3,7.86,18.73,2.31a2.88,2.88,0,0,1,3.89,2.18h0a2.77,2.77,0,0,1-2.16,2.92c-5.08,1.32-16.68,3.65-19.92-1.49a2.27,2.27,0,0,1-.31-1l-.68-5.87Z"/><path class="cls-3" d="M19.32,36.59s1.94,8.15,16.82,4.46a2.68,2.68,0,0,1,3.32,2.61h0a2.68,2.68,0,0,1-2.27,2.66c-4.77.72-15.58,1.7-18-3.78a2.45,2.45,0,0,1-.18-1v-5.9Z"/><path class="cls-3" d="M19.32,45.46s1.94,8.15,16.82,4.46a2.68,2.68,0,0,1,3.32,2.61h0a2.68,2.68,0,0,1-2.27,2.66c-4.77.72-15.58,1.7-18-3.78a2.45,2.45,0,0,1-.18-1v-5.9Z"/><path class="cls-3" d="M14.35,28s2.13,8.15,18.46,4.46a2.89,2.89,0,0,1,3.64,2.61h0A2.77,2.77,0,0,1,34,37.77c-5.24.72-17.1,1.7-19.75-3.78a2.26,2.26,0,0,1-.2-1V27.1Z"/><path class="cls-4" d="M34.15,33.22a2.67,2.67,0,0,1-1.61,1.19c-2.88-.52-5.35-1.69-6.36-4a2.56,2.56,0,0,1-.18-1v-3.2a21.27,21.27,0,0,0,2.5,1.37,32.66,32.66,0,0,0,4.2,1.64,2.44,2.44,0,0,1,.87.47A2.67,2.67,0,0,1,34.15,33.22Z"/><path class="cls-4" d="M22.15,37a2.67,2.67,0,0,1-1.61,1.19c-2.88-.52-5.35-1.69-6.36-4a2.56,2.56,0,0,1-.18-1v-3.2a21.27,21.27,0,0,0,2.5,1.37,32.66,32.66,0,0,0,4.2,1.64,2.44,2.44,0,0,1,.87.47A2.67,2.67,0,0,1,22.15,37Z"/><path class="cls-4" d="M27.15,45.7a2.67,2.67,0,0,1-1.61,1.19c-2.88-.52-5.35-1.69-6.36-4a2.56,2.56,0,0,1-.18-1v-3.2a21.26,21.26,0,0,0,2.5,1.37,32.66,32.66,0,0,0,4.2,1.64,2.44,2.44,0,0,1,.87.47A2.67,2.67,0,0,1,27.15,45.7Z"/><path class="cls-4" d="M27.15,54.21a2.67,2.67,0,0,1-1.61,1.19c-2.88-.52-5.35-1.69-6.36-4a2.56,2.56,0,0,1-.18-1v-3.2a21.26,21.26,0,0,0,2.5,1.37,32.66,32.66,0,0,0,4.2,1.64,2.44,2.44,0,0,1,.87.47A2.67,2.67,0,0,1,27.15,54.21Z"/><path class="cls-5" d="M38.46,20.09a21.51,21.51,0,0,1-7.31,1.2,23.68,23.68,0,0,1-4.4-.4C22.1,20,18.8,17.75,18.8,15.11c0-3.41,5.53-6.18,12.35-6.18,4.42,0,8.31,1.17,10.49,2.92a7.21,7.21,0,0,1,.69.65,4.87,4.87,0,0,1,.74,1,3.42,3.42,0,0,1,.42,1.61"/><path class="cls-5" d="M43.49,20.09a3.56,3.56,0,0,1-.68,2,6.34,6.34,0,0,1-1,1.06,12.18,12.18,0,0,1-4.28,2.19,22.2,22.2,0,0,1-6.41.9,22.72,22.72,0,0,1-5.24-.59,11.81,11.81,0,0,1-6-3,4.38,4.38,0,0,1-.9-1.38"/><polyline class="cls-5" points="43 15 43 15.11 43 18.33 43 20"/><path class="cls-5" d="M40.12,40.39l-.64.34a20.16,20.16,0,0,1-8.6,1.75,20,20,0,0,1-8.6-1.75A7.28,7.28,0,0,1,19,38h0"/><path class="cls-5" d="M19.43,43.22c1.63,2.45,6.26,4.23,11.72,4.23,4.56,0,8.55-1.24,10.69-3.09a6.34,6.34,0,0,0,1-1.06l.06-.08a3.57,3.57,0,0,0,.62-1.95"/><line class="cls-5" x1="43" y1="38" x2="43" y2="42"/><path class="cls-5" d="M18.8,45.16c0,3.42,5.53,6.18,12.35,6.18a19.21,19.21,0,0,0,9.39-2.17"/><path class="cls-5" d="M43.49,50.14a3.53,3.53,0,0,1-.68,2,5.77,5.77,0,0,1-1,1.06c-2.13,1.85-6.12,3.09-10.69,3.09-5.65,0-10.42-1.9-11.88-4.5"/><line class="cls-5" x1="43" y1="50" x2="43" y2="41"/><path class="cls-5" d="M19,45V42a5.24,5.24,0,0,0,.63,1.22"/><path class="cls-5" d="M43.49,18.33a13,13,0,0,1,4.66,2.19,7.15,7.15,0,0,1,.69.64,4.72,4.72,0,0,1,.73,1A3.39,3.39,0,0,1,50,23.78"/><path class="cls-5" d="M25.91,25.68C27.52,28.17,32.17,30,37.65,30l1,0a19,19,0,0,0,8-1.94"/><path class="cls-5" d="M25.93,30.7A11,11,0,0,0,30.46,34h0a33.86,33.86,0,0,0,7.18,1H38a28.17,28.17,0,0,0,4.84-.65,13,13,0,0,0,5.48-2.51,6,6,0,0,0,1-1.06,3.53,3.53,0,0,0,.68-2"/><polyline class="cls-5" points="50 23 50 23.78 50 29"/><path class="cls-5" d="M19.93,22.9C16.37,24,14,26,14,28.18s2.54,4.33,6.3,5.39a22.67,22.67,0,0,0,6.05.79A23.46,23.46,0,0,0,30.46,34H30"/><path class="cls-5" d="M14.2,34.68A8.71,8.71,0,0,0,19,38.05h0a21.74,21.74,0,0,0,7.08,1.11c4.56,0,8.55-1.24,10.69-3.09a6,6,0,0,0,1-1.06s0,0,0,0H38"/><circle class="cls-6" cx="41" cy="19" r="1"/></svg>