<svg id="Layer_1" data-name="Layer 1" xmlns="http://www.w3.org/2000/svg" viewBox="0 0 64 64"><defs><style>.cls-1{fill:#295183;}.cls-2{fill:#a8d2f0;}.cls-3{fill:#389ad6;}.cls-4{fill:none;stroke:#295183;stroke-linecap:round;stroke-linejoin:round;stroke-width:2px;}</style></defs><title>mouse, computer, device, electronic</title><circle class="cls-1" cx="32.33" cy="29.54" r="1"/><path class="cls-2" d="M29.73,12a1.42,1.42,0,0,1-.11.63c-1.14,3.47-1.15,7.2-1.26,10.86S28.12,31,30.08,34c2.1,3.21,6.13,4.53,9.91,4.69.68,0,1.57.22,1.61.91a1.29,1.29,0,0,1-.34.81,10.1,10.1,0,0,1-4.12,3.08,11.31,11.31,0,0,1-8.41.37,12.67,12.67,0,0,1-6.91-7.56c-2.15-5.71-2.12-13.12.68-18.59a13.6,13.6,0,0,1,5.7-5.94c.51-.26,1.3-.39,1.5.16A.59.59,0,0,1,29.73,12Z"/><path class="cls-3" d="M20.93,26.5a5.58,5.58,0,0,1,.52-1.76,2.49,2.49,0,0,1,3.46-.84,3.09,3.09,0,0,1,1.2,2.39,10.61,10.61,0,0,1-.24,3.78c-.57,2.32-.8,4,.58,6.11a12.48,12.48,0,0,0,4.74,4.16c1.24.62,4.64,1.16,3,3.2-.89,1.11-2.54,1.21-3.94.95A11.89,11.89,0,0,1,22.49,39a14.34,14.34,0,0,1-1.83-9.43C20.8,28.58,20.78,27.51,20.93,26.5Z"/><path class="cls-4" d="M32.33,11h0v8.38a4,4,0,0,1-4,4H25"/><path class="cls-4" d="M36.55,43.31a11.42,11.42,0,0,0,7.16-10.56V22.38a11.42,11.42,0,0,0-7.87-10.82"/><path class="cls-4" d="M32.33,11A11.39,11.39,0,0,0,21,22.38V32.75a11.56,11.56,0,0,0,8.16,10.91c1.26.38,3.12.08,3.6,1.58A4.49,4.49,0,0,1,32.33,49c-1.37,2,.61,4,.61,4"/><path class="cls-4" d="M32.33,26.56h0a2.23,2.23,0,0,1,2.23-2.23h5.56"/></svg>