<svg id="Layer_1" data-name="Layer 1" xmlns="http://www.w3.org/2000/svg" viewBox="0 0 64 64"><defs><style>.cls-1{fill:#9ac8f1;}.cls-2{fill:#389ad6;}.cls-3{fill:none;stroke:#295183;stroke-linecap:round;stroke-linejoin:round;stroke-width:2px;}</style></defs><title>paint, colour, graphic, design</title><path class="cls-1" d="M38.76,38.26l-1,1.37a1.44,1.44,0,0,1-1.69.48L35.71,40a1.44,1.44,0,0,0-1.43.21,5.56,5.56,0,0,0-1.93,2.67,1.52,1.52,0,0,0-.17-.3C30.32,39.78,26.42,41,26.42,41c-1.1.64-.54,2.25-.2,3a1.42,1.42,0,0,0,.54.62,6.53,6.53,0,0,0,3.36,1A1.44,1.44,0,0,1,31.27,48c-.89,1.23-2.61,2-5.8,1.37-5.7-1-6.19-19-6.22-20.61a1.29,1.29,0,0,1,0-.24c.14-.9,1.15-6.68,4.11-9.9a1.45,1.45,0,0,1,2.52,1c0,5.31,1.24,16.34,11.7,16.39A1.44,1.44,0,0,1,38.76,38.26Z"/><path class="cls-2" d="M33.17,20.19a1.64,1.64,0,0,1,0,2.92C31.08,24.69,31.79,20.81,33.17,20.19Z"/><path class="cls-2" d="M31,29.09c-.2.18-1.4,1.37-1.51,1.53a4,4,0,0,0,1.1,5.85c1.1.74,2.41,1.4,3,2.63a2.92,2.92,0,0,0,.45.76.63.63,0,0,0,.8.12c.29-.24.17-.7,0-1a27.29,27.29,0,0,0-1.92-3.51,1.73,1.73,0,0,0-.46-.53,2.36,2.36,0,0,0-.58-.23,2.26,2.26,0,0,1-1.46-1.27c-.51-1.4,1-2.92.56-4.34Z"/><path class="cls-3" d="M33.08,34.7,40,48.45a17.94,17.94,0,0,1-2.15-7.88c0-1.72,1-2.49,2.21-3.53a14.29,14.29,0,0,0,3.1-4.15,13.34,13.34,0,0,0,1.62-6.09,12.36,12.36,0,0,0-21.9-7.86c-2.46,3-3.13,7-3.22,10.74a45.74,45.74,0,0,0,1.17,12.15q.13.5.28,1a16.33,16.33,0,0,0,1.15,2.85,6.19,6.19,0,0,0,5.48,3.69,5.72,5.72,0,0,0,3.85-1.61A4.06,4.06,0,0,0,33,44.9a4.6,4.6,0,0,0-1.33-3A3.94,3.94,0,0,0,28,40.63a2.35,2.35,0,0,0-2,2.49c.18,1.21,1.52,1.5,2.51,1.75"/><path class="cls-3" d="M29.92,28.67a1.57,1.57,0,0,1,.79,1.91,3.93,3.93,0,0,1-.47.9,2.3,2.3,0,0,0-.13,2,2.27,2.27,0,0,0,3,1.21,2.52,2.52,0,0,0,1.28-1.34"/><path class="cls-3" d="M34,24.17a2.24,2.24,0,1,1,0-4.48"/><path class="cls-3" d="M39,30.35a1.31,1.31,0,1,1-2-1.73"/><path class="cls-2" d="M26,24.44s-1.46,2.08-.56,3.42-3.82-.74.56-3.68"/><path class="cls-3" d="M26,36.91a1.31,1.31,0,1,1-1-2.42"/><path class="cls-3" d="M25.4,28.18A2.24,2.24,0,0,1,27,24"/></svg>