<svg id="Layer_1" data-name="Layer 1" xmlns="http://www.w3.org/2000/svg" viewBox="0 0 64 64"><defs><style>.cls-1{fill:#9dcbf4;}.cls-2{fill:none;stroke:#2a5081;stroke-linecap:round;stroke-linejoin:round;stroke-width:2px;}</style></defs><title>people, family, parents, child, boy</title><path class="cls-1" d="M38.48,34.53s4.24-1.5,4.17,10c0,0-.24,5.5-3.24,5.42Z"/><path class="cls-1" d="M43.22,16.53c-.61,0,.11,3.26.14,3.56a12.87,12.87,0,0,1-.13,2.75c-.26,2.34,0,4.71-.42,7-.34,1.67-1.22,3.6-3.24,3.4-4.4-.43.4-12.76,1-12.56s0-4.17,0-4.17Z"/><line class="cls-2" x1="37.97" y1="24.56" x2="35.82" y2="34.62"/><path class="cls-2" d="M43,21.72h1.37a3,3,0,0,1,3,3V32.3a2.09,2.09,0,0,1-2.09,2.09H40.07A2.09,2.09,0,0,1,38,32.3V24.56"/><path class="cls-2" d="M42.81,15.72a3,3,0,0,0,0,6"/><line class="cls-2" x1="47.04" y1="23.46" x2="50.96" y2="33.72"/><line class="cls-2" x1="38.97" y1="49.33" x2="37.98" y2="32.36"/><line class="cls-2" x1="47.31" y1="32.3" x2="46.34" y2="48.72"/><path class="cls-2" d="M42.59,39.4v9.5a.43.43,0,0,0,.43.43h2.86a.43.43,0,0,0,.43-.43"/><path class="cls-1" d="M16.79,37.48s2.68-.58,3.09,0-1.61,3.79.54,6.63-.54,6.63-1.33,6.13-.65-5.22-1.64-5.82S14.45,42.69,16.79,37.48Z"/><path class="cls-1" d="M20.08,17.42l-.15.1A.19.19,0,0,1,20.08,17.42Z"/><path class="cls-1" d="M20.08,18.4A5.35,5.35,0,0,1,20,22.32c-.07.12-.16.24-.24.36A3.31,3.31,0,0,0,19.45,25a4.54,4.54,0,0,1-.26,1.63,6.06,6.06,0,0,0,.16,4.46,6,6,0,0,1,.51,3.77,2.35,2.35,0,0,1-1.12,1.44c-.14.09-1.58,1.07-1.58.6,0-.63.92-1.52.18-4.52a26,26,0,0,1-.5-6.67A1.34,1.34,0,0,1,18,25c.82,0-.16-3.11-1.23-3.74C16.79,21.28,19.19,18.31,20.08,18.4Z"/><line class="cls-2" x1="16.83" y1="26.45" x2="13.04" y2="34.62"/><path class="cls-2" d="M23.9,25.36a1.92,1.92,0,0,1,.16.42,3,3,0,0,1,.11.8l-1,5.75,1,2.87v.24a2.11,2.11,0,0,1-2.09,1.86H18.93a2.1,2.1,0,0,1-2.09-1.89v-.6l1-2.26-1-3.82V26.45"/><path class="cls-2" d="M18,20c0,1.56-1.82,2.47-1.82,2.47h1.9"/><path class="cls-2" d="M20.5,17.57a2.44,2.44,0,0,0-1.68.66l-.13.13A2.48,2.48,0,0,0,18,20"/><path class="cls-2" d="M23,20c0,1.56,1.82,2.47,1.82,2.47H23.5a1.42,1.42,0,0,0-1.42,1.42h0a1.42,1.42,0,0,0,1.42,1.42h.4l2.92,9.26"/><path class="cls-2" d="M20.5,17.57a2.44,2.44,0,0,1,1.68.66l.13.13A2.48,2.48,0,0,1,23,20"/><line class="cls-2" x1="16.83" y1="35.26" x2="15.61" y2="44.41"/><line class="cls-2" x1="24.16" y1="35.19" x2="25.46" y2="44.41"/><polyline class="cls-2" points="15.61 44.41 22.58 44.41 22.58 49.62"/><line class="cls-2" x1="18.8" y1="49.62" x2="18.8" y2="47.01"/><path class="cls-1" d="M30.08,42.51s2-.72,2,4.82c0,0-.11,2.65-1.56,2.61Z"/><path class="cls-1" d="M32.36,33.84c-.3,0,.05,1.57.07,1.71a6.2,6.2,0,0,1-.06,1.33c-.12,1.13,0,2.27-.2,3.39-.16.8-.59,1.73-1.56,1.64-2.12-.21.19-6.15.49-6.05s0-2,0-2Z"/><line class="cls-2" x1="29.84" y1="37.71" x2="26.82" y2="34.62"/><path class="cls-2" d="M34.33,37.77v3.67a1,1,0,0,1-1,1H30.84a1,1,0,0,1-1-1V37.71"/><line class="cls-2" x1="30.32" y1="49.65" x2="29.84" y2="41.47"/><line class="cls-2" x1="34.33" y1="41.44" x2="33.85" y2="49.65"/><path class="cls-2" d="M31.86,35.74a1.48,1.48,0,1,1,0-3"/></svg>