<svg id="Layer_1" data-name="Layer 1" xmlns="http://www.w3.org/2000/svg" viewBox="0 0 64 64"><defs><style>.cls-1{fill:#9dcbf4;}.cls-2{fill:#389ad6;}.cls-3,.cls-4{fill:none;stroke-linecap:round;stroke-linejoin:round;stroke-width:2px;}.cls-3{stroke:#2a5080;}.cls-4{stroke:#295183;}</style></defs><title>people, swimming, swim, sports, exercise</title><path class="cls-1" d="M34.4,27.89l-.25.12c-.79.37-1.61.8-2.44,1.28a32.51,32.51,0,0,0-3.43,2.22,15.21,15.21,0,0,0-3.35,3.18,4.13,4.13,0,0,0-.35.59,3.52,3.52,0,0,1-.72.07h0a4.56,4.56,0,0,1-2.64-.84L21,34.34a20.69,20.69,0,0,1,5.15-3.72l.28-.15,1-.55,1.45-.71c.42-.19.78-.35,1.08-.47h0l.34-.13h0l.34-.11a4.28,4.28,0,0,0,3.3-3,2.44,2.44,0,0,1,3-1.36h0C37.25,24.26,38.78,25.87,34.4,27.89Z"/><path class="cls-2" d="M30.25,34.71l0,.06a.91.91,0,0,1-.17.17l-.13.07a.38.38,0,0,1-.21,0,.86.86,0,0,1-.26-.08c-1.16-.54-2.17-1.59-3.44-.86l-1.07.63c-.36.21-.72.43-1.07.66h0a4.56,4.56,0,0,1-2.64-.84c.83-1.24,1.86-.66,2.84-1.7a4.16,4.16,0,0,1,1.64-1.18.58.58,0,0,0,.25-.12.6.6,0,0,0,.09-.22,3.76,3.76,0,0,0,.11-.67.17.17,0,0,0,0-.07A1.22,1.22,0,0,0,26,30a1.7,1.7,0,0,0-1-.79c-.8-.28-1.65-.36-2.46-.59a.88.88,0,0,1-.59-.37c-.19-.33.07-.74.4-.94A2.73,2.73,0,0,1,23.82,27a8.76,8.76,0,0,1,4.68,1.43c.18.14.39.32.42.52a.31.31,0,0,1,0,.19l0,.05a.47.47,0,0,1-.21.21,4.61,4.61,0,0,1-1.24.5c-.17.06-.33.11-.49.18h0c-.1,0-.21.09-.31.15l-.13.1a.26.26,0,0,0-.07.11s0,0,0,0c0,.17.14.31.29.39a14.76,14.76,0,0,0,1.6.63,9.27,9.27,0,0,1,.87.35,2.34,2.34,0,0,1,1.46,1.59A1.69,1.69,0,0,1,30.25,34.71Z"/><polyline class="cls-3" points="29.14 35.29 29.15 35.29 29.7 35 30.25 34.71 30.66 34.49"/><path class="cls-3" d="M32.25,29.82a2.87,2.87,0,0,0-1.15-.88A2.78,2.78,0,0,0,30,28.73h0a2.49,2.49,0,0,0-1,.23,2.15,2.15,0,0,0-.55.31l-1.44.82h0l-.44.25-.34.19L21.84,33a2.63,2.63,0,0,0-.59.61l0,0a2.49,2.49,0,0,0-.27.51,1.12,1.12,0,0,0-.05.13"/><line class="cls-3" x1="32.25" y1="29.82" x2="31.04" y2="35.18"/><path class="cls-3" d="M31.1,28.93l-6.27-2.7a1.39,1.39,0,0,0-.63-.13,2.27,2.27,0,0,0-1.26.48l-2.07,1.63"/><line class="cls-3" x1="15.49" y1="38.64" x2="15.48" y2="38.63"/><polyline class="cls-3" points="20.89 34.27 20.96 34.15 21.23 33.64 21.25 33.6"/><path class="cls-3" d="M34.71,28.8a2.72,2.72,0,1,1,3.85-.08"/><path class="cls-4" d="M14.64,34a4.56,4.56,0,0,0,6.21.21"/><path class="cls-4" d="M26.82,34.23a4.44,4.44,0,0,1-2.24,1,3.51,3.51,0,0,1-.72.07h0a4.56,4.56,0,0,1-2.64-.84L21,34.34l-.06-.06h0l-.05,0"/><path class="cls-4" d="M26.82,34.23a4.43,4.43,0,0,0,2.32,1.06,3.71,3.71,0,0,0,.67.06A4.57,4.57,0,0,0,31,35.18a4.43,4.43,0,0,0,1.76-.95"/><path class="cls-4" d="M38.77,34.23a4.56,4.56,0,0,1-6,0"/><path class="cls-4" d="M45.37,33.85a5.57,5.57,0,0,1-3.61,1.49,4.54,4.54,0,0,1-3-1.12"/><path class="cls-4" d="M18.63,38.64h0a3.71,3.71,0,0,0,.54.44,4.46,4.46,0,0,0,2.68.88,4.53,4.53,0,0,0,3-1.11"/><path class="cls-4" d="M24.84,38.86a4.36,4.36,0,0,0,1.08.68,4.29,4.29,0,0,0,1.55.41,2.17,2.17,0,0,0,.36,0,4.57,4.57,0,0,0,3-1.11"/><path class="cls-4" d="M30.82,38.86a4.58,4.58,0,0,0,5.63.27,3,3,0,0,0,.35-.27"/><path class="cls-4" d="M42.77,38.85a4.56,4.56,0,0,1-6,0"/><path class="cls-4" d="M49.37,38.48A5.57,5.57,0,0,1,45.76,40a4.54,4.54,0,0,1-3-1.12"/><line class="cls-3" x1="31.04" y1="35.18" x2="33.77" y2="37.51"/></svg>