<svg id="Layer_1" data-name="Layer 1" xmlns="http://www.w3.org/2000/svg" viewBox="0 0 64 64"><defs><style>.cls-1{fill:#9ac8f1;}.cls-2,.cls-5{fill:none;stroke-linecap:round;stroke-linejoin:round;stroke-width:2px;}.cls-2{stroke:#295183;}.cls-3{fill:#2a5080;}.cls-4{fill:#3897d3;}.cls-5{stroke:#2a5080;}</style></defs><title>phone, international, line, global</title><path class="cls-1" d="M29,13.18c.64.69.36,2,.26,2.83a23.25,23.25,0,0,0-.12,3.68,20.87,20.87,0,0,0,1.56,7.6A11.64,11.64,0,0,0,35.79,33a16.18,16.18,0,0,0,5.43,1.46l-1,2.41a2.42,2.42,0,0,1-1,1.34,2.27,2.27,0,0,1-1.75-.12,17.09,17.09,0,0,1-4.28-2.32,22.27,22.27,0,0,1-3.4-2.58c-1.43-1.6-2-3.76-2.65-5.77s-2.79-3.13-3.38-5.16a5.86,5.86,0,0,1,.41-3.57A12.72,12.72,0,0,1,26.09,15a7.49,7.49,0,0,1,1.76-1.67C28.43,12.93,28.78,13,29,13.18Z"/><path class="cls-2" d="M41.87,15.31a18.65,18.65,0,0,1,1,3.13,25.51,25.51,0,0,1-.09,11.79A15.06,15.06,0,0,1,41.28,34,10.51,10.51,0,0,1,40,35.72c-.29.32-1.34,1.13-.79,1.6a1.86,1.86,0,0,0,1.46.1A13.82,13.82,0,0,0,50.1,24.55c0-.08,0-.15,0-.24s0-.16,0-.24A13.8,13.8,0,0,0,37.67,10.57c-.46,0-.91-.07-1.38-.07s-.9,0-1.34.06a13.88,13.88,0,0,0-10.76,7.08,12.51,12.51,0,0,0-1.09,2.49c-.11.36-.34,1.12.28,1.15a2.31,2.31,0,0,0,1.25-.56,14.54,14.54,0,0,1,5.09-2.29,27.25,27.25,0,0,1,13.18,0c4.29,1.14,7.2,3.34,7.2,5.88s-3,4.78-7.29,5.91a26.32,26.32,0,0,1-6.52.79,26,26,0,0,1-6.48-.78,18.58,18.58,0,0,1-2.45-.81"/><path class="cls-2" d="M31.32,34.14a16.53,16.53,0,0,1-1.5-3.91,24.34,24.34,0,0,1-.74-6.09,24.61,24.61,0,0,1,.65-5.71c1-4,2.89-7,5.23-7.86"/><line class="cls-2" x1="36" y1="10" x2="36" y2="36"/><circle class="cls-3" cx="39" cy="45" r="1"/><path class="cls-1" d="M16.08,25.12s3.65-.56,2.88,3.79S22.46,34,22.46,34s5.93,6.16,8,7.47c1,.66,1.48,1.92,2.16,2.88A3.35,3.35,0,0,0,33.9,45.5c.52.24,1.2.09,1.67.45a1.27,1.27,0,0,1,.29,1.64c-.43.55-3.25,1.19-3.86,1.18-1.8,0-3.78-2.32-5-3.44-2.38-2.27-4.58-4.72-6.73-7.2q-2-2.35-4-4.75C15.21,32,13.43,30.88,13.51,29,13.57,27.51,14.36,25.39,16.08,25.12Z"/><path class="cls-4" d="M14.34,27.11a1.4,1.4,0,0,1,1.72.32c.42.56.25,1.34.27,2a6.22,6.22,0,0,0,1.28,3.26c2.11,3.11,5.06,5.53,7.68,8.22,1.79,1.85,3.53,3.91,5.92,4.88.67.27,2.19.56,2.47,1.34s-.84,1.51-1.54,1.49a3.79,3.79,0,0,1-2.08-.92,36.23,36.23,0,0,1-3.93-3.51c-2.21-2.21-4.33-4.51-6.44-6.81l-4.31-4.68a6.2,6.2,0,0,1-2-3.6,2.21,2.21,0,0,1,.79-1.91Z"/><path class="cls-5" d="M37.57,43.22l-1.08-1.08-.79-.79-2.26-2.26a1.88,1.88,0,0,0-.69-.44,1.79,1.79,0,0,0-.63-.11,1.88,1.88,0,0,0-1.36.58,1.85,1.85,0,0,1-2.63,0l-1-1-3.89-3.89a1.87,1.87,0,0,1-.56-1.41,1.92,1.92,0,0,1,.56-1.25l.42-.42a1.88,1.88,0,0,0,0-2.65L19.24,24a1.89,1.89,0,0,0-1.63-.53,1.86,1.86,0,0,0-1,.53L14.12,26.5a3.8,3.8,0,0,0,0,5.36L30.53,48.27a3.82,3.82,0,0,0,4.13.82c.46-.19.79-.62,1.22-.8,1.76-.73,3.13,1.4,3.13,2.82V55"/></svg>