<svg id="Layer_1" data-name="Layer 1" xmlns="http://www.w3.org/2000/svg" viewBox="0 0 64 64"><defs><style>.cls-1{fill:#389ad6;}.cls-2{fill:#a8d2f0;}.cls-3{fill:none;stroke:#295183;stroke-linecap:round;stroke-linejoin:round;stroke-width:2px;}.cls-4{fill:#295183;}</style></defs><title>pot, plant, household, interior</title><path class="cls-1" d="M27.13,22.6s-2.08-.67-1.33,2c.42,1.48,2.24,2.55,3.79,3.21a1.13,1.13,0,0,0,1.49-1.48C30.33,24.67,29,22.69,27.13,22.6Z"/><path class="cls-2" d="M36.39,16.15S35.94,14,34,16c-1.08,1.09-1.11,3.21-.93,4.88a1.13,1.13,0,0,0,2,.57C36.17,20,37.25,17.86,36.39,16.15Z"/><path class="cls-2" d="M27.53,30.67A5.19,5.19,0,0,1,30.19,32c.62.63.74,1.86,1.38,2.17,1,.47,2.91.23,4,.38,1.73.25,6.83,1,5,3.87a2.86,2.86,0,0,1-2,1L35.54,40c-1.6.29-3.38.69-4.29,2a3.78,3.78,0,0,0-.59,2.24A5,5,0,0,0,35,48.91c1.18.13,2.52-.14,3.43.62a1.8,1.8,0,0,1-.12,2.79,3.2,3.2,0,0,1-1.33.35,33.77,33.77,0,0,1-9.44.19,5.83,5.83,0,0,1-4.14-2.25,6.66,6.66,0,0,1-.77-2.7,82.21,82.21,0,0,1-.68-10.63,4.62,4.62,0,0,0-.58-2.79c-1-1.3-2.26-2-.31-3.18a8.51,8.51,0,0,1,4.82-.84A12.42,12.42,0,0,1,27.53,30.67Z"/><path class="cls-1" d="M24.24,30.6a3.37,3.37,0,0,1,.89,3.5c-.67,2.16,3.73.51,3.74.5.2-.08,1,1.52,1,1.72a2.86,2.86,0,0,1-1,3.2c-1.83,1.37-2.61,4.54-2.65,6.7a5.8,5.8,0,0,0,1.17,3.3,1.37,1.37,0,0,1-.23,2A2.5,2.5,0,0,1,24,51c-1.92-2.69-1.67-7.27-1.69-10.36,0,0,0-6.29-2.28-7.15S22.36,29.35,24.24,30.6Z"/><path class="cls-3" d="M42.27,40.3l-.64,9.18a3.29,3.29,0,0,1-3.29,3.11H26.08a3.29,3.29,0,0,1-3.29-3.11L22,34.6h20.5"/><path class="cls-3" d="M29.65,30.6H21.81a2,2,0,0,0-2,2.18,2.08,2.08,0,0,0,2.1,1.82H42.61a2,2,0,0,0,2-2.18,2.08,2.08,0,0,0-2.1-1.82H34a1.29,1.29,0,0,1-1.29-1.29v-8.1s-.71-8.33,9.12-8.33c0,0,.47,5.94-5.29,7.86"/><path class="cls-3" d="M28.43,23a6.19,6.19,0,0,0-6.53-3s-1,4.83,6.35,6.8"/><circle class="cls-4" cx="42.46" cy="37.6" r="1"/></svg>