<svg id="Layer_1" data-name="Layer 1" xmlns="http://www.w3.org/2000/svg" viewBox="0 0 64 64"><defs><style>.cls-1{fill:#a8d2f0;}.cls-2{fill:#389ad6;}.cls-3{fill:none;stroke:#295183;stroke-linecap:round;stroke-linejoin:round;stroke-width:2px;}.cls-4{fill:#295183;}</style></defs><title>printer, printing, print, device</title><path class="cls-1" d="M32.16,14s-4.06,12.7,0,15,12.15-1,9.45,5H35.43s-5.18,2.63-.55,5,.55,4.48.55,4.48H22.16S19,46.67,20.1,50H13.49V36a17.39,17.39,0,0,1,9.19-9.52l-.52-11.73S28.16,13.38,32.16,14Z"/><path class="cls-2" d="M22.62,29a1.8,1.8,0,0,0-.41-1.74c-.68-.55-1.67,0-2.39.45a13.24,13.24,0,0,0-2.94,2.5,12.91,12.91,0,0,0-2.05,4.91c-1,4-2,8.19-1.46,12.31a1.85,1.85,0,0,0,.25.84,1.75,1.75,0,0,0,.81.56,14.48,14.48,0,0,0,4.07.87c3,.31,6,.37,8.94.43a51.55,51.55,0,0,0,11.81-.67c1.06-.23,2.25-.64,2.64-1.66a2.31,2.31,0,0,0-.75-2.44,5.24,5.24,0,0,0-2.46-1.07A30.65,30.65,0,0,0,32,43.85a62.13,62.13,0,0,0-8.95.53,15.05,15.05,0,0,1-3.17.32,3.84,3.84,0,0,1-2.82-1.28c-1.85-2.33,0-4.37,1.76-6a15.87,15.87,0,0,0,2.63-2.74c.8-1.23.74-2.75.88-4.15C22.39,30.11,22.54,29.55,22.62,29Z"/><path class="cls-2" d="M23.13,23s-.86,6.61,3,8.2,3.4,2.16,1.65,2.5a36.48,36.48,0,0,1-5.12.34S21.88,23.63,23.13,23Z"/><path class="cls-3" d="M22.68,27.37V34h18.9V27.37a12.07,12.07,0,0,1,8.66,8.15"/><path class="cls-3" d="M18.94,29a12,12,0,0,0-5.45,10V48A2.08,2.08,0,0,0,15.57,50H20.1"/><polyline class="cls-3" points="41.58 27.37 41.58 34.03 22.68 34.03 22.68 14.01 41.58 14.01 41.58 21.37"/><path class="cls-3" d="M41.16,50H20.1V46.78a3.28,3.28,0,0,1,3.28-3.27h17.5a3.28,3.28,0,0,1,3.28,3.27V50h4.53A2.08,2.08,0,0,0,50.77,48V39"/><line class="cls-3" x1="18.16" y1="39.03" x2="50.77" y2="39.03"/><circle class="cls-4" cx="41.54" cy="23.99" r="1"/></svg>