<svg id="Layer_1" data-name="Layer 1" xmlns="http://www.w3.org/2000/svg" viewBox="0 0 64 64"><defs><style>.cls-1{fill:#a8d2f0;}.cls-2{fill:none;stroke:#295183;stroke-linecap:round;stroke-linejoin:round;stroke-width:2px;}.cls-3{fill:#389ad6;}</style></defs><title>quill, ink, bottle, feather, write, pen</title><path class="cls-1" d="M28.23,23.62s-7,5.5-6.25,9.19S20.47,36,20.47,36s.46,5,4.66,6C25.13,42,25.45,27.72,28.23,23.62Z"/><path class="cls-2" d="M28.32,41.84a18,18,0,0,0,3-4l.29-.52a1.18,1.18,0,0,0-1-1.75H29.14l1.34-1.34a18,18,0,0,0,4-6.16h0a1.18,1.18,0,0,0-1.1-1.61H31.5a12.43,12.43,0,0,0,3.64-8.79V16.46c-10.75,5.31-10,21-10,31.08"/><path class="cls-2" d="M21.84,40.75a12.21,12.21,0,0,1-1.31-3.94v0a1.92,1.92,0,0,1,2-2.32l.35,0L22,32.81a11.76,11.76,0,0,1,4-10.64"/><path class="cls-2" d="M42.16,41.08l1.37,5.36a1.1,1.1,0,0,1-1.1,1.1h-7.9a1.1,1.1,0,0,1-1.1-1.1l1.37-5.36a1.1,1.1,0,0,1,1.1-1.1h3.78"/><path class="cls-2" d="M36.18,37.05a.5.5,0,0,1,.5-.5h3.6a.5.5,0,0,1,.5.5l-.63,2.44a.5.5,0,0,1-.5.5"/><path class="cls-3" d="M36.6,43a3,3,0,0,0-.76,2,.9.9,0,0,0,.33.72,1.26,1.26,0,0,0,.44.17,10.6,10.6,0,0,0,3.75.24c.3,0,.66-.13.75-.42a.52.52,0,0,0,0-.35,1.07,1.07,0,0,0-1-.55c-.39,0-.77.07-1.16.06a1.21,1.21,0,0,1-.52-.1,1.35,1.35,0,0,1-.6-.8,4.11,4.11,0,0,0-.39-.94.53.53,0,0,0-.41-.27.59.59,0,0,0-.38.21Z"/></svg>