<svg id="Layer_1" data-name="Layer 1" xmlns="http://www.w3.org/2000/svg" viewBox="0 0 64 64"><defs><style>.cls-1{fill:#a8d2f0;}.cls-2{fill:#389ad6;}.cls-3{fill:#295183;}.cls-4,.cls-6{fill:none;stroke-linecap:round;stroke-linejoin:round;stroke-width:2px;}.cls-4{stroke:#295183;}.cls-5{fill:#9ac8f1;}.cls-6{stroke:#2a5081;}</style></defs><title>rain, weather, forecast, cloud, cloudy</title><path class="cls-1" d="M52.85,33.62a5.7,5.7,0,0,1-.48,2.49,4.59,4.59,0,0,1-.81,1.3A4.87,4.87,0,0,1,50,38.56a9.16,9.16,0,0,1-2.31.72c-1,.19-2.08.34-3.12.43a70.94,70.94,0,0,1-10.91,0l-1.28-.08a1.8,1.8,0,0,0-.09-.28c-1.53-4.2-5.18-6.36-5.49-3.18a3.79,3.79,0,0,1-.93,2.23,2.81,2.81,0,0,1-2.11.88c-1.28,0-2.56,0-3.84.13a34.84,34.84,0,0,1-3.53.17,8.85,8.85,0,0,1-1.55-.18l-.21,0h0l-.13,0c-1.41-.39-3.39-1.49-3.35-3A6.18,6.18,0,0,1,12,33.62a11.11,11.11,0,0,1,1.66-2.2c.52-.53,1.27-1,2-.72a1.68,1.68,0,0,1,.84,1.38,7.28,7.28,0,0,0,.27,1.68c.5,1.26,2.15,1.66,3.48,1.37a2.73,2.73,0,0,0,2.06-1.53,2.14,2.14,0,0,0,0-1.37A5.73,5.73,0,0,0,21.64,31s0,0,0,0a2,2,0,0,0-.18-.32l-.08-.16,0-.06A13.85,13.85,0,0,1,19.49,24a11.4,11.4,0,0,1,.25-2.67,9.48,9.48,0,0,1,5.82-6.91,1.76,1.76,0,0,1,1.19-.11,1.43,1.43,0,0,1,.84,1.19A6.06,6.06,0,0,1,27.5,17a8.83,8.83,0,0,0,9,9.84c1,0,2.14-.11,2.64.71a1.33,1.33,0,0,1,.18.89,4,4,0,0,1-.57,1.5,11.6,11.6,0,0,1,1.08-.89l.17-.13a13.74,13.74,0,0,1,1.21-.77,2.09,2.09,0,0,1,.82-.3h.2a1.35,1.35,0,0,1,.8.48,1.33,1.33,0,0,1,.23.3,4.87,4.87,0,0,1,.45.84,8,8,0,0,0,1.92,2.91,3.26,3.26,0,0,0,3.27.72,18.51,18.51,0,0,0,1.69-1.07C52,31.31,52.81,32.26,52.85,33.62Z"/><path class="cls-2" d="M41,27.53s1.83.3,2.28,1.14-2.46,4.87-4.52,3.62,2.28-6,2.28-6Z"/><path class="cls-2" d="M12.09,33.87a2.32,2.32,0,0,1,0,.5,3.17,3.17,0,0,0,1.75,2.69c.68.33,2.66.07,2.93,1,.22.76-1.12,1.15-1.66,1.22a3.84,3.84,0,0,1-4.28-2.78A3.68,3.68,0,0,1,11,33.76a.66.66,0,0,1,1-.13A.58.58,0,0,1,12.09,33.87Z"/><path class="cls-2" d="M19.53,23.8a1.55,1.55,0,0,1,.33-.63,1,1,0,0,1,1.06-.3,1.4,1.4,0,0,1,.53.47c1.32,1.71,1.94,4,3.63,5.33.77.61,1.71,1,2.44,1.65a1.6,1.6,0,0,1,.59,1.78,1.69,1.69,0,0,1-1.43.73,6.12,6.12,0,0,1-5.15-2.14,8.67,8.67,0,0,1-1.66-3.75A7.34,7.34,0,0,1,19.53,23.8Z"/><path class="cls-3" d="M15.37,40.71a1,1,0,0,0,1-1h0a1,1,0,0,0-2,0h0A1,1,0,0,0,15.37,40.71Z"/><path class="cls-4" d="M35.47,13.87a11.18,11.18,0,0,0-14.22,16.6,5.85,5.85,0,0,1,1.67,1.76,10.71,10.71,0,0,1-1.67-1.76,5.79,5.79,0,0,0-3.28-1s-6.56-.51-7.31,6.33"/><path class="cls-4" d="M30.44,39.71H46.15a7.18,7.18,0,1,0-5.81-11.39,10.08,10.08,0,0,1-.86,1.54,6.83,6.83,0,0,1,.86-1.54,11.21,11.21,0,0,0-.8-10.68"/><path class="cls-5" d="M28.57,39.88c.12-.18.29-.33.48-.26s.23.27.26.46a6.72,6.72,0,0,1-.13,3.22,21.17,21.17,0,0,1-1.11,2.28A3.47,3.47,0,0,0,27.72,48a2.51,2.51,0,0,0,1.66,1.59,2.68,2.68,0,0,0,2.38-.26,1.3,1.3,0,0,1,.21-.16c.62-.34.07.75,0,.9a3.07,3.07,0,0,1-1.1,1,3.6,3.6,0,0,1-2.1.39,3.88,3.88,0,0,1-2.09-.9,4.46,4.46,0,0,1-1.46-3.07,6.14,6.14,0,0,1,1-3.88A27.83,27.83,0,0,0,28.47,40Z"/><path class="cls-5" d="M36.22,43.7c.07-.1.16-.18.26-.15s.13.15.15.25a3.72,3.72,0,0,1-.07,1.78,11.73,11.73,0,0,1-.61,1.26,1.92,1.92,0,0,0-.2,1.36,1.39,1.39,0,0,0,.92.88A1.49,1.49,0,0,0,38,49a.72.72,0,0,1,.12-.09c.34-.19,0,.42,0,.5a1.7,1.7,0,0,1-.61.54,2,2,0,0,1-1.16.22,2.15,2.15,0,0,1-1.16-.5,2.47,2.47,0,0,1-.81-1.7,3.4,3.4,0,0,1,.58-2.15,15.43,15.43,0,0,0,1.24-2Z"/><path class="cls-2" d="M27.39,43.72s.62-.06.23.88-1.38,1.82-.42,4.33-.73.2-.73.2S24.44,45.7,27.39,43.72Z"/><path class="cls-6" d="M29.39,36.17c.25,3.3,3.12,7,3.48,7.47l0,0a4.61,4.61,0,1,1-7,0l0,0a18.69,18.69,0,0,0,1.48-2.08"/><path class="cls-6" d="M36.54,42.62a7.68,7.68,0,0,0,2,3.95l0,0a2.71,2.71,0,1,1-4.78,1.75"/><line class="cls-4" x1="18.5" y1="39.71" x2="23.07" y2="39.71"/></svg>