<svg id="Layer_1" data-name="Layer 1" xmlns="http://www.w3.org/2000/svg" viewBox="0 0 64 64"><defs><style>.cls-1{fill:#389ad6;}.cls-2,.cls-3{fill:none;stroke-linecap:round;stroke-linejoin:round;stroke-width:2px;}.cls-2{stroke:#9ac8f1;}.cls-3{stroke:#295183;}.cls-4{fill:#295183;}.cls-5{fill:#a8d2f0;}</style></defs><title>science, microscope, biology, molecule</title><path class="cls-1" d="M26.9,34.85s.55,4.73,10.2,3.88,7.27,5.3-.66,4.07-9.62,2.63-11.56-3.89a5.26,5.26,0,0,0-3.72-3.23C18.06,34.72,26.9,34.85,26.9,34.85Z"/><path class="cls-1" d="M28.38,23.48s2.7-.31.69,2.89-.47,6.24,1.24,7,1.25,2.56-1,2.69-6.48-4.7-3.9-9.69A4,4,0,0,1,28.38,23.48Z"/><path class="cls-2" d="M25.33,26.76c.5-7.67,2.81-13.47,5.58-13.47"/><path class="cls-2" d="M24.71,31.43c-5-5.71-7.39-11.36-5.44-13.3"/><path class="cls-2" d="M19.82,35.31c-1.36,2.79-1.65,5.07-.55,6.16s3.38.81,6.18-.56"/><path class="cls-2" d="M19.19,25.82c-2.94,1-4.76,2.42-4.76,4s1.85,3,4.83,4a33.38,33.38,0,0,0,8.37,1.54"/><path class="cls-3" d="M36,17.63a25.4,25.4,0,0,0-2.38,1.3,5.19,5.19,0,0,1-5.41,0,25.4,25.4,0,0,0-2.38-1.3c1.26-3.63,3.07-5.9,5.08-5.9a3.77,3.77,0,0,1,2.79,1.56"/><path class="cls-3" d="M18.67,34.95c-3.63-1.26-5.9-3.07-5.9-5.08S15,26,18.67,24.79A25.41,25.41,0,0,0,20,27.16a5.19,5.19,0,0,1,.57,4.1"/><path class="cls-3" d="M25.83,17.63c-.27.77-.51,1.61-.72,2.49a5.34,5.34,0,0,1-3.95,3.95c-.89.21-1.72.45-2.49.72-1.68-3.45-2-6.33-.59-7.75S22.38,15.95,25.83,17.63Z"/><path class="cls-3" d="M18.67,34.95c.77.27,1.61.51,2.49.72a5.34,5.34,0,0,1,3.95,3.95c.21.89.45,1.72.72,2.49-3.45,1.68-6.33,2-7.75.59-.86-.86-1.08-2.25-.75-4"/><path class="cls-3" d="M36,17.63a17.18,17.18,0,0,1,2.95-1.14,8.07,8.07,0,0,1,2.63-.33"/><path class="cls-3" d="M30.91,36.26a6.18,6.18,0,0,1-1.56-.2,5.9,5.9,0,0,1-1.72-.71A6.37,6.37,0,0,1,25.34,33a6.28,6.28,0,0,1-.82-3.13,6.29,6.29,0,0,1,.81-3.11,6.39,6.39,0,0,1,8.3-2.68"/><circle class="cls-4" cx="30.91" cy="29.87" r="1"/><path class="cls-5" d="M32.88,43.2s2.32,2.67-1,3.33.68.75.68.75,3.11,2.13.37,4-13.85.92-13-1.46a10.4,10.4,0,0,1,2.94-4.11S20.46,42.16,32.88,43.2Z"/><path class="cls-1" d="M45.84,44c-.2.37-1.32.28-1.68.32a3.94,3.94,0,0,0-2.95,1.53,2.5,2.5,0,0,0,.67,3c.56.54,1.42.6,1.93,1.18.3.34,1,1.08,1,.18.08-1.29-.12-4.12-.12-4.12Z"/><path class="cls-5" d="M39.92,23.7a1.59,1.59,0,0,1,2.37.23h0a4.35,4.35,0,0,0,1.77,1.73c1.35.51,2.36-.69,3.34-1.4A.82.82,0,0,1,48.1,24c.36.12.37.63.25,1A6.5,6.5,0,0,1,47.22,27a16.89,16.89,0,0,1-2.37,2.44c-1.44,1.22-3.17,2.48-5.11,2.49a12.61,12.61,0,0,0-2.42-.06.87.87,0,0,0-.51.25.7.7,0,0,0-.09.68,2.07,2.07,0,0,0,.38.6,5.87,5.87,0,0,1-2.25-2,1.57,1.57,0,0,1-.23-.83,1.69,1.69,0,0,1,.37-.89,2.22,2.22,0,0,1,1.8-1A11.68,11.68,0,0,1,39.92,23.7Z"/><path class="cls-1" d="M38.1,26.36l-.26-.53S36.6,28,37,28.47s1.35,2.92,3.71,2.81a4.71,4.71,0,0,0,1.05-.17.85.85,0,0,0,0-1.64A6.24,6.24,0,0,1,38.1,26.36Z"/><path class="cls-1" d="M29.62,47.44s.75,1,0,1.59c-.58.43-1.78.3-2.44.3s-1.68,0-2.51-.07a3.06,3.06,0,0,0-1.7.25A1,1,0,0,0,22.57,51c1,1.22-3.89-1.16-1.67-3.59S29.62,47.44,29.62,47.44Z"/><path class="cls-3" d="M39.84,23.53l2.63-2.63a3.83,3.83,0,0,1,3.17-1.1,3.76,3.76,0,0,1,2.29,1.1A3.82,3.82,0,0,1,49,23.2q0,.22,0,.44a3.82,3.82,0,0,1-1.12,2.73l-4.39,4.4A3.85,3.85,0,0,1,37,28.47"/><path class="cls-3" d="M40.36,31.86l-1.93,1.93a1.06,1.06,0,0,1-1.49,0L35,31.89a1.06,1.06,0,0,1,0-1.49L37,28.47a3.82,3.82,0,0,0,3.39,3.39Z"/><path class="cls-3" d="M49,17.9l1.89,1.89a1.06,1.06,0,0,1,0,1.49L49,23.2"/><path class="cls-3" d="M45.64,28.66l2.82,2.8a7.94,7.94,0,0,1,0,11.26L44.15,47"/><path class="cls-3" d="M40.29,46.77H24.47a1.9,1.9,0,0,1-1.9-1.89v-.19a1.91,1.91,0,0,1,1.9-1.9H39.29"/><path class="cls-3" d="M44.15,47a2.32,2.32,0,0,1,1.23,2v.22a2.32,2.32,0,0,1-2.3,2.31H22.68a2.32,2.32,0,0,1-2.3-2.31v-.22a2.32,2.32,0,0,1,2.3-2.31h2.48"/><circle class="cls-4" cx="38.1" cy="25.36" r="1"/><circle class="cls-4" cx="42.48" cy="42.79" r="1"/></svg>