<svg id="Layer_1" data-name="Layer 1" xmlns="http://www.w3.org/2000/svg" viewBox="0 0 64 64"><defs><style>.cls-1{fill:#9ac8f1;}.cls-2,.cls-7{fill:none;stroke-linecap:round;stroke-linejoin:round;stroke-width:2px;}.cls-2{stroke:#295183;}.cls-3{fill:#389ad6;}.cls-4{fill:#fff;}.cls-5{fill:#a8d2f0;}.cls-6{fill:#295183;}.cls-7{stroke:#a8d2f0;}</style></defs><title>science, chemistry, lab, laboratory, experiment</title><path class="cls-1" d="M30.33,20.75c-.45-.06-.3.43-.2.68.2.48.58.57,1,.85A2.28,2.28,0,0,1,32,23.81a33.83,33.83,0,0,1-.11,4.73,3,3,0,0,1-.71,1.58,3.44,3.44,0,0,1-1.93.74,1.63,1.63,0,0,1-1.2-.11,1.51,1.51,0,0,1-.5-.94c-.16-.69-.25-4.32-.26-5A2,2,0,0,0,27,23.7c-.21-.31-.79-.41-.8-.82a2.64,2.64,0,0,1,2-2.29A10,10,0,0,1,30.33,20.75Z"/><path class="cls-2" d="M23.76,33.73a11,11,0,0,0-1.2,1,12.81,12.81,0,0,0-1.27,1.44,11.93,11.93,0,0,0-2.37,6.25,8.68,8.68,0,0,0,0,1A12.11,12.11,0,0,0,27.36,55"/><path class="cls-2" d="M34.53,55A12.25,12.25,0,0,0,43,44a14.09,14.09,0,0,0,0-1.57,12.18,12.18,0,0,0-5.43-9.1l0,0a11.78,11.78,0,0,0-3-1.4A12.14,12.14,0,0,0,31,31.35"/><path class="cls-2" d="M35.48,20.1a2.11,2.11,0,0,1,0,4.21h-9a2.11,2.11,0,1,1,0-4.21h6.12"/><path class="cls-1" d="M40.21,47.68c-.5,2.67-3.25,4.6-5.68,5.36a10.54,10.54,0,0,1-7.75-.52,9.56,9.56,0,0,1-1-.56,11.26,11.26,0,0,1-1.1-.84,10.09,10.09,0,0,1-3.25-5.69,11,11,0,0,1,5.39-11.81c.4-.2.62-.2.75-.08.34.37-.16,1.71-.3,2.17a9.25,9.25,0,0,0-.59,3.07,4.59,4.59,0,0,0,.79,2.51A5.11,5.11,0,0,0,30.62,43c2.1.44,4.28.3,6.4.6a4.62,4.62,0,0,1,2,.67,3,3,0,0,1,1.16,1.76A3.7,3.7,0,0,1,40.21,47.68Z"/><path class="cls-3" d="M40.21,47.68c-.5,2.67-3.25,4.6-5.68,5.36a10.54,10.54,0,0,1-7.75-.52,9.56,9.56,0,0,1-1-.56,11.26,11.26,0,0,1-1.1-.84,10,10,0,0,1-3.15-5.24,1.31,1.31,0,0,1,.13-.94h0a1.31,1.31,0,0,1,.89-.65,8.84,8.84,0,0,1,5.26.69,10.08,10.08,0,0,0,6.88,0A1.25,1.25,0,0,1,35,45c.75-.08,4-.34,5,.88a1,1,0,0,1,.19.46A3.68,3.68,0,0,1,40.21,47.68Z"/><path class="cls-3" d="M15.07,27s2.61-.23,1.61,2.08A2.26,2.26,0,0,0,18,32.23s-4.17-.92-3.84-3.63S15.07,27,15.07,27Z"/><path class="cls-1" d="M43.61,51.41s2.33-1.2,2.28,1.31a2.26,2.26,0,0,0,2.4,2.41s-4.2.73-4.93-1.9S43.61,51.41,43.61,51.41Z"/><path class="cls-3" d="M33.83,40.09a.74.74,0,0,1-.09.32.82.82,0,0,1-.77.41c-.89-.05-1.26-1.28-.28-1.48C33.22,39.24,33.84,39.57,33.83,40.09Z"/><path class="cls-3" d="M38.36,39.82a1.24,1.24,0,0,1-1.24,1.24,1.23,1.23,0,0,1-1.23-1.35c0-.26-.11-.4-.3-.55a.71.71,0,0,1-.32-.59.94.94,0,0,1,1.6-.67c.15.15.18.38.31.55s.5.22.71.39A1.25,1.25,0,0,1,38.36,39.82Z"/><path class="cls-4" d="M37.47,39.42c.42,0,.6.9.07.89a.24.24,0,0,1-.21-.17.86.86,0,0,1,0-.61C37.37,39.46,37.42,39.42,37.47,39.42Z"/><path class="cls-2" d="M21.28,36.18c-.7.73-1.36,1.5-2,2.28s-1,1.39-1.5,2.08c-4.64,7.08-4.18,13.64,1.39,15.2A14,14,0,0,0,27.36,55,26.35,26.35,0,0,0,31,53.42a33.87,33.87,0,0,0,10.49-8.8c.57-.73,1.1-1.47,1.57-2.19s.78-1.26,1.1-1.88c3.33-6.28,2.49-11.8-2.56-13.2a13,13,0,0,0-7,.34h0V24.31H27.33v5.56a1.63,1.63,0,0,0,1.88,1.61A12.25,12.25,0,0,1,31,31.35"/><path class="cls-2" d="M15.92,32.23c-.38,2.32.24,5.22,1.88,8.31a19.14,19.14,0,0,0,1.11,1.89c.47.73,1,1.46,1.56,2.18A33.87,33.87,0,0,0,31,53.42,27.18,27.18,0,0,0,34.53,55a14,14,0,0,0,8.19.74,7.11,7.11,0,0,0,1.66-.7"/><path class="cls-2" d="M47.26,50.06c.18-2.69-.86-6-3.15-9.52-.45-.69-1-1.39-1.5-2.08s-1.32-1.59-2-2.34"/><path class="cls-2" d="M19.49,27.66a5.79,5.79,0,0,1,.87-.31,10.19,10.19,0,0,1,3.3-.32"/><path class="cls-2" d="M37.59,33.33l0,0"/><circle class="cls-2" cx="17.13" cy="29.5" r="2.99"/><circle class="cls-2" cx="46.52" cy="52.95" r="2.99"/><path class="cls-2" d="M30,16.34a2.51,2.51,0,1,1,3.14-1.65"/><path class="cls-2" d="M28.36,14.75a.7.7,0,0,0-.08-.24h0a1.64,1.64,0,1,0-2,2.18"/><path class="cls-5" d="M49.52,12.17c1,.92.26,1.57-.46,2.33a7.79,7.79,0,0,0-1.79,3.17A5.55,5.55,0,0,0,47,19c0,.42.29,1,.11,1.37a.65.65,0,0,1-.59.33,2.26,2.26,0,0,1-1.17-.38,3.83,3.83,0,0,1-1.1-1.06s-1.86-3.31-1.08-4.87c.63-1.27,2.51-2.06,3.79-2.4a3.59,3.59,0,0,1,2.24-.06A1.45,1.45,0,0,1,49.52,12.17Z"/><path class="cls-2" d="M51.54,20.68a4.94,4.94,0,0,1-1.24.79,5,5,0,0,1-.65.24,4.73,4.73,0,0,1-1.08.2,5,5,0,0,1-2.27-.33,4.79,4.79,0,0,1-.8-.38,5.15,5.15,0,0,1-.72-.52,5,5,0,0,1-1.37-1.84h0A4.88,4.88,0,0,1,43,17.11a4.94,4.94,0,0,1,.33-2.26h0a4.53,4.53,0,0,1,.38-.81,4.59,4.59,0,0,1,.53-.73A5.18,5.18,0,0,1,46,11.94a5.08,5.08,0,0,1,1.34-.39,2.16,2.16,0,0,1,.39,0,4.85,4.85,0,0,1,1.29.06l.23,0a3.73,3.73,0,0,1,.75.23,5,5,0,0,1,1.52.9h0a5,5,0,0,1,1.25,1.58c0,.08.08.16.11.24a5.21,5.21,0,0,1,.44,1.73.8.8,0,0,1,0,.1A5.07,5.07,0,0,1,53,18.57a4.79,4.79,0,0,1-.38.8,4.42,4.42,0,0,1-.53.73h0a3.41,3.41,0,0,1-.39.41A1.4,1.4,0,0,1,51.54,20.68Z"/><circle class="cls-2" cx="48.17" cy="16.7" r="2.09" transform="translate(9.18 49.56) rotate(-59.25)"/><rect class="cls-6" x="50.34" y="9.63" width="2.3" height="2.97" rx="0.8" ry="0.8" transform="translate(12.92 -24.77) rotate(30.75)"/><path class="cls-6" d="M47.57,11.67l-.11,0-1,.27a.63.63,0,0,1-.37,0,.6.6,0,0,1-.37-.42l-.43-1.68a.62.62,0,0,1,.45-.74L46,9l.77-.2a.61.61,0,0,1,.75.44L47.9,11a.62.62,0,0,1-.14.56A.57.57,0,0,1,47.57,11.67Z"/><rect class="cls-6" x="41.42" y="11.89" width="2.3" height="2.97" rx="0.8" ry="0.8" transform="translate(9.31 43.12) rotate(-59.25)"/><rect class="cls-6" x="40.71" y="16.82" width="2.3" height="2.97" rx="0.8" ry="0.8" transform="translate(34.42 63.38) rotate(-104.25)"/><path class="cls-6" d="M46.27,22.14l-.89,1.49a.61.61,0,0,1-.84.21l-.92-.55a.61.61,0,0,1-.21-.84L44.3,21a.61.61,0,0,1,.48-.3.56.56,0,0,1,.36.08l.92.55a.56.56,0,0,1,.24.28A.61.61,0,0,1,46.27,22.14Z"/><path class="cls-6" d="M50.65,24.32l-.5.13-.54.14a.61.61,0,0,1-.74-.45l-.43-1.68a.61.61,0,0,1,.13-.55.56.56,0,0,1,.31-.2l.91-.23.14,0a.6.6,0,0,1,.37,0,.63.63,0,0,1,.37.42l.43,1.69A.61.61,0,0,1,50.65,24.32Z"/><rect class="cls-6" x="52.61" y="18.55" width="2.3" height="2.97" rx="0.8" ry="0.8" transform="translate(98.47 -15.93) rotate(120.75)"/><rect class="cls-6" x="53.32" y="13.62" width="2.3" height="2.97" rx="0.8" ry="0.8" transform="translate(55.71 -41.42) rotate(75.75)"/><path class="cls-7" d="M49.19,27.61a6.42,6.42,0,0,0,5.58-3.06"/><path class="cls-5" d="M12.88,13.84c1.22-.08,1.14.81,1.16,1.73a6.84,6.84,0,0,0,.85,3.08,4.87,4.87,0,0,0,.64,1c.25.27.79.43.92.79a.57.57,0,0,1-.16.57,2,2,0,0,1-1,.49,3.36,3.36,0,0,1-1.34,0s-3.21-.9-3.69-2.35c-.39-1.18.28-2.83.86-3.84a3.15,3.15,0,0,1,1.36-1.43A1.27,1.27,0,0,1,12.88,13.84Z"/><path class="cls-2" d="M19.41,17.88a4.34,4.34,0,0,1-.28,1.26,4.4,4.4,0,0,1-.25.55,4.15,4.15,0,0,1-.55.79,4.43,4.43,0,0,1-1.61,1.21,4.21,4.21,0,0,1-.73.26,4.52,4.52,0,0,1-.77.13,4.41,4.41,0,0,1-2-.29h0A4.28,4.28,0,0,1,11.87,21a4.34,4.34,0,0,1-1.2-1.61h0a4,4,0,0,1-.27-.74,4,4,0,0,1-.12-.78,4.55,4.55,0,0,1,.28-2,4.46,4.46,0,0,1,.59-1.07,1.89,1.89,0,0,1,.21-.27,4.26,4.26,0,0,1,.84-.76l.17-.12a3.27,3.27,0,0,1,.61-.32,4.39,4.39,0,0,1,1.51-.38h0a4.36,4.36,0,0,1,1.76.21l.22.08a4.57,4.57,0,0,1,1.35.8l.07.06A4.45,4.45,0,0,1,19,15.64a4.21,4.21,0,0,1,.26.73,3.88,3.88,0,0,1,.12.78h0a3,3,0,0,1,0,.5A1.23,1.23,0,0,1,19.41,17.88Z"/><circle class="cls-2" cx="14.85" cy="17.5" r="1.84" transform="translate(-3.85 4.19) rotate(-14.25)"/><rect class="cls-6" x="12.43" y="10.66" width="2.02" height="2.6" rx="0.8" ry="0.8" transform="translate(-2.53 3.68) rotate(-14.25)"/><path class="cls-6" d="M11.35,14.75l0,.09-.49.82a.56.56,0,0,1-.25.22.53.53,0,0,1-.49,0l-1.31-.78a.54.54,0,0,1-.18-.74l.13-.21.35-.6a.54.54,0,0,1,.74-.19l1.31.78a.54.54,0,0,1,.26.43A.5.5,0,0,1,11.35,14.75Z"/><rect class="cls-6" x="8.3" y="17.61" width="2.02" height="2.6" rx="0.8" ry="0.8" transform="translate(-6.72 32.59) rotate(-104.25)"/><rect class="cls-6" x="10.92" y="21.11" width="2.02" height="2.6" rx="0.8" ry="0.8" transform="translate(10.72 47.77) rotate(-149.25)"/><path class="cls-6" d="M17,22.05l.37,1.47a.54.54,0,0,1-.39.66l-.91.23a.54.54,0,0,1-.66-.39l-.37-1.47a.54.54,0,0,1,.12-.48.49.49,0,0,1,.27-.17l.91-.23a.49.49,0,0,1,.32,0A.54.54,0,0,1,17,22.05Z"/><path class="cls-6" d="M21.11,20.69l-.23.39-.25.42a.54.54,0,0,1-.74.18l-1.31-.78a.53.53,0,0,1-.26-.42.49.49,0,0,1,.07-.32l.42-.7.06-.11a.52.52,0,0,1,.25-.22.55.55,0,0,1,.49,0l1.31.78A.54.54,0,0,1,21.11,20.69Z"/><rect class="cls-6" x="19.37" y="14.8" width="2.02" height="2.6" rx="0.8" ry="0.8" transform="translate(30.97 -7.62) rotate(75.75)"/><rect class="cls-6" x="16.76" y="11.29" width="2.02" height="2.6" rx="0.8" ry="0.8" transform="translate(8.94 -7.32) rotate(30.75)"/><path class="cls-7" d="M14,7.93a5.64,5.64,0,0,0-4.89,2.69"/></svg>