<svg id="Layer_1" data-name="Layer 1" xmlns="http://www.w3.org/2000/svg" viewBox="0 0 64 64"><defs><style>.cls-1{fill:#9dcbf4;}.cls-2{fill:none;stroke:#2a5081;stroke-linecap:round;stroke-linejoin:round;stroke-width:2px;}.cls-3{fill:#2a5081;}</style></defs><title>signal, network, wireless, wifi, connection</title><path class="cls-1" d="M31.42,26.71a.57.57,0,0,1,.45.07,1,1,0,0,1,.34.71c1,6.19-2.5,12.34-2.08,18.59.13,1.84,1.6,6.14-1.67,5.89A5,5,0,0,1,26,51.37c-1.56-1-.38-3,0-4.43l1.55-6.42,3-12.64A2.09,2.09,0,0,1,31,27,.85.85,0,0,1,31.42,26.71Z"/><path class="cls-2" d="M40.88,34.57A11.32,11.32,0,0,0,37,17.38"/><path class="cls-2" d="M36,13a12.39,12.39,0,0,1,1.67.57A15.08,15.08,0,0,1,41.88,39"/><path class="cls-2" d="M39.49,28.46a7.29,7.29,0,0,0,.06-.91,7.46,7.46,0,0,0-1.19-4.05"/><path class="cls-2" d="M37,17.38a11.32,11.32,0,0,1,3.92,17.19"/><path class="cls-2" d="M23.12,34.56A11.31,11.31,0,0,1,27,17.38"/><path class="cls-2" d="M25.65,23.5a7.46,7.46,0,0,0-1.19,4.05,7.29,7.29,0,0,0,.06.91"/><path class="cls-2" d="M39.49,28.46a7.29,7.29,0,0,0,.06-.91,7.46,7.46,0,0,0-1.19-4.05"/><path class="cls-2" d="M37,17.38a11.32,11.32,0,0,1,3.92,17.19"/><path class="cls-2" d="M22.11,38.95a15.08,15.08,0,0,1,4.26-25.38A12.39,12.39,0,0,1,28,13"/><path class="cls-2" d="M27,17.38a11.31,11.31,0,0,0-3.92,17.18"/><path class="cls-2" d="M34,52H25.74a1.22,1.22,0,0,1-1.18-1.53l3.52-13.35L30.82,26.7a1.22,1.22,0,0,1,2.35,0l2.74,10.42,3.52,13.35"/><circle class="cls-3" cx="36.71" cy="52.06" r="0.94"/></svg>