<svg id="Layer_1" data-name="Layer 1" xmlns="http://www.w3.org/2000/svg" viewBox="0 0 64 64"><defs><style>.cls-1{fill:#9ac8f1;}.cls-2{fill:#3897d3;}.cls-3{fill:none;stroke:#2a5080;stroke-linecap:round;stroke-linejoin:round;stroke-width:2px;}</style></defs><title>smartphone, phone, mobile, device</title><path class="cls-1" d="M37,26a59.22,59.22,0,0,1,.08,9.76,10,10,0,0,1-.56,3.86,6.23,6.23,0,0,1-4.35,3.26,17.65,17.65,0,0,1-5.61.13,3.4,3.4,0,0,1-2.23-.76A3.36,3.36,0,0,1,23.67,40,101.2,101.2,0,0,1,24,24.2c.4-4,5.42-3.76,8.49-3.59a4.94,4.94,0,0,1,2.47.62,4.74,4.74,0,0,1,1.72,2.94A17.92,17.92,0,0,1,37,26Z"/><path class="cls-2" d="M26.94,39.22c0,2.26-.9,3-1.72,3.18,0,.62-.39,1.1-.84,1.1s-.84-.52-.84-1.15V22.85a1.22,1.22,0,0,1,1.22-1.22h0a1.21,1.21,0,0,1,1.15.79C27,25.5,27,36,26.94,39.22Z"/><path class="cls-3" d="M32.51,16.34h5a5.22,5.22,0,0,1,5.21,5.21V43.37a5.23,5.23,0,0,1-5.21,5.21H26.46a5.22,5.22,0,0,1-5.21-5.21V22.66a8.19,8.19,0,0,1,.6-3.18,4.62,4.62,0,0,1,4.4-3.13"/><polyline class="cls-3" points="39.67 24.48 39.67 43.11 34.57 43.11"/><line class="cls-3" x1="29.43" y1="43.11" x2="24.44" y2="43.11"/><path class="cls-3" d="M29.43,43.11a2.57,2.57,0,1,0,5.14,0"/></svg>