<svg id="Layer_1" data-name="Layer 1" xmlns="http://www.w3.org/2000/svg" viewBox="0 0 64 64"><defs><style>.cls-1,.cls-5,.cls-6,.cls-8{fill:none;stroke-linecap:round;stroke-linejoin:round;stroke-width:2px;}.cls-1{stroke:#295183;}.cls-2{fill:#a8d2f0;}.cls-3{fill:#389ad6;}.cls-4{fill:#9dcbf4;}.cls-5{stroke:#2a5080;}.cls-6{stroke:#2a5081;}.cls-7{fill:#295183;}.cls-8{stroke:#9ac8f1;}.cls-9{fill:#9ac8f1;}</style></defs><title>space, travel, rocket, moon, astronaut</title><path class="cls-1" d="M22,35.23a21.46,21.46,0,0,1,5.72-1.94,22.22,22.22,0,0,1,9.42.2"/><path class="cls-1" d="M9.75,55.12A22.1,22.1,0,0,1,16,39.65"/><path class="cls-2" d="M37.18,26.21s3.7-.07,2.27,4c0,0-4.06,1.84-2.05,5.15l2.38,2a59.38,59.38,0,0,1,.72,14.59S37.15,53,36.84,50.11s-1-6.35-1-6.35l-3.15-1.48.24-5.65S31,27.58,37.18,26.21Z"/><path class="cls-3" d="M33.11,38S38.47,38,39,45.1s.4,7.82-1.78,6.48-.65-5-.65-5l-1.28-3.5-2.69-1Z"/><path class="cls-2" d="M31.71,43.13a1.6,1.6,0,0,1,1.45.59,2.87,2.87,0,0,1,.3,1.88q-.1,1.61-.11,3.23a12.12,12.12,0,0,0,.09,3.08c.22.76,1.13.37,1.67.32,1.39-.13.95,1.47.38,2.1a4,4,0,0,1-1.78,1.18,2.92,2.92,0,0,1-2.1-.13,3.42,3.42,0,0,1-1.5-1.61,12.46,12.46,0,0,1-1-6.3c.11-1.41.36-3.21,1.67-4A2,2,0,0,1,31.71,43.13Z"/><path class="cls-2" d="M46.69,43.13a1.6,1.6,0,0,1,1.45.59,2.87,2.87,0,0,1,.3,1.88q-.1,1.61-.11,3.23a12.12,12.12,0,0,0,.09,3.08c.22.76,1.13.37,1.67.32,1.39-.13.95,1.47.38,2.1a4,4,0,0,1-1.78,1.18,2.92,2.92,0,0,1-2.1-.13,3.42,3.42,0,0,1-1.5-1.61,12.46,12.46,0,0,1-1-6.3c.11-1.41.36-3.21,1.67-4A2,2,0,0,1,46.69,43.13Z"/><path class="cls-1" d="M36.54,51.18V45.89a3.63,3.63,0,0,0-3.61-3.61h-.24V32.72a7.82,7.82,0,0,1,15.63,0v9.56"/><path class="cls-3" d="M45,44.45c.13-.72,1.8-2,1.94-.67a12.9,12.9,0,0,1-.16,2.65c-.14,1.36-.42,2.75-.44,4.14a5.86,5.86,0,0,0,.21,1.92,6.11,6.11,0,0,0,1,1.55c.3.41.79,1.21,0,1.36C46.43,55.6,43.31,53.93,45,44.45Z"/><path class="cls-3" d="M29.93,44.45c.13-.72,1.8-2,1.94-.67a12.9,12.9,0,0,1-.16,2.65c-.14,1.36-.42,2.75-.44,4.14a5.86,5.86,0,0,0,.21,1.92,6.11,6.11,0,0,0,1,1.55c.3.41.79,1.21,0,1.36C31.32,55.6,28.2,53.93,29.93,44.45Z"/><path class="cls-1" d="M45.44,43.43a3.6,3.6,0,0,0-1,2.46v5.29a7.78,7.78,0,0,1-5,1"/><path class="cls-1" d="M48.32,42.28a3.63,3.63,0,0,1,3.38,3.6v6.5a3.61,3.61,0,0,1-7.23,0v-6.5"/><path class="cls-1" d="M36.54,45.89v6.5a3.61,3.61,0,0,1-7.23,0v-6.5a3.62,3.62,0,0,1,3.38-3.6h.24a3.63,3.63,0,0,1,3.61,3.61Z"/><path class="cls-1" d="M43.83,33.51a3.32,3.32,0,1,1-3.32-3.32"/><path class="cls-4" d="M32.76,18.21s-.64-3.27-4.35-1.12c0,0-2.64-8.26.32-8.6s4.57-.78,4.69,1.12S33.66,17.23,32.76,18.21Z"/><path class="cls-3" d="M35.35,10.59a4.21,4.21,0,0,1-.2,1.56,9.22,9.22,0,0,0,.26,5.17,1.33,1.33,0,0,1,.09,1c-.22.45-.88.45-1.33.22a3.28,3.28,0,0,1-1.43-1.86c-.89-2.44-.34-5.15.23-7.69,0-.12.07-.25.18-.3a.36.36,0,0,1,.23,0,3,3,0,0,1,1.71,1.22A1.58,1.58,0,0,1,35.35,10.59Z"/><path class="cls-5" d="M27.76,39.36V8h5.89a2.19,2.19,0,0,0,2.19,2.19h5.34a2.34,2.34,0,0,1,2.34,2.34v3.81a2.34,2.34,0,0,1-2.34,2.34H33.3v-.27a2.19,2.19,0,0,0-2.19-2.19H30.4"/><path class="cls-4" d="M15.66,28s3.31-1.17,3.26,7.82c0,0-.18,4.3-2.53,4.23Z"/><path class="cls-4" d="M19.37,13.93c-.48,0,.08,2.55.11,2.78a10.06,10.06,0,0,1-.1,2.15c-.2,1.83,0,3.68-.33,5.49-.27,1.3-1,2.81-2.53,2.66-3.44-.34.31-10,.8-9.82s0-3.26,0-3.26Z"/><path class="cls-6" d="M19.18,18h1.07a2.31,2.31,0,0,1,2.31,2.31v6a1.64,1.64,0,0,1-1.64,1.64h-4a1.64,1.64,0,0,1-1.64-1.64v-6"/><path class="cls-6" d="M19,13.3A2.34,2.34,0,0,0,19,18"/><line class="cls-6" x1="22.35" y1="19.35" x2="27.76" y2="23.79"/><line class="cls-6" x1="16.03" y1="39.65" x2="15.27" y2="26.31"/><line class="cls-6" x1="22.56" y1="26.25" x2="21.81" y2="39.09"/><path class="cls-6" d="M18.88,31.81v7.43a.33.33,0,0,0,.33.33h2.24a.33.33,0,0,0,.33-.33"/><path class="cls-1" d="M14.2,49.17a2.91,2.91,0,1,1,2.91,2.91"/><path class="cls-1" d="M25.82,46a1.46,1.46,0,1,1-2.66-1.18"/><circle class="cls-7" cx="24.03" cy="55.12" r="1"/><line class="cls-8" x1="51.7" y1="38.4" x2="51.7" y2="30.33"/><line class="cls-8" x1="48.32" y1="24.02" x2="48.32" y2="19.98"/><line class="cls-8" x1="32.64" y1="25.27" x2="32.64" y2="23.21"/><circle class="cls-9" cx="51.7" cy="26.81" r="1"/><circle class="cls-9" cx="48.32" cy="17.03" r="1"/><line class="cls-8" x1="52.03" y1="20" x2="52.03" y2="11.96"/><path class="cls-5" d="M15.27,20.21l-3,7.16-.1.13A10.34,10.34,0,0,1,23.37,10.25"/></svg>