<svg id="Layer_1" data-name="Layer 1" xmlns="http://www.w3.org/2000/svg" viewBox="0 0 64 64"><defs><style>.cls-1{fill:#3897d3;}.cls-2{fill:#9ac8f1;}.cls-3{fill:none;stroke:#2a5080;stroke-linecap:round;stroke-linejoin:round;stroke-width:2px;}.cls-4{fill:#2a5080;}</style></defs><title>sphynx, sphinx, egypt, world, monument</title><path class="cls-1" d="M25.38,41S37,42.17,36.5,41s-10.46-3.5-14-3.5"/><path class="cls-2" d="M34.56,23.17S37.69,21.8,37,27.49s-3.62,7.31-3.62,7.31-3.56,2.44-3,3.56-17.5,1.41-17.5,1.41,7.72-7.28,15.44-7,3.69-5,3.69-5A3.64,3.64,0,0,1,34.56,23.17Z"/><path class="cls-3" d="M40.17,40.49H35.76a2.58,2.58,0,0,0-2.43-1.72h-2.5"/><path class="cls-3" d="M33.9,27.51H30.84l.17-.43c1.64-5.24,1.94-4.57,9-4.57,1.07,0,1.25,1.25,1.25,1.25l1,3.75c.59,1.88-.35,1.88-.35,1.88H40v3.13c3.14,0,4.1,5.94,4.1,5.94h5.81a2,2,0,0,1,1.83,1.15l.42.88"/><path class="cls-3" d="M22.46,38.12a2.46,2.46,0,0,1,1,.06c.77.23,1,1.19,1.37,1.84l.14.47H11.83l1.93-5.24c1.39-2.7,3.34-2.73,3.34-2.73h16L32.46,30"/><circle class="cls-4" cx="28.03" cy="38.77" r="1"/></svg>