<svg id="Layer_1" data-name="Layer 1" xmlns="http://www.w3.org/2000/svg" viewBox="0 0 64 64"><defs><style>.cls-1{fill:#3897d3;}.cls-2{fill:#a8d2f0;}.cls-3{fill:none;stroke:#295181;stroke-linecap:round;stroke-linejoin:round;stroke-width:2px;}</style></defs><title>steak, meat, meal, food</title><path class="cls-1" d="M20.53,37.78S21.25,40.17,35,39.5s10.76,7.19-1,7-20.89,1.36-20-13.9C14,32.59,18.17,37.92,20.53,37.78Z"/><path class="cls-1" d="M18.71,23.83C19,23.62,16.27,36,31.63,35.17l-2.88.63s-8,3.81-11,.93S12.63,28.17,18.71,23.83Z"/><path class="cls-2" d="M24.58,21s2.67,2.45,1.49,4.14-5.75-1.08-5.53,3.12,12.85,4.2,17,4.2S43,35,42,35.75s-19.19,1.9-21.5-.31S14.18,27.56,18,23.69,24.58,21,24.58,21Z"/><path class="cls-3" d="M24.33,39.5A11,11,0,1,1,32.4,21"/><path class="cls-3" d="M44.92,39.5a5.75,5.75,0,0,0,0-11.5"/><line class="cls-3" x1="44.92" y1="39.5" x2="24.33" y2="39.5"/><path class="cls-3" d="M24.33,46.5a11,11,0,0,1-11-11"/><line class="cls-3" x1="44.92" y1="46.5" x2="24.33" y2="46.5"/><path class="cls-3" d="M44.92,28h0a13.31,13.31,0,0,1-9.37-3.86L32.4,21"/><path class="cls-3" d="M24,36a7.48,7.48,0,1,1,5.49-12.56"/><line class="cls-3" x1="38.01" y1="35.98" x2="24.01" y2="35.98"/><line class="cls-3" x1="31.63" y1="25.53" x2="29.49" y2="23.41"/><path class="cls-3" d="M26.06,28.3a2.77,2.77,0,1,1-2.77-2.77"/><path class="cls-3" d="M50.5,35.12v6.53a2.87,2.87,0,0,1-.13.9,5.75,5.75,0,0,1-5.45,4"/><line class="cls-3" x1="13.33" y1="35.5" x2="13.33" y2="28.5"/></svg>