<svg id="Layer_1" data-name="Layer 1" xmlns="http://www.w3.org/2000/svg" viewBox="0 0 64 64"><defs><style>.cls-1{fill:#a5cfed;}.cls-2{fill:#3897d3;}.cls-3{fill:none;stroke:#295181;stroke-linecap:round;stroke-linejoin:round;stroke-width:2px;}.cls-4{fill:#295181;}</style></defs><title>strawberry, fruit, organic, food</title><path class="cls-1" d="M28.57,17.81a5.33,5.33,0,0,1,3.36,6.33c-1.11,4.75-3.89,12,.14,19.38s-4.93,3.24-4.93,3.24-4.8-10.86-5.92-13.24-5.6-9.68,0-13.28S28.57,17.81,28.57,17.81Z"/><path class="cls-2" d="M31.25,26.72a1.25,1.25,0,0,1-1.92.79l-2.74-1.82a1.21,1.21,0,0,0-1.06-.15c-1,.32-1.51.58-1.85,1.61a6.46,6.46,0,0,0-.3,1.87,17.33,17.33,0,0,0,1.81,7.2c3.59,8.12,6.91,7.3,4.91,11.52S23,39.17,23,38.64s-4.39-8-4-11.2a1,1,0,0,1-.52-.17c-.62-.42-1.25-1.53.61-4.35.21-.32.42-.62.62-.89a1.27,1.27,0,0,1,2.3.56c0,.41.29.62,1,.37,2.38-.85,5.51-2.59,7.47,1A4.71,4.71,0,0,1,31.25,26.72Z"/><path class="cls-3" d="M18,25.77a10,10,0,0,1,6.22-7.36,10.45,10.45,0,0,1,3.68-.67h8.22a10.45,10.45,0,0,1,3.68.67A10,10,0,0,1,46.09,26l-1.62-.43a9.56,9.56,0,0,1-.25,4.68L38.8,43.81a7,7,0,0,1-13.46,0L19.91,30.25"/><path class="cls-3" d="M18,25.77l8.32-4.13a2.08,2.08,0,0,1,2.48.48l3.33,3.74,3.13-3.48a2.08,2.08,0,0,1,2.46-.48l3,1.49"/><polyline class="cls-3" points="29.66 17.81 34.43 17.81 39.01 13.23 32.06 15.21 25.12 13.27"/><circle class="cls-4" cx="19.09" cy="28.02" r="1"/><line class="cls-3" x1="27.75" y1="29.52" x2="27.75" y2="30.08"/><line class="cls-3" x1="23.02" y1="29.54" x2="23.24" y2="30.06"/><line class="cls-3" x1="32.09" y1="29.52" x2="32.09" y2="30.08"/><line class="cls-3" x1="36.44" y1="29.52" x2="36.44" y2="30.08"/><line class="cls-3" x1="25.75" y1="25.77" x2="25.75" y2="26.33"/><line class="cls-3" x1="37.44" y1="25.77" x2="37.44" y2="26.33"/><line class="cls-3" x1="29.75" y1="33.27" x2="29.75" y2="33.83"/><line class="cls-3" x1="34.09" y1="33.27" x2="34.09" y2="33.83"/><line class="cls-3" x1="29.75" y1="41.77" x2="29.75" y2="42.33"/><line class="cls-3" x1="34.09" y1="41.77" x2="34.09" y2="42.33"/><line class="cls-3" x1="38.44" y1="33.27" x2="38.44" y2="33.83"/><line class="cls-3" x1="25.41" y1="33.27" x2="25.41" y2="33.83"/><line class="cls-3" x1="27.58" y1="37.52" x2="27.58" y2="38.08"/><line class="cls-3" x1="31.92" y1="37.52" x2="31.92" y2="38.08"/><line class="cls-3" x1="36.27" y1="37.52" x2="36.27" y2="38.08"/><line class="cls-3" x1="40.9" y1="29.55" x2="40.66" y2="30.06"/></svg>