<svg id="Layer_1" data-name="Layer 1" xmlns="http://www.w3.org/2000/svg" viewBox="0 0 64 64"><defs><style>.cls-1{fill:#a5cfed;}.cls-2{fill:#3897d3;}.cls-3{fill:none;stroke:#2a5080;stroke-linecap:round;stroke-linejoin:round;stroke-width:2px;}.cls-4{fill:#2a5080;}</style></defs><title>teddy, bear, toy, love, romance</title><path class="cls-1" d="M29.94,14.36c-.17.71-1,.71-1.26,1.34A4,4,0,0,0,29,19c2,3.17,2.65,6.38,1.65,8.65-.4.91-.62,1.09-.75,1A2.27,2.27,0,0,0,27.63,28a2,2,0,0,0-1.46,2.29c.33,2.83-4.47,9-6.82-3.94-.69-3.78-.06-7.71,2.77-10.48C24,14,25.55,13.74,28,13.14c.76-.18,2.09.14,1.93,1.15Z"/><path class="cls-2" d="M31.21,30.67a2,2,0,0,0,3.56,1,6.3,6.3,0,0,1-4.33,5,6,6,0,0,1-3.76-.15,4.12,4.12,0,0,1-2.38-1.75c-.82-1.41-.81-4,1-4.63.71-.26,1.8-.1,2,.74a2,2,0,0,0,1.93,1.58,2,2,0,0,0,2-1.75"/><path class="cls-3" d="M26.67,30a2.41,2.41,0,0,0,4.81.27c0-.09,0-.18,0-.27"/><path class="cls-1" d="M41.62,44.41c.8-1,1.81-2.28.45-2.36-2-.12-7.06.47-5.06,8,0,0-1.07,2.11,3.12,3.77s1.37-.22,1.37-.22c.69-.27,2.21-.93,2.13-1.85-.06-.7-1.29-1.22-1.72-1.7a4.65,4.65,0,0,1-1-4.69A5.47,5.47,0,0,1,41.62,44.41Z"/><path class="cls-1" d="M22.27,44.41c.8-1,1.81-2.28.45-2.36-2-.12-7.06.47-5.06,8,0,0-1.07,2.11,3.12,3.77s1.37-.22,1.37-.22c.69-.27,2.21-.93,2.13-1.85-.06-.7-1.29-1.22-1.72-1.7a4.65,4.65,0,0,1-1-4.69A5.47,5.47,0,0,1,22.27,44.41Z"/><path class="cls-3" d="M36.23,50.08a10.17,10.17,0,0,1-2.33.54,12.17,12.17,0,0,1-1.52.09H30.6a10.56,10.56,0,0,1-3.15-.42"/><path class="cls-3" d="M46.53,45a5.21,5.21,0,0,0,3.92-1.53,5.28,5.28,0,0,0,0-7.45l-6.81-6.81c-.08.23-.17.45-.26.67"/><path class="cls-3" d="M13.74,44.32A5.27,5.27,0,0,1,12.54,36l6.81-6.82"/><path class="cls-3" d="M36.23,50.08V46.52a5.28,5.28,0,0,1,4.64-5.23,4.44,4.44,0,0,1,.63,0,5.2,5.2,0,0,1,2.45.61,5.11,5.11,0,0,1,1.27.94A5.23,5.23,0,0,1,46.53,45a5.06,5.06,0,0,1,.24,1.57v2.24A5.28,5.28,0,0,1,41.5,54a5.23,5.23,0,0,1-2.74-.77"/><path class="cls-3" d="M24.75,53.36a5.22,5.22,0,0,1-2.57.67,5.28,5.28,0,0,1-5.27-5.27V46.52a5,5,0,0,1,.27-1.64,5.28,5.28,0,0,1,5-3.63h0a5.29,5.29,0,0,1,5.27,5.27v3.77"/><path class="cls-2" d="M20.75,32.83c-1.29.58-2.78,1.29-3.34,2.69-.48,1.21.17,3.34,1.52,3.73a1.35,1.35,0,0,0,.75-.05,7.8,7.8,0,0,1,3.91-.59,5.93,5.93,0,0,1,3.15,1.74,9.63,9.63,0,0,1,1.17,1.42A2.75,2.75,0,0,0,29.05,43a2.54,2.54,0,0,0,1.67,0c2.22-.66,4.3-1.41,5.51-3.56.94-1.67-1-1.83-1-1.83l-3.76.63Z"/><path class="cls-3" d="M31.49,30c0,.09,0,.18,0,.27a2.43,2.43,0,0,0,2.41,2.14,2.38,2.38,0,0,0,1.94-1A2.35,2.35,0,0,0,36.32,30"/><path class="cls-2" d="M27.4,15.65l0,0a1.54,1.54,0,0,1-.36,1.45c-.73,1-1.72,1.84-2.52,2.81a9,9,0,0,0-2.13,5.53c0,.87.11,1.75.07,2.62a1.53,1.53,0,0,1-.64,1.37,1.45,1.45,0,0,1-1.34-.21,2.71,2.71,0,0,1-1.09-1.1,3.81,3.81,0,0,1-.23-1.76l.16-6a1,1,0,0,1,.28-.75l2-2.55,1-1.3c.3-.38.48-.79,1-.77,1,0,2.18-.38,3.17.11A1.21,1.21,0,0,1,27.4,15.65Z"/><path class="cls-4" d="M33.69,28.05a2.2,2.2,0,0,1-2.19,2.2h0a2.2,2.2,0,1,1,2.21-2.2Z"/><path class="cls-3" d="M36,12.78a5,5,0,1,1,6.88,6"/><path class="cls-3" d="M19.35,29.15a12.89,12.89,0,0,1,.76-10.34,12.89,12.89,0,0,1,15.88-6"/><path class="cls-3" d="M39.67,14.9a12.89,12.89,0,0,1,4,14.26c-.08.23-.17.45-.26.67a12.88,12.88,0,0,1-22.2,2.74q-.23-.3-.43-.62"/><path class="cls-3" d="M17.82,16.23a5,5,0,0,1,7.68-5.88"/></svg>