<svg id="Layer_1" data-name="Layer 1" xmlns="http://www.w3.org/2000/svg" viewBox="0 0 64 64"><defs><style>.cls-1{fill:#9dcbf4;}.cls-2{fill:none;stroke:#2a5082;stroke-linecap:round;stroke-linejoin:round;stroke-width:2px;}.cls-3{fill:#2a5082;}</style></defs><title>timer, stopwatch, time, clock</title><path class="cls-1" d="M30.11,17.39c2.54.29,1.91,2.68,1.18,4.37-1.09,2.51-3.47,4.73-3.76,7.56-.31,3,.85,6,1.71,8.9l2.59,8.67c.41,1.38,1.81,4.51-.9,4.24C25.76,50.63,20.52,49,17,45A15.8,15.8,0,0,1,13.2,33.45a17.1,17.1,0,0,1,5.49-11.1C21.43,19.79,26.18,16.94,30.11,17.39Z"/><circle class="cls-2" cx="31.22" cy="34.52" r="17.63"/><path class="cls-2" d="M31.22,20.52a14,14,0,0,1,3.6,27.53"/><path class="cls-2" d="M19.46,27a14,14,0,0,0,.76,16"/><circle class="cls-2" cx="31.22" cy="34.52" r="3.38"/><line class="cls-2" x1="31" y1="38" x2="31" y2="48"/><polyline class="cls-2" points="31 17 31 13 24 13"/><line class="cls-2" x1="21.22" y1="19.99" x2="19.22" y2="16.89"/><line class="cls-2" x1="41.22" y1="19.99" x2="43.22" y2="16.89"/><circle class="cls-3" cx="35.6" cy="12.85" r="1"/></svg>