<svg id="Layer_1" data-name="Layer 1" xmlns="http://www.w3.org/2000/svg" viewBox="0 0 64 64"><defs><style>.cls-1{fill:#389ad6;}.cls-2{fill:#a8d2f0;}.cls-3{fill:none;stroke:#295183;stroke-linecap:round;stroke-linejoin:round;stroke-width:2px;}.cls-4{fill:#295183;}</style></defs><title>toilet, bathroom, restroom, wc</title><path class="cls-1" d="M39.72,41.67c-1.64,1.87-4,3.47-6.58,1.63-4.8-3.42-1.45-8.25-1.45-8.25l.1-.13H23c.75,4.5,5,7.73,5,7.73l-1.25,8.81h7.67c.58-6.25,4.83-2.25,4.67-6.25A8.27,8.27,0,0,1,39.72,41.67Z"/><path class="cls-2" d="M33.67,32.41c.22-1.8-.4-3.66-.54-5.46A25.69,25.69,0,0,1,33.36,21c.17-1.06,1.06-2.09.35-3.11-.41-.6-1.38-.79-1.36-1.67.08-4-5.67-4.5-5.67-4.5-8.5,0-3.75,16.5-3.83,21.75A8.1,8.1,0,0,0,23,34.93h8.81C32.46,34.07,33.53,33.59,33.67,32.41Z"/><path class="cls-2" d="M39.72,41.67A17.29,17.29,0,0,0,42,38.22,11.36,11.36,0,0,0,39.72,41.67Z"/><polyline class="cls-3" points="38.6 42.82 40.2 52.28 26.34 52.28 26.9 49.13"/><path class="cls-1" d="M30.27,16.79a6.57,6.57,0,0,0-6,6.06c-.5,5.67-.58,10.5,1.17,10.75s.9-12.21.9-12.21Z"/><path class="cls-3" d="M26.34,34.35V24A7.11,7.11,0,0,1,32,16.9a7,7,0,0,1,8.17,6.82"/><path class="cls-3" d="M33.3,44.35a10,10,0,0,1-10-10h20a10,10,0,0,1-4.7,8.47"/><path class="cls-3" d="M21.89,28.91V15.06a2.7,2.7,0,0,1,2.69-2.69H41.71A2.68,2.68,0,0,1,44.39,15V28.91A2.7,2.7,0,0,1,41.7,31.6h0a1.5,1.5,0,0,1-1.5-1.5V23.72A7,7,0,0,0,32,16.9,7.11,7.11,0,0,0,26.34,24V31.6"/><circle class="cls-4" cx="27.3" cy="46.35" r="1"/></svg>