<svg id="Layer_1" data-name="Layer 1" xmlns="http://www.w3.org/2000/svg" viewBox="0 0 64 64"><defs><style>.cls-1{fill:#a8d2f0;}.cls-2{fill:#389ad6;}.cls-3{fill:none;stroke:#295183;stroke-linecap:round;stroke-linejoin:round;stroke-width:2px;}.cls-4{fill:#295183;}</style></defs><title>toilet, paper, bathroom, restroom, wc</title><path class="cls-1" d="M29.41,26.34s6.62-1,6.23,6.68c-.11,2.13-.66,4.7.34,6.7a2.12,2.12,0,0,0,1.16,1.09c.49.16,1.34,0,1.66.53.43.66-.26,1.25-.75,1.6a6.79,6.79,0,0,1-3.95,1.39c-1.2-.17-2.24-12.42-2.24-12.42Z"/><path class="cls-2" d="M33.62,44.38c-1,.73-3.18,1.56-4.1-5.51a1.31,1.31,0,0,1,0-.18l.05-5.37a1.18,1.18,0,0,0-.56-1l-1.47-.89a1.17,1.17,0,0,0-1.79,1c0,1,0,2.45,0,4.32v0c.22,4.77-.26,9.45-1.62,9.58-2.34.22-6.5-4.92-4.81-22A1.17,1.17,0,0,1,21.55,24c.08.18.16.36.24.54a1.16,1.16,0,0,0,1.37.61c1.9-.55,4.55,1.25,4.69,1.34h0l.25.11s6.24-2.27,6,16.87A1.19,1.19,0,0,1,33.62,44.38Z"/><path class="cls-2" d="M30.1,17s3,1.43,1.76,4.09,4.88.41,4.67-1.59S33,15.34,30.1,17Z"/><path class="cls-3" d="M42.44,15.14c-2.19-2.09-6.11-3.48-10.58-3.48C25,11.67,19.43,15,19.43,19m17.1,0c0,1.52-2.09,2.75-4.67,2.75S27.2,20.53,27.2,19s2.09-2.75,4.66-2.75"/><path class="cls-3" d="M30.1,44.94V33a23.2,23.2,0,0,1-6.95-6.58,1,1,0,0,1,1.29-1.53,18.66,18.66,0,0,0,7.42,1.45c5.53,0,10.22-2.13,11.84-5.07a.32.32,0,0,1,.6.15V37.67c0,3.6-4.4,6.6-10.2,7.22"/><path class="cls-3" d="M36.53,19c0,1.52-2.09,2.75-4.67,2.75S27.2,20.53,27.2,19s2.09-2.75,4.66-2.75"/><path class="cls-3" d="M19.43,19V35.53A11.36,11.36,0,0,0,20,40a23.19,23.19,0,0,0,8.52,11.21l1.54,1.08V33"/><circle class="cls-4" cx="44.1" cy="18" r="1"/><circle class="cls-4" cx="34.64" cy="17" r="1"/></svg>