<svg id="Layer_1" data-name="Layer 1" xmlns="http://www.w3.org/2000/svg" viewBox="0 0 64 64"><defs><style>.cls-1{fill:#a5cfed;}.cls-2{fill:#3897d3;}.cls-3,.cls-6{fill:none;stroke-linecap:round;stroke-linejoin:round;stroke-width:2px;}.cls-3{stroke:#295181;}.cls-4{fill:#295181;}.cls-5{fill:#9ac8f1;}.cls-6{stroke:#2a5081;}.cls-7{fill:#2a5081;}</style></defs><title>touch, hand, gesture, move, arrow</title><path class="cls-1" d="M35.91,25.82s-2.62,16.75,1.51,18.13,5.75,3.13,5.94,5.25-9.63.38-11.69-3.5-5.5-4.75-4.31-6.19,3.69-2.31,5.47-.62.37-8.81.27-9S33.9,25.26,35.91,25.82Z"/><path class="cls-2" d="M34.82,25.27s-6,1.66-6,7.85C28.19,33,21.7,36.17,23,42s8.13,5.66,8.8,5.44-5.62-5.21-3.93-8.34,4.38-.44,4.38-.44Z"/><path class="cls-3" d="M41.08,49.64H44a2.32,2.32,0,0,0,2.32-2.32V38.66a5.83,5.83,0,0,0-5.81-5.81H39.19a5.34,5.34,0,0,0-.65,0V28.66a2.58,2.58,0,0,0-2.46-2.58,2.69,2.69,0,0,0-2.71,2.72V39.74"/><path class="cls-3" d="M33.38,40.12l-1.67-1.67a2.59,2.59,0,0,0-3.56-.09,2.68,2.68,0,0,0,0,3.84l5.23,5.23"/><circle class="cls-4" cx="37.82" cy="49.64" r="1"/><path class="cls-5" d="M36.47,23.43l-.16,0,.08,0Z"/><polyline class="cls-6" points="25.6 18.36 25.6 13.37 27.94 15.71"/><circle class="cls-7" cx="22.91" cy="15.49" r="1"/><polyline class="cls-6" points="22.28 21.55 17.28 21.55 19.63 19.21"/><circle class="cls-7" cx="19.41" cy="24.24" r="1"/><polyline class="cls-6" points="25.47 24.86 25.47 29.86 23.13 27.52"/><circle class="cls-7" cx="28.16" cy="27.74" r="1"/><polyline class="cls-6" points="28.78 21.68 33.78 21.68 31.44 24.02"/><circle class="cls-7" cx="31.66" cy="18.99" r="1"/></svg>