<svg id="Layer_1" data-name="Layer 1" xmlns="http://www.w3.org/2000/svg" viewBox="0 0 64 64"><defs><style>.cls-1{fill:#9dcbf4;}.cls-2,.cls-6{fill:none;stroke-linecap:round;stroke-linejoin:round;stroke-width:2px;}.cls-2{stroke:#295183;}.cls-3{fill:#389ad6;}.cls-4{fill:#fff;}.cls-5{fill:#a8d2f0;}.cls-6{stroke:#a8d2f0;}</style></defs><title>track, dollar, truck, delivery, transport</title><path class="cls-1" d="M47.12,21.39v.22a6.54,6.54,0,0,1-4.46,6.08c-2.69.9-5.84-.67-7.24-3.11a10.06,10.06,0,0,1-1.06-3.32c0-.07-.14,0-.21,0a6.66,6.66,0,0,1,.32-1.79,6.51,6.51,0,0,1,2.33-3.19l.1-.07A6.45,6.45,0,0,1,40.5,15h.13A6.52,6.52,0,0,1,47.12,21.39Z"/><path class="cls-2" d="M34.93,21.26a7.61,7.61,0,0,1,15.22,0"/><path class="cls-2" d="M50.14,21.26a7.61,7.61,0,0,1-7.61,7.61"/><path class="cls-2" d="M42.54,21.26a1.64,1.64,0,1,1,1.64-1.64"/><path class="cls-2" d="M42.54,24.54a1.64,1.64,0,0,1-1.64-1.64"/><path class="cls-2" d="M42.54,21.26a1.64,1.64,0,1,1,0,3.28"/><line class="cls-2" x1="42.54" y1="17.97" x2="42.54" y2="16.52"/><line class="cls-2" x1="42.54" y1="25.99" x2="42.54" y2="24.54"/><path class="cls-3" d="M29.19,50.58l-9.36-.4a1.49,1.49,0,0,1-1.24-.81l-2-4.1a1.47,1.47,0,0,1-.14-.8l1.21-8.86a7.56,7.56,0,0,0,5.86,4l3.28-.83,2.29-1c-1.42.87-2.81,2.2-2.68,4a3.42,3.42,0,0,0,.33,1.28.52.52,0,0,0,.06.16,5.39,5.39,0,0,0,.2.51,13.57,13.57,0,0,0,3.27,4.36A1.44,1.44,0,0,1,29.19,50.58Z"/><path class="cls-3" d="M31.92,36.46l-2.85,1.32A13.45,13.45,0,0,1,31.92,36.46Z"/><polygon class="cls-4" points="38.88 33.15 48.97 33.15 53.39 48.41 49.39 51.33 40.05 51.33 38.88 33.15"/><path class="cls-3" d="M26.72,43.07a3.42,3.42,0,0,1-.33-1.28A8.57,8.57,0,0,0,26.72,43.07Z"/><path class="cls-2" d="M47.55,54a2.63,2.63,0,0,1-5.25,0"/><path class="cls-2" d="M27.48,54a2.63,2.63,0,0,1-5.25,0"/><path class="cls-5" d="M43.93,36.11a32.47,32.47,0,0,0,3.69,11.62,2,2,0,0,1-1.71,2.94h-4a3.14,3.14,0,0,1-3.14-3.16l.07-14.36h1.67A3.42,3.42,0,0,1,43.93,36.11Z"/><path class="cls-2" d="M36.79,31a5.6,5.6,0,0,1,2.08,4.35V47.11"/><path class="cls-2" d="M41.94,33.15l5.12,0a2.81,2.81,0,0,1,2.7,2.1L53,47.52a3.16,3.16,0,0,1-3.15,3.15H22.58a5.62,5.62,0,0,1-5.6-5.6V36.34"/><polyline class="cls-2" points="41.94 37.16 41.94 42.12 47.18 42.12"/><line class="cls-2" x1="44.97" y1="56.58" x2="17.97" y2="56.58"/><line class="cls-2" x1="18.97" y1="53.16" x2="12.13" y2="53.16"/><path class="cls-5" d="M23.49,22.21a15.77,15.77,0,0,0-.2-2.33c-.31-2.33-1.5-4.81-4.21-3.42-4.69,2.41-11.43,13.78,1,9.87a4.65,4.65,0,0,0,3.16-2.72A4.58,4.58,0,0,0,23.49,22.21Z"/><path class="cls-3" d="M24.17,23.57a22,22,0,0,0-1.6-6.4C22.34,16.62,22,16,21.31,16a5,5,0,0,0-2.22.8c-1.22.71-.07,2.34.4,3.16s.92,1.49,1.42,2.22a16.29,16.29,0,0,0,1.32,2c.67.72,2.09,1.11,2-.34Z"/><path class="cls-3" d="M18.8,29.32a15.88,15.88,0,0,0-4.56,1.35c-.39.18-.83.47-.81.95a3.61,3.61,0,0,0,.65,1.57c.55.85,1.69,0,2.26-.38s1-.71,1.55-1.09a11.75,11.75,0,0,0,1.38-1c.5-.5.73-1.54-.31-1.41Z"/><path class="cls-3" d="M25.15,30.17a6.79,6.79,0,0,0,.5,1.95c.07.17.18.36.38.35a1.5,1.5,0,0,0,.66-.26c.36-.22,0-.72-.13-1s-.28-.45-.43-.67a4.91,4.91,0,0,0-.4-.6c-.2-.22-.63-.33-.59.12Z"/><path class="cls-2" d="M19.39,34.37a8.89,8.89,0,1,0,7.38-15.86,9,9,0,0,0-1.15-.22l-.3,0"/><path class="cls-2" d="M23,18.34a8.89,8.89,0,0,0-5.49,14.22"/><path class="cls-2" d="M29.89,28.52a5.57,5.57,0,0,0-3.61-6.7l-.36-.11"/><path class="cls-2" d="M23.08,32.49a5.56,5.56,0,0,0,4.62-.82"/><path class="cls-2" d="M22,32.06a5.59,5.59,0,0,0,1.11.42"/><path class="cls-2" d="M23.57,21.61a5.57,5.57,0,0,0-3.44,9"/><circle class="cls-2" cx="24.5" cy="27.1" r="2.43" transform="translate(-7.96 43.87) rotate(-75.21)"/><path class="cls-2" d="M16.95,36.36a11.94,11.94,0,1,0,8.21-21.19"/><path class="cls-2" d="M22.45,15.33a11.95,11.95,0,0,0-7.39,19.09"/><polyline class="cls-2" points="24.12 24.7 23.57 21.61 22.99 18.35 22.45 15.33 21.96 12.6 23.47 9.93"/><polyline class="cls-2" points="17.49 32.57 12.94 36.02 12.7 38.65"/><line class="cls-2" x1="20.13" y1="30.56" x2="17.49" y2="32.57"/><line class="cls-2" x1="25.86" y1="29.12" x2="27.69" y2="31.66"/><line class="cls-6" x1="33.2" y1="10.63" x2="35.35" y2="13.23"/><line class="cls-6" x1="51.81" y1="10.72" x2="50.14" y2="13.51"/><line class="cls-6" x1="42.54" y1="7.42" x2="42.54" y2="10.63"/><polyline class="cls-2" points="18.78 49.18 22.14 45.81 23.97 47.65 28.93 42.69 31.38 45.13 34.51 42"/></svg>