<svg id="Layer_1" data-name="Layer 1" xmlns="http://www.w3.org/2000/svg" viewBox="0 0 64 64"><defs><style>.cls-1{fill:#389ad6;}.cls-2,.cls-5,.cls-6{fill:none;}.cls-2{stroke:#295183;}.cls-2,.cls-6{stroke-linecap:round;stroke-linejoin:round;stroke-width:2px;}.cls-3{fill:#a8d2f0;}.cls-4{fill:#295183;}.cls-6{stroke:#a8d2f0;}</style></defs><title>truck, transportation, transport, options, preferences, settings</title><path class="cls-1" d="M27,44.48l-8.85-.38-.51,0a1.49,1.49,0,0,1-1.24-.81L16,42.38l-1-2.07-.56-1.14a1.49,1.49,0,0,1-.15-.8l.54-5L15.59,26a1.45,1.45,0,0,1,.32-.76,1.42,1.42,0,0,1,.9-.51l.1,0,2.25-.2h.2l.66-.06.35,0a3.31,3.31,0,0,1,2.29.66,3.49,3.49,0,0,1,1.08,1.35A3.57,3.57,0,0,1,24,27.94v0c0,.24,0,.5,0,.76,0,.81,0,1.69,0,2.61,0,.17,0,.34,0,.51s0,.13,0,.19A22,22,0,0,0,24.47,35h-.76s.59.2,1.27,1.85c0,0,0,0,0,0A12.57,12.57,0,0,0,28.08,42,1.44,1.44,0,0,1,27,44.48Z"/><path class="cls-2" d="M45.29,48.05a2.63,2.63,0,1,1-5.25,0"/><path class="cls-2" d="M25.21,48.05a2.63,2.63,0,1,1-5.25,0"/><path class="cls-3" d="M42.25,30a33.34,33.34,0,0,0,3.84,12.1A2,2,0,0,1,44.39,45H40.14A3.14,3.14,0,0,1,37,41.84L37.07,27h1.8A3.41,3.41,0,0,1,42.25,30Z"/><path class="cls-2" d="M34.11,24.54A5.62,5.62,0,0,1,37,29.44V41"/><path class="cls-2" d="M41,27l5,0a2.81,2.81,0,0,1,2.7,2.1L52,41.76A3.25,3.25,0,0,1,48.75,45H20.6A5.62,5.62,0,0,1,15,39.4V29"/><polyline class="cls-2" points="41 31 41 36 45 36"/><path class="cls-1" d="M16.72,25.31s-.49-6.44,6.76-4.56l-4.93,5.38Z"/><path class="cls-3" d="M23,21.91c1.44.27,1.08,1.28.84,2.36a8.23,8.23,0,0,0,.09,3.85,5.86,5.86,0,0,0,.44,1.37c.21.38.79.74.84,1.19a.69.69,0,0,1-.35.62,2.39,2.39,0,0,1-1.27.29A4,4,0,0,1,22,31.21s-3.47-2-3.61-3.83c-.11-1.49,1.17-3.22,2.14-4.23a3.79,3.79,0,0,1,2-1.27A1.53,1.53,0,0,1,23,21.91Z"/><circle class="cls-2" cx="24.18" cy="26.76" r="5.51"/><circle class="cls-2" cx="24.18" cy="26.76" r="2.21"/><rect class="cls-4" x="23" y="18" width="2" height="3" rx="0.65" ry="0.65"/><rect class="cls-4" x="18.1" y="20.33" width="2.43" height="3.13" rx="0.65" ry="0.65" transform="translate(-9.83 20.07) rotate(-45)"/><rect class="cls-4" x="16.5" y="25.5" width="2" height="3" rx="0.65" ry="0.65" transform="translate(-9.5 44.5) rotate(-90)"/><rect class="cls-4" x="18.1" y="30.05" width="2.43" height="3.13" rx="0.65" ry="0.65" transform="translate(10.62 67.64) rotate(-135)"/><path class="cls-4" d="M25,32.72v1.83c.39.36.1.65-.26.45H23.61c-.36.2-.65-.09-.61-.45V32.72a.53.53,0,0,1,.24-.53,2,2,0,0,1,.37-.19h1.13a2,2,0,0,1,.37.19C25.28,32.31,25.39,32.5,25,32.72Z"/><rect class="cls-4" x="27.82" y="30.05" width="2.43" height="3.13" rx="0.65" ry="0.65" transform="translate(71.93 33.45) rotate(135)"/><rect class="cls-4" x="30.5" y="25.5" width="2" height="3" rx="0.65" ry="0.65" transform="translate(58.5 -4.5) rotate(90)"/><rect class="cls-4" x="27.82" y="20.33" width="2.43" height="3.13" rx="0.65" ry="0.65" transform="translate(23.99 -14.12) rotate(45)"/><path class="cls-2" d="M17.63,25.84a4.18,4.18,0,1,1,2.76-7.32"/><rect class="cls-4" x="17" y="15" width="2" height="2" rx="0.49" ry="0.49"/><rect class="cls-4" x="13.07" y="16.83" width="1.83" height="2.35" rx="0.49" ry="0.49" transform="translate(-8.64 15.16) rotate(-45)"/><rect class="cls-4" x="11" y="21" width="2" height="2" rx="0.49" ry="0.49" transform="translate(-10 34) rotate(-90)"/><rect class="cls-4" x="13.07" y="24.13" width="1.83" height="2.35" rx="0.49" ry="0.49" transform="translate(5.97 53.09) rotate(-135)"/><path class="cls-5" d="M24.9,37.1s0,0,0,0c-.68-1.65-1.27-1.85-1.27-1.85"/><path class="cls-6" d="M32.14,17.95s-3.55-4.12-8.78-2.82"/></svg>