<svg id="Layer_1" data-name="Layer 1" xmlns="http://www.w3.org/2000/svg" viewBox="0 0 64 64"><defs><style>.cls-1{fill:#9dcbf4;}.cls-2{fill:#389ad6;}.cls-3{fill:none;stroke:#2a5081;stroke-linecap:round;stroke-linejoin:round;stroke-width:2px;}.cls-4{fill:#2a5081;}</style></defs><title>twitter, social, media, network</title><path class="cls-1" d="M43.65,50c-.77,0-4.23.47-8.4.9-6.32.65-14.27,1.23-17.06,0a9.37,9.37,0,0,0-1.26-.46c-.67-.21-1.25-.33-1.75-.5A2.64,2.64,0,0,1,13.3,48s0,0,0,0a23.15,23.15,0,0,1-.65-6.57c0-.29,0-.59,0-.9,0-.49,0-1,0-1.57,0-.15,0-.31,0-.48,0-1.42.06-3,.11-4.83.12-3.89,0-7.13-.12-9.82-.31-7-.62-10.23,3.38-11.11l.09,0c.21-.05.42-.08.65-.12h.17a25.53,25.53,0,0,1,4.75,0c1,.07,2,.16,3.23.29a54.35,54.35,0,0,0,.83,14.34,11.88,11.88,0,0,1-3.44-2.33A12.94,12.94,0,0,0,27,32.05a34.74,34.74,0,0,0,1.59,4.13,15.91,15.91,0,0,1-6.82,4.56l1.17.27a30.63,30.63,0,0,0,8.49.1l.06.09q.33.45.69.9A23.26,23.26,0,0,0,43.65,50Z"/><path class="cls-2" d="M32.65,41.63l-.5.47c-2,1.87-9.95,8.75-15.22,8.3a4.41,4.41,0,0,1-1.75-.5A4.53,4.53,0,0,1,13.3,48s0,0,0,0c-.09-.49-.45-4.76-.65-7.36,0,0,0-.08,0-.11-.09-1.11-.15-1.88-.15-1.88a1.83,1.83,0,0,0,.16-.16h0c1.08-1.06,6.84-7,7.63-13.95,0,0,.36-2.5,2,.31h0A12.94,12.94,0,0,0,27,32.05a9.36,9.36,0,0,0,1.1.7c1.6.87,1.45,2.15.49,3.43a15.91,15.91,0,0,1-6.82,4.56l-.35.07c.39.06.91.13,1.52.2a30.63,30.63,0,0,0,8.49.1,10.89,10.89,0,0,0,1.22-.27h0a6.07,6.07,0,0,0,1.65-.73l.07,0h0c.58-.38,1-.61,1.18-.74,0,0,0,0,0,0C36.8,38.62,32.65,41.63,32.65,41.63Z"/><path class="cls-3" d="M50.47,17.15V46.23a4.64,4.64,0,0,1-4.62,4.63H17.27a4.64,4.64,0,0,1-4.62-4.62V17.15a4.64,4.64,0,0,1,4.62-4.62H45.85"/><circle class="cls-4" cx="50.52" cy="13.82" r="1"/><path class="cls-3" d="M25.49,32.72a12.24,12.24,0,0,1-3.36-1.85,5.4,5.4,0,0,1-1.82-3.77c0-.58-.2-3.5.78-3.43.16,0,.3.15.4.27a11,11,0,0,0,.81.87h0a12,12,0,0,0,8.89,3.36A4.94,4.94,0,0,1,38.42,23a6.15,6.15,0,0,0,1.58.79,3.9,3.9,0,0,0,1.23,0l3-.34a18.05,18.05,0,0,0-2.56,3.93,18.35,18.35,0,0,0-.93,4.15,12.2,12.2,0,0,1-5.16,7.79s0,0,0,0A9.7,9.7,0,0,1,34.4,40h0a11.07,11.07,0,0,1-1.72.78h0l-.55.19-.61.17A18.33,18.33,0,0,1,22.91,41l-1.17-.27-1.37-.38a10.48,10.48,0,0,0,4.76-1.46c.29-.17.59-.41.55-.73a.83.83,0,0,0-.38-.56,13.92,13.92,0,0,1-2.67-3.16"/></svg>