<svg id="Layer_1" data-name="Layer 1" xmlns="http://www.w3.org/2000/svg" viewBox="0 0 64 64"><defs><style>.cls-1{fill:#389ad6;}.cls-2{fill:#9ac8f1;}.cls-3,.cls-5,.cls-6{fill:none;stroke-linecap:round;stroke-linejoin:round;stroke-width:2px;}.cls-3{stroke:#295183;}.cls-4{fill:#295183;}.cls-5{stroke:#2a5080;}.cls-6{stroke:#9ac8f1;}</style></defs><title>value, diamond, gem, jewel, jeweller</title><path class="cls-1" d="M30.71,38.49,27,28.11l-7.8.29L30,38.95A.43.43,0,0,0,30.71,38.49Zm-4.63-4.95-3.32-3.23a.53.53,0,0,1,.34-.9l1.43-.05a.52.52,0,0,1,.51.34l1.31,3.67A.16.16,0,0,1,26.08,33.54Z"/><path class="cls-2" d="M27.81,22.16,26,25.85l-3-5.55L26.37,20A1.48,1.48,0,0,1,27.81,22.16Z"/><path class="cls-2" d="M37.84,22.33,36.06,26l-3-5.55,3.37-.25A1.48,1.48,0,0,1,37.84,22.33Z"/><path class="cls-1" d="M32.65,21.4l2.43-2.3.56,4.11a.66.66,0,0,1-.84.72l-1.67-.5A1.21,1.21,0,0,1,32.65,21.4Z"/><path class="cls-2" d="M30.67,25.2,31.31,24a.51.51,0,0,1,.91,0L33,25.7a.51.51,0,0,1-.46.73l-1.12,0A.83.83,0,0,1,30.67,25.2Z"/><path class="cls-1" d="M22,19.86l-1.65,3.09s2.08,1.86.2,5l5.91-.28Z"/><path class="cls-2" d="M28.36,30.13l3.12,7.43a.9.9,0,0,0,1.66,0l3.06-7.43a1.46,1.46,0,0,0-1.35-2H29.71A1.46,1.46,0,0,0,28.36,30.13Z"/><path class="cls-1" d="M43.25,22.84s-2.25,4.25-2.5,5,4.08,0,4.08,0Z"/><path class="cls-2" d="M42.24,31.11a1.17,1.17,0,0,0-.48-2c-1.46-.41-3.38-.58-4.25,1a61.84,61.84,0,0,0-3,7,.39.39,0,0,0,.64.42Z"/><path class="cls-3" d="M22.23,19.86,24.61,24,27,28.11H18.66a.71.71,0,0,1-.68-.58"/><polygon class="cls-3" points="26.99 28.1 24.61 23.98 22.23 19.86 26.99 19.86 31.75 19.86 29.37 23.98 26.99 28.1"/><polygon class="cls-3" points="31.75 19.86 34.13 23.98 36.51 28.1 31.75 28.1 26.99 28.1 29.37 23.98 31.75 19.86"/><polyline class="cls-3" points="41.27 19.86 38.89 23.98 36.51 28.1 34.13 23.98 31.75 19.86 35.66 19.86 37.03 19.86"/><line class="cls-3" x1="26.49" y1="37.93" x2="21.6" y2="32.6"/><line class="cls-3" x1="43.65" y1="23.98" x2="43.66" y2="23.99"/><path class="cls-3" d="M26.49,37.92h0l3.84,4.18a1.93,1.93,0,0,0,2.84,0l4.48-4.88.88-1L46,28.11H36.51L38.89,24l2.38-4.12"/><circle class="cls-4" cx="20.03" cy="30.84" r="1"/><circle class="cls-2" cx="29.69" cy="54.48" r="1"/><path class="cls-1" d="M12.64,28c.81,2.68.53,5.55.48,8.35-.05,3.14.26,6.85,2.82,9a3.86,3.86,0,0,0,3.79.84,4.64,4.64,0,0,0,2.49-3.62c.29-1.5.23-3.06.62-4.54.08-.31.35-.69.63-.54a.55.55,0,0,1,.22.4,19.37,19.37,0,0,1-.17,9.1,3.41,3.41,0,0,1-.84,1.68,3,3,0,0,1-2.25.61C14,49,10.56,41.31,10.5,36a23.64,23.64,0,0,1,.65-4.06C11.33,30.92,12.93,28.94,12.64,28Z"/><path class="cls-2" d="M50.25,39.51a19.45,19.45,0,0,1-5.05,9.78,6,6,0,0,0-1.64,2.11,5,5,0,0,0,.16,2.9,1.31,1.31,0,0,1,0,.7,1,1,0,0,1-1.26.39,2.57,2.57,0,0,1-1.07-1,18.83,18.83,0,0,1-1.32-2.23,4.56,4.56,0,0,1-.63-2.39l-1.92-2.39.54-7.54v.44c0,2.14.19,9,3.19,7.05,2.83-2.26,5.58-5,6.23-8.46a23.11,23.11,0,0,0,.32-5q0-1.26-.16-2.53a3.51,3.51,0,0,1,0-1.59c.35-.65,1.14.25,1.33.56a11,11,0,0,1,1.43,4.15A14.13,14.13,0,0,1,50.25,39.51Z"/><path class="cls-5" d="M44.25,25.88a2.17,2.17,0,0,1,0-3.06h0a2.17,2.17,0,0,1,3.06,0s9.74,6.28,5.76,19.75"/><path class="cls-5" d="M37.54,47a1.72,1.72,0,0,1,0-.33V38.07a2.06,2.06,0,0,1,2.16-1.94,2.21,2.21,0,0,1,1.52.58,1.81,1.81,0,0,1,.64,1.36v7.16"/><path class="cls-5" d="M44.22,25.85A11.52,11.52,0,0,1,47.12,29a11.17,11.17,0,0,1,1.68,5.91c0,.11,0,.21,0,.32a11.23,11.23,0,0,1-7,10.09"/><path class="cls-5" d="M19.75,25.88a2.17,2.17,0,0,0,0-3.06h0a2.17,2.17,0,0,0-3.06,0S6.94,29.1,10.93,42.57"/><path class="cls-5" d="M22.16,45.23V38.66a1.81,1.81,0,0,1,.64-1.36,2.21,2.21,0,0,1,1.52-.58,2.06,2.06,0,0,1,2.16,1.94v13"/><path class="cls-5" d="M19.78,25.85A11.52,11.52,0,0,0,16.88,29a11.17,11.17,0,0,0-1.68,5.91c0,.11,0,.21,0,.32a11.23,11.23,0,0,0,7,10.09"/><line class="cls-5" x1="37.51" y1="46.67" x2="37.51" y2="52"/><line class="cls-6" x1="29.69" y1="46.52" x2="29.69" y2="51.15"/><line class="cls-6" x1="34.03" y1="45.33" x2="34.03" y2="53.77"/><line class="cls-6" x1="31.72" y1="8.52" x2="31.72" y2="13.15"/><line class="cls-6" x1="17.78" y1="12.2" x2="21.05" y2="15.47"/><line class="cls-6" x1="45.67" y1="12.2" x2="42.39" y2="15.47"/></svg>