<svg id="Layer_1" data-name="Layer 1" xmlns="http://www.w3.org/2000/svg" viewBox="0 0 64 64"><defs><style>.cls-1{fill:#9ac8f1;}.cls-2{fill:none;stroke:#295183;stroke-linecap:round;stroke-linejoin:round;stroke-width:2px;}.cls-3{fill:#295183;}</style></defs><title>vanity, mirror, furniture, reflection, interior</title><path class="cls-1" d="M30,50s3.77,1.2,0,3.25S21.58,52.9,22.46,51,30,50,30,50Z"/><path class="cls-2" d="M41.8,14A14,14,0,1,1,37,10.88"/><path class="cls-2" d="M49.14,24a17.14,17.14,0,0,1-34.27,0"/><path class="cls-2" d="M32,50H24.46a2,2,0,0,0-2,2h0a2,2,0,0,0,2,2h15a2,2,0,0,0,2-2h0a2,2,0,0,0-2-2H37.25"/><line class="cls-2" x1="31.97" y1="49.98" x2="32" y2="41.12"/><path class="cls-1" d="M31,12.63a5.7,5.7,0,0,1,.71-.06c2.08,0,4.15,1.62,3.77,3.84s-2.33,3.82-4.11,4.87c-1.6.94-3,2.78-1.85,4.66a3.9,3.9,0,0,0,2.88,1.67c1.74.22,3.45-.73,5.17-.82a2.93,2.93,0,0,1,2.89,3.35c-.13,2.31-2.31,3.82-4.36,4.4a14.4,14.4,0,0,1-2.47.44c-4.06.4-8.18-.7-10.62-4.16a11.85,11.85,0,0,1-2.11-9.16A12.25,12.25,0,0,1,31,12.63Z"/><circle class="cls-3" cx="34.59" cy="49.98" r="1"/><circle class="cls-3" cx="39.69" cy="12.4" r="1"/><path class="cls-2" d="M22.75,20a6.29,6.29,0,0,1,3.92-4"/></svg>