<svg id="Layer_1" data-name="Layer 1" xmlns="http://www.w3.org/2000/svg" viewBox="0 0 64 64"><defs><style>.cls-1{fill:#a8d2f0;}.cls-2{fill:#3897d3;}.cls-3{fill:none;stroke:#2a5081;stroke-linecap:round;stroke-linejoin:round;stroke-width:2px;}.cls-4{fill:#2a5081;}</style></defs><title>virtual, reality, goggles, visual</title><path class="cls-1" d="M40.76,23.27c-.26-.59-5.44-13.49-16.85-7S32.47,24,32.47,24Z"/><path class="cls-1" d="M38,22s-7-1-7.47,3-2.36,11.72,6.3,11.11,8.08-2.69,4.33-4-2.76-7.1-.84-8.38S38,22,38,22Z"/><path class="cls-2" d="M23.86,15.53s9.58-2.37,11.11,6c0,0-5.81,13.42.19,16s5.34,6,4.81,8.23S28.27,42.37,27.47,41s-3,5.33,1,8-9.73,5.75-9.73-5.37S17.63,18.91,23.86,15.53Z"/><path class="cls-3" d="M45.69,36.14,43,45.76H37.57s-11.34-1.37-11.34-8.5"/><path class="cls-3" d="M43.19,18.28a13.66,13.66,0,0,0-1.46-1.73,13.44,13.44,0,0,0-23,9.5V46.66"/><path class="cls-3" d="M18.77,31.77h8.18s1,4.37,6.75,4.37H46.4a3.82,3.82,0,0,0,3.82-3.82V25.84A3.82,3.82,0,0,0,46.4,22h-13s-4.12.38-6.5,2.75H22.23"/><path class="cls-3" d="M35.47,25c-3.24,0-3,3.64-3,3.64v4"/><circle class="cls-4" cx="18.77" cy="49.53" r="1"/></svg>