<svg id="Layer_1" data-name="Layer 1" xmlns="http://www.w3.org/2000/svg" viewBox="0 0 64 64"><defs><style>.cls-1{fill:#a8d2f0;}.cls-2{fill:#3897d3;}.cls-3{fill:none;stroke:#2a5081;stroke-linecap:round;stroke-linejoin:round;stroke-width:2px;}.cls-4{fill:#2a5081;}.cls-5{fill:#9dcbf4;}</style></defs><title>virtual, reality, visual, front, person</title><path class="cls-1" d="M14.41,28.61S37.53,35.1,37.78,42.35s-15.56,5.19-17.26,4.73-7.86-1.49-7.46-9.78S11.43,27.69,14.41,28.61Z"/><path class="cls-2" d="M41.39,21.35s-.94,9.21.53,9.9,12.81-5,4.21-8.44S41.39,21.35,41.39,21.35Z"/><path class="cls-2" d="M17.5,30.26s1.68,7.82,5.37,9,5.62,9.26-4.37,6.7-4.81-10.62-4.81-10.62l-.28-7Z"/><path class="cls-3" d="M40.78,27.49V21.21c5.33,1,8.89,3,8.89,5.14"/><path class="cls-3" d="M21.94,24.49V21.21c-5.33,1-8.89,3-8.89,5.14s3.56,4.09,8.89,5.14c0,0,7.51,1.83,18.84,0,5.36-.87,8.89-3,8.89-5.14v15.9c0,2.18-3.56,4.09-8.89,5.14a48.79,48.79,0,0,1-9.42.86,48.79,48.79,0,0,1-9.42-.86c-5.33-1.05-8.89-3-8.89-5.14V26.35"/><circle class="cls-4" cx="21.94" cy="27.88" r="1"/><path class="cls-5" d="M31.86,16.33c-.44,0,.08,2.34.1,2.56a9.19,9.19,0,0,1-.09,2c-.18,1.68,0,3.39-.3,5-.25,1.2-.88,2.58-2.33,2.44-3.16-.31.29-9.17.73-9s0-3,0-3Z"/><line class="cls-3" x1="28.09" y1="22.1" x2="25.63" y2="28.05"/><path class="cls-3" d="M31.68,20.06h1a2.13,2.13,0,0,1,2.13,2.13v5.47a1.5,1.5,0,0,1-1.5,1.5h-3.7a1.51,1.51,0,0,1-1.5-1.5V22.1"/><path class="cls-3" d="M31.56,15.75a2.16,2.16,0,1,0,0,4.31"/><line class="cls-3" x1="34.6" y1="21.31" x2="37.18" y2="28.05"/></svg>