<svg id="Layer_1" data-name="Layer 1" xmlns="http://www.w3.org/2000/svg" viewBox="0 0 64 64"><defs><style>.cls-1{fill:#389ad6;}.cls-2{fill:#a8d2f0;}.cls-3{fill:none;stroke:#295183;stroke-linecap:round;stroke-linejoin:round;stroke-width:2px;}.cls-4{fill:#295183;}</style></defs><title>washing, dishes, plate, bottle, clean</title><path class="cls-1" d="M37.8,18.37s-5-.18-5.16,8-1.53,17.94,1,23.85,2.64-23.85,2.64-23.85Z"/><path class="cls-2" d="M28,14s3.7-.31,2.48,1.81S14,17,15.35,36.62c0,0,3.5,9.84,13.86,10.7s5.14,4.22-2.15,3.13S11,38.67,12.21,30.72,19.89,14,28,14Z"/><path class="cls-3" d="M14.09,40.09A18.75,18.75,0,0,0,35.58,50.35"/><path class="cls-3" d="M35.58,42.39a11,11,0,0,1-4.5,1"/><path class="cls-3" d="M36.07,22.17a11.18,11.18,0,0,0-16.18,10v.76a3.78,3.78,0,0,1-7.55,0v-.76A18.73,18.73,0,0,1,42,17"/><circle class="cls-4" cx="28" cy="42.84" r="0.94"/><path class="cls-2" d="M40.56,17.72c1.2.28,1.74,1.75,1.59,3a34.07,34.07,0,0,1-1.08,3.53,6.57,6.57,0,0,0,1.29,5.62,4.29,4.29,0,0,1,.92,1.34A2.68,2.68,0,0,1,42,33.88a10.35,10.35,0,0,0-2.46,2A5.26,5.26,0,0,0,39,39.59a21.11,21.11,0,0,0,1.38,5.19A6.65,6.65,0,0,0,43,48.24,8.42,8.42,0,0,0,46.4,49a6.87,6.87,0,0,1,3.28,1c1.05.74,1.65,2.31.62,3.35-.79.8-2.09.77-3.12.72l-11.32-.51-.42-17.41a17.58,17.58,0,0,1,.07-2.67,20.68,20.68,0,0,1,.66-2.83,5.77,5.77,0,0,0,.29-1.88,6.07,6.07,0,0,0-.24-1.19l-.8-3c-.09-.35-.4-1-.3-1.31s.81-.84,1.07-1.11Z"/><path class="cls-1" d="M42.8,53.05c-.19.65-1.59,1.36-2.46,1.5a4.26,4.26,0,0,1-4.8-2.28,6.47,6.47,0,0,1-.43-2.71c.15-6-.76-16.62,1.28-17.05,0-.13,0-.26,0-.4,0-1.18-.08-2.12,1.54-.94a8.19,8.19,0,0,1,1.75,1.32c1.12,1.39-1,.95-1.42,1.61a.71.71,0,0,0-.08.34c-.17,2.77-.28,5.58-.23,8.36,0,2.32-.1,5.42,1.05,7.53a2,2,0,0,0,.44.59C40,51.39,43,52.2,42.8,53.05Z"/><path class="cls-3" d="M50.66,29.27a8.05,8.05,0,0,1,1.25,4.3V52.13a2,2,0,0,1-2,2H37.53a2,2,0,0,1-2-2V33.57a8,8,0,0,1,1.24-4.3"/><path class="cls-3" d="M49.5,27.81a7.92,7.92,0,0,1,1.16,1.46"/><path class="cls-3" d="M45.62,17a8.16,8.16,0,0,1,5,12.26"/><path class="cls-3" d="M40.32,32.37a8.25,8.25,0,0,1-3.5-3.1A8.14,8.14,0,0,1,35.58,25a8,8,0,0,1,.49-2.79,8.15,8.15,0,0,1,5.41-5.05c.18-.06.37-.09.55-.14h0"/><path class="cls-3" d="M41.91,12.18a2.07,2.07,0,0,1,1.64-.81h0a2.07,2.07,0,0,1,2.07,2.07"/><line class="cls-3" x1="45.62" y1="13.43" x2="45.62" y2="17.01"/><line class="cls-3" x1="43.55" y1="11.37" x2="43.55" y2="9.38"/></svg>