<svg id="Layer_1" data-name="Layer 1" xmlns="http://www.w3.org/2000/svg" viewBox="0 0 64 64"><defs><style>.cls-1{fill:#a8d2f0;}.cls-2{fill:#389ad6;}.cls-3,.cls-4{fill:none;}.cls-4{stroke:#295183;stroke-linecap:round;stroke-linejoin:round;stroke-width:2px;}.cls-5{fill:#295183;}</style></defs><title>weather, forecast, direction, compass</title><path class="cls-1" d="M25.56,17.37c-.87,6.45-1.73,22.73,10.26,29.37A1.77,1.77,0,0,1,35.15,50C27.56,51,15,50,13.05,33.13a1.9,1.9,0,0,1,0-.21c0-1.24.11-13.46,10.07-17.41A1.77,1.77,0,0,1,25.56,17.37Z"/><path class="cls-2" d="M30.32,35l1,4.45a3.2,3.2,0,0,0-.22.72c-.1.46-.19.92-.29,1.38-.13.68-.39,1.49-1.06,1.67s-1.32-.44-1.55-1.11S28,40.72,27.84,40s-.76-1.33-1.45-1.26c-.34,0-.62.27-1,.32-.78.16-.31-1.79-.46-2.13a1.67,1.67,0,0,0-1.08-.82c-.91-.27-3.85-.37-3.06-2.07a1.68,1.68,0,0,1,1.07-.76,9.87,9.87,0,0,1,1.4-.32,3.94,3.94,0,0,0,1.26-.32l4.44,1,1.07.23Z"/><path class="cls-2" d="M30.32,28.31l-.24,1.07L29,29.62,27.26,30a1.83,1.83,0,0,0,.52-.8A6,6,0,0,0,28,28c0-.26.07-.5.12-.74a1.26,1.26,0,0,1,.1-.29Z"/><path class="cls-2" d="M34.62,29.37l0-.2.69-.43a2.66,2.66,0,0,1-.38.7Z"/><line class="cls-3" x1="33.74" y1="37.87" x2="33.45" y2="39.16"/><path class="cls-2" d="M37,35.79A4.71,4.71,0,0,1,36,36a7.51,7.51,0,0,0-1,.17,2.43,2.43,0,0,0-.37.13,2,2,0,0,0-.62.47l.4-1.78.23-1.07,1.07-.23Z"/><polyline class="cls-4" points="32 20.86 30.47 27.68 30.17 28.99 29.95 29.95 28.99 30.17 27.42 30.52 26.41 30.75 25.24 31.01 20.86 32 25 32.93 28.99 33.83 29.95 34.04 30.17 35.01 31.07 39.01 32 43.14 32.99 38.75 33.25 37.59 33.47 36.6 33.83 35 34.04 34.04 35 33.83 36.27 33.54 43.14 32 35.01 30.17 34.28 30.01 34.04 29.95 34 29.77 33.83 28.99 33.38 26.98"/><polygon class="cls-4" points="30.17 28.99 29.95 29.95 28.99 30.17 28.09 28.74 26.98 26.98 28.29 27.81 30.17 28.99"/><polygon class="cls-4" points="30.17 35.01 26.98 37.02 28.99 33.83 29.95 34.04 30.17 35.01"/><polygon class="cls-4" points="37.02 37.02 35.26 35.91 33.83 35 34.04 34.04 35 33.83 36.2 35.72 37.02 37.02"/><polygon class="cls-4" points="37.02 26.98 35.01 30.17 34.28 30.01 34.04 29.95 34 29.77 33.83 28.99 37.02 26.98"/><path class="cls-4" d="M38.42,14.13A19.08,19.08,0,1,1,32,13a19.19,19.19,0,0,1,2,.11"/><circle class="cls-5" cx="32.03" cy="16.99" r="1"/><circle class="cls-5" cx="47.01" cy="32.03" r="1"/><circle class="cls-5" cx="31.97" cy="47.01" r="1"/><circle class="cls-5" cx="16.99" cy="31.97" r="1"/></svg>