<svg id="Layer_1" data-name="Layer 1" xmlns="http://www.w3.org/2000/svg" viewBox="0 0 64 64"><defs><style>.cls-1{fill:#a8d2f0;}.cls-2{fill:#389ad6;}.cls-3{fill:none;stroke:#295183;stroke-linecap:round;stroke-linejoin:round;stroke-width:2px;}.cls-4{fill:#295183;}</style></defs><title>webcam, camera, cam, video</title><path class="cls-1" d="M30.22,13.83s7.27,2.76.64,7.51c0,0-7.44-.08-4.64,10,0,0,2.72,4.1,8.64,2.68s4.75,8.26-3.17,7S18.85,36.26,18.52,29.18,22.42,13.74,30.22,13.83Z"/><path class="cls-2" d="M19.6,22.33a4.65,4.65,0,0,1,.4-.45,1.69,1.69,0,0,1,2-.51,1.83,1.83,0,0,1,.65,1.37c.25,2-.15,4,0,5.93a9.14,9.14,0,0,0,5,7.38c2.54,1.19,5.61,1,8,2.51a2,2,0,0,1,1,1.08,1.89,1.89,0,0,1-.3,1.38c-1,1.8-3.12,2.81-4.14,4.62a2.26,2.26,0,0,0,.06,2.68,3.8,3.8,0,0,0,2.15.64c.75.12,1.62.56,1.63,1.32s-.83,1.23-1.56,1.45a13.43,13.43,0,0,1-8.93-.42,3,3,0,0,1-1.12-.7c-.71-.79-.51-2-.16-3a15.53,15.53,0,0,1,2.94-5.09c.36-.41,1.09-1.11.6-1.68a10.08,10.08,0,0,0-1.94-1.29c-.71-.51-1.41-1-2.07-1.62A18.87,18.87,0,0,1,20.28,34a11.52,11.52,0,0,1-1.65-9.84A6.44,6.44,0,0,1,19.6,22.33Z"/><path class="cls-2" d="M35.63,21.76s-3.31-.62-2.06,2,2.91,2.63,1.8,5.31-2.06,3.86,0,3.88S40.69,24.38,35.63,21.76Z"/><path class="cls-3" d="M32.19,41a13.92,13.92,0,0,1-4-.59,13.67,13.67,0,1,1,8,0"/><path class="cls-3" d="M32.19,20.69a6.67,6.67,0,1,0,4,1.36"/><path class="cls-3" d="M35.36,27.35a3.17,3.17,0,1,1-3.17-3.17"/><path class="cls-3" d="M36.19,40.43l1.21,2.09,3.07,5.31a2.48,2.48,0,0,1-2.15,3.72H26.06a2.48,2.48,0,0,1-2.15-3.72l1.17-2.07"/><circle class="cls-4" cx="26.53" cy="43.24" r="1"/></svg>