<svg id="Layer_1" data-name="Layer 1" xmlns="http://www.w3.org/2000/svg" viewBox="0 0 64 64"><defs><style>.cls-1{fill:#9dcbf4;}.cls-2{fill:#389ad6;}.cls-3{fill:none;stroke:#2a5081;stroke-linecap:round;stroke-linejoin:round;stroke-width:2px;}.cls-4{fill:#2a5081;}</style></defs><title>whatsapp, social, media, network</title><path class="cls-1" d="M41.93,50.06s-12.11,1.25-19.36,1c-5.6-.22-8.79,2-9.92-3.44a27,27,0,0,1-.44-4.75c0-.71,0-1.48,0-2.32.07-14,.67-25.53.67-25.53s1.55-2.16,10.94-2.22a51.32,51.32,0,0,0,.28,10.53c0,.13,0,.26.05.39a22,22,0,0,0-2.54,3.67c-2.44,5,.54,10.33.54,10.33L20.6,43.4l4.92-1.31s1.39.13,6.34.72a24.47,24.47,0,0,0,2.41,2.48A25.62,25.62,0,0,0,41.93,50.06Z"/><path class="cls-2" d="M25.23,22.68a2.81,2.81,0,0,1,.8-.39C26.11,22.27,25.82,22.39,25.23,22.68Z"/><path class="cls-2" d="M37.94,42.42a11.4,11.4,0,0,1-3.67,3.81C28,50.6,17,52.08,14.42,50.62a4.17,4.17,0,0,1-1.77-2,9.46,9.46,0,0,1-.44-4.95c0-.16,0-.24,0-.24-.28-11.69,8-17.89,11.82-20.12.46-.27.85-.48,1.16-.65a7.37,7.37,0,0,0-1.11,1.05,23.05,23.05,0,0,0-2.54,3.82c-2.44,5.24.54,10.76.54,10.76L20.6,44.27l4.92-1.36s1.39.14,6.34.75l.17,0C36.27,44.22,37.61,42.88,37.94,42.42Z"/><path class="cls-3" d="M50.39,17.46V46.54a4.64,4.64,0,0,1-4.62,4.63H17.18a4.64,4.64,0,0,1-4.62-4.62V17.46a4.64,4.64,0,0,1,4.62-4.63H45.77"/><circle class="cls-4" cx="50.44" cy="14.13" r="1"/><path class="cls-3" d="M30.3,28.31l-1.95-1.95-.87.87a3.07,3.07,0,0,0,0,4.34l4.78,4.78a3.07,3.07,0,0,0,4.34,0l.87-.87L36,34"/><path class="cls-3" d="M43.4,32a11.4,11.4,0,0,1-17.09,9.88l-2.59.69-3.12.83.83-3.12.69-2.59A11.4,11.4,0,1,1,43.4,32Z"/></svg>