<svg id="Layer_1" data-name="Layer 1" xmlns="http://www.w3.org/2000/svg" viewBox="0 0 64 64"><defs><style>.cls-1{fill:#9ac8f1;}.cls-2{fill:#3897d3;}.cls-3{fill:none;stroke:#2a5080;stroke-linecap:round;stroke-linejoin:round;stroke-width:2px;}.cls-4{fill:#2a5080;}</style></defs><title>windmill, holland, netherlands, world, monument</title><path class="cls-1" d="M31.35,27.05,26.1,32.57,21.41,37.5s-6.24-1.5-2.58-2c2-.28,3.68-2.3,4.87-3.79A16.52,16.52,0,0,0,27,26.32c.38-1.3.55-4.09,2.33-4.28,1.59-.17,1.95,2,2,3.82C31.36,26.29,31.36,26.69,31.35,27.05Z"/><path class="cls-1" d="M33.38,50.25s-10.9,2.63-10.05-.75,2.7-16,2.7-16,0-.35.07-.93l5.25-5.52c0,.44,0,.8,0,1a56.57,56.57,0,0,1-.64,7.69c-.4,2.5-1.64,5.09-1.44,7.64.19,2.39,1.59,3.1,3.34,4.27C33.35,48.21,34.35,49.41,33.38,50.25Z"/><path class="cls-2" d="M28.53,31.5s2.63-1.33.63,5.13-1.59,11.51-.25,12.87-5.25,1.73-5.25,1.73S25,33.08,28.53,31.5Z"/><path class="cls-3" d="M28.3,23.21a4.34,4.34,0,0,1,5.64-1.65,4.25,4.25,0,0,1,1.74,1.62l0,0"/><path class="cls-3" d="M23.33,51.12c0-.21.08-.43.11-.65l.3-1.75c.14-.87.29-1.74.44-2.6l.54-3.2c.19-1.18.39-2.35.59-3.53s.41-2.41.61-3.61.37-2.24.57-3.36"/><path class="cls-3" d="M39,41.19l.3,1.74.54,3.2c.14.87.29,1.73.43,2.6l.3,1.75c0,.22.07.43.11.64H28.5"/><polyline class="cls-3" points="32 26.92 32 26.91 35.7 23.22 43.39 15.52 47.03 19.16 41.9 24.3"/><polyline class="cls-3" points="36.01 38.21 39.76 41.95 43.39 38.31 37.53 32.45 32 26.92"/><polyline class="cls-3" points="21.09 30.54 16.97 34.66 20.61 38.3 26.49 32.42 32 26.92 32 26.91 28.3 23.21 20.61 15.51 24.24 11.88 27.87 15.5"/><circle class="cls-4" cx="26.03" cy="51.12" r="1"/></svg>